<svg shape-rendering="geometricPrecision" xmlns="http://www.w3.org/2000/svg" width="1600" height="1502" viewBox="0 0 1600 1502" version="1.1">
	<rect x="0" y="0" width="100%" height="100%" fill="#ffffff" />
	<path d="M 587.344 204.041 C 585.058 204.494, 581.458 205.740, 579.344 206.811 C 577.230 207.882, 572.125 210.162, 568 211.878 C 563.301 213.832, 558.633 216.724, 555.500 219.621 C 552.644 222.263, 546.877 225.944, 542.052 228.206 C 537.406 230.384, 532.564 232.984, 531.293 233.984 C 528.755 235.980, 514.371 257.002, 512.807 261 C 512.269 262.375, 510.071 269.205, 507.923 276.177 C 505.774 283.150, 502.440 292.313, 500.513 296.541 C 495.529 307.478, 493.346 315.195, 492.019 326.567 C 489.952 344.283, 487.146 346.915, 474.340 343.147 C 470.140 341.911, 463.733 339.460, 460.102 337.700 C 453.937 334.712, 452.805 334.502, 443 334.534 C 433.075 334.565, 432.089 334.762, 425 338.123 C 416.133 342.327, 412.063 345.576, 407.785 351.865 C 406.051 354.414, 402.756 358.666, 400.463 361.314 C 397.758 364.438, 395.143 369.178, 393.013 374.814 C 391.209 379.591, 388.033 386.897, 385.956 391.049 C 378.474 406.007, 377.493 410.960, 377.553 433.500 C 377.613 456.235, 379.344 467.113, 384.924 479.827 C 386.662 483.786, 389.464 492.307, 391.151 498.763 C 394.310 510.848, 396.277 515.584, 401.013 522.500 C 402.519 524.700, 405.780 530.840, 408.258 536.145 C 410.737 541.450, 414.555 547.750, 416.743 550.145 C 418.931 552.540, 423.523 558.462, 426.947 563.304 C 430.372 568.146, 435.548 573.996, 438.448 576.304 C 441.348 578.612, 448.206 584.550, 453.687 589.500 C 468.204 602.611, 475.049 608.090, 479 609.763 C 488.613 613.835, 499.001 616.292, 509.216 616.911 C 519.317 617.523, 520.111 617.730, 523.057 620.530 C 526.840 624.124, 537.463 641.933, 541.391 651.266 C 543.522 656.328, 546.512 660.548, 553.267 668.026 C 558.233 673.523, 563.810 678.955, 565.660 680.099 C 567.510 681.242, 570.906 683.750, 573.207 685.673 C 575.508 687.596, 580.116 690.530, 583.446 692.193 C 595.550 698.239, 597.514 701.589, 597.405 716 C 597.361 721.775, 596.586 730.550, 595.682 735.500 C 594.778 740.450, 593.136 753.725, 592.032 765 C 588.438 801.721, 588.604 800.844, 582.920 813.077 C 578.775 821.997, 577.216 826.940, 574.957 838.334 C 571.617 855.185, 571.695 854.954, 566.798 862.239 C 564.676 865.396, 561.337 872.596, 559.378 878.239 C 556.651 886.098, 554.458 890.304, 550.013 896.205 C 546.799 900.471, 543.035 906.982, 541.578 910.796 C 540.087 914.699, 537.074 919.876, 534.624 922.746 C 532.246 925.532, 528.123 931.566, 525.461 936.155 C 521.462 943.050, 517.481 947.596, 502.560 962.312 C 492.627 972.108, 481.800 982.531, 478.500 985.473 C 475.200 988.415, 470.025 993.154, 467 996.004 C 451.749 1010.374, 421.706 1028.388, 414.008 1027.777 C 409.746 1027.439, 409.430 1026.311, 410.995 1017.029 C 412.171 1010.058, 413.812 1006.827, 422.686 994.009 C 425.279 990.265, 428.075 984.264, 430.030 978.250 C 433.565 967.377, 434.976 964.323, 439.200 958.400 C 440.808 956.145, 444.292 948.386, 446.942 941.159 C 449.592 933.931, 453.579 924.976, 455.803 921.259 C 458.026 917.541, 461.053 910.450, 462.530 905.500 C 464.007 900.550, 467.170 891.550, 469.559 885.500 C 471.949 879.450, 474.370 872.393, 474.941 869.818 C 476.836 861.263, 477.282 848.615, 476.065 837.967 C 474.709 826.112, 473.316 820.688, 468.577 808.816 C 466.751 804.242, 464.712 798.025, 464.046 795 C 461.753 784.597, 459.740 779.489, 455.967 774.500 C 453.888 771.750, 450.316 765.548, 448.030 760.717 C 445.512 755.397, 441.731 749.533, 438.440 745.845 C 435.452 742.495, 431.630 737.348, 429.946 734.406 C 428.263 731.464, 424.447 726.974, 421.466 724.427 C 418.485 721.880, 414.724 717.648, 413.108 715.022 C 411.492 712.395, 408.191 708.825, 405.772 707.088 C 403.354 705.351, 399.691 701.674, 397.632 698.917 C 395.574 696.161, 391.552 692.398, 388.695 690.556 C 385.838 688.714, 382.150 685.762, 380.500 683.995 C 378.850 682.229, 374.290 678.604, 370.366 675.940 C 366.443 673.276, 361.110 669.259, 358.516 667.014 C 352.579 661.876, 347.317 659.240, 333.593 654.531 C 325.847 651.874, 321.702 650.949, 319.291 651.340 C 313.892 652.216, 302.107 658.084, 299.483 661.202 C 298.154 662.781, 295.443 669.288, 293.409 675.777 C 291.388 682.225, 288.188 690.588, 286.298 694.361 C 281.569 703.806, 278.308 719.836, 274.987 749.963 C 274.263 756.535, 272.418 764.903, 270.026 772.463 C 263.416 793.357, 261.416 808.421, 262.329 830.441 C 263.058 848.027, 265.110 857.652, 270.765 870 C 272.906 874.675, 275.672 881.264, 276.910 884.642 C 278.240 888.268, 281.979 894.493, 286.038 899.839 C 289.819 904.820, 294.014 911.056, 295.361 913.697 C 297.764 918.413, 315.121 936.992, 322 942.212 C 328.756 947.338, 341.687 960.556, 345.358 966.086 C 347.397 969.159, 350.448 972.694, 352.137 973.943 C 358.984 979.005, 362.461 993.765, 360.063 1007.586 C 358.423 1017.035, 356.249 1021.525, 348.004 1032.495 C 340.780 1042.106, 335.589 1047.207, 328.500 1051.659 C 326.300 1053.041, 320.268 1056.861, 315.096 1060.149 C 309.767 1063.536, 301.099 1067.845, 295.096 1070.092 C 289.268 1072.273, 282.025 1075.535, 279 1077.339 C 271.190 1081.999, 269.572 1082.585, 253.708 1086.514 C 244.651 1088.757, 236.046 1091.664, 229.974 1094.532 C 223.359 1097.657, 216.788 1099.806, 208.474 1101.563 C 188.979 1105.685, 181.097 1107.919, 169.928 1112.489 C 164.113 1114.869, 154.090 1118.193, 147.655 1119.875 C 139.875 1121.910, 134.463 1123.961, 131.503 1125.998 C 129.054 1127.683, 124.002 1130.669, 120.275 1132.633 C 110.271 1137.908, 105.439 1141.905, 102.303 1147.500 C 99.844 1151.885, 99.500 1153.545, 99.500 1161 C 99.500 1169.059, 99.686 1169.786, 103.079 1175 C 105.047 1178.025, 109.495 1183.338, 112.964 1186.806 C 127.719 1201.557, 146.270 1205.266, 170.837 1198.377 C 175.602 1197.041, 187.375 1193.934, 197 1191.474 C 211.170 1187.852, 216.784 1185.864, 226.500 1181.027 C 235.599 1176.497, 241.159 1174.463, 249.500 1172.612 C 261.338 1169.985, 267.813 1167.701, 275.150 1163.563 C 277.708 1162.121, 283.558 1159.658, 288.150 1158.089 C 298.237 1154.645, 308.914 1150.356, 319 1145.697 C 323.125 1143.792, 332.171 1140.635, 339.102 1138.682 C 346.034 1136.729, 355.769 1133.302, 360.735 1131.065 C 365.702 1128.829, 375.781 1125.381, 383.133 1123.402 C 391.352 1121.190, 400.351 1117.917, 406.500 1114.902 C 423.233 1106.698, 431.932 1104.997, 463 1103.859 C 477.575 1103.325, 499.850 1103.026, 512.500 1103.194 L 535.500 1103.500 540.151 1106.234 C 550.369 1112.241, 554.963 1120.446, 559.431 1140.676 C 560.935 1147.480, 563.293 1154.618, 565.461 1158.923 C 567.419 1162.811, 570.646 1171.957, 572.631 1179.247 C 576.670 1194.076, 578.210 1197.562, 584.487 1206.089 C 586.887 1209.349, 589.395 1213.701, 590.061 1215.758 C 592.155 1222.234, 594.777 1226.624, 600.758 1233.668 C 603.948 1237.426, 607.856 1242.525, 609.441 1245 C 611.027 1247.475, 615.289 1252.556, 618.912 1256.292 C 625.563 1263.148, 627.161 1264.743, 640.262 1277.608 C 644.243 1281.517, 649.975 1286.288, 653 1288.211 C 656.025 1290.134, 659.397 1292.718, 660.494 1293.952 C 663.049 1296.829, 673.768 1303.085, 681.549 1306.242 C 684.877 1307.592, 689.479 1310.059, 691.776 1311.723 C 696.833 1315.386, 701.358 1317.159, 724 1324.349 C 747.001 1331.653, 755.040 1333.445, 776 1335.937 C 785.625 1337.082, 797.237 1338.484, 801.804 1339.054 C 818.457 1341.132, 829.122 1341.319, 837.718 1339.685 C 849.887 1337.371, 854.433 1335.043, 857.737 1329.435 C 859.257 1326.856, 862.216 1322.043, 864.313 1318.741 C 866.411 1315.439, 869.016 1310.358, 870.104 1307.451 C 874.424 1295.905, 878.365 1294.490, 889.363 1300.535 C 892.900 1302.480, 899.103 1304.986, 903.147 1306.106 C 907.191 1307.225, 913.808 1309.966, 917.851 1312.196 C 927.437 1317.485, 936.845 1319.885, 951.004 1320.655 C 967.113 1321.531, 978.217 1319.180, 998.767 1310.541 C 1002.615 1308.923, 1009.368 1307.321, 1016.267 1306.388 C 1022.445 1305.552, 1032.900 1303.790, 1039.500 1302.471 C 1059.001 1298.574, 1067.420 1297.708, 1080.769 1298.222 C 1096.552 1298.830, 1100.050 1297.995, 1104.504 1292.560 C 1108.307 1287.919, 1111.944 1280.579, 1111.978 1277.478 C 1112.005 1275.028, 1106.694 1253.918, 1103.867 1245.235 C 1102.745 1241.790, 1100.101 1236.673, 1097.990 1233.864 C 1094.166 1228.774, 1091.534 1222.625, 1088.543 1211.788 C 1087.529 1208.116, 1085.209 1203.782, 1082.048 1199.659 C 1079.343 1196.130, 1075.459 1190.600, 1073.416 1187.371 C 1071.373 1184.142, 1067.357 1178.800, 1064.493 1175.500 C 1061.628 1172.200, 1057.579 1166.800, 1055.496 1163.500 C 1053.412 1160.200, 1049.298 1154.946, 1046.354 1151.824 C 1043.409 1148.703, 1041 1145.653, 1041 1145.048 C 1041 1144.442, 1035.938 1138.891, 1029.750 1132.712 C 1021.765 1124.738, 1016.281 1120.213, 1010.855 1117.121 C 1000.872 1111.431, 990.376 1101.990, 989.476 1097.889 C 988.958 1095.531, 989.574 1093.112, 992.075 1087.686 L 995.353 1080.574 993.659 1074.037 C 991.201 1064.555, 988.019 1058.978, 982.945 1055.264 C 980.500 1053.474, 976.025 1049.546, 973 1046.536 C 969.975 1043.525, 964.783 1039.320, 961.463 1037.190 C 958.142 1035.061, 953.057 1031.215, 950.162 1028.644 C 947.267 1026.073, 940.759 1021.892, 935.699 1019.354 C 930.640 1016.816, 924.700 1013.510, 922.500 1012.007 C 915.555 1007.262, 910.847 1005.346, 898 1002.036 C 891.125 1000.266, 881.450 997.316, 876.500 995.481 C 856.337 988.009, 841.239 986.475, 789 986.595 C 751.145 986.682, 746.464 986.879, 735.707 988.835 C 724.011 990.963, 716.053 993.379, 704.500 998.310 C 701.200 999.718, 694.450 1002.018, 689.500 1003.421 C 684.550 1004.824, 676.056 1008.263, 670.625 1011.062 C 665.194 1013.862, 655.519 1017.733, 649.125 1019.665 C 637.363 1023.218, 633.530 1025.037, 629 1029.213 C 625.066 1032.840, 622.077 1034.429, 613.586 1037.407 C 603.468 1040.955, 598.824 1043.919, 595.913 1048.686 C 594.632 1050.784, 592.890 1053.026, 592.042 1053.670 C 591.194 1054.313, 585.423 1056.077, 579.217 1057.590 C 568.734 1060.146, 567.493 1060.251, 561.717 1059.080 C 558.298 1058.387, 545.375 1057.467, 533 1057.035 C 509.773 1056.225, 502.305 1055.099, 499.487 1051.985 C 497.137 1049.389, 497.932 1044.842, 501 1043.334 C 502.375 1042.658, 506.961 1040.465, 511.191 1038.462 C 515.422 1036.459, 521.391 1032.872, 524.457 1030.491 C 527.522 1028.111, 533.081 1024.998, 536.809 1023.573 C 540.537 1022.149, 546.717 1018.967, 550.543 1016.502 C 554.370 1014.038, 561.550 1010.447, 566.500 1008.522 C 571.450 1006.597, 579.325 1002.764, 584 1000.005 C 588.675 997.246, 595.543 993.793, 599.263 992.331 C 603.457 990.683, 608.324 987.683, 612.078 984.432 C 617.318 979.895, 631.101 972, 633.783 972 C 634.281 972, 637.280 969.732, 640.448 966.961 C 643.615 964.189, 649.290 960.368, 653.059 958.470 C 656.828 956.572, 662.146 953.035, 664.878 950.609 C 667.609 948.183, 673.127 944.074, 677.140 941.478 C 681.152 938.883, 686.925 934.602, 689.968 931.965 C 693.010 929.328, 698.074 926.038, 701.220 924.654 C 704.365 923.270, 709.118 920.099, 711.782 917.607 C 714.445 915.116, 720.196 910.765, 724.562 907.939 C 728.928 905.112, 734.075 901.309, 736 899.488 C 737.925 897.666, 742.650 894.494, 746.500 892.440 C 750.350 890.386, 755.800 886.351, 758.611 883.475 C 761.422 880.599, 766.147 877.036, 769.111 875.558 C 772.075 874.080, 776.525 870.936, 779 868.572 C 781.475 866.207, 786.837 862.147, 790.915 859.550 C 794.993 856.952, 800.843 852.457, 803.915 849.560 C 806.987 846.663, 812.035 842.691, 815.132 840.734 C 818.230 838.777, 822.280 835.287, 824.132 832.980 C 825.985 830.673, 829.603 827.718, 832.173 826.414 C 834.744 825.111, 839.005 821.544, 841.643 818.488 C 844.282 815.432, 848.349 811.814, 850.681 810.447 C 853.014 809.080, 856.852 805.705, 859.211 802.948 C 861.570 800.191, 865.525 796.760, 868 795.323 C 870.475 793.886, 875.200 790.159, 878.500 787.041 C 881.800 783.922, 887.200 779.532, 890.500 777.285 C 893.800 775.038, 899.791 770.217, 903.814 766.572 C 907.837 762.927, 912.833 758.868, 914.916 757.553 C 916.999 756.238, 920.193 753.281, 922.014 750.982 C 925.189 746.973, 937.485 738.040, 946.494 733.198 C 948.849 731.932, 953.747 730.403, 957.378 729.802 C 965.834 728.401, 975.095 730.484, 983 735.566 C 986.025 737.510, 993 741.258, 998.500 743.894 C 1004.068 746.563, 1011.095 750.907, 1014.356 753.697 C 1017.577 756.452, 1022.752 760.211, 1025.856 762.050 C 1028.960 763.890, 1033.761 767.485, 1036.525 770.041 C 1039.523 772.814, 1043.868 775.555, 1047.296 776.838 C 1054.631 779.582, 1061.987 783.314, 1068.422 787.555 C 1074.404 791.497, 1086.916 795.280, 1099.500 796.950 C 1104.450 797.607, 1113.957 799.238, 1120.626 800.575 C 1139.098 804.276, 1143.252 804.468, 1152.500 802.048 C 1162.921 799.321, 1177.979 791.952, 1182.370 787.431 C 1184.485 785.254, 1187.477 779.978, 1190.030 773.929 C 1193.537 765.619, 1195.096 763.199, 1199.593 759.089 C 1206.598 752.687, 1210.646 751.370, 1227.500 750.013 C 1235.200 749.393, 1246 748.264, 1251.500 747.505 C 1257 746.745, 1264.875 745.837, 1269 745.486 C 1281.577 744.417, 1305.978 739.081, 1312 736.083 C 1326.598 728.815, 1334.931 723.506, 1340.829 717.714 C 1350.411 708.306, 1352.850 702.342, 1356.569 679.228 C 1357.957 670.601, 1357.941 669.127, 1356.381 661.618 C 1355.441 657.096, 1354.982 652.209, 1355.356 650.717 C 1356.294 646.981, 1369.611 632.582, 1376.227 628.150 C 1379.224 626.143, 1385.614 620.350, 1390.426 615.278 C 1399.747 605.452, 1398.731 607.298, 1411.513 576.957 C 1414.408 570.084, 1416.380 556.312, 1415.516 549 C 1414.439 539.886, 1413.144 536.047, 1406.842 523.283 C 1401.645 512.757, 1399.679 509.905, 1392.633 502.666 C 1387.502 497.394, 1382.416 493.236, 1378.978 491.503 C 1375.965 489.985, 1371.250 487.268, 1368.500 485.467 C 1359.099 479.309, 1351.258 476.977, 1331.500 474.462 C 1324.350 473.552, 1314.976 471.694, 1310.668 470.334 C 1300.266 467.050, 1290.531 465.039, 1284.932 465.017 C 1274.613 464.978, 1264 459.546, 1264 454.304 C 1264 451.642, 1273.576 434.598, 1278.466 428.558 C 1282.565 423.495, 1284.609 419.499, 1287.598 410.713 C 1288.902 406.879, 1291.979 401.073, 1294.517 397.658 C 1297.031 394.275, 1299.819 389.030, 1300.713 386.003 C 1302.683 379.336, 1302.884 366.494, 1301.136 359 C 1296.453 338.914, 1292.554 323.469, 1290.534 317 C 1289.246 312.875, 1287.462 305.268, 1286.569 300.095 C 1284.651 288.976, 1283.155 285.517, 1277.540 279.211 C 1275.233 276.620, 1272.218 272.818, 1270.839 270.762 C 1269.460 268.707, 1264.320 262.722, 1259.416 257.463 C 1251.276 248.734, 1249.543 247.418, 1239.500 242.340 C 1226.749 235.892, 1225.926 235.790, 1202.500 237.764 C 1178.170 239.814, 1165.985 241.654, 1154.413 245.025 C 1142.059 248.624, 1139.149 249.934, 1133.500 254.439 C 1131.300 256.194, 1126.575 259.353, 1123 261.459 C 1119.425 263.566, 1113.350 267.656, 1109.500 270.547 C 1102.049 276.143, 1095.831 278.479, 1091.287 277.388 C 1089.754 277.020, 1084.103 274.982, 1078.730 272.859 C 1064.769 267.345, 1061.974 267.520, 1047.174 274.833 C 1034.540 281.077, 1030.913 283.360, 1024.279 289.244 C 1021.957 291.303, 1017.682 294.522, 1014.779 296.398 C 1011.876 298.273, 1007.700 301.695, 1005.500 304.001 C 1003.300 306.308, 998.931 309.955, 995.792 312.106 C 992.653 314.257, 988.641 318.151, 986.878 320.759 C 985.115 323.366, 981.546 327.783, 978.947 330.573 C 976.347 333.364, 973.210 337.639, 971.974 340.073 C 969.055 345.823, 964.946 351.786, 959.826 357.701 C 957.564 360.315, 954.492 365.174, 953 368.500 C 951.508 371.826, 948.348 376.786, 945.979 379.523 C 941.524 384.669, 938.549 390.510, 935.550 400 C 934.593 403.025, 931.619 410.225, 928.940 416 C 920.259 434.717, 918.709 450.648, 919.167 516.500 C 919.546 571.065, 919.849 568.767, 911.371 575.585 C 905.241 580.515, 905.416 580.331, 899.825 587.672 C 892.215 597.662, 891.638 599.259, 891.747 610 C 891.825 617.602, 892.455 621.458, 894.901 629.303 C 900.891 648.517, 903.040 669.196, 900.099 679.324 C 899.042 682.965, 897.507 685.174, 893.844 688.324 C 891.174 690.621, 887.647 694.366, 886.007 696.646 C 884.367 698.926, 879.916 703.097, 876.116 705.914 C 872.315 708.732, 868.489 712.131, 867.613 713.468 C 866.737 714.805, 862.940 718.356, 859.176 721.359 C 855.412 724.363, 850.795 728.468, 848.916 730.482 C 847.037 732.496, 841.675 737.361, 837 741.295 C 832.325 745.228, 826.250 750.536, 823.500 753.091 C 820.750 755.646, 814 761.878, 808.500 766.940 C 803 772.001, 795.575 778.978, 792 782.445 C 788.425 785.911, 783.770 789.887, 781.655 791.280 C 779.541 792.673, 775.552 796.347, 772.792 799.444 C 770.032 802.541, 766.013 805.973, 763.861 807.071 C 761.709 808.169, 758.354 811.287, 756.405 814 C 754.218 817.043, 750.765 820.132, 747.391 822.062 C 743.939 824.038, 740.445 827.190, 737.919 830.610 C 735.718 833.590, 732.023 837.205, 729.708 838.645 C 727.394 840.085, 722.575 844.052, 719 847.461 C 715.402 850.892, 709.255 855.357, 705.231 857.463 C 700.387 859.998, 696.586 862.911, 693.838 866.193 C 691.071 869.499, 687.470 872.249, 682.890 874.555 C 679.070 876.479, 675.061 879.370, 673.783 881.121 C 672.271 883.193, 668.298 885.783, 662.016 888.789 C 656.083 891.629, 650.628 895.130, 647.445 898.140 C 644.647 900.787, 639.751 904.105, 636.565 905.514 C 633.360 906.931, 628.255 910.463, 625.136 913.421 C 621.870 916.519, 616.093 920.471, 611.397 922.820 C 606.389 925.326, 600.581 929.365, 596.188 933.396 C 592.279 936.983, 587.375 940.805, 585.291 941.890 C 583.206 942.974, 579.627 946.068, 577.337 948.765 C 574.140 952.531, 571.779 954.177, 567.155 955.863 C 561.940 957.765, 560.984 958.519, 559.996 961.512 C 558.509 966.018, 554.013 969.224, 549.756 968.814 C 547.009 968.549, 546.449 968.054, 546.174 965.646 C 545.759 962.023, 548.846 958.606, 554.476 956.456 C 557.943 955.132, 559.100 953.946, 561.298 949.465 C 563.262 945.460, 564.942 943.560, 567.817 942.093 C 571.929 939.995, 576.420 935.293, 579.171 930.205 C 580.164 928.367, 582.811 926.116, 585.698 924.653 C 590.084 922.430, 590.866 921.482, 593.784 914.842 C 595.763 910.340, 598.599 905.953, 601.103 903.523 C 605.281 899.469, 608.269 894.336, 611.565 885.554 C 612.586 882.834, 615.807 877.659, 618.723 874.054 C 623.124 868.614, 624.544 865.801, 627.079 857.500 C 628.758 852, 632.593 842.550, 635.600 836.500 C 640.433 826.778, 641.230 824.280, 642.463 815 C 644.463 799.956, 645.836 786.532, 647.016 770.500 C 648.268 753.508, 649.568 744.051, 652.105 733.500 C 653.163 729.100, 654.457 720.100, 654.979 713.500 C 656.490 694.425, 660.275 685.347, 669.311 679.130 C 675.869 674.618, 709.205 641.123, 712.757 635.476 C 714.496 632.713, 717.328 629.113, 719.051 627.476 C 722.850 623.866, 725.020 619.720, 727.933 610.500 C 729.150 606.650, 731.886 600.800, 734.014 597.500 C 739.369 589.193, 740 587.074, 740 577.403 C 740 567.223, 738.582 563.365, 733.271 559.097 C 727.404 554.383, 725 549.437, 725 542.082 C 725 534.365, 726.540 530.688, 734.177 520.177 C 737.533 515.559, 741.809 508.149, 743.681 503.711 C 745.553 499.274, 749.033 492.686, 751.416 489.071 C 756.218 481.787, 756.258 481.683, 762.414 460.500 C 764.812 452.250, 767.502 443.574, 768.392 441.221 C 772.087 431.449, 773.219 419.583, 772.754 395.500 C 772.339 374.029, 772.131 371.935, 769.635 364 C 768.164 359.325, 764.914 347.648, 762.411 338.052 C 757.023 317.390, 756.258 315.406, 751.729 310.360 C 749.824 308.237, 746.340 302.450, 743.988 297.500 C 740.840 290.874, 737.952 286.653, 733.042 281.500 C 729.375 277.650, 724.897 272.581, 723.092 270.236 C 718.314 264.029, 698.145 254.022, 688.918 253.282 C 682.926 252.801, 681.985 253.023, 675.520 256.453 C 663.407 262.879, 661.609 261.835, 630 230.024 C 616.271 216.207, 604.982 205.672, 602.849 204.687 C 598.976 202.897, 594.143 202.696, 587.344 204.041 M 573.384 247.353 C 565.803 249.280, 559.616 253.347, 554 260.096 C 547.810 267.534, 546.955 269.179, 543.081 281.093 C 541.373 286.348, 538.573 292.858, 536.860 295.560 C 532.589 302.294, 531.504 305.773, 529.537 319.041 C 525.738 344.661, 524.388 349.912, 518.622 361.500 C 515.612 367.550, 511.968 375.721, 510.523 379.657 C 507.063 389.086, 502.954 395.113, 496.283 400.547 C 486.988 408.119, 483.476 406.638, 476.884 392.370 C 473.356 384.734, 472.491 383.652, 467.254 380.332 C 464.089 378.326, 460.076 375.453, 458.336 373.948 C 454.005 370.203, 448.817 368.685, 442.218 369.232 C 436.208 369.730, 436.883 369.196, 428 380.479 C 414.863 397.164, 414.522 398.346, 414.560 427 C 414.596 453.059, 416.030 461.901, 422.528 476.131 C 424.947 481.429, 428.131 490.105, 429.603 495.412 C 431.969 503.940, 432.887 505.741, 437.496 510.907 C 440.364 514.122, 444.183 519.395, 445.981 522.626 C 450.021 529.882, 475.495 555.246, 485 561.475 C 488.575 563.818, 492.625 566.963, 494 568.465 C 499.331 574.286, 512.146 578.061, 527 578.186 C 535.123 578.254, 538.703 577.227, 543.746 573.380 C 549.277 569.162, 547.835 564.798, 535.251 547.660 C 531.755 542.899, 529.115 537.838, 527.346 532.506 C 525.885 528.103, 522.923 521.694, 520.764 518.264 C 517.269 512.713, 511 494.738, 511 490.271 C 511 489.462, 509.490 487.290, 507.644 485.444 C 501.943 479.743, 500.704 477.084, 500.231 469.535 C 499.989 465.666, 500.204 460.925, 500.709 459 L 501.627 455.501 503.350 458.130 C 504.297 459.576, 505.528 463.626, 506.085 467.130 C 507.771 477.736, 508.867 480.272, 513.154 483.494 C 518.300 487.360, 520.585 491.159, 522.533 499.082 C 525.060 509.360, 525.957 510.910, 531.398 514.400 C 535.258 516.876, 537.352 519.226, 540 524.054 C 544.435 532.138, 559.337 546.827, 566.964 550.632 C 571.147 552.719, 580.755 551.985, 585.077 549.248 C 586.762 548.181, 591.147 543.547, 594.821 538.951 C 602.396 529.473, 606.338 526.727, 612.557 526.593 C 616.677 526.505, 617.233 526.857, 623.697 533.658 C 629.741 540.018, 631.091 540.938, 635.799 541.908 C 645.409 543.888, 654.543 543.317, 661.225 540.318 C 666.056 538.151, 667.517 537.866, 668.850 538.833 C 674.137 542.665, 676.791 543.993, 679.173 543.996 C 683.551 544.002, 687.253 539.956, 689.824 532.356 C 691.386 527.738, 694.240 522.716, 698.527 517.042 C 702.035 512.399, 705.898 505.948, 707.109 502.707 C 708.321 499.467, 711.503 493.594, 714.179 489.658 C 718.746 482.941, 723.545 470.760, 725.471 461 C 725.851 459.075, 728.362 452.775, 731.051 447 C 737.442 433.277, 738.468 425.129, 737.721 394.071 C 737.104 368.402, 735.993 362.712, 729.092 349.895 C 726.878 345.782, 723.970 338.100, 722.541 332.585 C 719.796 321.995, 719.754 321.913, 713.373 314.892 C 711.070 312.358, 708.292 308.533, 707.199 306.392 C 706.107 304.251, 704.361 301.730, 703.320 300.788 C 697.940 295.923, 685.190 294.352, 679.500 297.854 C 672.536 302.140, 666.423 308.895, 662.061 317.125 C 659.620 321.731, 655.275 327.975, 652.406 331 C 649.319 334.255, 645.739 339.562, 643.635 344.002 C 636.708 358.617, 627.896 365.088, 617.071 363.505 C 613.076 362.921, 611.681 361.973, 606 355.983 C 602.425 352.213, 597.250 347.903, 594.500 346.404 C 586.606 342.103, 586.272 341.828, 583.981 337.752 C 581.562 333.448, 581.910 329.357, 584.742 328.811 C 585.699 328.627, 589.086 328.906, 592.267 329.433 C 598.735 330.502, 607.492 329.164, 614.687 326.006 C 617.791 324.643, 619.438 323.048, 621.059 319.834 C 622.261 317.450, 625.430 312.533, 628.101 308.906 C 633.693 301.314, 636.947 294.677, 636.978 290.797 C 637.001 288.016, 629.514 278.531, 620 269.285 C 617.525 266.880, 612.575 262.011, 609 258.465 C 598.795 248.342, 585.639 244.237, 573.384 247.353 M 1188 269.010 C 1176.650 269.965, 1172.643 271.136, 1158.500 277.637 C 1151.900 280.671, 1144.604 284.004, 1142.287 285.045 C 1139.970 286.086, 1136.370 288.450, 1134.287 290.298 C 1132.204 292.147, 1128.414 295.072, 1125.865 296.798 C 1113.522 305.159, 1111.559 313.251, 1116.980 333.426 C 1121.153 348.958, 1121.918 353.556, 1123.006 369.635 C 1123.532 377.408, 1124.450 385.058, 1125.047 386.635 C 1128.099 394.687, 1135.145 397.203, 1155.500 397.507 C 1163.200 397.623, 1175.125 398.243, 1182 398.886 C 1193.488 399.961, 1195.229 400.405, 1203.500 404.371 C 1215.056 409.913, 1218.353 412.757, 1220.652 419.165 C 1223.245 426.394, 1226.844 430, 1231.467 430 C 1239.708 430, 1244.953 424.674, 1249.113 412.078 C 1250.854 406.810, 1254.463 397.627, 1257.133 391.672 C 1264.560 375.113, 1265.398 371.495, 1265.288 356.500 C 1265.136 336.003, 1263.418 330.128, 1248.877 300.384 C 1247.770 298.121, 1242.430 291.560, 1237.011 285.806 C 1225.716 273.813, 1220.158 270.614, 1207.839 269.015 C 1199.840 267.976, 1200.286 267.976, 1188 269.010 M 1066.500 310.653 C 1050.062 314.117, 1041.266 317.033, 1035.704 320.860 C 1028.543 325.787, 993.983 363.252, 989.686 370.748 C 987.588 374.406, 984.351 379.083, 982.492 381.140 C 978.007 386.105, 976.276 389.635, 973.312 399.858 C 971.948 404.565, 969.307 410.712, 967.443 413.520 C 965.580 416.327, 963.332 420.353, 962.449 422.467 C 955.219 439.772, 951.034 500.404, 955.457 523.759 C 958.295 538.741, 961.842 542.303, 973.371 541.750 C 981.879 541.342, 983.446 539.823, 987.569 527.977 C 990.791 518.724, 993.863 514.963, 999.634 513.214 C 1001.846 512.544, 1005.766 509.859, 1008.798 506.938 C 1013.136 502.759, 1014.359 502.053, 1015.548 503.040 C 1017.618 504.758, 1017.393 507.203, 1013.878 521.129 C 1009.677 537.772, 1010.102 545.999, 1015.819 558.762 C 1017.973 563.568, 1021.182 571.977, 1022.951 577.450 C 1024.720 582.922, 1027.367 589.053, 1028.834 591.075 C 1038.399 604.257, 1043.370 610.149, 1046.231 611.693 C 1049.643 613.534, 1049.647 613.534, 1081 612.861 C 1091.333 612.639, 1094.453 612.931, 1098.996 614.546 C 1107.750 617.658, 1106.961 618.984, 1092.801 624.949 C 1077.324 631.468, 1076.833 631.800, 1073.141 638.253 C 1068.189 646.909, 1068.060 650.713, 1072.417 659.530 C 1074.979 664.713, 1077.501 668.131, 1080.689 670.743 C 1083.212 672.809, 1088.875 677.510, 1093.274 681.190 C 1098.823 685.830, 1103.911 689.010, 1109.886 691.568 C 1114.624 693.596, 1122.325 697.182, 1127 699.538 C 1140.282 706.229, 1141.528 706.607, 1168.270 712.052 L 1193.500 717.189 1212.423 716.036 C 1229.912 714.970, 1259.290 710.880, 1282 706.349 C 1292.615 704.231, 1310.301 695.699, 1314.875 690.490 C 1319.015 685.775, 1319.520 683.098, 1317.461 676.798 C 1315.016 669.319, 1313.455 666.455, 1307.491 658.500 C 1300.888 649.695, 1299.801 648.748, 1292.716 645.627 C 1288.001 643.551, 1286.645 642.395, 1285.385 639.378 C 1283.594 635.093, 1284.145 630.564, 1287.056 625.629 C 1290.531 619.741, 1294.039 619.059, 1308 621.559 C 1320.443 623.788, 1327.153 623.697, 1331.313 621.243 C 1341.904 614.994, 1361.280 596.900, 1365.636 589.190 C 1367.093 586.611, 1370.445 581.125, 1373.085 577 C 1381.314 564.139, 1381.857 552.386, 1374.736 541.312 C 1373.034 538.665, 1369.558 532.675, 1367.013 528 C 1363.250 521.089, 1361.461 518.904, 1357.442 516.309 C 1354.724 514.554, 1349.855 511.179, 1346.623 508.809 C 1336.668 501.509, 1333.447 499.980, 1321.271 496.773 C 1310.362 493.901, 1308.219 493.667, 1292 493.587 C 1275.267 493.504, 1274.129 493.625, 1266.038 496.360 C 1258.606 498.873, 1256.738 500.028, 1250.674 505.860 C 1246.877 509.512, 1241.769 515.091, 1239.321 518.258 C 1233.282 526.071, 1230.502 527.382, 1219.831 527.447 C 1212.544 527.492, 1210.710 527.166, 1208.331 525.404 C 1202.097 520.789, 1203.115 511.617, 1211.483 497 C 1216.835 487.650, 1218.453 481.120, 1218.420 469 C 1218.385 456.029, 1216.980 451.620, 1211.790 448.204 C 1207.853 445.613, 1203.590 441.659, 1197.818 435.245 C 1195.649 432.836, 1192.970 431.677, 1183.818 429.191 C 1164.692 423.996, 1156.346 422.631, 1144 422.681 C 1134.371 422.720, 1131.198 423.155, 1124.500 425.351 C 1114.059 428.775, 1107.101 428.852, 1103.306 425.585 L 1100.500 423.169 1100.815 401.835 C 1101.236 373.243, 1099.879 356.396, 1096.429 347.391 C 1094.977 343.601, 1092.589 336, 1091.122 330.500 C 1089.655 325, 1087.367 319.036, 1086.037 317.247 C 1081.876 311.648, 1074.151 309.041, 1066.500 310.653 M 1257.557 535.223 C 1255.374 538.339, 1255.553 539.109, 1259.413 543.202 C 1261.290 545.192, 1264.563 549.445, 1266.686 552.653 C 1271.267 559.576, 1276.603 562.897, 1284.446 563.707 C 1289.903 564.270, 1289.904 564.270, 1291.587 560.740 C 1295.449 552.640, 1290.175 546.937, 1268.081 535.323 C 1262.538 532.410, 1259.547 532.381, 1257.557 535.223 M 671.550 585.436 C 656.430 601.384, 647.891 602.969, 639.873 591.316 C 635.981 585.658, 631.067 582.478, 623.060 580.432 C 612.616 577.764, 599.919 580.526, 590.500 587.514 C 588.850 588.739, 583.515 592.116, 578.644 595.020 C 568.111 601.301, 566.009 604.146, 566.004 612.134 C 566 617.145, 566.481 618.471, 570.355 624.134 C 572.751 627.635, 575.740 632.525, 576.999 635 C 579.225 639.379, 594.112 655.090, 599.043 658.265 C 602.549 660.522, 611.945 662.027, 616.340 661.036 C 618.369 660.579, 625.088 657.027, 631.272 653.143 C 637.456 649.260, 644.344 645.437, 646.579 644.649 C 652.662 642.502, 661.192 638.058, 663.868 635.640 C 665.171 634.463, 668.580 630.350, 671.445 626.500 C 674.310 622.650, 678.993 616.829, 681.853 613.565 C 688.329 606.171, 690.368 599.963, 689.829 589.279 C 689.506 582.885, 689.107 581.505, 687.114 579.891 C 682.480 576.139, 679.285 577.277, 671.550 585.436 M 959.254 584.762 C 957.628 586.282, 955.589 588.869, 954.723 590.512 C 953.858 592.156, 951.162 595.350, 948.732 597.611 C 943.211 602.750, 942.564 605.712, 940.788 634 C 938.550 669.633, 939.686 684.241, 945 688.140 C 948.759 690.897, 970.610 695.940, 985.500 697.485 C 988.800 697.828, 995.464 697.651, 1000.308 697.092 C 1008.702 696.124, 1013.796 694.275, 1028.915 686.709 C 1031.975 685.178, 1033.826 680.072, 1033.924 672.899 C 1034.024 665.565, 1032.644 661.772, 1027.235 654.500 C 1024.780 651.200, 1020.818 644.612, 1018.431 639.860 C 1015.890 634.803, 1012.671 630.034, 1010.667 628.360 C 1008.783 626.787, 1005.556 622.800, 1003.495 619.500 C 1001.434 616.200, 998.027 611.700, 995.925 609.500 C 993.823 607.300, 989.649 601.226, 986.649 596.003 C 982.061 588.012, 980.506 586.152, 976.848 584.281 C 970.384 580.974, 963.097 581.173, 959.254 584.762 M 320.942 696.410 C 317.859 698.161, 316.470 700.991, 313.536 711.500 C 312.307 715.900, 309.442 724.539, 307.168 730.699 C 301.972 744.776, 300.369 756.955, 299.550 788.588 C 299.113 805.499, 299.367 816.400, 300.499 829.333 C 302.210 848.866, 302.420 849.690, 308.053 859.057 C 310.222 862.664, 313.326 869.547, 314.951 874.354 C 317.192 880.985, 319.137 884.568, 323.015 889.209 C 325.825 892.572, 328.977 896.994, 330.018 899.035 C 333.393 905.651, 362.847 936.354, 368.700 939.358 C 373.177 941.655, 380.086 941.500, 382.722 939.044 C 385.998 935.993, 386.324 932.001, 384.132 921.807 C 383.032 916.688, 381.421 906.200, 380.553 898.500 C 376.437 861.977, 377.417 865.645, 369.732 857.983 C 364.504 852.769, 364.437 852.440, 363.535 827.500 C 362.924 810.641, 364.181 802.565, 368.057 798.439 C 370.741 795.583, 373.193 795.336, 375.542 797.685 C 376.948 799.091, 377.153 800.871, 376.783 808.435 C 375.855 827.409, 379.597 844.947, 386.825 855.500 C 390.297 860.569, 391.655 863.470, 392.952 868.583 C 394.687 875.426, 397 900.540, 397 912.535 C 397 928.476, 397.877 929.176, 411.196 923.861 C 416.266 921.838, 419.740 919.769, 420.971 918.041 C 422.021 916.567, 424.528 909.767, 426.544 902.930 C 428.559 896.094, 432.234 885.826, 434.711 880.113 C 440.132 867.611, 441.919 858.392, 441.965 842.692 C 442.018 824.846, 440.704 818.179, 434.857 806.633 C 432.110 801.207, 428.504 792.882, 426.844 788.133 C 424.598 781.706, 422.742 778.350, 419.579 775 C 417.243 772.525, 413.594 768.025, 411.471 765 C 403.794 754.063, 373.452 721.711, 359.625 709.719 C 344.884 696.935, 342.464 695.667, 332.070 695.278 C 325.920 695.047, 322.778 695.367, 320.942 696.410 M 1046.913 708.931 C 1042.869 709.721, 1037.497 713.202, 1035.998 716.004 C 1034.205 719.354, 1034.997 724.390, 1038.278 730.500 C 1041.421 736.353, 1041.769 736.636, 1052.500 742.069 C 1058.550 745.132, 1066.425 749.239, 1070 751.195 C 1074.111 753.445, 1080.727 755.759, 1088 757.492 C 1094.325 758.998, 1102.244 761.258, 1105.598 762.513 C 1119.879 767.859, 1143.162 770.373, 1148.804 767.177 C 1154.148 764.150, 1156.744 754.934, 1153.540 750.360 C 1151.693 747.723, 1148.993 746.666, 1136.086 743.526 C 1129.874 742.015, 1121.603 739.024, 1115.586 736.114 C 1110.039 733.430, 1102.279 730.033, 1098.343 728.565 C 1094.406 727.097, 1085.265 722.351, 1078.029 718.017 C 1062.304 708.600, 1056.811 706.997, 1046.913 708.931 M 910.567 713.926 C 907.962 716.804, 908.915 719.442, 912.692 719.808 C 916.577 720.186, 918.746 717.262, 917 714 C 915.645 711.469, 912.820 711.436, 910.567 713.926 M 755 1022.613 C 725.719 1024.578, 717.075 1026.285, 697.500 1033.973 C 693.100 1035.701, 682.750 1038.668, 674.500 1040.567 C 663.530 1043.091, 657.034 1045.223, 650.323 1048.501 C 642.097 1052.519, 622.054 1058.737, 611.785 1060.456 C 609.742 1060.798, 607.812 1061.496, 607.496 1062.006 C 606.698 1063.297, 619.088 1069.369, 628.598 1072.346 C 649.327 1078.838, 661.717 1082.186, 675.500 1085.021 C 683.750 1086.718, 695 1089.690, 700.500 1091.627 C 720.989 1098.841, 727.868 1100.774, 742.500 1103.435 C 770.077 1108.448, 777.252 1110.136, 789.560 1114.502 C 804.841 1119.923, 806.827 1120.957, 813.410 1126.919 C 817.382 1130.515, 821.206 1132.700, 828.441 1135.503 C 834.950 1138.025, 839.822 1140.695, 843.241 1143.613 C 846.044 1146.006, 850.174 1148.638, 852.419 1149.462 C 854.664 1150.286, 859.200 1151.928, 862.500 1153.111 C 866.975 1154.715, 869.771 1156.603, 873.500 1160.539 C 876.962 1164.194, 880.843 1166.916, 886.118 1169.392 C 894.452 1173.302, 898.010 1176.964, 900.032 1183.713 C 901.726 1189.368, 900.703 1193, 897.415 1193 C 896.015 1193, 893.981 1192.525, 892.896 1191.945 C 891.812 1191.364, 887.454 1190.227, 883.212 1189.417 C 875.276 1187.903, 865.898 1184.036, 858 1179.022 C 855.525 1177.450, 847.290 1174.340, 839.699 1172.110 C 829.353 1169.071, 824.471 1167.067, 820.199 1164.106 C 814.486 1160.145, 811.074 1158.622, 786 1148.841 C 775.143 1144.606, 771.053 1143.496, 765.110 1143.171 C 751.763 1142.442, 747 1145.613, 747 1155.228 C 747 1159.852, 748.193 1162.116, 754.032 1168.574 C 756.561 1171.369, 758.109 1174.349, 758.970 1178.074 C 760.364 1184.100, 762.283 1187.643, 765.547 1190.213 C 770.062 1193.769, 774.930 1210.189, 772.006 1211.996 C 769.353 1213.636, 764.946 1210.810, 760.930 1204.897 C 758.734 1201.662, 754.527 1197.236, 751.582 1195.061 C 744.903 1190.126, 742.309 1186.868, 740.880 1181.615 C 738.110 1171.437, 737.780 1170.838, 733.060 1167.447 C 728.265 1164.003, 727.035 1161.966, 722.907 1150.635 C 721.732 1147.410, 720.009 1144.009, 719.078 1143.078 C 718.147 1142.147, 713.241 1139.938, 708.175 1138.169 C 703.110 1136.400, 696.477 1133.361, 693.435 1131.415 C 686.653 1127.077, 682.867 1125.711, 668.897 1122.564 C 661.764 1120.957, 654.638 1118.491, 648.353 1115.455 C 643.061 1112.897, 634.854 1109.918, 630.115 1108.834 C 625.377 1107.749, 618.071 1105.993, 613.880 1104.931 C 601.309 1101.746, 596.193 1102.670, 593.117 1108.684 C 591.522 1111.803, 591.726 1115.350, 593.935 1122.892 C 594.999 1126.526, 596.576 1133.676, 597.440 1138.780 C 598.604 1145.657, 600.145 1150.320, 603.392 1156.785 C 605.802 1161.583, 608.902 1169.183, 610.281 1173.672 C 612.124 1179.676, 614.502 1184.304, 619.272 1191.168 C 622.838 1196.300, 627.116 1203.200, 628.778 1206.500 C 630.441 1209.800, 634.095 1215.114, 636.900 1218.308 C 639.705 1221.503, 642 1224.581, 642 1225.150 C 642 1226.732, 663.369 1247.477, 668.747 1251.116 C 671.361 1252.885, 675.586 1256.252, 678.137 1258.600 C 680.687 1260.947, 687.437 1265.199, 693.137 1268.049 C 698.836 1270.898, 705.975 1274.724, 709 1276.551 C 712.025 1278.378, 719.675 1281.496, 726 1283.479 C 732.325 1285.462, 740.425 1288.248, 744 1289.669 C 755.417 1294.209, 761.158 1296.098, 766.394 1297.036 C 775.609 1298.689, 813.297 1302.220, 823 1302.341 C 831.695 1302.449, 833.065 1302.193, 839.167 1299.321 C 842.845 1297.589, 846.602 1295.011, 847.547 1293.569 C 849.168 1291.094, 849.163 1290.650, 847.439 1285.227 C 845.026 1277.638, 845.230 1264.572, 847.816 1261.071 C 850.125 1257.945, 855.113 1256.172, 861.868 1256.076 C 866.050 1256.017, 869.143 1256.853, 875.868 1259.864 C 880.616 1261.989, 890.205 1265.138, 897.178 1266.862 C 904.150 1268.587, 915.400 1272.083, 922.178 1274.632 L 934.500 1279.266 951.024 1279.765 C 971.565 1280.385, 983.864 1279.027, 1003.500 1273.973 C 1011.750 1271.849, 1023.808 1269.193, 1030.296 1268.070 C 1055.597 1263.692, 1063.868 1259.550, 1065.585 1250.399 C 1066.650 1244.721, 1065.264 1240.663, 1060.471 1235.423 C 1057.994 1232.715, 1054.206 1226.900, 1052.052 1222.500 C 1049.899 1218.100, 1045.821 1211.800, 1042.991 1208.500 C 1040.161 1205.200, 1036.924 1200.720, 1035.798 1198.545 C 1034.671 1196.369, 1031.409 1192.094, 1028.548 1189.045 C 1025.687 1185.995, 1022.275 1181.700, 1020.965 1179.500 C 1019.655 1177.300, 1015.190 1171.852, 1011.042 1167.394 C 1006.894 1162.935, 1000.125 1155.550, 996 1150.983 C 991.875 1146.415, 985.864 1140.480, 982.642 1137.793 C 979.421 1135.106, 975.022 1130.677, 972.867 1127.951 C 970.712 1125.225, 967.048 1121.768, 964.725 1120.269 C 959.065 1116.618, 943.427 1103.448, 941.523 1100.729 C 939.335 1097.606, 939.633 1093.978, 942.647 1087.028 C 945.854 1079.634, 945.326 1076.909, 938.779 1067.068 C 934.994 1061.378, 933.577 1060.162, 926.500 1056.531 C 922.100 1054.274, 915.613 1050.528, 912.084 1048.206 C 908.539 1045.875, 902.498 1043.077, 898.584 1041.954 C 888.611 1039.094, 877.285 1035.028, 872 1032.410 C 864.777 1028.832, 857.586 1027.330, 833.500 1024.366 C 822.089 1022.962, 767.853 1021.751, 755 1022.613 M 406.250 1062.069 C 404.016 1062.748, 403 1063.674, 403 1065.029 C 403 1066.700, 403.689 1067, 407.532 1067 C 413.106 1067, 419.836 1064.436, 418.298 1062.898 C 416.779 1061.379, 410.046 1060.916, 406.250 1062.069 M 380 1074.587 C 375.875 1075.981, 371.658 1077.950, 370.628 1078.961 C 368.800 1080.756, 368.810 1080.828, 371.046 1082.025 C 373.861 1083.531, 383.012 1082.729, 388.324 1080.509 C 391.953 1078.993, 394.694 1074.932, 393.448 1072.916 C 392.487 1071.361, 387.829 1071.940, 380 1074.587 M 203 1143.652 C 195.427 1146.147, 194.911 1149, 202.032 1149 C 207.208 1149, 214 1146.825, 214 1145.168 C 214 1143.421, 206.738 1142.421, 203 1143.652 M 165 1155.919 C 156.663 1158.149, 154 1159.612, 154 1161.964 C 154 1165.853, 156.899 1167.299, 163.448 1166.679 C 173.818 1165.697, 182 1161.889, 182 1158.045 C 182 1153.661, 176.170 1152.932, 165 1155.919 M 780 1223.929 C 780 1226.222, 782.761 1229.246, 784.366 1228.712 C 786.016 1228.163, 786.358 1225.136, 784.960 1223.452 C 783.182 1221.309, 780 1221.615, 780 1223.929" stroke="none" fill="#1a1a1a" fill-rule="evenodd"/>
</svg>