<svg shape-rendering="geometricPrecision" xmlns="http://www.w3.org/2000/svg" width="1600" height="1510" viewBox="0 0 1600 1510" version="1.1">
	<rect x="0" y="0" width="100%" height="100%" fill="#ffffff" />
	<path d="M 975.929 60.958 C 961.375 61.970, 959.263 62.447, 953.680 65.988 C 951.186 67.570, 945.850 70.308, 941.822 72.072 C 937.795 73.836, 931.959 77.002, 928.854 79.106 C 925.749 81.211, 920.799 83.999, 917.854 85.302 C 914.909 86.604, 909.575 90.142, 906 93.164 C 902.425 96.185, 897.429 99.863, 894.897 101.337 C 892.365 102.812, 889.440 104.969, 888.397 106.131 C 887.354 107.292, 883.800 110.077, 880.500 112.319 C 874.930 116.104, 846 144.516, 846 146.203 C 846 146.617, 840.819 152.225, 834.486 158.665 C 828.153 165.104, 821.790 172.426, 820.346 174.936 C 818.902 177.446, 815.120 183.364, 811.942 188.087 C 808.763 192.810, 805.467 198.340, 804.616 200.377 C 803.765 202.413, 801.511 205.981, 799.607 208.305 C 797.702 210.628, 794.517 216.573, 792.528 221.515 C 790.540 226.457, 787.168 233.425, 785.036 237 C 782.905 240.575, 779.956 246.425, 778.484 250 C 777.013 253.575, 774.355 258.750, 772.579 261.500 C 768.754 267.421, 767.833 269.678, 764.503 281.297 C 763.116 286.135, 760.699 292.660, 759.131 295.797 C 755.705 302.649, 752.746 311.512, 750.031 323.052 C 748.925 327.755, 746.478 335.180, 744.594 339.552 C 742.391 344.664, 740.069 353.079, 738.087 363.135 C 736.393 371.734, 734.121 381.636, 733.039 385.138 C 729.719 395.889, 726.200 413.810, 724.525 428.500 C 722.178 449.084, 718.999 473.292, 718.430 474.918 C 716.928 479.208, 714.887 517.514, 714.748 544 C 714.569 578.334, 715.431 589.427, 720.459 617.500 C 722.330 627.950, 724.385 639.875, 725.024 644 C 726.820 655.586, 729.673 667.800, 732.391 675.534 C 736.172 686.297, 740.201 707.446, 739.203 711.299 C 738.293 714.813, 734.948 717.061, 731.839 716.248 C 729.599 715.662, 717.048 702.996, 711.527 695.750 C 709.537 693.137, 707.591 690.998, 707.204 690.996 C 706.817 690.994, 703.158 688.102, 699.073 684.570 C 694.987 681.038, 690.712 677.694, 689.573 677.140 C 688.433 676.585, 683.225 674.096, 678 671.608 C 672.775 669.121, 667.145 665.828, 665.490 664.292 C 661.129 660.247, 650.645 645.321, 648.108 639.546 C 646.911 636.821, 644.131 632.207, 641.931 629.293 C 639.731 626.378, 636.458 620.508, 634.658 616.247 C 632.857 611.986, 629.804 606.434, 627.873 603.910 C 625.941 601.385, 623.071 596.210, 621.495 592.410 C 619.919 588.609, 617.132 583.617, 615.301 581.315 C 613.471 579.013, 610.369 572.938, 608.409 567.815 C 606.450 562.692, 603.108 555.575, 600.984 552 C 598.824 548.366, 596.436 542.507, 595.566 538.712 C 594.711 534.979, 591.534 527.104, 588.507 521.212 C 583.498 511.462, 582.774 509.198, 580.447 496 C 579.042 488.025, 577.192 479.081, 576.338 476.124 C 574.556 469.957, 574.962 466.061, 578.271 457.546 C 580.272 452.397, 581.275 451.179, 585.692 448.546 C 592.777 444.320, 603.794 433.706, 605.742 429.228 C 606.739 426.938, 607.385 422.605, 607.419 417.994 C 607.491 408.082, 604.510 401.892, 595.290 392.812 C 586.709 384.361, 581.122 381.968, 570.213 382.076 C 565.971 382.118, 561.105 382.680, 559.401 383.326 C 557.696 383.972, 552.831 387.711, 548.588 391.635 C 541.786 397.927, 540.504 399.697, 537.727 406.635 C 534.877 413.753, 534.575 415.545, 534.539 425.500 C 534.483 441.226, 537.612 450.242, 547.338 462.378 C 549.601 465.202, 550.366 467.499, 551.113 473.710 C 553.566 494.094, 554.343 497.981, 557.567 506 C 559.447 510.675, 562.148 518.550, 563.570 523.500 C 564.992 528.450, 568.114 536.110, 570.507 540.523 C 572.987 545.098, 576.153 553.197, 577.871 559.365 C 579.904 566.663, 582.172 572.187, 584.840 576.342 C 587.016 579.729, 590.016 586.100, 591.507 590.500 C 594.621 599.687, 596.115 602.796, 599.980 608.131 C 601.503 610.233, 603.786 614.551, 605.054 617.727 C 606.322 620.902, 609.018 625.975, 611.044 629 C 613.071 632.025, 616.327 637.676, 618.280 641.558 C 620.233 645.439, 622.574 649.231, 623.482 649.985 C 624.389 650.738, 627.352 655.113, 630.066 659.708 C 635.921 669.620, 636.647 674.549, 632.409 675.612 C 628.303 676.643, 622.505 674.339, 618.914 670.250 C 617.115 668.201, 613.811 665.199, 611.572 663.580 C 609.332 661.960, 598.106 651.831, 586.625 641.071 C 575.143 630.311, 564.068 620.505, 562.013 619.280 C 559.958 618.054, 557.054 615.449, 555.561 613.490 C 554.067 611.532, 550.495 608.603, 547.624 606.983 C 544.752 605.362, 541.402 602.682, 540.178 601.026 C 538.954 599.371, 536.275 597.157, 534.226 596.106 C 532.177 595.056, 529.150 592.767, 527.500 591.020 C 525.850 589.274, 520.225 585.013, 515 581.551 C 509.775 578.089, 504.612 574.265, 503.526 573.052 C 502.440 571.839, 498.615 569.238, 495.026 567.272 C 491.437 565.306, 486.925 562.220, 485 560.416 C 483.075 558.611, 478.350 555.700, 474.500 553.947 C 470.650 552.195, 466.041 549.669, 464.259 548.336 C 462.476 547.003, 458.111 544.244, 454.559 542.206 C 448.214 538.565, 437.945 528.207, 431.882 519.332 C 430.089 516.707, 426.471 513.925, 420.396 510.500 C 411.574 505.526, 411.482 505.500, 402.514 505.500 C 394.262 505.500, 392.912 505.790, 386.543 508.934 C 376.727 513.780, 366.049 524.458, 363.119 532.359 C 359.977 540.831, 359.460 548.234, 361.472 555.940 C 363.818 564.927, 366.373 569.491, 372.875 576.309 C 381.214 585.052, 382.352 585.485, 397 585.493 C 412.511 585.502, 415.262 584.587, 424.086 576.489 C 427.846 573.039, 432.967 569.226, 435.467 568.016 L 440.013 565.815 448.600 568.923 C 459.190 572.755, 460.166 573.267, 467 578.578 C 470.025 580.929, 474.525 583.625, 477 584.570 C 479.475 585.515, 483.525 588.179, 486 590.490 C 488.475 592.801, 492.075 595.749, 494 597.041 C 495.925 598.333, 499.750 601.272, 502.500 603.572 C 505.250 605.873, 510.044 609.371, 513.153 611.346 C 516.262 613.321, 520.916 616.763, 523.494 618.995 C 526.072 621.226, 529.871 623.914, 531.936 624.967 C 534 626.020, 537.050 628.432, 538.713 630.326 C 540.377 632.221, 544.247 635.376, 547.315 637.339 C 550.383 639.301, 553.641 642.049, 554.556 643.445 C 555.471 644.841, 559.657 648.061, 563.859 650.600 C 568.062 653.140, 573.921 657.644, 576.880 660.609 C 579.839 663.574, 582.688 666, 583.211 666 C 584.068 666, 591.006 672.395, 600.572 682 C 606.924 688.378, 614.565 697.413, 619.223 704.053 C 621.751 707.656, 624.610 711.256, 625.577 712.053 C 626.544 712.849, 629.274 717.672, 631.644 722.771 C 634.015 727.870, 637.691 734.620, 639.815 737.771 C 641.938 740.922, 644.199 745.030, 644.838 746.899 C 646.355 751.338, 646.332 761.268, 644.800 762.800 C 642.488 765.112, 638.078 764.108, 633.038 760.124 C 629.550 757.367, 626.107 755.752, 621.110 754.527 C 617.246 753.580, 611.928 751.429, 609.292 749.746 C 603.306 745.926, 594.699 742.493, 587.231 740.949 C 584.079 740.297, 577.539 737.982, 572.698 735.805 C 567.857 733.628, 556.382 729.909, 547.198 727.539 C 538.014 725.170, 528.341 722.286, 525.702 721.131 C 519.207 718.287, 511.606 716.446, 498.500 714.543 C 492.450 713.665, 482.775 711.651, 477 710.067 C 456.173 704.357, 441.168 702.452, 404.783 700.898 C 374.499 699.605, 302.185 700.257, 282.500 702 C 265.326 703.521, 241.609 707.524, 232.241 710.484 C 227.817 711.881, 218.415 714.196, 211.348 715.627 C 202.819 717.354, 196.315 719.328, 192 721.500 C 188.425 723.299, 180.325 726.224, 174 728 C 163.692 730.895, 160.113 732.406, 149.500 738.350 C 147.850 739.274, 143.959 740.938, 140.854 742.048 C 137.749 743.158, 132.351 745.913, 128.858 748.170 C 125.366 750.427, 119.100 753.711, 114.935 755.468 C 110.770 757.225, 104.918 760.488, 101.931 762.719 C 98.944 764.950, 94.475 767.790, 92 769.030 C 89.525 770.270, 85.475 773.067, 83 775.245 C 80.525 777.423, 76.925 780.023, 75 781.022 C 68.721 784.281, 46.063 806.401, 42.245 813 C 40.813 815.475, 37.472 819.836, 34.821 822.690 C 32.169 825.545, 30 828.474, 30 829.199 C 30 829.924, 27.355 834.405, 24.122 839.156 C 20.889 843.908, 17.563 849.754, 16.730 852.148 C 15.898 854.541, 13.344 861.645, 11.054 867.934 C 5.645 882.789, 4.120 895.667, 5.747 912.753 C 6.649 922.221, 7.467 925.817, 9.961 931.291 C 11.664 935.026, 13.971 942.001, 15.089 946.791 C 16.611 953.312, 18.476 957.761, 22.514 964.500 C 25.479 969.450, 28.601 975.172, 29.452 977.216 C 30.302 979.259, 33.026 983.214, 35.505 986.005 C 37.983 988.796, 41.356 993.743, 43 996.999 C 45.255 1001.468, 49.851 1006.760, 61.744 1018.581 C 86.659 1043.348, 106.212 1059.474, 117.637 1064.678 C 120.862 1066.147, 125.767 1069.052, 128.539 1071.135 C 131.310 1073.217, 137.107 1076.530, 141.420 1078.495 C 145.734 1080.461, 151.066 1083.612, 153.269 1085.498 C 155.708 1087.586, 160.358 1089.954, 165.157 1091.552 C 169.492 1092.996, 175.167 1095.722, 177.769 1097.611 C 180.371 1099.499, 187.149 1103.279, 192.830 1106.011 C 198.512 1108.743, 204.362 1111.819, 205.830 1112.847 C 209.978 1115.752, 218.886 1118.725, 230.179 1120.974 C 235.856 1122.104, 244.775 1124.339, 250 1125.940 C 262.001 1129.617, 266.152 1130.203, 281.355 1130.367 C 293.173 1130.495, 293.851 1130.619, 298.509 1133.500 C 304.384 1137.135, 306.743 1141.486, 310.435 1155.500 C 312.248 1162.382, 314.226 1167.215, 316.776 1171 C 318.814 1174.025, 322.099 1179.886, 324.074 1184.024 C 331.042 1198.622, 353.440 1220.097, 367.976 1226.118 C 372.114 1227.832, 379.602 1231.438, 384.616 1234.131 C 389.629 1236.824, 396.829 1240.101, 400.616 1241.412 C 404.402 1242.724, 410.067 1244.953, 413.204 1246.365 C 425.692 1251.989, 454.584 1256.950, 475 1256.976 C 494.491 1257.001, 521.066 1251.962, 530.662 1246.421 C 532.952 1245.100, 538.279 1242.688, 542.501 1241.063 C 546.722 1239.437, 552.663 1236.230, 555.702 1233.936 C 558.740 1231.641, 564.438 1228.130, 568.363 1226.132 C 574.313 1223.104, 576.136 1221.544, 579.325 1216.750 C 583.569 1210.370, 587.035 1208.607, 589.835 1211.405 C 591.902 1213.470, 592.048 1222.365, 590.240 1236 C 589.275 1243.275, 589.209 1251.588, 589.957 1271.500 C 591.160 1303.535, 592.596 1311.331, 600.337 1327.868 C 603.332 1334.266, 606.062 1340.341, 606.405 1341.368 C 607.708 1345.276, 622.375 1367.698, 626.441 1372 C 628.780 1374.475, 631.686 1378.165, 632.898 1380.200 C 634.109 1382.234, 636.645 1384.854, 638.533 1386.021 C 640.421 1387.187, 643.572 1390.019, 645.536 1392.313 C 647.500 1394.608, 651.038 1397.838, 653.399 1399.492 C 655.760 1401.147, 660.102 1404.453, 663.049 1406.840 C 665.996 1409.227, 671.353 1412.668, 674.954 1414.487 C 678.554 1416.306, 683.169 1419.127, 685.210 1420.756 C 689.348 1424.060, 715.903 1433.585, 730.623 1437.046 C 735.505 1438.194, 746.925 1439.767, 756 1440.543 C 765.075 1441.318, 774.924 1442.413, 777.886 1442.976 C 786.047 1444.527, 797.243 1444.202, 810 1442.043 C 823.104 1439.826, 829.037 1437.956, 833.431 1434.658 C 835.119 1433.391, 839.875 1430.501, 844 1428.235 C 857.063 1421.061, 873.200 1405.774, 887.528 1387 C 890.256 1383.425, 894.137 1378.571, 896.153 1376.213 C 898.168 1373.856, 901.017 1368.906, 902.484 1365.213 C 903.950 1361.521, 907.111 1355.125, 909.508 1351 C 914.608 1342.221, 924.169 1314.859, 926.978 1301 C 930.720 1282.545, 931.912 1257.432, 929.975 1237.856 C 928.474 1222.682, 926.297 1212.947, 921.512 1200.014 C 919.168 1193.681, 916.476 1185.256, 915.528 1181.291 C 914.491 1176.952, 912.094 1171.224, 909.506 1166.899 C 906.961 1162.646, 904.285 1156.283, 902.946 1151.300 C 901.702 1146.671, 899.199 1140.547, 897.384 1137.692 C 895.569 1134.836, 892.499 1129.331, 890.563 1125.459 C 888.627 1121.586, 885.257 1116.025, 883.076 1113.101 C 880.894 1110.178, 878.297 1105.721, 877.305 1103.199 C 875.566 1098.779, 873.599 1094.811, 866.367 1081.130 C 862.813 1074.405, 862.226 1071.174, 864.200 1069.200 C 866.438 1066.962, 868.866 1067.986, 872.143 1072.549 C 873.939 1075.051, 877.455 1078.212, 879.955 1079.573 C 882.455 1080.935, 885.594 1083.647, 886.932 1085.601 C 888.269 1087.555, 891.194 1090.453, 893.432 1092.040 C 898.039 1095.308, 912.943 1109.432, 915.088 1112.561 C 915.864 1113.695, 919.071 1116.510, 922.214 1118.817 C 925.357 1121.123, 928.957 1124.089, 930.214 1125.408 C 935.293 1130.734, 944.148 1135.873, 950.892 1137.407 C 959.147 1139.285, 961.904 1138.653, 971.500 1132.685 C 988.551 1122.082, 990.121 1109.004, 977.584 1082 C 974.648 1075.675, 971.494 1067.349, 970.576 1063.498 C 969.658 1059.648, 967.113 1053.123, 964.922 1048.998 C 957.112 1034.301, 956.751 1033.292, 958.209 1030.242 C 960.087 1026.310, 962.902 1026.381, 968.292 1030.497 C 970.873 1032.468, 976.026 1035.686, 979.743 1037.650 C 983.459 1039.613, 989.200 1043.659, 992.500 1046.642 C 1002.048 1055.272, 1013.733 1066.115, 1018.814 1071.060 C 1021.391 1073.569, 1025.976 1077.438, 1029.001 1079.658 C 1032.027 1081.879, 1035.167 1084.497, 1035.980 1085.476 C 1036.792 1086.455, 1041.292 1089.841, 1045.979 1093 C 1050.665 1096.160, 1055.400 1099.759, 1056.500 1100.998 C 1058.217 1102.932, 1066.602 1109.100, 1075.869 1115.245 C 1077.316 1116.205, 1082.100 1118.190, 1086.500 1119.657 C 1090.900 1121.124, 1098.325 1124.246, 1103 1126.595 C 1117.559 1133.909, 1149.187 1140.142, 1172.500 1140.292 C 1185.209 1140.373, 1187.653 1140.083, 1199 1137.144 C 1215.694 1132.821, 1219.288 1131.378, 1224.274 1126.996 C 1226.598 1124.954, 1231.932 1121.699, 1236.128 1119.763 C 1240.323 1117.827, 1246.721 1114.051, 1250.345 1111.372 C 1271.658 1095.616, 1272.396 1095.499, 1278.724 1106.862 C 1290.227 1127.523, 1309.532 1146.048, 1330.939 1156.969 C 1336.186 1159.646, 1350.725 1161.231, 1359.696 1160.104 C 1369.780 1158.838, 1374.883 1156.162, 1385.073 1146.796 C 1394.255 1138.356, 1399.288 1131.513, 1405.673 1118.791 C 1409.101 1111.960, 1409.197 1111.453, 1409.195 1100.135 C 1409.193 1084.994, 1407.167 1076.170, 1400.740 1063.299 C 1393.437 1048.675, 1385.828 1041.350, 1369 1032.739 C 1362.125 1029.221, 1352.450 1025.098, 1347.500 1023.576 C 1342.550 1022.054, 1337.713 1020.107, 1336.750 1019.249 C 1334.019 1016.816, 1334.643 1012.806, 1339.400 1002.222 C 1344.916 989.950, 1349.802 967.717, 1350.658 951 C 1351.822 928.253, 1344.813 890.084, 1337.069 877 C 1334.953 873.425, 1332.247 867.125, 1331.055 863 C 1327.918 852.144, 1326.391 848.513, 1321.628 840.584 C 1319.288 836.688, 1316.769 831.925, 1316.031 830 C 1312.648 821.174, 1296.762 803.168, 1287.694 797.881 C 1285.449 796.571, 1280.886 792.889, 1277.556 789.699 C 1274.225 786.508, 1269.544 782.751, 1267.153 781.350 C 1264.763 779.949, 1260.335 777.071, 1257.313 774.954 C 1254.292 772.838, 1248.598 769.890, 1244.660 768.403 C 1240.722 766.916, 1233.585 763.724, 1228.801 761.309 C 1223.364 758.565, 1217.739 756.552, 1213.801 755.941 C 1195.042 753.033, 1193.803 752.735, 1191.204 750.499 L 1188.533 748.202 1190.353 744.386 C 1193.171 738.476, 1197.849 733.118, 1202.069 730.965 C 1204.182 729.887, 1207.168 727.344, 1208.705 725.313 C 1210.242 723.283, 1213.452 719.661, 1215.837 717.264 C 1218.420 714.668, 1221.602 709.791, 1223.706 705.203 C 1225.649 700.966, 1228.784 695.328, 1230.673 692.673 C 1232.561 690.019, 1235.461 684.169, 1237.117 679.673 C 1238.772 675.178, 1241.897 668.022, 1244.061 663.771 C 1246.224 659.519, 1248.940 652.544, 1250.095 648.271 C 1251.250 643.997, 1253.522 636, 1255.145 630.500 C 1259.460 615.879, 1260.961 603.225, 1260.982 581.301 C 1261.002 559.955, 1259.186 542.703, 1255.943 533.436 C 1254.800 530.171, 1252.576 522.642, 1251 516.705 C 1249.423 510.767, 1246.602 503.117, 1244.730 499.705 C 1242.858 496.292, 1239.857 489.682, 1238.061 485.016 C 1236.244 480.297, 1233.125 474.528, 1231.031 472.016 C 1228.961 469.532, 1225.646 463.979, 1223.664 459.675 C 1221.682 455.372, 1218.307 449.747, 1216.162 447.175 C 1214.018 444.604, 1211.026 440.025, 1209.512 437 C 1207.999 433.975, 1204.699 428.592, 1202.179 425.039 C 1199.659 421.485, 1197.013 416.324, 1196.299 413.571 C 1194.750 407.601, 1194.656 391.234, 1196.072 374 C 1198.706 341.939, 1196.489 303.602, 1190.605 279.470 C 1188.731 271.787, 1186.669 262.800, 1186.023 259.500 C 1182.873 243.430, 1178.699 228.349, 1175.843 222.727 C 1174.104 219.302, 1171.615 212, 1170.312 206.500 C 1166.008 188.339, 1152.445 162.710, 1136.662 142.915 C 1134.213 139.843, 1131.299 135.568, 1130.188 133.415 C 1129.076 131.262, 1126.131 127.132, 1123.644 124.239 C 1121.156 121.345, 1118.085 117.520, 1116.821 115.739 C 1113.986 111.746, 1104.212 102.100, 1098.643 97.798 C 1096.364 96.039, 1092.829 93.130, 1090.786 91.335 C 1088.743 89.539, 1084.693 86.866, 1081.786 85.394 C 1078.879 83.922, 1074.700 81.261, 1072.500 79.479 C 1067.961 75.805, 1062.350 72.843, 1056.500 71.033 C 1054.300 70.353, 1049.350 68.283, 1045.500 66.434 C 1041.650 64.585, 1035.575 62.588, 1032 61.996 C 1023.346 60.564, 990.385 59.954, 975.929 60.958 M 985.625 91.097 C 976.728 92.035, 972.687 93.177, 965.500 96.780 C 962.750 98.159, 956.441 100.556, 951.480 102.107 C 945.366 104.018, 940.693 106.258, 936.980 109.058 C 933.966 111.330, 928.810 114.508, 925.522 116.119 C 922.235 117.730, 918.185 120.311, 916.522 121.854 C 914.860 123.397, 911.145 126.344, 908.266 128.403 C 905.387 130.463, 902.094 133.463, 900.949 135.071 C 899.804 136.680, 896.760 139.428, 894.184 141.180 C 887.948 145.420, 876.124 156.459, 867.500 166.092 C 853.640 181.573, 851.240 184.579, 848.642 189.713 C 847.191 192.580, 844.611 196.513, 842.908 198.452 C 836.576 205.663, 823.003 225.684, 820.842 231 C 819.612 234.025, 817.197 238.750, 815.474 241.500 C 813.752 244.250, 811.099 249.647, 809.579 253.493 C 808.058 257.339, 805.496 262.438, 803.886 264.825 C 799.155 271.833, 797.377 275.934, 794.704 286 C 793.316 291.225, 790.383 299.325, 788.186 304 C 785.989 308.675, 783.410 314.975, 782.454 318 C 781.498 321.025, 778.795 328.450, 776.447 334.500 C 772.610 344.387, 768.120 362.309, 759.911 400.500 C 758.847 405.450, 756.104 427.275, 753.815 449 C 749.683 488.216, 749.652 488.784, 749.614 528 C 749.584 559.335, 749.920 570.084, 751.240 580 C 752.155 586.875, 753.840 599.700, 754.984 608.500 C 756.128 617.300, 758.807 631.475, 760.937 640.001 C 763.066 648.527, 765.996 662.927, 767.448 672.001 C 771.207 695.504, 773.885 707.854, 776.210 712.412 C 777.322 714.591, 779.483 720.124, 781.013 724.706 C 784.632 735.546, 786.273 738, 789.901 738 C 795.415 738, 795.476 737.623, 795.778 701.244 C 796.009 673.344, 796.313 667.295, 797.609 664.790 L 799.162 661.786 800.675 663.946 C 801.614 665.287, 802.524 670.164, 803.074 676.803 C 803.561 682.686, 804.182 688.850, 804.454 690.500 C 805.746 698.340, 806.955 727.923, 806.158 732.189 C 805.676 734.767, 804.093 738.289, 802.641 740.015 C 798.769 744.616, 799.190 748.418, 804.887 760.304 C 807.574 765.912, 810.563 772.401, 811.527 774.725 C 812.759 777.691, 814.806 780, 818.399 782.475 C 827.061 788.441, 829.255 787.187, 833.476 773.865 C 834.806 769.666, 837.685 763.461, 839.873 760.075 C 842.061 756.690, 844.345 751.575, 844.949 748.710 C 846.921 739.352, 848.947 734.527, 852.929 729.709 C 855.417 726.698, 857.789 722.138, 859.430 717.211 C 860.851 712.945, 863.590 707.113, 865.517 704.251 C 867.443 701.390, 870.422 695.174, 872.136 690.438 C 873.850 685.702, 876.819 679.503, 878.733 676.663 C 880.648 673.824, 883.794 668.350, 885.724 664.500 C 887.654 660.650, 890.736 655.025, 892.572 652 C 896.413 645.671, 900.201 634.567, 901.923 624.587 C 902.595 620.688, 904.600 614.802, 906.521 611.087 C 910.101 604.161, 910.952 600.874, 913.458 584.295 C 915.382 571.566, 915.424 562.706, 913.578 559.200 C 912.797 557.715, 909.830 554.250, 906.987 551.500 C 904.143 548.750, 899.772 543.868, 897.274 540.652 C 894.776 537.435, 890.315 533.258, 887.362 531.368 C 884.408 529.479, 879.769 525.959, 877.052 523.546 C 874.335 521.133, 867.475 516.836, 861.806 513.995 C 852.968 509.567, 850.951 508.919, 847.645 509.444 C 842.336 510.288, 838.320 512.502, 832.793 517.632 C 829.087 521.071, 827.337 522, 824.566 522 C 819.196 522, 817.572 518.834, 818.265 509.710 C 819.415 494.554, 825.477 480.319, 834.100 472.529 C 837.983 469.021, 842.486 467.903, 844.550 469.936 C 845.073 470.450, 848.425 472.300, 852 474.046 C 855.575 475.792, 860.750 479.366, 863.500 481.988 C 866.250 484.609, 870.750 488.904, 873.500 491.531 C 876.250 494.158, 881.200 497.869, 884.500 499.776 C 892.011 504.117, 913.614 525.834, 917.937 533.389 C 921.228 539.141, 924.295 541, 930.494 541 C 934.689 541, 936.491 538.846, 939.364 530.400 C 941.652 523.673, 944.038 518.716, 947.980 512.500 C 950.558 508.435, 952.002 495.850, 951.992 477.526 C 951.982 457.405, 950.936 451.670, 944.958 438.961 C 942.231 433.164, 940 427.906, 940 427.277 C 940 426.647, 937.149 421.940, 933.665 416.816 C 924.782 403.752, 922.294 399.134, 921.507 394.244 C 920.659 388.975, 917.890 386.637, 914.387 388.234 C 913.077 388.830, 909.288 392.604, 905.966 396.620 C 901.648 401.840, 898.238 404.822, 894.009 407.076 C 890.754 408.811, 886.285 411.776, 884.078 413.665 C 879.103 417.924, 866.690 434.021, 861.990 442.310 C 859.153 447.315, 857.478 449.038, 853.245 451.311 C 850.365 452.857, 846.828 455.670, 845.386 457.561 C 843.943 459.453, 841.971 461, 841.004 461 C 837.735 461, 836.760 458.414, 837.147 450.765 C 837.444 444.904, 838.089 442.534, 840.488 438.500 C 842.122 435.750, 844.369 431.266, 845.480 428.536 C 846.942 424.943, 848.684 422.776, 851.786 420.695 C 854.144 419.113, 856.800 416.622, 857.689 415.160 C 858.578 413.697, 862.049 409.741, 865.403 406.370 C 868.756 402.998, 873.117 398.498, 875.094 396.370 C 882.990 387.868, 890.648 382.282, 896.163 381.003 C 899.693 380.183, 902.685 378.647, 905 376.465 C 912.496 369.399, 922.213 369.455, 933.308 376.627 C 946.754 385.321, 952.175 391.175, 955.931 401.062 C 957.034 403.963, 959.231 407.948, 960.813 409.918 C 966.885 417.475, 967.926 420.823, 971.469 444.187 C 974.352 463.193, 974.736 479.278, 972.598 491.500 C 971.829 495.900, 970.902 503.100, 970.538 507.500 C 969.351 521.832, 968.288 525.337, 962.917 532.613 C 959.486 537.261, 957.300 541.582, 955.842 546.600 C 954.456 551.371, 952.480 555.377, 950.080 558.281 C 948.071 560.712, 945.177 565.806, 943.650 569.600 C 942.122 573.395, 938.363 581.502, 935.296 587.615 C 930.182 597.809, 929.761 599.156, 930.214 603.875 C 930.752 609.476, 933.105 613, 936.306 613 C 937.478 613, 941.938 609.386, 947.107 604.250 C 957.782 593.642, 967.772 584.682, 970.559 583.217 C 971.691 582.621, 976.627 581.434, 981.528 580.579 C 988.074 579.436, 991.509 578.261, 994.470 576.150 C 1001.437 571.182, 1004.361 570.152, 1019.080 567.485 C 1028.161 565.840, 1035.965 563.771, 1040.355 561.844 C 1044.169 560.170, 1051.836 557.700, 1057.394 556.355 C 1069.471 553.431, 1071.028 552.063, 1074.020 541.740 C 1075.189 537.705, 1077.809 532.052, 1079.939 528.969 C 1082.040 525.928, 1085.172 520.045, 1086.899 515.897 C 1088.700 511.571, 1091.417 507.064, 1093.270 505.328 C 1097.759 501.123, 1106.080 495, 1107.306 495 C 1107.867 495, 1110.475 496.380, 1113.103 498.066 C 1116.541 500.272, 1120.214 501.512, 1126.191 502.486 C 1136.403 504.150, 1138.824 505.062, 1141.947 508.418 C 1143.293 509.865, 1147.118 512.574, 1150.447 514.439 C 1156.218 517.671, 1165.527 526.470, 1171.143 534 C 1172.579 535.925, 1175.334 539.167, 1177.266 541.204 C 1180.136 544.230, 1181.072 546.334, 1182.381 552.704 C 1183.262 556.992, 1184.886 563.200, 1185.991 566.500 C 1188.640 574.409, 1188.541 576.067, 1185.058 582.265 C 1183.340 585.322, 1181.844 589.788, 1181.461 593 C 1180.172 603.821, 1179.309 605.735, 1174.428 608.595 C 1171.486 610.319, 1169.192 612.673, 1167.827 615.369 C 1166.676 617.641, 1164.450 621.132, 1162.881 623.126 C 1158.823 628.284, 1157.298 636.638, 1156.604 657.500 C 1155.893 678.859, 1154.298 687.785, 1149.578 696.808 C 1147.652 700.489, 1144.507 707.002, 1142.589 711.283 C 1140.670 715.563, 1137.554 720.871, 1135.665 723.078 C 1133.776 725.285, 1130.817 729.742, 1129.091 732.981 C 1127.365 736.220, 1124.162 740.288, 1121.973 742.021 C 1117.205 745.798, 1116.018 749.257, 1118.536 752.040 C 1120.952 754.709, 1123.436 754.506, 1129.419 751.150 C 1132.214 749.583, 1137.650 747.293, 1141.500 746.062 C 1160.165 740.096, 1161.063 739.589, 1170.844 729.501 C 1175.880 724.306, 1180 719.620, 1180 719.087 C 1180 718.553, 1182.270 715.522, 1185.045 712.351 C 1187.820 709.180, 1191.499 704.091, 1193.222 701.043 C 1194.944 697.994, 1198.006 693.025, 1200.025 690 C 1202.045 686.975, 1204.954 680.675, 1206.490 676 C 1208.026 671.325, 1210.983 664.095, 1213.060 659.934 C 1217.323 651.396, 1219.326 644.893, 1221.048 634 C 1221.701 629.875, 1223.816 619.750, 1225.748 611.500 C 1228.694 598.922, 1229.341 594.044, 1229.751 581.288 C 1230.315 563.793, 1229.348 555.453, 1224.504 536 C 1222.655 528.575, 1220.605 519.125, 1219.950 515 C 1218.790 507.701, 1216.658 502.225, 1212.896 496.882 C 1211.882 495.443, 1209.721 490.943, 1208.093 486.882 C 1205.140 479.513, 1199.833 471.873, 1188.500 458.673 C 1185.200 454.830, 1180.742 449.393, 1178.594 446.593 C 1176.446 443.792, 1172.986 439.555, 1170.904 437.177 C 1166.033 431.613, 1161 418.670, 1161 411.707 C 1161 408.890, 1161.668 401.166, 1162.485 394.543 C 1164.781 375.918, 1165.890 346.302, 1164.976 328 C 1164.059 309.638, 1162.311 296.580, 1158.600 280.370 C 1157.231 274.392, 1154.517 262.075, 1152.569 253 C 1148.530 234.187, 1138.258 202.703, 1133.962 195.968 C 1132.372 193.476, 1129.452 186.963, 1127.473 181.494 C 1125.477 175.981, 1122.426 169.759, 1120.624 167.526 C 1118.837 165.312, 1115.644 160.375, 1113.529 156.555 C 1111.414 152.735, 1107.045 146.660, 1103.819 143.055 C 1100.594 139.450, 1095.827 134.121, 1093.227 131.214 C 1085.962 123.091, 1079.790 117, 1078.824 117 C 1078.343 117, 1075.086 114.336, 1071.586 111.080 C 1066.240 106.106, 1056.072 100, 1053.137 100 C 1052.695 100, 1048.925 98.204, 1044.758 96.009 C 1039.602 93.292, 1034.998 91.702, 1030.342 91.029 C 1022.316 89.868, 996.902 89.907, 985.625 91.097 M 1002.021 167.028 C 995.216 168.465, 981.751 178.275, 973.453 187.841 C 967.810 194.345, 965.966 197.328, 964.203 202.803 C 961.396 211.518, 961.434 215.017, 964.452 225.430 C 967.695 236.623, 969.906 240.734, 976.225 247.322 C 979.126 250.347, 983.300 254.779, 985.500 257.170 C 996.508 269.136, 1004.175 273.941, 1012.316 273.978 C 1017.631 274.002, 1019.433 273.256, 1025.868 268.361 C 1028.271 266.534, 1033.399 264.021, 1037.264 262.776 C 1043.135 260.885, 1044.944 259.740, 1048.247 255.822 C 1050.422 253.243, 1053.954 249.973, 1056.096 248.555 C 1058.986 246.642, 1060.775 244.247, 1063.036 239.260 C 1064.712 235.564, 1066.949 231.619, 1068.008 230.492 C 1070.693 227.633, 1073 220.589, 1073 215.247 C 1073 211.841, 1071.981 208.892, 1068.809 203.123 C 1062.005 190.746, 1058.206 185.246, 1054.419 182.287 C 1052.457 180.754, 1048.225 177.418, 1045.014 174.874 C 1041.804 172.330, 1037 169.487, 1034.338 168.557 C 1028.602 166.551, 1008.728 165.611, 1002.021 167.028 M 1007.700 190.503 C 1004.510 192.426, 1001.627 194, 1001.294 194 C 999.397 194, 993.244 200.097, 989.808 205.383 C 986.097 211.092, 985.856 211.903, 986.200 217.540 C 986.454 221.716, 987.409 225.112, 989.293 228.540 C 990.792 231.268, 993.231 235.858, 994.713 238.740 C 997.286 243.746, 997.760 244.115, 1005.289 246.990 C 1009.624 248.646, 1014.572 250, 1016.284 250 C 1020.737 250, 1035.029 245.455, 1039.008 242.774 C 1043.561 239.705, 1047.003 232.628, 1048.291 223.687 C 1049.353 216.317, 1049.342 216.252, 1045.802 208.798 C 1043.697 204.367, 1041.074 200.488, 1039.373 199.292 C 1035.218 196.370, 1016.559 187, 1014.904 187.003 C 1014.132 187.004, 1010.890 188.579, 1007.700 190.503 M 909.530 265.732 C 908.446 266.007, 905.296 267.499, 902.530 269.047 C 899.763 270.596, 893.450 272.994, 888.500 274.375 C 881.139 276.430, 879.045 277.464, 877 280.054 C 875.625 281.795, 872.334 285.449, 869.687 288.174 C 867.040 290.898, 864.028 295.102, 862.994 297.515 C 861.594 300.781, 860.058 302.440, 856.981 304.010 C 854.224 305.416, 852.375 307.252, 851.424 309.527 C 849.874 313.236, 849.493 320, 850.834 320 C 851.841 320, 858.618 313.656, 862.051 309.500 C 864.980 305.954, 869.618 302.412, 876.500 298.464 C 879.250 296.887, 883.075 294.355, 885 292.838 C 888.179 290.333, 896.763 287.132, 904.500 285.566 C 907.749 284.909, 919.891 287.738, 927.125 290.839 C 929.537 291.873, 933.807 294.968, 936.614 297.716 C 939.420 300.464, 943.468 303.706, 945.608 304.919 C 947.749 306.133, 950.625 308.651, 952 310.514 C 953.375 312.378, 956.750 315.117, 959.500 316.600 C 962.250 318.084, 966.410 320.834, 968.745 322.711 C 971.079 324.589, 976.479 327.736, 980.745 329.705 C 985.010 331.674, 990.306 334.762, 992.512 336.568 C 994.719 338.374, 998.769 340.401, 1001.512 341.073 C 1012.842 343.849, 1017.282 347.904, 1025.727 363.194 C 1030.102 371.113, 1031.485 375.029, 1034.846 389.015 C 1039.241 407.302, 1041.472 422.507, 1040.734 429.139 C 1040.467 431.538, 1039.287 437.958, 1038.112 443.407 C 1036.147 452.521, 1036.102 453.507, 1037.552 455.720 C 1039.062 458.024, 1039.456 458.098, 1046.814 457.469 C 1054.003 456.854, 1054.746 456.980, 1058.308 459.415 C 1060.403 460.847, 1064.003 462.962, 1066.308 464.114 C 1068.614 465.266, 1072.365 468.009, 1074.645 470.210 C 1082.360 477.655, 1099.687 480.194, 1113.557 475.910 C 1120.427 473.788, 1120.364 473.835, 1136.183 458.827 C 1138.612 456.522, 1139 455.391, 1139 450.612 C 1139 443.105, 1137.016 441.930, 1130.274 445.444 C 1124.274 448.572, 1108.971 453.221, 1102.890 453.763 C 1099.525 454.063, 1095.910 453.348, 1089.506 451.114 C 1078.473 447.267, 1077.017 446.291, 1071.835 439.277 C 1066.406 431.928, 1065.095 428.103, 1065.056 419.500 C 1065.030 413.837, 1065.499 411.668, 1067.512 408.148 C 1068.880 405.754, 1070 403.130, 1070 402.316 C 1070 401.502, 1068.451 398.946, 1066.558 396.636 C 1061.921 390.977, 1061.240 388.842, 1059.948 375.918 C 1058.941 365.844, 1058.419 363.984, 1054.327 355.870 C 1051.846 350.950, 1048.845 346.297, 1047.658 345.530 C 1046.471 344.762, 1040.908 343.456, 1035.297 342.627 C 1023.450 340.878, 1021.913 340.214, 1019.074 335.619 C 1017.916 333.746, 1015.413 331.027, 1013.512 329.577 C 1011.611 328.127, 1008.735 325.022, 1007.123 322.678 C 1005.510 320.335, 1001.110 316.073, 997.345 313.208 C 993.580 310.343, 989.094 306.860, 987.375 305.468 C 985.656 304.076, 981.606 302.010, 978.375 300.877 C 974.291 299.446, 970.518 297.021, 966 292.925 C 962.425 289.684, 956.800 284.601, 953.500 281.629 C 945.008 273.981, 925.059 264.948, 917.033 265.116 C 913.990 265.180, 910.613 265.457, 909.530 265.732 M 841.899 323.289 C 840.030 324.548, 836.906 328.217, 834.955 331.442 C 833.004 334.667, 829.924 338.322, 828.109 339.566 C 824.060 342.340, 822.380 344.669, 820.427 350.214 C 819.596 352.572, 817.164 356.300, 815.022 358.500 C 812.418 361.173, 809.935 365.466, 807.537 371.439 C 805.564 376.356, 802.812 381.868, 801.423 383.690 C 797.740 388.518, 796.491 392.048, 793.107 407.181 C 791.435 414.660, 788.680 424.272, 786.984 428.539 C 782.898 438.827, 781.335 446.029, 780.009 460.695 C 778.757 474.541, 775.955 491.193, 773.144 501.500 C 767.306 522.904, 767.957 600, 773.975 600 C 777.367 600, 779.510 589.003, 780.991 564 C 782.249 542.758, 783.050 537.046, 787.373 518.500 C 790.379 505.607, 792.464 488.417, 794.013 463.771 C 794.626 454.021, 795.511 444.706, 795.979 443.072 C 796.448 441.438, 798.421 438.018, 800.365 435.473 C 802.993 432.032, 804.307 428.881, 805.496 423.173 C 809.398 404.444, 810.951 399.268, 814.365 393.626 C 816.557 390.004, 818.551 384.830, 819.570 380.126 C 821.282 372.221, 822.654 369.249, 826.553 365 C 827.815 363.625, 830.946 358.326, 833.510 353.224 C 836.074 348.123, 839.281 342.631, 840.637 341.020 C 841.992 339.409, 844 335.033, 845.098 331.295 C 846.196 327.558, 847.351 323.712, 847.664 322.750 C 848.466 320.285, 846.018 320.514, 841.899 323.289 M 1068.007 327.593 C 1060.895 330.677, 1057.550 336.680, 1061.750 338.823 C 1063.523 339.727, 1078.425 343.372, 1085.185 344.554 C 1087.211 344.908, 1089.643 346.053, 1090.590 347.099 C 1094.424 351.336, 1096.896 348.677, 1094.142 343.279 C 1093.079 341.194, 1091.708 337.629, 1091.096 335.357 C 1089.424 329.145, 1084.756 325.989, 1077.317 326.039 C 1074.118 326.061, 1069.928 326.760, 1068.007 327.593 M 1103.500 365.945 C 1102.400 366.395, 1098.746 369.629, 1095.381 373.131 C 1092.015 376.634, 1086.953 381.437, 1084.131 383.805 C 1079.551 387.648, 1079 388.535, 1079 392.055 L 1079 396 1085.750 395.979 C 1093.966 395.954, 1103.840 393.990, 1107.365 391.681 C 1114.879 386.757, 1117.034 373.752, 1111.351 367.623 C 1108.848 364.924, 1106.975 364.523, 1103.500 365.945 M 1113.500 526.163 C 1107.831 529.104, 1105.964 530.932, 1103.884 535.579 C 1100.965 542.099, 1100.460 549.875, 1102.528 556.451 C 1103.958 560.997, 1105.327 562.979, 1109.496 566.541 C 1112.349 568.979, 1115.473 572.723, 1116.437 574.861 C 1117.467 577.144, 1120.034 580.048, 1122.654 581.895 C 1125.108 583.625, 1127.878 586.459, 1128.808 588.191 C 1130.397 591.150, 1136.930 599.191, 1144.002 606.892 L 1147.116 610.284 1154.737 609.639 C 1165.185 608.756, 1166.299 607.828, 1168.935 597.809 C 1170.137 593.239, 1171.812 587.340, 1172.657 584.701 C 1174.610 578.599, 1174.108 574.378, 1169.683 559.677 C 1165.757 546.636, 1165.343 545.909, 1160.120 542.887 C 1158.129 541.735, 1155.143 538.943, 1153.484 536.682 C 1150.308 532.352, 1150.187 532.294, 1133.500 527.089 C 1121.886 523.467, 1118.959 523.331, 1113.500 526.163 M 392.039 543.189 C 389.336 546.090, 389.467 547.800, 392.500 549.182 C 397.421 551.424, 401.345 547.668, 399.393 542.582 C 398.517 540.299, 394.415 540.638, 392.039 543.189 M 1059.500 577.123 C 1054.701 578.929, 1044.641 581.300, 1034.356 583.051 C 1015.466 586.266, 1013.552 586.822, 1007 590.992 C 1004.525 592.568, 997.926 595.210, 992.336 596.864 C 981.844 599.969, 976.723 602.212, 970.517 606.424 C 968.537 607.768, 964.573 609.625, 961.709 610.551 C 958.696 611.526, 954.814 613.830, 952.500 616.017 C 950.193 618.198, 947.018 620.085, 945 620.474 C 938.661 621.697, 938.154 622.050, 935.919 626.796 C 934.701 629.383, 932.056 633.750, 930.041 636.500 C 922.911 646.233, 918.889 652.904, 916.546 658.882 C 915.242 662.210, 912.321 667.576, 910.055 670.806 C 907.789 674.037, 904.362 680.686, 902.440 685.583 C 900.517 690.479, 897.578 696.187, 895.907 698.266 C 894.236 700.345, 891.275 705.298, 889.326 709.273 C 887.378 713.248, 884.093 718.750, 882.028 721.500 C 879.962 724.250, 877.057 729.736, 875.571 733.691 C 874.086 737.647, 871.346 742.878, 869.484 745.317 C 867.622 747.756, 864.317 754.095, 862.140 759.404 C 859.873 764.934, 856.694 770.703, 854.697 772.913 C 852.050 775.844, 850.818 778.507, 849.569 783.997 C 848.665 787.972, 846.795 793.986, 845.414 797.362 C 841.708 806.419, 843.121 811.195, 850.317 813.931 C 853.609 815.182, 854.618 814.749, 863.275 808.377 C 866.545 805.969, 869.856 804, 870.632 804 C 871.409 804, 874.261 801.677, 876.969 798.838 L 881.892 793.676 889.696 795.475 C 893.988 796.465, 898.288 797.958, 899.250 798.792 C 902.119 801.280, 901.398 804.612, 897.322 807.707 C 895.300 809.243, 891.362 812.581, 888.572 815.124 C 885.783 817.668, 880.800 821.243, 877.500 823.069 C 868.651 827.966, 857.084 836.721, 855.831 839.471 C 854.382 842.651, 855.246 844.570, 859.216 846.991 C 865.573 850.866, 876.295 848.798, 905 838.160 C 908.025 837.039, 914.599 834.994, 919.608 833.615 C 924.618 832.235, 931.593 829.790, 935.108 828.180 C 938.624 826.570, 946 823.814, 951.500 822.054 C 957 820.295, 964.650 817.135, 968.500 815.033 C 972.350 812.931, 979.550 810.003, 984.500 808.526 C 989.450 807.050, 997.324 803.790, 1001.998 801.282 C 1006.672 798.774, 1012.967 795.871, 1015.988 794.832 C 1019.009 793.793, 1024.410 791.231, 1027.990 789.140 C 1031.571 787.049, 1036.075 784.735, 1038 783.999 C 1044.753 781.418, 1051.535 777.689, 1055.241 774.522 C 1057.298 772.763, 1061.111 770.239, 1063.713 768.912 C 1066.316 767.585, 1071.102 764.138, 1074.349 761.250 C 1077.596 758.362, 1080.697 756, 1081.241 756 C 1083.222 756, 1098.259 740.377, 1100.491 736 C 1101.752 733.525, 1104.524 730.104, 1106.649 728.399 C 1109.542 726.076, 1111.360 723.244, 1113.887 717.124 C 1115.743 712.628, 1118.781 707.049, 1120.638 704.725 C 1122.863 701.940, 1125.083 697.091, 1127.151 690.500 C 1128.876 685, 1131.749 676.900, 1133.536 672.500 C 1137.303 663.221, 1139.489 651.582, 1138.634 645.349 C 1137.723 638.700, 1124.685 614.406, 1119.357 609.430 C 1116.961 607.192, 1115 604.814, 1115 604.146 C 1115 603.479, 1111.328 599.010, 1106.840 594.216 C 1099.597 586.479, 1096.088 583.615, 1084.500 575.983 C 1079.783 572.877, 1069.550 573.343, 1059.500 577.123 M 1050.667 639.667 C 1049.515 640.818, 1049.941 644.706, 1051.345 645.872 C 1052.085 646.486, 1054.110 647.272, 1055.845 647.619 C 1058.837 648.217, 1059 648.091, 1059 645.182 C 1059 640.965, 1053.204 637.129, 1050.667 639.667 M 659.333 697.576 C 657.151 699.758, 656.831 700.807, 657.240 704.433 C 657.863 709.968, 662.066 719.090, 666.927 725.461 C 669.042 728.233, 671.717 732.383, 672.873 734.684 C 676.347 741.604, 681.118 743.707, 685.841 740.399 C 690.004 737.483, 690.196 734.884, 687.014 724.546 C 683.271 712.387, 682.748 711.462, 675.149 703.563 C 665.956 694.009, 663.739 693.170, 659.333 697.576 M 327.500 729.077 C 286.508 730.741, 268.286 733.100, 243.500 739.949 C 235.800 742.077, 225.900 744.536, 221.500 745.413 C 216.701 746.370, 209.899 748.772, 204.500 751.417 C 199.550 753.841, 191.675 757.054, 187 758.556 C 182.325 760.059, 175.125 762.975, 171 765.038 C 166.875 767.101, 162.375 769.115, 161 769.515 C 155.528 771.105, 146.322 775.331, 143.202 777.685 C 141.389 779.054, 135.989 781.996, 131.202 784.223 C 126.416 786.450, 120.475 789.730, 118 791.512 C 115.525 793.295, 111.025 795.989, 108 797.500 C 104.975 799.010, 100.186 802.328, 97.357 804.873 C 94.529 807.418, 89.633 811.300, 86.478 813.500 C 80.572 817.619, 62.194 836.583, 53.141 847.900 C 49.032 853.037, 47.339 856.393, 44.563 864.900 C 42.661 870.730, 39.898 878.875, 38.424 883 C 33.936 895.555, 34.939 914.288, 40.869 928.695 C 42.410 932.438, 44.482 938.875, 45.473 943 C 47.641 952.025, 48.048 952.859, 53.623 959.705 C 56.029 962.658, 58.923 966.889, 60.054 969.107 C 61.186 971.324, 64.449 975.741, 67.306 978.922 C 70.163 982.104, 75.425 988.192, 79 992.453 C 90.520 1006.182, 103.964 1018.806, 111.500 1022.972 C 114.800 1024.796, 119.343 1027.796, 121.595 1029.638 C 123.846 1031.479, 128.601 1034.504, 132.161 1036.359 C 135.720 1038.215, 140.761 1041.358, 143.363 1043.344 C 145.965 1045.329, 151.110 1048.617, 154.797 1050.649 C 158.484 1052.681, 162.669 1055.148, 164.097 1056.131 C 165.526 1057.114, 171.601 1059.806, 177.597 1062.113 C 183.594 1064.420, 190.975 1067.971, 194 1070.003 C 197.025 1072.035, 202.650 1074.715, 206.500 1075.958 C 210.350 1077.201, 217.942 1080.227, 223.371 1082.682 C 229.384 1085.401, 238.177 1088.289, 245.871 1090.070 C 252.817 1091.678, 260.646 1093.651, 263.268 1094.454 C 267.818 1095.848, 274.162 1096.638, 300 1099.025 C 319.387 1100.816, 322.054 1102.183, 325.823 1112.255 C 326.981 1115.352, 330.365 1122.749, 333.342 1128.693 C 336.320 1134.637, 339.552 1141.975, 340.526 1145 C 341.500 1148.025, 343.802 1152.867, 345.642 1155.759 C 347.482 1158.652, 350.748 1164.502, 352.901 1168.759 C 355.054 1173.017, 358.468 1178.075, 360.488 1180 C 362.508 1181.925, 365.694 1185.579, 367.569 1188.119 C 372.648 1195.001, 394.688 1207.467, 405.637 1209.651 C 410.511 1210.624, 417.301 1213.076, 423.500 1216.104 C 435.800 1222.112, 440.229 1222.839, 469.500 1223.657 C 492.743 1224.306, 511.539 1223.136, 522.500 1220.358 C 525.800 1219.522, 531.650 1217.127, 535.500 1215.036 C 539.350 1212.946, 544.300 1210.663, 546.500 1209.964 C 558.889 1206.027, 583.255 1184.503, 589.155 1172.284 C 590.995 1168.473, 591.915 1165.308, 591.533 1164.104 C 590.438 1160.652, 585.846 1160.559, 578.316 1163.835 C 566.658 1168.907, 562.466 1169.350, 525.500 1169.413 L 491.500 1169.471 485.334 1166.293 C 481.943 1164.546, 475.288 1161.746, 470.545 1160.072 C 460.279 1156.449, 458.720 1155.664, 453.500 1151.492 C 449.577 1148.357, 444.048 1145.230, 423 1134.240 C 410.140 1127.526, 408.117 1125.691, 403.596 1116.641 L 400.029 1109.500 399.764 1090.329 C 399.509 1071.803, 399.422 1071.075, 397.168 1068.677 C 394.274 1065.598, 387.113 1063.627, 383.631 1064.950 C 382.083 1065.539, 380.392 1067.585, 379.167 1070.355 C 377.390 1074.372, 376.372 1075.216, 368.848 1078.910 C 364.257 1081.164, 357.649 1084.581, 354.165 1086.504 C 347.434 1090.219, 341.747 1090.995, 336.335 1088.937 C 330.426 1086.691, 330.555 1082.955, 336.687 1078.729 C 339.266 1076.953, 343.709 1073.418, 346.562 1070.873 C 350.235 1067.597, 353.755 1065.593, 358.624 1064.006 C 362.406 1062.774, 370.602 1059.025, 376.838 1055.676 C 387.008 1050.214, 388.418 1049.119, 390.531 1045.044 C 393.892 1038.563, 396.795 1035.538, 402.492 1032.587 C 408.787 1029.325, 411.472 1029.327, 414.502 1032.597 C 418.060 1036.435, 418.760 1039.768, 419.971 1058.626 C 421.615 1084.224, 422.154 1086.633, 429.597 1101.676 C 434.598 1111.783, 436.977 1115.491, 439.809 1117.594 C 441.839 1119.102, 445.300 1122.305, 447.500 1124.711 C 451.165 1128.719, 452.171 1129.218, 459.500 1130.663 C 463.900 1131.530, 471.100 1133.923, 475.500 1135.981 C 485.255 1140.541, 488.996 1141.482, 505.555 1143.537 C 528.471 1146.381, 582.342 1145.379, 595.479 1141.864 C 603.159 1139.809, 616.062 1130.967, 626 1120.948 C 636.882 1109.977, 642.493 1103.417, 646.483 1097 C 648.022 1094.525, 650.841 1090.700, 652.747 1088.500 C 654.653 1086.300, 658.077 1081.738, 660.356 1078.362 C 662.635 1074.986, 668.460 1067.003, 673.301 1060.621 C 678.141 1054.240, 683.243 1046.427, 684.637 1043.259 C 686.032 1040.092, 688.914 1035.234, 691.042 1032.466 C 693.170 1029.697, 696.786 1023.847, 699.077 1019.466 C 701.369 1015.084, 704.446 1010.128, 705.915 1008.451 C 707.384 1006.773, 710.096 1001.598, 711.941 996.951 C 713.785 992.303, 716.527 986.693, 718.033 984.485 C 719.540 982.277, 722.675 976.877, 725.001 972.485 C 727.326 968.093, 731.186 960.801, 733.578 956.281 C 739.749 944.616, 741.507 938.071, 740.037 932.233 C 738.455 925.951, 735.684 922.396, 730.622 920.157 C 727.553 918.799, 725.584 916.965, 723.646 913.659 C 722.013 910.872, 719.267 908.069, 716.693 906.560 C 714.354 905.190, 710.239 901.518, 707.548 898.402 C 700.387 890.107, 696.324 888.588, 683.590 889.442 C 666.366 890.598, 661.190 891.759, 650 896.979 C 638.758 902.222, 632.428 904.260, 621.814 906.053 C 616.810 906.899, 613.496 908.255, 608.644 911.442 C 603.441 914.859, 599.694 916.312, 589.676 918.800 C 581.742 920.771, 575.406 922.999, 572.291 924.916 C 569.595 926.575, 562.718 929.558, 557.009 931.545 C 551.299 933.533, 543.674 936.940, 540.064 939.118 C 536.454 941.295, 529.998 944.153, 525.719 945.467 C 521.439 946.782, 515.814 949.377, 513.219 951.234 C 510.623 953.091, 504.450 956.291, 499.500 958.345 C 494.550 960.399, 488.665 963.384, 486.421 964.979 C 484.178 966.574, 477.653 970.078, 471.921 972.766 C 466.190 975.455, 460.851 978.445, 460.058 979.412 C 459.264 980.378, 455.439 982.754, 451.558 984.692 C 447.676 986.630, 442.105 990.006, 439.178 992.194 C 436.250 994.383, 431.300 997.294, 428.178 998.662 C 425.055 1000.030, 420.700 1002.886, 418.500 1005.007 C 416.025 1007.393, 410.983 1010.382, 405.274 1012.847 C 400.200 1015.037, 394.740 1017.761, 393.142 1018.899 C 384.053 1025.371, 359.296 1025.595, 344.500 1019.340 C 338.543 1016.822, 334.680 1015.651, 321.792 1012.461 C 316.427 1011.133, 313.962 1009.819, 309.483 1005.900 C 306.403 1003.205, 303.487 1001, 303.001 1001 C 302.516 1001, 298.740 997.867, 294.611 994.038 C 290.321 990.061, 284.187 985.607, 280.301 983.649 C 272.201 979.566, 270.930 978.272, 267.365 970.485 C 265.864 967.207, 262.789 962.257, 260.532 959.486 C 258.275 956.715, 255.829 953.001, 255.096 951.233 C 254.364 949.464, 252.218 947.062, 250.328 945.893 C 248.437 944.725, 245.061 941.346, 242.825 938.385 C 240.455 935.246, 237.981 933, 236.892 933 C 235.803 933, 233.979 934.657, 232.516 936.975 C 229.369 941.960, 226.837 943.627, 220.274 945.035 C 217.413 945.648, 213.594 947.220, 211.787 948.528 C 199.758 957.233, 191.393 959.478, 173.548 958.790 C 159.283 958.241, 153.696 956.282, 150.701 950.778 C 149.720 948.975, 147.080 946.193, 144.834 944.596 C 140.058 941.198, 137.622 936.294, 135.963 926.734 C 135.255 922.653, 133.769 918.487, 132.219 916.234 C 128.087 910.232, 127.091 906.183, 127.044 895.200 C 126.998 884.433, 127.874 881.234, 131.856 877.630 C 132.990 876.604, 134.629 873.623, 135.498 871.006 C 137.757 864.206, 150.299 850.969, 157.304 847.992 C 160.162 846.777, 163.850 844.776, 165.500 843.543 C 171.703 838.911, 179.543 838.012, 186.416 841.143 C 187.917 841.827, 190.296 844.937, 192.441 849.019 C 194.390 852.729, 197.771 857.925, 199.954 860.567 C 202.136 863.208, 204.142 866.524, 204.412 867.935 C 207.144 882.252, 207.136 882.232, 211.853 887.275 C 216.066 891.781, 216.493 892.685, 216.430 896.969 C 216.388 899.838, 215.406 903.618, 213.930 906.596 C 211.911 910.670, 210.531 911.985, 205.772 914.364 C 199.738 917.381, 196.541 917.398, 193.570 914.427 C 191.181 912.038, 191.689 907.981, 195 903 C 196.645 900.525, 197.993 897.898, 197.996 897.162 C 198.003 894.877, 190.884 882.970, 188.624 881.490 C 185.250 879.279, 170.131 876.015, 163.228 876.007 C 157.897 876.001, 155.764 876.599, 149.019 879.990 C 141.255 883.894, 141.050 884.093, 139.542 889.172 C 137.731 895.268, 137.537 904.372, 139.120 908.914 C 139.801 910.868, 141.792 913.106, 144.204 914.629 C 146.993 916.389, 148.852 918.668, 150.476 922.316 C 153.425 928.940, 155.816 930.972, 164.806 934.498 L 172.112 937.363 184.439 936.201 C 191.219 935.562, 198.043 934.554, 199.603 933.961 C 201.164 933.367, 205.742 932.250, 209.778 931.478 C 218.623 929.786, 228.228 924.399, 229.797 920.252 C 231.790 914.981, 231.971 909.192, 230.511 897.384 C 229.212 886.879, 228.524 884.456, 224.581 876.500 C 218.735 864.704, 217 858.344, 217 848.709 L 217 840.781 222.868 835.127 C 226.648 831.485, 230.011 826.942, 232.319 822.360 C 234.633 817.765, 237.348 814.100, 239.988 812.009 C 242.236 810.229, 244.915 807.136, 245.942 805.136 C 247.181 802.720, 249.769 800.334, 253.654 798.025 C 256.869 796.114, 261.134 792.730, 263.132 790.506 C 265.741 787.600, 269.077 785.507, 274.983 783.069 C 279.527 781.192, 284.834 778.132, 286.851 776.224 C 291.303 772.013, 292.041 771.722, 306.500 768.479 C 312.856 767.053, 321.081 764.610, 324.778 763.049 C 336.868 757.944, 356.911 755.917, 395.118 755.937 C 412.928 755.946, 432.225 756.401, 438 756.947 C 447.505 757.846, 469.160 761.527, 487.500 765.362 C 491.350 766.167, 500.722 767.801, 508.327 768.993 C 516.282 770.240, 526.397 772.620, 532.147 774.599 C 537.644 776.490, 549.197 779.401, 557.821 781.068 C 570.191 783.458, 575.277 784.956, 581.921 788.162 C 588.272 791.227, 593.924 792.947, 604.921 795.161 C 616.470 797.486, 621.682 799.113, 630 802.990 C 647.397 811.100, 658.085 812.074, 658.827 805.617 C 659.198 802.397, 655.565 797.886, 650.500 795.275 C 648.850 794.425, 646.064 792.264, 644.308 790.474 C 642.376 788.504, 638.233 786.144, 633.808 784.495 C 629.789 782.997, 622.675 780.060, 618 777.968 C 613.325 775.877, 605.068 773.002, 599.652 771.581 C 594.236 770.159, 586.256 767.206, 581.920 765.020 C 577.025 762.552, 571.468 760.636, 567.268 759.969 C 557.211 758.372, 542.721 754.536, 531.767 750.572 C 526.428 748.639, 516.694 746.142, 510.136 745.023 C 503.578 743.904, 493.777 741.847, 488.356 740.452 C 460.869 733.376, 448.532 731.687, 408.260 729.488 C 379.497 727.917, 358.684 727.811, 327.500 729.077 M 718.125 746.151 C 713.870 747.375, 703.950 757.648, 700.432 764.472 C 699.007 767.238, 696.925 771.219, 695.805 773.320 L 693.768 777.140 696.865 783.857 C 698.767 787.985, 700.373 793.645, 701.030 798.537 C 703.349 815.818, 710.067 832.344, 720.326 846 C 722.598 849.025, 725.905 853.645, 727.673 856.268 C 729.442 858.890, 732.271 862.198, 733.960 863.619 C 735.649 865.041, 738.856 869.329, 741.087 873.149 C 743.318 876.970, 747.121 882.322, 749.538 885.043 C 751.955 887.765, 755.517 892.468, 757.454 895.496 C 759.391 898.523, 761.396 901, 761.911 901 C 762.425 901, 764.955 904.172, 767.532 908.048 C 770.109 911.925, 773.327 915.823, 774.682 916.712 C 776.038 917.600, 778.859 920.840, 780.952 923.913 C 783.045 926.986, 785.768 930.400, 787.003 931.500 C 788.239 932.600, 791.519 936.875, 794.291 941 C 797.064 945.125, 801.732 951.113, 804.666 954.307 C 807.600 957.501, 810 960.550, 810 961.082 C 810 961.615, 812.700 964.953, 816 968.500 C 819.300 972.047, 822 975.428, 822 976.012 C 822 976.596, 824.587 979.734, 827.750 982.985 C 835.074 990.514, 844.435 1001.367, 852.111 1011.228 C 855.420 1015.479, 861.586 1022.458, 865.814 1026.737 C 878.256 1039.333, 902.335 1060.906, 908.579 1065.052 C 911.758 1067.164, 914.732 1069.556, 915.186 1070.368 C 915.641 1071.180, 917.697 1072.868, 919.756 1074.119 C 921.815 1075.370, 925.879 1078.132, 928.787 1080.256 C 931.695 1082.380, 935.970 1084.674, 938.287 1085.354 C 946.045 1087.629, 948.063 1085.646, 945.077 1078.680 C 944.057 1076.299, 941.142 1066.059, 938.599 1055.925 C 932.503 1031.622, 926.423 1014.615, 921.135 1007.077 C 918.845 1003.812, 915.577 997.865, 913.874 993.863 C 912.171 989.861, 908.831 983.743, 906.451 980.268 C 904.072 976.793, 901.166 971.387, 899.994 968.255 C 898.823 965.123, 895.710 959.622, 893.078 956.030 C 890.446 952.439, 886.606 946.586, 884.546 943.025 C 882.485 939.464, 879.694 935.237, 878.344 933.632 C 876.994 932.028, 874.728 928.417, 873.308 925.607 C 871.889 922.798, 868.817 917.800, 866.481 914.500 C 864.146 911.200, 860.865 905.764, 859.190 902.420 C 857.514 899.077, 854.521 894.216, 852.539 891.619 C 850.557 889.022, 847.610 884.163, 845.992 880.822 C 844.373 877.480, 841.328 872.441, 839.225 869.623 C 837.122 866.805, 833.903 862.025, 832.072 859 C 830.241 855.975, 827.219 852.009, 825.357 850.187 C 823.494 848.366, 820.898 844.766, 819.586 842.187 C 816.983 837.067, 806.222 821.898, 800.604 815.427 C 798.659 813.187, 795.589 808.899, 793.782 805.897 C 789.247 798.367, 782.975 791.119, 765.500 773.215 C 751.206 758.570, 741.069 750.155, 734.500 747.480 C 730.115 745.694, 722.003 745.036, 718.125 746.151 M 905.965 761.542 C 905.041 762.656, 904.988 763.388, 905.775 764.175 C 907.351 765.751, 910 764.407, 910 762.031 C 910 759.629, 907.776 759.360, 905.965 761.542 M 1158.500 774.041 C 1155.200 774.485, 1148.900 775.976, 1144.500 777.355 C 1140.100 778.734, 1131.550 781.279, 1125.500 783.010 C 1113.288 786.505, 1110 788.171, 1110 790.863 C 1110 793.222, 1113.107 794.570, 1124.066 796.962 C 1128.994 798.037, 1136.732 800.690, 1141.262 802.858 C 1145.793 805.025, 1152.369 807.856, 1155.875 809.149 C 1160.051 810.689, 1163.500 812.822, 1165.875 815.332 C 1167.869 817.439, 1171.525 820.331, 1174 821.758 C 1176.475 823.184, 1181.274 826.972, 1184.663 830.176 C 1188.053 833.379, 1191.263 836, 1191.796 836 C 1193.433 836, 1206.747 852.568, 1209.541 858.082 C 1210.991 860.942, 1213.969 865.550, 1216.160 868.322 C 1222.299 876.088, 1224.269 880.579, 1223.648 885.386 C 1221.767 899.929, 1221.775 900.392, 1224.022 906.362 C 1225.641 910.664, 1227.034 912.659, 1229.261 913.862 C 1237.401 918.257, 1241.417 923.909, 1240.822 930.131 L 1240.500 933.500 1231.447 934.073 C 1220.499 934.767, 1215.289 936.969, 1212.696 942 C 1209.173 948.833, 1210.805 953.347, 1223.799 972.711 C 1229.243 980.823, 1229.377 980.936, 1234.905 982.086 C 1239.807 983.106, 1241.367 982.995, 1247.500 981.191 C 1256.185 978.635, 1258.487 979.458, 1261.896 986.332 C 1264.175 990.930, 1264.231 991.498, 1263.054 998.084 C 1261.551 1006.498, 1259.830 1008.802, 1254.083 1010.093 C 1245.853 1011.942, 1239.040 1009.451, 1235.416 1003.267 C 1233.961 1000.783, 1231.311 997.119, 1229.529 995.125 C 1227.747 993.131, 1225.746 990.466, 1225.084 989.202 C 1223.468 986.122, 1221.126 985.374, 1210.470 984.534 C 1198.448 983.587, 1197.474 984.337, 1194.880 996.547 C 1193.601 1002.571, 1192.048 1006.809, 1190.133 1009.500 C 1188.568 1011.700, 1186.478 1015.975, 1185.489 1019 C 1183.317 1025.638, 1179.605 1031.748, 1176.092 1034.466 C 1174.666 1035.570, 1170.516 1039.258, 1166.868 1042.662 C 1158.099 1050.847, 1154.226 1052.002, 1135.568 1051.994 C 1125.130 1051.990, 1116.256 1051.213, 1101.179 1048.983 C 1080.292 1045.894, 1075.609 1044.495, 1074.503 1041.011 C 1074.152 1039.905, 1073.446 1039, 1072.933 1039 C 1072.420 1039, 1072 1038.190, 1072 1037.200 C 1072 1035.539, 1073.303 1035.395, 1088.750 1035.353 C 1105.119 1035.307, 1105.771 1035.223, 1117.389 1031.660 C 1123.928 1029.654, 1133.378 1027.302, 1138.389 1026.434 C 1143.400 1025.565, 1148.929 1024.176, 1150.676 1023.348 C 1155.087 1021.257, 1162.158 1014.215, 1171.315 1002.793 C 1177.725 994.798, 1179.592 991.622, 1181.896 984.793 C 1183.435 980.232, 1185.022 973.587, 1185.422 970.027 C 1185.822 966.467, 1187.429 958.592, 1188.992 952.527 C 1193.025 936.879, 1195.386 911.945, 1194.040 899.208 C 1192.620 885.770, 1190.905 880.149, 1185.176 870.142 C 1182.455 865.389, 1179.939 860.543, 1179.586 859.373 C 1179.232 858.203, 1176.788 855.261, 1174.155 852.834 C 1171.521 850.408, 1168.322 846.566, 1167.046 844.296 C 1165.554 841.641, 1163.081 839.262, 1160.113 837.626 C 1157.576 836.228, 1153.733 833.492, 1151.574 831.546 C 1149.288 829.488, 1144.273 826.727, 1139.574 824.941 C 1135.133 823.253, 1129.166 820.291, 1126.313 818.358 C 1117.769 812.568, 1112.222 811.520, 1090.500 811.587 C 1070.132 811.651, 1065.289 812.508, 1050.701 818.632 C 1047.512 819.971, 1039.542 822.595, 1032.990 824.463 C 1026.438 826.331, 1017.091 829.654, 1012.219 831.848 C 1007.348 834.041, 998.504 837.251, 992.566 838.981 C 986.628 840.710, 978.109 843.823, 973.635 845.898 C 969.161 847.972, 963.250 850.254, 960.500 850.968 C 957.750 851.683, 949.875 854.881, 943 858.075 C 936.125 861.269, 927.575 864.624, 924 865.530 C 920.425 866.436, 914.125 868.753, 910 870.677 C 905.875 872.602, 899.220 875.263, 895.211 876.591 C 885.872 879.684, 883 881.579, 883 884.648 C 883 888.798, 888.011 897.264, 893.876 903.023 C 896.969 906.061, 900.940 910.654, 902.699 913.231 C 904.718 916.186, 907.670 918.844, 910.699 920.433 C 918.142 924.338, 918.995 925.325, 919.942 931.135 C 920.918 937.116, 929.293 951.511, 935.863 958.500 C 937.931 960.700, 941.606 965.200, 944.030 968.500 C 953.447 981.325, 978.753 1004.166, 988.475 1008.617 C 991.636 1010.064, 997.105 1013.430, 1000.628 1016.097 C 1004.151 1018.763, 1012.596 1023.682, 1019.395 1027.027 L 1031.757 1033.109 1032.400 1037.956 C 1032.989 1042.400, 1033.811 1043.589, 1042.271 1052.244 C 1047.347 1057.436, 1053.544 1062.868, 1056.042 1064.315 C 1058.540 1065.762, 1061.590 1068.307, 1062.820 1069.971 C 1064.050 1071.634, 1067.319 1074.142, 1070.086 1075.543 C 1072.852 1076.945, 1077.920 1079.809, 1081.347 1081.907 C 1084.775 1084.005, 1091.794 1087.388, 1096.946 1089.425 C 1102.097 1091.462, 1108.829 1094.398, 1111.906 1095.950 C 1119.476 1099.767, 1128.262 1102.238, 1149 1106.378 C 1173.773 1111.325, 1175.344 1111.462, 1185.063 1109.536 C 1205.766 1105.432, 1215.953 1101.879, 1224.545 1095.766 C 1227.270 1093.826, 1231.300 1091.329, 1233.500 1090.216 C 1235.700 1089.104, 1240.650 1085.849, 1244.500 1082.984 C 1248.350 1080.119, 1253.075 1077.045, 1255 1076.152 C 1256.925 1075.260, 1260.505 1072.810, 1262.956 1070.708 C 1265.407 1068.605, 1270.807 1064.797, 1274.956 1062.245 C 1279.105 1059.693, 1285.997 1054.722, 1290.272 1051.198 L 1298.043 1044.792 1297.850 1036.646 C 1297.555 1024.165, 1299.430 1018.413, 1306.368 1010.515 C 1310.522 1005.786, 1311.802 1001.527, 1315.947 978.647 C 1319.686 958.008, 1319.755 950.791, 1316.446 926.921 C 1313.076 902.620, 1309.853 888.656, 1305.687 880.314 C 1303.815 876.566, 1301.283 870.350, 1300.059 866.500 C 1298.835 862.650, 1296.149 857.250, 1294.090 854.500 C 1292.032 851.750, 1289.147 847.475, 1287.680 845 C 1284.807 840.153, 1270.242 824.773, 1262.951 818.887 C 1260.489 816.900, 1256.006 813.775, 1252.988 811.943 C 1249.969 810.111, 1245.857 807.237, 1243.849 805.556 C 1241.840 803.875, 1236.890 800.747, 1232.849 798.605 C 1228.807 796.462, 1223.250 793.019, 1220.500 790.953 C 1217.678 788.834, 1212.474 786.271, 1208.554 785.071 C 1204.734 783.901, 1197.759 781.417, 1193.054 779.551 C 1179.054 773.997, 1169.797 772.521, 1158.500 774.041 M 339.500 781.046 C 336.750 781.474, 331.971 781.864, 328.881 781.912 C 316.079 782.112, 297.539 786.442, 291.422 790.661 C 289.265 792.148, 284.818 794.352, 281.541 795.557 C 275.566 797.754, 267.017 804.022, 259.796 811.500 C 257.671 813.700, 253.756 817.750, 251.095 820.500 C 246.849 824.888, 245.935 826.639, 243.628 834.795 C 240.614 845.456, 240.241 854.664, 242.476 863.247 C 243.288 866.364, 244.450 873.096, 245.059 878.207 C 247.570 899.283, 247.785 900.082, 253.075 908.013 C 255.807 912.109, 258.798 917.857, 259.722 920.786 C 260.811 924.242, 263.260 928.259, 266.700 932.231 C 269.615 935.597, 272 938.699, 272 939.125 C 272 940.321, 294.555 964.026, 299.459 967.983 C 301.856 969.917, 305.996 973.248, 308.659 975.385 C 311.321 977.522, 315.525 980.144, 318 981.212 C 320.475 982.280, 326.590 985.132, 331.590 987.551 C 352.287 997.564, 376.575 998.649, 394 990.339 C 398.125 988.372, 405.131 985.316, 409.569 983.548 C 414.006 981.780, 420.055 978.422, 423.009 976.087 C 425.964 973.751, 430.554 970.740, 433.209 969.394 C 435.864 968.049, 440.500 964.717, 443.510 961.991 C 446.521 959.264, 450.450 956.402, 452.242 955.630 C 454.034 954.858, 457.838 952.203, 460.696 949.729 C 463.708 947.122, 469.173 943.875, 473.696 942.005 C 477.988 940.230, 484.002 937.119, 487.059 935.092 C 490.117 933.066, 496.192 930.120, 500.559 928.546 C 504.927 926.973, 509.625 924.915, 511 923.973 C 516.429 920.255, 522.433 917.856, 531.920 915.614 C 538.183 914.134, 544.538 911.800, 549.168 909.278 C 553.208 907.079, 559.867 904.524, 564 903.588 C 568.125 902.654, 574.288 901.240, 577.696 900.447 C 581.104 899.654, 586.496 897.436, 589.679 895.519 C 595.335 892.111, 598.713 891.162, 618 887.562 C 623.930 886.455, 628.163 884.958, 632 882.611 C 635.025 880.760, 638.400 878.981, 639.500 878.656 C 644.268 877.250, 668.849 874, 674.712 874 C 680.925 874, 684.710 872.883, 686.235 870.600 C 687.550 868.631, 687.039 859.977, 685.424 856.853 C 684.300 854.679, 681.998 852.967, 677.393 850.879 C 673.842 849.269, 668.734 846.369, 666.041 844.434 C 663.348 842.499, 656.725 839.425, 651.322 837.603 C 645.920 835.781, 638.301 832.676, 634.392 830.704 C 630.041 828.509, 623.968 826.496, 618.738 825.516 C 614.037 824.636, 605.003 821.946, 598.661 819.540 C 586.782 815.033, 579.625 813.246, 562.699 810.560 C 556.907 809.641, 549.513 807.603, 544.619 805.578 C 538.089 802.875, 531.282 801.297, 512.403 798.109 C 499.237 795.886, 483.973 792.672, 478.483 790.967 C 462.479 785.995, 457.622 785.378, 400.107 781.016 C 384.861 779.859, 346.997 779.878, 339.500 781.046 M 394.175 811.977 C 388.450 812.627, 385.611 813.573, 381.173 816.312 C 378.050 818.240, 372.571 820.574, 368.998 821.500 C 359.775 823.889, 355.964 825.652, 352.250 829.247 C 350.462 830.977, 346.425 833.767, 343.279 835.446 C 338.660 837.911, 336.588 839.922, 332.529 845.874 C 325.630 855.991, 325.721 857.891, 333.874 874 C 338.598 883.334, 341.441 887.663, 345.100 891.094 C 347.795 893.621, 350 896.174, 350 896.767 C 350 898.433, 355.818 903.862, 359.866 905.972 C 361.864 907.015, 365.300 909.469, 367.500 911.426 C 372.539 915.909, 379.766 918.694, 392.500 921.062 C 398 922.084, 404.072 923.389, 405.993 923.960 C 417.131 927.275, 447.618 922.134, 456.619 915.423 C 461.879 911.502, 463.439 900.862, 460.424 889.460 C 459.558 886.182, 457.732 879, 456.367 873.500 C 455.002 868, 452.541 859.563, 450.898 854.751 C 449.255 849.939, 447.464 842.078, 446.920 837.282 C 445.767 827.139, 444.146 823.883, 437.988 819.344 C 428.484 812.337, 426.548 811.711, 413.500 811.417 C 406.900 811.268, 398.204 811.520, 394.175 811.977 M 388.293 830.606 C 383.457 833.140, 376.903 836.582, 373.730 838.256 C 369.658 840.404, 367.314 842.448, 365.768 845.200 C 364.562 847.344, 362.149 849.981, 360.406 851.058 C 356.038 853.757, 354.695 857.590, 355.169 865.993 C 355.554 872.792, 355.712 873.164, 360.033 877.407 C 362.490 879.819, 365.870 883.302, 367.545 885.146 C 369.220 886.991, 372.370 889.118, 374.545 889.874 C 376.720 890.630, 381.100 892.967, 384.279 895.067 C 390.989 899.502, 395.696 900.525, 409 900.439 C 424.818 900.337, 428.818 897.758, 429.656 887.123 C 430.141 880.972, 428.615 876.742, 425.711 876.183 C 424.628 875.974, 421.936 878.001, 418.577 881.552 C 413.373 887.055, 413.047 887.232, 409.341 886.548 C 404.491 885.653, 383.322 876.602, 380.852 874.366 C 376.921 870.808, 379.638 858.958, 385 856.279 C 388.896 854.332, 394.946 854.813, 401.500 857.590 C 404.800 858.988, 408.850 860.634, 410.500 861.248 C 412.150 861.861, 416.112 863.893, 419.304 865.761 C 424.825 868.994, 425.227 869.081, 427.541 867.565 C 431.629 864.886, 434.325 858.391, 433.664 852.812 C 432.776 845.313, 429.816 839.659, 425.377 836.983 C 423.245 835.698, 419.382 832.701, 416.793 830.323 C 412.117 826.028, 412.036 826, 404.586 826 C 397.611 826, 396.470 826.322, 388.293 830.606 M 1064.882 890.025 C 1049.357 892.430, 1041 895.412, 1041 898.548 C 1041 900.919, 1044.375 901.620, 1062 902.912 C 1071.075 903.577, 1081.507 904.738, 1085.181 905.493 C 1091.705 906.831, 1097 909.347, 1097 911.108 C 1097 911.591, 1100.134 915.126, 1103.963 918.963 C 1109.600 924.611, 1111.225 926.967, 1112.493 931.328 C 1114.521 938.305, 1113.776 940.217, 1105.357 949.623 C 1099.417 956.260, 1098.115 957.193, 1092.275 958.997 C 1081.934 962.191, 1070.463 961.464, 1057.685 956.805 C 1053.152 955.152, 1051.299 953.873, 1050.094 951.568 C 1049.217 949.890, 1046.956 947.163, 1045.068 945.509 C 1043.181 943.854, 1039.248 940.191, 1036.328 937.368 C 1030.183 931.429, 1027.649 930.680, 1020.232 932.612 C 1010.389 935.176, 1008.575 937.454, 1013.881 940.589 C 1015.466 941.525, 1017.828 943.647, 1019.131 945.304 C 1024.845 952.571, 1027.779 954.838, 1035.500 957.950 C 1039.900 959.723, 1045.075 962.657, 1047 964.469 C 1051.579 968.779, 1053.404 969.625, 1060 970.494 C 1063.025 970.893, 1070.222 972.789, 1075.992 974.708 C 1088.350 978.819, 1090.231 978.734, 1102.065 973.533 C 1112.351 969.012, 1112.540 968.860, 1115.683 962.563 C 1117.073 959.778, 1119.494 956.148, 1121.063 954.496 C 1125.435 949.891, 1127.190 943.832, 1127.723 931.500 C 1128.415 915.483, 1126.875 911.871, 1115.011 901.674 C 1100.854 889.506, 1100.912 889.530, 1084.500 889.327 C 1076.800 889.232, 1067.972 889.546, 1064.882 890.025 M 943.250 922.656 C 937.566 923.877, 943.141 927, 951.006 927 C 956.279 927, 957.847 925.948, 955.488 923.990 C 953.869 922.646, 946.854 921.881, 943.250 922.656 M 664.565 923.895 C 663.899 924.972, 666.001 925.879, 667.750 925.269 C 668.438 925.030, 669 924.421, 669 923.917 C 669 922.736, 665.292 922.718, 664.565 923.895 M 967.750 928.689 C 965.635 929.242, 965.647 928.984, 967.569 932.838 C 970.434 938.581, 975.679 940.470, 981.453 937.839 C 984.509 936.447, 984.565 935.988, 982.068 932.814 C 979.348 929.355, 972.619 927.417, 967.750 928.689 M 650.500 932.290 C 646.412 933.646, 642 936.849, 642 938.461 C 642 940.373, 644.725 941.137, 648.884 940.393 C 653.361 939.593, 656 937.389, 656 934.452 C 656 931.655, 654.358 931.010, 650.500 932.290 M 710.500 936.458 C 705.714 938.658, 688.802 955.908, 685.956 961.491 C 684.333 964.676, 681.856 967.528, 679.111 969.371 C 676.746 970.960, 673.302 974.339, 671.459 976.880 C 669.616 979.421, 666.482 982.778, 664.495 984.340 C 662.508 985.901, 660.463 988.282, 659.950 989.631 C 659.438 990.979, 657.552 992.852, 655.759 993.791 C 653.967 994.731, 649.800 998.227, 646.500 1001.560 C 643.200 1004.894, 639.150 1008.465, 637.500 1009.497 C 635.850 1010.529, 631.752 1013.704, 628.394 1016.553 C 625.036 1019.402, 620.025 1023.214, 617.259 1025.025 C 613.683 1027.366, 611.157 1030.151, 608.518 1034.664 C 606.476 1038.154, 604.244 1041.345, 603.559 1041.755 C 602.874 1042.165, 600.869 1044.513, 599.104 1046.972 C 596.758 1050.243, 594.499 1052.004, 590.698 1053.526 C 587.083 1054.974, 584.891 1056.624, 583.500 1058.946 C 582.400 1060.781, 579.185 1064.807, 576.356 1067.892 C 571.135 1073.583, 567.528 1080.328, 568.437 1082.697 C 569.323 1085.006, 575.356 1084.179, 579.553 1081.173 C 581.724 1079.618, 585.975 1077.312, 589 1076.049 C 597.093 1072.669, 599.322 1070.749, 602.860 1064.111 C 605.621 1058.931, 606.818 1057.747, 611.713 1055.352 C 614.826 1053.829, 620.326 1049.864, 623.935 1046.542 C 631.919 1039.190, 632.410 1038.599, 634.983 1033.230 C 636.130 1030.837, 638.756 1027.761, 640.959 1026.230 C 643.121 1024.729, 645.444 1022.203, 646.121 1020.617 C 647.946 1016.347, 651.735 1012.219, 655.452 1010.456 C 657.507 1009.481, 659.706 1007.135, 661.320 1004.198 C 662.740 1001.614, 665.498 998.245, 667.448 996.710 C 669.398 995.176, 671.782 992.399, 672.747 990.540 C 673.711 988.681, 676.722 985.662, 679.439 983.830 C 683.136 981.337, 684.710 979.484, 685.703 976.457 C 686.601 973.717, 688.071 971.819, 690.264 970.566 C 695.272 967.704, 698.850 963.985, 700.028 960.415 C 700.619 958.624, 702.651 955.978, 704.543 954.535 C 706.442 953.087, 709.148 949.450, 710.581 946.420 C 712.010 943.400, 714.264 940.218, 715.589 939.349 C 720.902 935.868, 716.823 933.550, 710.500 936.458 M 622.030 946.255 C 620.672 946.956, 618.555 949.098, 617.327 951.015 C 616.099 952.932, 613.683 956.447, 611.957 958.827 C 610.232 961.207, 609.111 963.444, 609.466 963.799 C 609.820 964.154, 612.223 963.276, 614.805 961.848 C 617.387 960.421, 621.857 958.487, 624.737 957.550 C 630.694 955.614, 634.245 951.892, 633.798 948.055 C 633.533 945.784, 633 945.471, 629 945.240 C 626.525 945.097, 623.389 945.554, 622.030 946.255 M 765.017 969.566 C 759.918 973.320, 758.308 975.249, 755.968 980.410 C 754.403 983.862, 751.471 988.850, 749.453 991.493 C 745.400 996.804, 741 1004.623, 741 1006.517 C 741 1007.187, 738.482 1011.507, 735.405 1016.118 C 732.327 1020.728, 728.665 1026.750, 727.266 1029.500 C 725.868 1032.250, 723.076 1036.975, 721.063 1040 C 719.049 1043.025, 716.105 1048.609, 714.521 1052.410 C 712.936 1056.210, 710.159 1061.259, 708.349 1063.630 C 706.540 1066, 703.643 1070.745, 701.912 1074.175 C 700.181 1077.604, 696.580 1083.520, 693.910 1087.321 C 691.241 1091.123, 688.117 1096.743, 686.969 1099.811 C 685.822 1102.879, 683.079 1107.889, 680.874 1110.945 C 672.813 1122.118, 662 1139.386, 662 1141.087 C 662 1142.048, 660.496 1145.684, 658.657 1149.167 C 656.819 1152.650, 655.023 1156.686, 654.667 1158.136 C 653.843 1161.491, 656.006 1163.466, 659.533 1162.581 C 661.524 1162.081, 662.730 1162.577, 664.965 1164.811 C 669.037 1168.883, 670.329 1174.696, 669.560 1185.483 C 668.543 1199.734, 672.933 1239.118, 676.486 1247.620 C 677.235 1249.412, 681.563 1255.692, 686.105 1261.576 C 697.318 1276.101, 697.889 1276.344, 721 1276.433 C 738.384 1276.500, 738.540 1276.520, 744.500 1279.500 C 751.647 1283.074, 752.381 1285.061, 747.927 1288.791 C 746.148 1290.281, 742.132 1294.051, 739.003 1297.169 C 732.219 1303.930, 727.922 1305.416, 716.982 1304.789 C 710.128 1304.396, 708.493 1303.842, 698.482 1298.519 C 692.060 1295.105, 684.943 1290.360, 681.342 1287.090 C 677.956 1284.016, 672.643 1279.298, 669.536 1276.606 C 663.682 1271.534, 660.541 1266.416, 657.501 1257 C 656.525 1253.975, 654.832 1249.722, 653.740 1247.548 C 646.689 1233.520, 645.464 1223.784, 647.056 1194.429 C 647.744 1181.740, 648.004 1170.152, 647.634 1168.679 C 647.138 1166.703, 646.331 1166, 644.558 1166 C 640.429 1166, 636.454 1170.431, 633.085 1178.790 C 631.354 1183.084, 628.151 1189.500, 625.967 1193.049 C 623.783 1196.597, 621.490 1201.075, 620.872 1203 C 620.255 1204.925, 618.118 1210.550, 616.125 1215.500 L 612.500 1224.500 612.534 1244 C 612.567 1262.641, 612.705 1264.007, 615.682 1275 C 617.394 1281.325, 619.325 1290.274, 619.972 1294.886 C 621.617 1306.605, 624.373 1314.858, 630.617 1326.766 C 633.578 1332.412, 636 1337.680, 636 1338.474 C 636 1339.267, 637.839 1341.847, 640.087 1344.208 C 642.335 1346.569, 646.196 1351.330, 648.666 1354.790 C 656.004 1365.066, 671.247 1379.361, 679.396 1383.610 C 683.303 1385.647, 688.029 1388.637, 689.897 1390.255 C 693.879 1393.703, 698.386 1395.731, 713.896 1401.052 C 731.186 1406.983, 745.431 1409.256, 763 1408.886 C 771.434 1408.708, 780.219 1409.083, 784 1409.782 C 798.270 1412.422, 810.043 1410.479, 818.463 1404.095 C 821.233 1401.995, 826.254 1398.833, 829.620 1397.068 C 833.459 1395.055, 837.521 1391.797, 840.522 1388.320 C 843.153 1385.273, 847.607 1381.307, 850.420 1379.508 C 857.461 1375.004, 867.614 1363.962, 872.966 1354.988 C 875.422 1350.870, 878.721 1345.925, 880.297 1344 C 882.779 1340.968, 886.064 1333.768, 894.040 1313.881 C 898.122 1303.702, 899.480 1288.656, 899.491 1253.500 C 899.502 1213.367, 898.818 1207.810, 891.548 1189 C 888.679 1181.575, 885.521 1172.723, 884.531 1169.329 C 883.355 1165.298, 881.227 1161.325, 878.394 1157.870 C 876.008 1154.962, 872.643 1149.931, 870.915 1146.690 C 868.007 1141.234, 867.653 1140.918, 866.137 1142.432 C 864.242 1144.325, 864.100 1151.358, 865.416 1178 C 865.958 1188.981, 865.855 1197.678, 865.108 1204 C 864.491 1209.225, 863.523 1218, 862.958 1223.500 C 861.531 1237.373, 859.486 1244.836, 855.970 1249 C 854.345 1250.925, 851.219 1256.169, 849.025 1260.653 C 845.608 1267.636, 844.327 1269.243, 840.102 1271.842 C 830.731 1277.608, 821.950 1277.905, 818.457 1272.574 C 817.067 1270.453, 817.128 1269.652, 819.144 1263.510 C 821.039 1257.739, 822.035 1256.266, 826.089 1253.239 C 829.778 1250.486, 832.021 1247.475, 836.252 1239.603 C 839.238 1234.046, 842.228 1227.925, 842.896 1226 C 844.608 1221.065, 845.929 1199.074, 846.921 1159 L 847.774 1124.500 845.324 1116 C 843.977 1111.325, 841.367 1104.125, 839.524 1100 C 837.681 1095.875, 834.496 1087.550, 832.446 1081.500 C 830.395 1075.450, 827.252 1067.800, 825.462 1064.500 C 823.671 1061.200, 821.007 1054.271, 819.542 1049.102 C 818.078 1043.933, 815.630 1037.183, 814.104 1034.102 C 812.578 1031.021, 809.845 1024.765, 808.032 1020.200 C 806.218 1015.635, 802.983 1009.189, 800.841 1005.876 C 798.700 1002.562, 795.197 996.370, 793.058 992.115 C 790.398 986.825, 787.761 983.226, 784.718 980.733 C 782.271 978.727, 779.478 975.379, 778.510 973.293 C 776.709 969.408, 773.214 965, 771.936 965 C 771.542 965, 768.429 967.055, 765.017 969.566 M 588 976.102 C 586.625 976.621, 584.279 978.773, 582.786 980.883 C 580.755 983.754, 578.910 985.045, 575.462 986.011 C 572.217 986.919, 569.957 988.415, 567.832 991.060 C 566.051 993.275, 562.141 996.133, 558.308 998.020 C 551.726 1001.260, 549 1004.737, 549 1009.891 C 549 1012.551, 544.260 1018, 541.946 1018 C 539.108 1018, 538.096 1020.949, 538.673 1027.542 C 539.125 1032.710, 538.872 1033.964, 536.772 1037 C 534.839 1039.794, 533.761 1040.457, 531.425 1040.285 C 528.555 1040.075, 524.016 1035.836, 524.005 1033.357 C 523.998 1031.828, 520.895 1030.705, 519.774 1031.826 C 518.579 1033.021, 521.589 1054.305, 523.467 1057.936 C 525.177 1061.242, 530.538 1066, 532.554 1066 C 534.597 1066, 536.637 1062.356, 538.629 1055.151 C 539.874 1050.644, 541.344 1047.895, 543.694 1045.679 C 547.060 1042.504, 548.630 1039.081, 551.491 1028.689 C 552.766 1024.059, 553.742 1022.491, 556.296 1020.969 C 560.302 1018.581, 572.038 1005.706, 578.453 996.660 C 582.884 990.412, 584.827 988.117, 592.811 979.703 C 595.041 977.352, 595.228 976.756, 593.982 975.968 C 592.204 974.843, 591.278 974.864, 588 976.102 M 772.639 990.694 C 772.288 991.046, 772 993.598, 772 996.367 C 772 1002.347, 773.844 1001.584, 774.693 995.251 C 775.190 991.548, 774.132 989.201, 772.639 990.694 M 249.076 997.631 C 245.914 1001.650, 244.608 1007.565, 244.578 1018 C 244.543 1030.407, 245.906 1034.275, 251.465 1037.532 C 253.833 1038.920, 256.978 1041.879, 258.452 1044.107 C 261.548 1048.785, 266.025 1051, 272.386 1051 C 276.196 1051, 277.576 1051.631, 281.976 1055.387 C 287.377 1059.997, 296.549 1063.962, 303.684 1064.771 C 307.246 1065.175, 308.229 1064.856, 310.296 1062.625 C 311.632 1061.184, 313.487 1057.416, 314.420 1054.253 C 315.352 1051.089, 317.028 1045.800, 318.144 1042.500 C 322.956 1028.268, 321.726 1025.564, 310.724 1026.185 L 303.797 1026.577 298.648 1032.213 C 292.505 1038.939, 290.866 1039.837, 283.296 1040.623 C 277.693 1041.204, 277.283 1041.079, 271 1036.862 C 262.553 1031.193, 261.234 1028.410, 259.871 1013.366 C 258.586 999.186, 257.163 995, 253.624 995 C 252.138 995, 250.316 996.054, 249.076 997.631 M 1049.199 1029.942 C 1041.320 1031.914, 1044.605 1034.270, 1055.992 1034.814 C 1063.187 1035.158, 1065 1034.967, 1065 1033.866 C 1065 1030.894, 1055.161 1028.451, 1049.199 1029.942 M 761.314 1040.217 C 760.772 1040.923, 759.072 1049.375, 757.536 1059 C 755.186 1073.733, 754.850 1078.143, 755.413 1086.892 C 755.781 1092.607, 756.543 1098.147, 757.108 1099.202 C 758.452 1101.713, 761.179 1101.117, 762.672 1097.988 C 764.452 1094.257, 766.273 1071.530, 765.353 1064.528 C 764.917 1061.213, 764.547 1054.268, 764.530 1049.095 C 764.501 1039.873, 763.564 1037.288, 761.314 1040.217 M 1314.323 1049.018 C 1311.475 1051.338, 1308.694 1054.420, 1308.143 1055.868 C 1307.280 1058.134, 1306.027 1072.183, 1305.741 1082.783 C 1305.678 1085.115, 1306.859 1087.776, 1309.816 1091.969 C 1312.105 1095.216, 1314.883 1100.166, 1315.988 1102.969 C 1318.786 1110.068, 1320.641 1112.622, 1324.853 1115.174 C 1326.859 1116.389, 1330.339 1118.866, 1332.587 1120.678 C 1337.921 1124.979, 1343.857 1127, 1351.158 1127 C 1358.702 1127, 1362.020 1125.566, 1370.833 1118.496 C 1379.152 1111.821, 1380.571 1108.535, 1379.683 1098 C 1379.070 1090.739, 1377.237 1085.646, 1373.696 1081.371 C 1372.389 1079.792, 1369.696 1075.941, 1367.712 1072.814 C 1365.729 1069.686, 1363.203 1066.644, 1362.099 1066.053 C 1360.996 1065.462, 1357.633 1062.827, 1354.627 1060.196 C 1347.484 1053.946, 1331.150 1045.841, 1324.500 1045.247 C 1319.820 1044.829, 1319.168 1045.071, 1314.323 1049.018 M 755.741 1225.380 C 750.379 1227.364, 749.336 1228.487, 746.963 1234.828 C 744.561 1241.249, 743.787 1241.963, 739.215 1241.985 C 734.608 1242.006, 731.275 1244.523, 728.438 1250.122 C 724.751 1257.398, 725.235 1260.998, 730.149 1262.867 C 734.066 1264.356, 736.491 1262.041, 739.040 1254.380 C 740.252 1250.739, 742.501 1246.351, 744.040 1244.630 C 746.680 1241.675, 747.236 1241.500, 754 1241.500 C 760.743 1241.500, 761.321 1241.680, 763.832 1244.560 C 771.641 1253.515, 774.783 1257.842, 777.500 1263.383 C 782.345 1273.261, 788.976 1274.802, 793.138 1267.016 C 797.187 1259.439, 794.678 1249.863, 786.252 1240.734 C 783.595 1237.856, 780.141 1233.765, 778.578 1231.644 C 777.015 1229.523, 774.296 1227.186, 772.536 1226.451 C 767.392 1224.301, 759.939 1223.826, 755.741 1225.380 M 781 1305.075 C 774.594 1306.119, 772.046 1307.284, 767.060 1311.450 C 764.643 1313.469, 761.503 1315.729, 760.082 1316.472 C 756.479 1318.355, 752.930 1322.401, 748.122 1330.108 C 742.525 1339.080, 742.614 1342.179, 749.008 1361.219 C 755.373 1380.171, 756.106 1381.550, 760.592 1383.030 C 763.775 1384.081, 764.542 1383.987, 766.859 1382.260 C 769.470 1380.314, 769.507 1380.111, 770.095 1364.396 C 770.683 1348.676, 771.761 1341.996, 774.230 1338.786 C 776.719 1335.549, 785.073 1332, 790.206 1332 C 799.363 1332, 803.842 1333.780, 807.552 1338.895 C 809.389 1341.428, 812.475 1344.744, 814.410 1346.264 C 816.718 1348.077, 818.542 1350.776, 819.714 1354.111 C 823.044 1363.589, 831.693 1371, 839.425 1371 C 847.172 1371, 846.633 1363.806, 837.590 1346.500 C 832.471 1336.703, 830.547 1333.977, 827.107 1331.648 C 824.790 1330.080, 821.743 1327.057, 820.336 1324.931 C 818.929 1322.805, 815.465 1319.596, 812.639 1317.800 C 809.813 1316.004, 805.475 1312.998, 803 1311.121 C 795.472 1305.413, 789.314 1303.720, 781 1305.075" stroke="none" fill="#1a1a1a" fill-rule="evenodd"/>
</svg>