<svg shape-rendering="geometricPrecision" xmlns="http://www.w3.org/2000/svg" width="1600" height="938" viewBox="0 0 1600 938" version="1.1">
	<rect x="0" y="0" width="100%" height="100%" fill="#ffffff" />
	<path d="M 738.500 85.564 C 722.069 87.796, 708.972 90.948, 700.685 94.665 C 696.387 96.593, 689.151 99.428, 684.606 100.964 C 680.061 102.500, 674.128 105.334, 671.421 107.261 C 668.714 109.189, 664.121 111.959, 661.214 113.418 C 658.307 114.876, 654.257 117.548, 652.214 119.353 C 650.171 121.159, 646.362 124.145, 643.750 125.988 C 641.138 127.831, 639 129.653, 639 130.036 C 639 130.419, 637.055 132.255, 634.679 134.116 C 630.573 137.331, 620.207 148.248, 611.500 158.525 C 609.300 161.122, 605.925 166.228, 604 169.873 C 601.030 175.497, 599.756 176.869, 595.588 178.934 C 590.716 181.349, 590.640 181.354, 586.088 179.599 C 583.565 178.626, 579.855 177.210, 577.844 176.452 C 575.833 175.694, 569.130 174.569, 562.950 173.951 C 549.644 172.621, 529.159 173.970, 518.362 176.888 C 509.314 179.333, 488.579 188.248, 483.515 191.870 C 481.307 193.450, 476.350 196.327, 472.500 198.265 C 468.650 200.202, 463.475 203.569, 461 205.747 C 458.525 207.925, 454.925 210.517, 453 211.508 C 449.042 213.545, 439.209 221.779, 434.582 226.932 C 432.887 228.819, 429.866 231.969, 427.868 233.932 C 425.870 235.894, 423.009 239.397, 421.508 241.715 C 420.008 244.033, 417.248 247.099, 415.376 248.527 C 413.503 249.955, 410.883 253.234, 409.553 255.812 C 408.223 258.390, 405.087 263.200, 402.584 266.500 C 400.081 269.800, 397.350 274.495, 396.515 276.933 C 395.680 279.371, 393.248 284.096, 391.111 287.433 C 388.974 290.770, 386.204 296.650, 384.957 300.500 C 383.710 304.350, 381.258 310.875, 379.509 315 C 373.279 329.692, 371.543 343.561, 372.264 372.887 C 372.867 397.382, 374.585 408.148, 379.517 418.313 C 383.270 426.051, 383.984 431.873, 381.486 434.372 C 380.133 435.724, 379.572 435.716, 376.236 434.298 C 362.053 428.270, 318.664 427.348, 300.659 432.693 C 297.821 433.536, 292.948 435.513, 289.829 437.087 C 286.709 438.661, 281.022 440.818, 277.189 441.880 C 269.040 444.139, 266.896 445.185, 261.500 449.537 C 259.300 451.312, 255.174 453.931, 252.331 455.358 C 242.901 460.090, 220.594 480.982, 209.406 495.560 C 201.380 506.017, 192.531 523.286, 189.452 534.500 C 181.474 563.553, 181.038 565.762, 180.427 580.265 C 179.831 594.384, 178.178 603.422, 175.400 607.749 C 172.006 613.033, 153.064 619.941, 141.849 619.983 C 130.471 620.025, 94.175 612.120, 84.301 607.449 C 76.580 603.797, 57.984 599, 51.544 599 C 44.968 599, 37.936 601.374, 34.880 604.627 C 32.872 606.765, 32.451 608.399, 32.139 615.274 C 31.670 625.609, 33.271 632.716, 37.432 638.766 C 39.244 641.400, 42.388 647.332, 44.418 651.949 C 46.448 656.566, 48.924 661.504, 49.921 662.922 C 50.918 664.340, 53.133 668.336, 54.843 671.803 C 56.552 675.270, 59.941 680.670, 62.373 683.803 C 64.806 686.936, 67.922 691.750, 69.299 694.500 C 70.676 697.250, 73.021 700.625, 74.511 702 C 76.001 703.375, 78.673 706.750, 80.448 709.500 C 84.741 716.148, 103.114 734.400, 109.946 738.802 C 112.941 740.733, 116.485 743.612, 117.822 745.200 C 119.158 746.788, 122.107 749.032, 124.376 750.187 C 126.644 751.342, 131.686 754.434, 135.579 757.059 C 139.473 759.683, 144.873 762.907, 147.579 764.223 C 150.286 765.539, 154.377 767.811, 156.671 769.271 C 160.532 771.728, 171.538 776, 174.008 776 C 174.596 776, 180.439 778.005, 186.992 780.456 C 203.176 786.511, 210.924 787.473, 243.500 787.477 C 273.855 787.481, 281.028 786.618, 292.952 781.531 C 297.103 779.759, 303.511 777.313, 307.190 776.093 C 310.870 774.874, 316.720 772.038, 320.190 769.790 C 328.736 764.255, 332.039 763, 338.058 763 C 343.154 763, 343.225 763.045, 351.590 771.448 C 356.216 776.094, 360 780.385, 360 780.985 C 360 781.584, 362.587 784.716, 365.750 787.946 C 368.912 791.176, 374.978 797.429, 379.228 801.842 C 383.479 806.255, 388.654 811.117, 390.728 812.647 C 392.803 814.177, 396.347 817.081, 398.604 819.101 C 400.862 821.120, 403.781 823.113, 405.091 823.529 C 406.401 823.945, 410.916 826.643, 415.124 829.525 C 419.332 832.407, 425.188 835.540, 428.137 836.489 C 431.087 837.437, 436.425 839.946, 440 842.064 C 445.879 845.547, 456.524 849.743, 476.614 856.497 C 487.929 860.302, 499.278 861.429, 526.500 861.451 C 556.078 861.475, 565.145 860.379, 579.842 855.002 C 585.704 852.858, 594.775 849.939, 600 848.515 C 606.059 846.865, 611.337 844.673, 614.572 842.465 C 617.361 840.560, 622.817 837.923, 626.697 836.603 C 635.583 833.581, 637.772 832.446, 641.500 828.931 C 643.150 827.375, 646.750 825.120, 649.500 823.920 C 652.250 822.719, 656.651 820.173, 659.279 818.262 C 670.182 810.334, 680.473 810.594, 689.500 819.026 C 691.150 820.567, 695.374 822.985, 698.886 824.400 C 702.399 825.814, 706.674 828.036, 708.386 829.337 C 713.408 833.154, 717.424 834.893, 725.883 836.913 C 730.261 837.959, 736.757 840.444, 740.318 842.436 C 748.212 846.850, 755.824 848.390, 777.997 850.057 C 804.460 852.046, 842.987 849.953, 858.500 845.682 C 861.250 844.924, 865.300 843.386, 867.500 842.262 C 869.700 841.139, 876.450 838.802, 882.500 837.069 C 889.573 835.043, 895.290 832.698, 898.515 830.500 C 901.273 828.619, 906.866 825.705, 910.945 824.023 C 915.024 822.341, 920.643 819.229, 923.431 817.108 C 926.219 814.986, 929.625 812.671, 931 811.962 C 935.098 809.851, 951.335 795.488, 969.231 778.143 L 979.963 767.742 984.877 768.214 C 989.296 768.639, 990.714 769.482, 998.969 776.593 C 1004.017 780.942, 1011.152 786.080, 1014.824 788.010 C 1018.496 789.941, 1023.750 793.150, 1026.500 795.141 C 1029.250 797.132, 1033.516 799.776, 1035.980 801.018 C 1038.444 802.259, 1042.059 804.560, 1044.013 806.131 C 1045.967 807.701, 1052.052 810.497, 1057.533 812.344 C 1063.015 814.191, 1069.481 816.713, 1071.903 817.949 C 1079.616 821.886, 1083.534 822.837, 1103.227 825.551 C 1119.778 827.832, 1124.760 828.133, 1138.500 827.685 C 1157.144 827.077, 1180.850 823.340, 1189.716 819.611 C 1205.653 812.908, 1216.671 807.725, 1218.485 806.077 C 1219.593 805.071, 1222.407 803.064, 1224.738 801.618 C 1232.149 797.022, 1248.574 781.239, 1253.342 774.132 C 1259.229 765.357, 1260.047 764.744, 1266.587 764.201 C 1271.479 763.796, 1272.653 764.114, 1277.776 767.230 C 1285.528 771.946, 1288.408 772.791, 1302.433 774.460 C 1321.908 776.778, 1337.456 777.264, 1354 776.073 C 1372.758 774.722, 1381.225 773.033, 1389.912 768.910 C 1393.536 767.191, 1400.164 764.528, 1404.642 762.992 C 1409.120 761.456, 1415.364 758.549, 1418.518 756.531 C 1421.673 754.514, 1426.784 751.745, 1429.877 750.379 C 1432.970 749.014, 1436.850 746.615, 1438.500 745.050 C 1440.150 743.485, 1444.875 740.537, 1449 738.498 C 1453.125 736.459, 1457.555 733.476, 1458.844 731.868 C 1460.133 730.260, 1462.923 728.060, 1465.042 726.978 C 1469.643 724.631, 1495.080 699.679, 1497.354 695.283 C 1498.230 693.588, 1500.708 690.693, 1502.861 688.850 C 1505.013 687.008, 1507.817 683.700, 1509.091 681.500 C 1510.366 679.300, 1513.146 675.411, 1515.269 672.859 C 1517.393 670.306, 1520.452 664.969, 1522.067 661 C 1523.682 657.030, 1526.414 652.002, 1528.138 649.826 C 1529.861 647.650, 1532.585 642.636, 1534.191 638.685 C 1535.797 634.733, 1538.657 629.250, 1540.546 626.500 C 1545.014 619.996, 1550.422 597.778, 1549.770 588.605 C 1549.396 583.342, 1548.959 582.351, 1545.690 579.355 C 1542.350 576.294, 1541.480 576, 1535.758 576 C 1526.841 576, 1523.471 577.264, 1517.609 582.808 C 1511.874 588.233, 1508.801 589.475, 1491 593.562 C 1476.742 596.835, 1458.674 597.775, 1443.088 596.054 C 1429.807 594.588, 1405.205 589.020, 1401.616 586.668 C 1398.197 584.428, 1395.644 575.615, 1395.792 566.559 C 1395.883 560.982, 1395.348 558.330, 1393.071 553.059 C 1391.512 549.452, 1389.673 544.700, 1388.985 542.500 C 1387.344 537.257, 1385.509 533.591, 1381.478 527.500 C 1379.658 524.750, 1377.167 519.677, 1375.942 516.227 C 1373.736 510.012, 1368.745 503.531, 1359.655 495.076 C 1357.540 493.109, 1353.512 489.296, 1350.705 486.603 C 1347.897 483.910, 1343.103 480.585, 1340.050 479.216 C 1336.998 477.846, 1332.250 475.031, 1329.500 472.961 C 1326.710 470.861, 1318.755 466.918, 1311.500 464.041 C 1296.122 457.941, 1287.999 456.662, 1270.772 457.625 C 1257.605 458.361, 1256.460 457.968, 1255.405 452.347 C 1254.873 449.511, 1255.488 447.497, 1258.855 441.045 C 1264.477 430.271, 1265.491 423.356, 1265.461 396 C 1265.432 370.085, 1264.304 361.224, 1259.479 349 C 1257.633 344.325, 1255.148 336.795, 1253.957 332.267 C 1252.765 327.738, 1250.219 321.438, 1248.299 318.267 C 1246.379 315.095, 1243.319 309.575, 1241.499 306 C 1239.680 302.425, 1236.756 298.150, 1235.002 296.500 C 1233.248 294.850, 1230.754 291.425, 1229.460 288.889 C 1226.673 283.427, 1207.646 264.086, 1200.500 259.451 C 1197.750 257.667, 1194.150 254.774, 1192.500 253.022 C 1190.850 251.270, 1187.925 249.174, 1186 248.365 C 1184.075 247.556, 1179.350 244.494, 1175.500 241.560 C 1171.650 238.627, 1164.231 234.093, 1159.014 231.485 C 1150.563 227.260, 1123.270 217.203, 1114 214.898 C 1106.130 212.941, 1082.432 211.978, 1066.500 212.968 C 1049.841 214.002, 1046.780 214.559, 1036 218.514 C 1032.425 219.826, 1025.678 222.089, 1021.006 223.543 C 1016.335 224.998, 1010.485 227.645, 1008.006 229.427 C 1005.528 231.209, 1000.948 233.680, 997.829 234.918 C 994.710 236.156, 991.335 238.096, 990.329 239.231 C 985.927 244.194, 980.786 247, 976.100 246.996 C 970.462 246.992, 965.067 244.005, 964.845 240.765 C 964.760 239.519, 964.564 236.669, 964.411 234.430 C 963.905 227.048, 958.979 211.678, 954.979 205 C 952.838 201.425, 950.098 196.025, 948.890 193 C 947.683 189.975, 945.464 185.902, 943.960 183.949 C 942.456 181.996, 939.645 177.271, 937.712 173.449 C 935.099 168.281, 931.223 163.424, 922.588 154.500 C 901.999 133.220, 899.597 130.931, 893.500 126.769 C 890.200 124.516, 885.820 121.179, 883.766 119.354 C 881.713 117.528, 877.072 114.692, 873.453 113.052 C 869.835 111.411, 865.160 108.711, 863.064 107.051 C 860.969 105.391, 855.318 102.644, 850.507 100.946 C 845.696 99.248, 839.216 96.525, 836.108 94.896 C 820.578 86.755, 767.261 81.658, 738.500 85.564 M 748.500 113.589 C 746.850 113.830, 739.777 114.720, 732.782 115.568 C 725.787 116.415, 717.237 117.945, 713.782 118.968 C 705.427 121.440, 681.225 131.490, 679.147 133.351 C 678.241 134.162, 673.900 136.945, 669.500 139.535 C 665.100 142.124, 659.833 145.744, 657.795 147.578 C 655.757 149.413, 652.346 151.803, 650.214 152.891 C 648.082 153.978, 645.045 156.585, 643.465 158.684 C 641.885 160.783, 638.547 164.588, 636.046 167.140 C 628.571 174.769, 625.425 179.062, 618.132 191.578 C 614.312 198.135, 609.907 205.499, 608.343 207.942 C 603.477 215.545, 597.599 215.785, 586.870 208.819 C 577.486 202.726, 573.814 201.877, 554.188 201.264 C 527.424 200.428, 512.899 202.663, 504.025 208.982 C 502.438 210.112, 498.126 212.171, 494.444 213.557 C 487.730 216.085, 471.554 226.511, 465 232.536 C 463.075 234.306, 459.526 237.154, 457.114 238.866 C 454.702 240.578, 451.654 243.446, 450.341 245.240 C 449.028 247.033, 446.328 249.724, 444.340 251.219 C 442.353 252.715, 439.585 255.640, 438.189 257.719 C 436.794 259.799, 433.910 263.499, 431.780 265.943 C 429.650 268.387, 426.300 273.775, 424.334 277.917 C 422.369 282.058, 419.727 286.809, 418.464 288.473 C 416.494 291.068, 410.699 305.096, 403.992 323.500 C 400.189 333.938, 398.079 374.660, 399.977 400.994 C 401.253 418.695, 402.180 423.253, 406.107 431.136 C 407.651 434.236, 409.449 438.961, 410.103 441.636 C 411.768 448.446, 413.565 451.726, 418.879 457.654 C 430.670 470.805, 432 472.706, 432 476.408 C 432 478.736, 431.253 480.747, 429.876 482.124 C 428.002 483.998, 426.915 484.192, 420.626 483.780 C 412.324 483.235, 405.772 480.317, 398.105 473.750 C 388.300 465.352, 384.463 462.300, 382.180 461.087 C 380.904 460.410, 374.154 458.709, 367.180 457.309 C 349.612 453.782, 326.720 453.598, 310 456.849 C 295.180 459.731, 292.825 460.502, 285 465.035 C 281.425 467.105, 276.712 469.407, 274.526 470.150 C 272.340 470.892, 268.965 473.097, 267.026 475.050 C 265.087 477.002, 261.925 479.656, 260 480.947 C 249.225 488.174, 230.427 508.768, 220.825 523.866 C 219.903 525.315, 216.810 535.500, 213.950 546.500 C 208.793 566.336, 208.751 566.623, 208.772 581.500 C 208.791 594.369, 209.093 597.251, 210.897 601.787 C 214.504 610.855, 213.183 619.351, 207.468 623.847 C 205.942 625.047, 200.825 627.192, 196.096 628.614 C 191.368 630.035, 184.759 632.711, 181.409 634.559 C 174.330 638.465, 171.103 639.274, 153.500 641.552 C 143.900 642.794, 136.708 643.080, 126 642.646 C 106.590 641.858, 98.009 640.054, 92.219 635.543 C 86.553 631.128, 78.936 628.254, 70.654 627.406 C 64.717 626.797, 64.115 626.916, 63.048 628.910 C 61.629 631.562, 62.408 634.277, 66.085 639.500 C 67.633 641.700, 69.871 646.129, 71.057 649.342 C 72.242 652.555, 75.152 658.017, 77.522 661.478 C 79.892 664.940, 82.614 669.286, 83.570 671.136 C 89.093 681.822, 122.770 717.535, 132.500 723.026 C 135.800 724.888, 140.820 728.295, 143.655 730.597 C 146.491 732.899, 150.524 735.348, 152.618 736.039 C 154.711 736.730, 159.659 739.291, 163.612 741.731 C 168.935 745.016, 173.612 746.879, 181.649 748.914 C 187.617 750.426, 195.108 752.640, 198.295 753.834 C 201.482 755.028, 208.007 756.703, 212.795 757.556 C 224.958 759.724, 252.354 760.553, 263.500 759.091 C 276.437 757.394, 308.101 746.975, 316.083 741.789 C 319.471 739.588, 325.225 736.537, 328.871 735.010 C 332.517 733.483, 336.850 731.509, 338.500 730.623 C 340.150 729.737, 342.487 729.010, 343.692 729.006 C 347.299 728.996, 358.102 737.941, 362.491 744.571 C 370.579 756.790, 391.358 778.789, 400.797 785.126 C 403.384 786.863, 407.300 789.976, 409.500 792.044 C 417.328 799.405, 426.577 806.285, 431.810 808.639 C 434.731 809.953, 439.456 812.611, 442.310 814.546 C 445.354 816.608, 451.636 819.320, 457.500 821.101 C 463 822.772, 470.167 825.294, 473.426 826.705 C 486.333 832.292, 519.041 835.156, 546.500 833.102 C 566.735 831.588, 573.483 830.405, 587 826.004 C 593.325 823.944, 601.614 821.438, 605.421 820.435 C 609.227 819.431, 614.402 817.210, 616.921 815.498 C 619.439 813.786, 624.488 810.729, 628.141 808.705 C 631.794 806.680, 636.707 803.416, 639.059 801.451 C 641.411 799.486, 644.722 797.166, 646.418 796.295 C 648.113 795.424, 651.781 792.635, 654.568 790.096 C 659.617 785.497, 667.661 782, 673.189 782 C 676.838 782, 684.813 786.494, 690 791.473 C 692.475 793.849, 696.525 796.800, 699 798.030 C 701.475 799.260, 705.209 801.611, 707.297 803.254 C 709.385 804.898, 714.560 807.341, 718.797 808.683 C 723.034 810.026, 730.068 812.733, 734.429 814.699 C 746.467 820.126, 758.831 821.963, 788 822.660 C 825.637 823.558, 850.631 820.933, 864.971 814.574 C 869.112 812.738, 875.669 810.298, 879.542 809.152 C 883.414 808.007, 889.400 805.248, 892.844 803.022 C 896.287 800.797, 901.669 797.681, 904.802 796.097 C 907.936 794.514, 911.400 792.220, 912.500 790.999 C 913.600 789.778, 917.617 787.208, 921.426 785.288 C 929.072 781.435, 940.717 770.367, 951.554 756.653 C 958.668 747.650, 968.648 728.590, 969.915 721.585 C 970.916 716.046, 969.704 689.430, 968.074 681.172 C 966.660 674.007, 958.316 645.718, 955.803 639.569 C 954.695 636.856, 952.733 633.031, 951.443 631.069 C 946.685 623.828, 945.929 613.858, 948.846 596.823 C 950.934 584.627, 952.342 581.927, 958.265 578.763 C 962.086 576.721, 963.868 576.500, 976.500 576.504 C 984.200 576.507, 999.500 576.904, 1010.500 577.388 C 1035.053 578.468, 1059.541 576.419, 1066.692 572.688 C 1088.224 561.452, 1093.924 557.721, 1107.802 545.782 C 1113.244 541.100, 1115.951 537.845, 1118.433 533 C 1120.264 529.425, 1122.948 524.239, 1124.397 521.476 C 1128.042 514.524, 1128.994 507.313, 1128.951 487 C 1128.906 466.086, 1128.251 462.052, 1124.110 457.185 C 1122.385 455.158, 1119.894 451.170, 1118.574 448.322 C 1115.426 441.532, 1109.299 435, 1101.393 430.007 C 1097.877 427.786, 1095 425.577, 1095 425.098 C 1095 423.255, 1087.889 421.016, 1073.972 418.476 C 1058.159 415.591, 1054.322 415.648, 1038.812 419.004 C 1028.387 421.260, 1024.431 423.144, 1020.660 427.649 C 1019.098 429.515, 1016.513 431.718, 1014.915 432.544 C 1013.256 433.402, 1010.974 436.073, 1009.594 438.773 C 1008.266 441.373, 1005.550 445.063, 1003.560 446.974 C 999.581 450.795, 996.724 458.358, 995.471 468.387 C 994.912 472.863, 995.165 475.442, 996.572 479.581 C 999.001 486.725, 997.963 489.682, 991.861 493 C 989.332 494.375, 985.183 497.750, 982.642 500.500 L 978.021 505.500 975.377 502.539 C 972.838 499.695, 972.756 499.244, 973.326 491.174 C 973.779 484.752, 974.637 481.237, 976.963 476.265 C 980.299 469.137, 982.457 461.486, 983.524 453 C 984.137 448.128, 984.759 446.986, 988.964 443 C 991.595 440.507, 994.836 436.047, 996.232 433 C 997.897 429.367, 1001.670 424.522, 1007.346 418.727 C 1015.738 410.161, 1020.366 407.177, 1027.791 405.546 C 1029.556 405.158, 1032.824 403.318, 1035.053 401.456 C 1039.646 397.618, 1043.481 396.596, 1053.500 396.540 C 1062.999 396.486, 1066.655 397.412, 1072.951 401.468 C 1075.900 403.369, 1080.830 405.440, 1083.907 406.072 C 1093.769 408.097, 1098.393 410.129, 1103.083 414.498 C 1105.604 416.846, 1109.056 419.073, 1110.754 419.446 C 1113.857 420.127, 1117.280 422.747, 1120.024 426.541 C 1120.836 427.663, 1123.018 429.646, 1124.874 430.948 C 1126.984 432.426, 1129.172 435.400, 1130.711 438.882 C 1132.066 441.944, 1134.684 446.122, 1136.530 448.165 C 1141.792 453.989, 1143.016 457.255, 1146.182 473.912 C 1148.784 487.607, 1149.067 490.836, 1148.515 500.500 C 1147.857 511.996, 1145.798 526.777, 1143.938 533.355 C 1143.339 535.475, 1141.140 539.075, 1139.051 541.355 C 1136.963 543.635, 1134.010 547.975, 1132.488 551 C 1130.967 554.025, 1125.469 561.097, 1120.270 566.715 C 1112.517 575.094, 1109.531 577.570, 1103.659 580.490 C 1099.722 582.448, 1094.461 585.392, 1091.970 587.033 C 1086.413 590.692, 1078.782 592.328, 1057 594.531 C 1030.198 597.241, 1016.208 597.875, 1004 596.934 C 986.252 595.566, 977.803 595.750, 975.217 597.561 C 972.210 599.667, 969.997 604.190, 970.012 608.200 C 970.029 612.962, 975.482 628.523, 979.493 635.255 C 983.774 642.442, 984.538 645.295, 986.519 661.500 C 987.393 668.650, 989.450 680.125, 991.090 687 C 995.302 704.655, 997.220 717.299, 996.118 720.154 C 995.620 721.444, 994.039 723.591, 992.606 724.924 C 989.008 728.271, 989.326 730.829, 993.919 735.500 C 1008.138 749.962, 1014.999 756.458, 1018.500 758.775 C 1020.700 760.232, 1025.319 763.621, 1028.763 766.308 C 1032.208 768.995, 1037.180 772.232, 1039.812 773.502 C 1042.445 774.772, 1045.221 776.561, 1045.982 777.479 C 1048.109 780.041, 1054.067 782.754, 1062.677 785.078 C 1066.980 786.240, 1073.349 788.765, 1076.832 790.690 C 1084.741 795.061, 1096.527 797.575, 1116 799.045 C 1132.430 800.285, 1145.462 799.710, 1165 796.883 C 1176.904 795.160, 1179.564 794.401, 1187.500 790.464 C 1192.450 788.009, 1197.071 786, 1197.770 786 C 1200.786 786, 1211.502 780.779, 1215.033 777.589 C 1217.149 775.677, 1220.220 773.420, 1221.857 772.574 C 1223.510 771.719, 1226.407 768.445, 1228.369 765.216 C 1230.313 762.016, 1232.806 758.581, 1233.909 757.583 C 1235.011 756.585, 1237.073 752.783, 1238.491 749.134 C 1242.199 739.588, 1242.942 738.500, 1249.873 732.454 C 1256.409 726.754, 1258.783 726.035, 1263 728.477 C 1264.375 729.273, 1272.475 733.357, 1281 737.553 C 1301.687 747.734, 1304.768 748.311, 1339 748.411 C 1369.750 748.501, 1378.041 747.346, 1392 741.030 C 1396.675 738.914, 1402.075 736.861, 1404 736.468 C 1408.696 735.507, 1418.035 730.733, 1420.451 728.058 C 1421.525 726.870, 1425.350 724.333, 1428.951 722.421 C 1432.553 720.509, 1439.100 715.809, 1443.500 711.976 C 1447.900 708.144, 1454.200 702.796, 1457.500 700.092 C 1469.805 690.008, 1490.820 665.603, 1494.526 657.092 C 1495.582 654.668, 1497.658 651.011, 1499.139 648.966 C 1503.402 643.081, 1505.976 637.414, 1508.027 629.394 C 1511.802 614.634, 1507.725 612.976, 1485.472 620.227 L 1472.500 624.454 1454 624.435 C 1436.382 624.418, 1435.095 624.282, 1427 621.585 C 1422.325 620.028, 1414.133 617.696, 1408.795 616.403 C 1399.606 614.178, 1379.492 605.145, 1374.640 601.064 C 1373.617 600.204, 1371.203 596.373, 1369.277 592.551 C 1365.834 585.720, 1365.769 585.362, 1365.481 571.551 C 1365.091 552.885, 1361.166 535.564, 1355.539 527.677 C 1345.505 513.614, 1343.114 510.782, 1338.314 507.282 C 1335.462 505.202, 1330.865 501.631, 1328.098 499.348 C 1325.025 496.811, 1320.543 494.380, 1316.581 493.100 C 1313.014 491.947, 1307.717 489.602, 1304.810 487.888 C 1297.556 483.611, 1286.647 481.938, 1265.398 481.846 C 1245.551 481.760, 1239.181 483.056, 1233.209 488.396 C 1228.263 492.817, 1225.816 494, 1221.613 494 C 1216.691 494, 1213.337 492.227, 1211.957 488.897 C 1210.660 485.764, 1211.333 484.366, 1220.436 471.290 C 1223.453 466.956, 1225.429 462.576, 1226.976 456.790 C 1228.195 452.231, 1230.462 445.575, 1232.014 442 C 1233.566 438.425, 1235.327 432.773, 1235.927 429.441 C 1237.836 418.845, 1238.873 392.264, 1237.895 379 C 1236.654 362.169, 1235.640 357.185, 1231.618 348.167 C 1229.738 343.950, 1227.706 338.123, 1227.103 335.217 C 1225.856 329.208, 1223.343 323.897, 1218.557 317.160 C 1216.737 314.597, 1214.489 311.008, 1213.563 309.184 C 1211.756 305.624, 1187.744 281.161, 1181.371 276.386 C 1179.252 274.799, 1174.850 271.373, 1171.589 268.774 C 1168.327 266.174, 1163.598 263.361, 1161.080 262.523 C 1158.561 261.684, 1153.839 259.190, 1150.586 256.979 C 1147.333 254.769, 1142.158 252.273, 1139.086 251.433 C 1136.014 250.594, 1129.675 248.520, 1125 246.826 C 1109.138 241.077, 1103.355 239.918, 1087.500 239.312 C 1067.337 238.542, 1054.489 240.016, 1043.235 244.390 C 1038.431 246.258, 1031.800 248.313, 1028.500 248.957 C 1017.667 251.070, 1011.585 253.131, 1005.733 256.674 C 1002.561 258.594, 996.643 261.191, 992.581 262.444 C 983.253 265.322, 964.926 278.264, 961.968 284.062 C 959.042 289.798, 955.067 294, 952.566 294 C 947.791 294, 947.211 291.842, 946.787 272.500 C 946.424 255.956, 946.181 253.974, 943.791 248 C 942.360 244.425, 938.835 234.150, 935.958 225.166 C 931.904 212.511, 929.897 207.781, 927.045 204.166 C 925.021 201.600, 922.137 197.401, 920.637 194.835 C 919.137 192.269, 917.207 189.587, 916.350 188.875 C 915.492 188.163, 912.996 184.939, 910.803 181.710 C 906.151 174.860, 884.908 153.511, 880.513 151.269 C 878.856 150.424, 875.632 148.024, 873.349 145.937 C 871.067 143.850, 867.319 141.183, 865.021 140.011 C 862.723 138.838, 857.925 135.882, 854.358 133.440 C 850.792 130.998, 847.440 129, 846.909 129 C 846.379 129, 841.120 126.810, 835.222 124.133 C 822.928 118.552, 819.234 117.588, 802 115.468 C 789.764 113.963, 754.439 112.722, 748.500 113.589 M 657 342.654 C 653.975 342.811, 647.675 343.424, 643 344.016 C 623.041 346.545, 621.471 346.957, 614.598 351.471 C 610.981 353.848, 605.680 356.626, 602.818 357.646 C 599.762 358.735, 595.653 361.356, 592.857 364 C 590.239 366.475, 586.476 369.803, 584.495 371.396 C 582.513 372.988, 580.060 375.913, 579.043 377.896 C 578.027 379.878, 575.981 382.625, 574.497 384 C 573.013 385.375, 570.533 388.975, 568.985 392 C 567.437 395.025, 564.340 399.933, 562.103 402.907 C 557.441 409.104, 557.874 407.959, 554.527 422.950 C 550.327 441.762, 550.327 442.609, 554.526 459.847 C 557.581 472.388, 558.869 475.985, 561.567 479.519 C 563.383 481.898, 565.635 485.327, 566.571 487.138 C 568.569 491.001, 584.522 507, 586.376 507 C 587.075 507, 590.792 509.013, 594.638 511.473 C 604.194 517.587, 611.771 519.433, 624.039 518.637 C 633.573 518.018, 643.246 515.812, 645.917 513.648 C 646.696 513.017, 648.608 510.745, 650.167 508.600 C 654.024 503.291, 654.056 497.976, 650.250 494.982 C 646.768 492.243, 642.302 492.814, 636.728 496.710 C 628.552 502.424, 627.426 502.990, 624.218 502.995 C 620.052 503.001, 614.713 500.781, 610.661 497.356 C 608.922 495.887, 605.175 493.653, 602.334 492.392 C 599.493 491.132, 596.343 488.863, 595.334 487.351 C 594.325 485.840, 591.577 482.716, 589.227 480.409 C 586.065 477.306, 584.285 474.301, 582.383 468.858 C 580.970 464.811, 578.648 458.800, 577.222 455.500 C 574.939 450.211, 574.629 448.136, 574.610 438 C 574.589 426.596, 574.630 426.392, 579.544 413.584 C 583.516 403.234, 585.313 399.858, 588.595 396.584 C 590.847 394.338, 593.698 391.027, 594.930 389.226 C 596.162 387.426, 599.622 384.384, 602.620 382.466 C 605.618 380.549, 608.306 378.366, 608.594 377.615 C 608.882 376.865, 610.779 375.574, 612.809 374.747 C 622.036 370.988, 641.926 364.018, 646 363.116 C 654.051 361.333, 676.878 360.687, 688.500 361.912 C 697.976 362.911, 700.678 363.636, 708 367.144 C 712.675 369.384, 718.854 372.041, 721.731 373.048 C 728.747 375.504, 734.642 380.182, 744.914 391.446 C 756.617 404.279, 761.729 410.980, 763.374 415.642 C 764.138 417.807, 766.402 422.834, 768.406 426.812 C 774.475 438.864, 776.336 448.656, 776.424 469 C 776.508 488.437, 775.237 495.811, 769.705 507.966 C 768.069 511.560, 765.704 517.508, 764.447 521.184 C 763.191 524.861, 760.359 530.261, 758.153 533.184 C 755.947 536.108, 752.795 541.218, 751.147 544.540 C 749.374 548.117, 747.068 551.161, 745.493 552.004 C 744.031 552.786, 741.669 555.468, 740.245 557.963 C 737.686 562.449, 723.776 577, 722.047 577 C 721.556 577, 719.801 578.138, 718.149 579.528 C 715.055 582.131, 710.242 593.964, 711.469 595.949 C 712.393 597.444, 719.521 599.117, 721.643 598.336 C 722.664 597.960, 726.810 595.818, 730.855 593.576 C 736.442 590.480, 738.674 588.592, 740.139 585.724 C 741.199 583.648, 744.203 580.414, 746.813 578.539 C 749.423 576.664, 752.595 573.287, 753.860 571.035 C 755.126 568.783, 757.303 566.192, 758.699 565.278 C 760.095 564.363, 763.587 559.989, 766.459 555.557 C 769.331 551.126, 773.328 545.545, 775.341 543.155 C 777.353 540.766, 779 538.393, 779 537.883 C 779 537.373, 780.762 535.043, 782.917 532.706 C 787.164 528.099, 789.027 524.052, 791.531 514 C 792.422 510.425, 794.275 505.475, 795.649 503 C 800.011 495.144, 801 489.046, 800.994 470.040 C 800.989 451.522, 800.456 448.139, 796.031 438.500 C 794.516 435.200, 792.250 428.225, 790.996 423 C 788.372 412.063, 787.223 409.459, 783.498 406 C 782.017 404.625, 779.946 401.824, 778.895 399.775 C 777.844 397.726, 775.076 393.828, 772.742 391.114 C 770.409 388.399, 767.375 384.538, 766 382.534 C 761.925 376.592, 740.400 358.324, 735.512 356.659 C 733.147 355.853, 728.215 353.387, 724.554 351.178 C 719.867 348.351, 715.915 346.838, 711.199 346.063 C 704.719 344.999, 665.527 341.813, 663.500 342.186 C 662.950 342.287, 660.025 342.498, 657 342.654 M 670.500 410.622 C 669.400 410.900, 664.450 412.409, 659.500 413.976 C 654.550 415.544, 647.805 417.636, 644.512 418.625 C 633.614 421.898, 628 429.953, 628 442.315 C 628 450.791, 630.865 470.837, 632.538 474.074 C 634.788 478.424, 637.779 479.666, 640.193 477.251 C 642.874 474.570, 643.948 469.155, 643.976 458.176 L 644 448.852 649.750 442.823 C 657.882 434.296, 659.363 433.701, 673.709 433.193 C 685.451 432.778, 686.087 432.861, 690.375 435.374 C 695.979 438.658, 701.753 445.330, 702.994 449.955 C 704.983 457.371, 709 480.873, 709 485.099 C 709 487.527, 707.913 493.466, 706.584 498.297 C 705.255 503.127, 703.620 510.324, 702.952 514.290 C 701.829 520.946, 701.352 521.884, 696.741 526.500 C 693.994 529.250, 691.109 532.993, 690.332 534.817 C 689.443 536.900, 687.079 539.277, 683.975 541.206 C 681.257 542.896, 678.183 545.720, 677.143 547.482 C 675.739 549.862, 673.545 551.370, 668.616 553.343 L 661.979 556 626.239 556.006 C 588.702 556.011, 583 556.541, 583 560.024 C 583 564.495, 590.254 566.044, 621.477 568.239 C 648.964 570.173, 671.498 569.324, 680.246 566.026 C 684.923 564.262, 686.809 562.804, 690.391 558.180 C 692.811 555.056, 696.235 551.150, 698.001 549.500 C 699.766 547.850, 702.906 544.021, 704.978 540.991 C 707.051 537.961, 710.223 533.911, 712.027 531.991 C 713.831 530.071, 716.402 526.025, 717.740 523 C 719.079 519.975, 721.209 516.134, 722.474 514.464 C 726.765 508.802, 728.245 502.442, 728.759 487.446 C 729.347 470.279, 727.833 457.243, 724.526 451 C 723.215 448.525, 720.962 444.025, 719.519 441 C 718.076 437.975, 716.184 434.057, 715.314 432.294 C 712.315 426.215, 702.921 417.534, 695.500 413.984 C 689.642 411.182, 687.194 410.593, 680.500 410.377 C 676.100 410.234, 671.600 410.345, 670.500 410.622 M 1035 453.864 C 1025.280 457.907, 1022.458 459.619, 1016.769 464.926 C 1009.857 471.372, 1008.017 474.905, 1008.006 481.750 C 1008 485.170, 1010.884 489, 1013.465 489 C 1014.271 489, 1016.409 487.709, 1018.215 486.132 C 1020.022 484.555, 1023.850 482.078, 1026.722 480.629 C 1029.594 479.180, 1032.934 476.655, 1034.145 475.018 C 1037.063 471.071, 1041.794 469.645, 1050.016 470.233 C 1059.691 470.925, 1063.885 473.285, 1067.250 479.929 C 1070.534 486.414, 1070.665 490.151, 1068.048 502.830 C 1066.282 511.389, 1065.735 512.588, 1061.429 517.330 C 1058.848 520.174, 1055.665 523.703, 1054.356 525.173 C 1053.046 526.644, 1050.671 528.133, 1049.077 528.483 C 1047.483 528.833, 1043.444 531.314, 1040.102 533.997 C 1032.962 539.727, 1029.732 540.513, 1013.500 540.472 C 1002.183 540.443, 996.677 538.927, 995.352 535.474 C 995.052 534.692, 992.487 532.645, 989.653 530.924 C 986.819 529.204, 982.860 526.222, 980.855 524.298 C 976.702 520.312, 974.186 520.416, 971.910 524.668 C 970.042 528.158, 970.095 536.204, 972 538.500 C 972.825 539.494, 976.278 541.554, 979.674 543.078 C 983.070 544.602, 986.371 546.825, 987.010 548.018 C 987.648 549.212, 990.270 551.158, 992.836 552.344 C 997.081 554.306, 999.163 554.500, 1016 554.500 C 1026.175 554.500, 1036.159 554.147, 1038.186 553.717 C 1040.214 553.286, 1044.214 551.323, 1047.076 549.354 C 1049.938 547.385, 1055.029 544.889, 1058.390 543.807 C 1063.190 542.262, 1065.572 540.711, 1069.500 536.577 C 1072.250 533.682, 1075.896 530.360, 1077.603 529.194 C 1079.811 527.685, 1081.352 525.262, 1082.948 520.787 C 1084.182 517.329, 1086.926 511.575, 1089.046 508 C 1096.401 495.598, 1096.569 477.641, 1089.393 470.899 C 1087.991 469.582, 1085.299 465.961, 1083.411 462.853 C 1080.116 457.429, 1079.605 457.050, 1070.739 453.459 C 1063.518 450.534, 1059.862 449.647, 1054 449.399 C 1046.968 449.101, 1045.782 449.380, 1035 453.864 M 443.388 511.431 C 442.581 513.536, 445.570 524.448, 448.200 528.994 C 452.195 535.903, 477.201 562.048, 484.500 566.949 C 487.250 568.796, 491.206 572.039, 493.290 574.157 C 495.375 576.274, 498.750 578.702, 500.790 579.551 C 502.831 580.400, 506.300 582.849, 508.500 584.994 C 511.554 587.971, 514.484 589.518, 520.891 591.534 C 526.372 593.260, 530.959 595.502, 534.118 597.999 C 537.953 601.031, 540.855 602.269, 548.125 603.976 C 553.168 605.160, 560.940 607.477, 565.397 609.125 C 583.017 615.643, 586.704 616.082, 631 616.948 C 655.883 617.434, 672.539 618.157, 674.194 618.823 C 680.157 621.224, 688.959 628.198, 691.214 632.309 C 692.783 635.169, 695.011 637.292, 698.231 638.995 C 701.104 640.515, 703.644 642.799, 704.725 644.835 C 705.717 646.705, 708.485 649.312, 711 650.747 C 713.475 652.159, 717.525 655.247, 720 657.608 C 722.475 659.969, 727.200 663.119, 730.500 664.607 C 733.800 666.095, 738.162 668.793, 740.193 670.603 C 743.821 673.834, 745.799 674.571, 757.184 676.934 C 760.634 677.650, 764.333 679.278, 766.596 681.076 C 771.629 685.076, 779.035 687.055, 792.354 687.959 C 804.097 688.756, 822.429 687.750, 829.376 685.927 C 831.644 685.332, 835.197 683.501, 837.271 681.859 C 839.495 680.097, 844.417 677.894, 849.271 676.486 C 857.334 674.147, 859.523 672.656, 864.039 666.425 C 864.842 665.316, 867.141 663.409, 869.147 662.187 C 871.152 660.965, 873.549 658.812, 874.472 657.402 C 875.395 655.993, 877.354 654.312, 878.825 653.666 C 883.936 651.424, 887.126 648.672, 889.098 644.807 C 890.189 642.669, 892.139 640.438, 893.431 639.850 C 898.433 637.570, 899.365 631, 894.686 631 C 892.086 631, 889.602 633.297, 888.585 636.643 C 888.126 638.152, 886.257 639.334, 882.259 640.643 C 877.445 642.219, 876.200 643.154, 874.043 646.821 C 872.006 650.282, 870.389 651.590, 865.920 653.390 C 862.852 654.627, 858.672 656.911, 856.633 658.466 C 854.593 660.022, 849.076 662.556, 844.373 664.097 C 839.669 665.638, 834.286 668.070, 832.410 669.501 C 825.737 674.591, 823.496 675.003, 802.782 674.956 C 782.241 674.909, 779.534 674.440, 772.710 669.743 C 768.112 666.579, 762.487 664.474, 754.500 662.930 C 749.590 661.980, 747.819 661.056, 744.750 657.843 C 742.688 655.684, 738.188 652.655, 734.750 651.112 C 730.654 649.273, 727.994 647.360, 727.031 645.559 C 726.222 644.048, 723.471 641.752, 720.917 640.458 C 714.794 637.355, 694.358 615.955, 693.072 611.299 C 692.564 609.460, 692.398 605.540, 692.703 602.586 C 693.207 597.709, 693.058 597.153, 691.087 596.528 C 689.894 596.149, 674.423 595.701, 656.708 595.532 C 629.409 595.272, 589.851 593.184, 581 591.535 C 579.625 591.279, 572.425 590.585, 565 589.993 C 548.510 588.678, 545.664 587.945, 540.249 583.618 C 537.564 581.472, 533.514 579.568, 529.249 578.445 C 520.702 576.195, 516.254 573.977, 512.626 570.157 C 511.045 568.493, 507.420 566.185, 504.569 565.028 C 501.196 563.659, 498.772 561.883, 497.625 559.942 C 496.586 558.184, 493.519 555.776, 490.153 554.077 C 486.806 552.388, 483.835 550.060, 482.976 548.455 C 482.170 546.948, 479.782 544.625, 477.671 543.292 C 475.559 541.959, 473.082 539.436, 472.166 537.684 C 471.250 535.933, 468.647 532.700, 466.383 530.500 C 464.119 528.300, 461.243 524.119, 459.993 521.210 C 458.269 517.199, 456.725 515.341, 453.610 513.528 C 447.737 510.111, 444.175 509.380, 443.388 511.431 M 895.686 513.327 C 890.397 514.954, 887.717 517.885, 885.717 524.228 C 884.506 528.072, 883.232 530.073, 881.362 531.074 C 877.041 533.386, 867.069 545.116, 866.402 548.670 C 865.048 555.889, 871.096 564, 877.834 564 C 880.522 564, 881.484 563.236, 884.444 558.750 C 888.656 552.367, 890.055 546.674, 888.912 540.557 C 888.444 538.053, 888.291 535.404, 888.573 534.671 C 889.395 532.529, 899.931 529.692, 906.759 529.775 C 915.779 529.884, 919.467 531.395, 922.740 536.322 C 924.403 538.825, 927.206 541.314, 929.733 542.530 C 932.053 543.646, 935.527 546.087, 937.453 547.955 C 940.876 551.273, 941.002 551.308, 942.978 549.520 C 944.400 548.233, 944.987 546.475, 944.955 543.595 C 944.889 537.643, 943.152 534.504, 937.287 529.737 C 934.420 527.407, 930.024 523.752, 927.519 521.615 C 923.892 518.521, 920.881 517.148, 912.732 514.871 C 901.365 511.695, 901.075 511.669, 895.686 513.327 M 923.421 577.443 C 921.548 578.244, 919.658 580.201, 918.595 582.441 C 917.635 584.465, 915.420 587.027, 913.674 588.133 C 910.893 589.896, 909.330 590.082, 901.056 589.641 C 891.188 589.115, 888.764 589.705, 886.962 593.072 C 884.947 596.837, 887.507 601.717, 892.944 604.472 C 895.568 605.801, 899.081 608.039, 900.752 609.445 C 902.422 610.850, 904.527 612, 905.429 612 C 908.158 612, 918.873 602.813, 921.997 597.795 C 923.608 595.207, 926.406 592.340, 928.213 591.424 C 933.250 588.872, 935 586.946, 935 583.956 C 935 578.305, 929.129 575.003, 923.421 577.443 M 372.230 618.950 C 370.432 619.393, 367.279 620.921, 365.224 622.345 C 363.169 623.769, 359.915 625.461, 357.994 626.106 C 350.588 628.589, 347.697 634.274, 352.228 637.447 C 354.063 638.732, 356.576 638.912, 366.478 638.465 C 375.921 638.038, 380.206 638.306, 386.451 639.711 C 393.896 641.386, 394.621 641.787, 397.825 646 C 399.707 648.475, 403.105 651.527, 405.376 652.782 C 407.647 654.037, 410.551 656.590, 411.829 658.456 C 413.107 660.321, 415.581 662.833, 417.326 664.039 C 419.072 665.245, 421.676 667.898, 423.113 669.937 C 424.550 671.975, 427.443 674.457, 429.541 675.452 C 431.639 676.448, 435.099 679.178, 437.230 681.520 C 439.448 683.956, 443.969 687.175, 447.802 689.045 C 451.486 690.842, 456.075 693.995, 458 696.052 C 460.746 698.985, 463.117 700.254, 469 701.942 C 473.125 703.125, 479.301 705.450, 482.724 707.109 C 491.307 711.268, 499.892 712.466, 510.804 711.027 C 526.276 708.987, 531.902 706.823, 528.681 704.150 C 527.942 703.537, 520.897 702.105, 513.025 700.969 C 498.604 698.887, 494.824 697.658, 489.705 693.386 C 488.168 692.103, 485.243 690.599, 483.205 690.043 C 465.913 685.330, 465.185 685.022, 462.069 681.087 C 460.319 678.878, 457.182 676.494, 454.753 675.527 C 452.414 674.596, 448.407 671.734, 445.848 669.167 C 443.290 666.600, 438.192 661.800, 434.520 658.500 C 430.847 655.200, 424.797 649.575, 421.075 646 C 406.186 631.699, 399.464 626.537, 390.893 622.818 C 381.412 618.705, 376.963 617.783, 372.230 618.950 M 1209.164 685.154 C 1201.034 685.701, 1196.934 686.439, 1194.669 687.761 C 1188.410 691.417, 1188.773 698.493, 1195.380 701.644 C 1198.548 703.155, 1199.509 703.147, 1208.648 701.537 C 1214.067 700.582, 1221.772 698.720, 1225.771 697.400 C 1234.224 694.610, 1236.629 694.490, 1245.188 696.433 C 1248.660 697.221, 1256 698.371, 1261.500 698.989 C 1274.473 700.446, 1274.386 700.413, 1275.869 704.514 C 1276.657 706.695, 1278.338 708.652, 1280.318 709.695 C 1285.803 712.585, 1301.848 711.052, 1300.750 707.744 C 1300.166 705.986, 1287.511 701.295, 1281.232 700.510 C 1276.384 699.904, 1275.809 699.546, 1274.007 696.014 C 1272.297 692.661, 1271.408 692.039, 1266.975 691.088 C 1264.185 690.490, 1258.886 689.977, 1255.201 689.949 C 1246.284 689.880, 1236.416 688.543, 1231.500 686.736 C 1225.633 684.580, 1221.770 684.306, 1209.164 685.154 M 330.500 689.681 C 324.732 690.976, 321.424 692.548, 318.341 695.456 C 315.663 697.981, 313.209 699.044, 306.949 700.389 C 302.560 701.333, 295.998 703.681, 292.366 705.607 C 288.734 707.534, 281.429 710.261, 276.131 711.667 C 264.917 714.644, 261.486 716.224, 259.932 719.127 C 257.842 723.032, 260.801 724.457, 271.784 724.833 C 283.800 725.245, 293.500 723.173, 300.438 718.714 C 303.188 716.946, 308.287 714.295, 311.769 712.822 C 315.251 711.350, 320.219 708.784, 322.810 707.122 C 331.034 701.844, 342.998 699.829, 353.753 701.910 C 356.765 702.492, 359.453 704.086, 362.961 707.366 C 365.685 709.915, 368.653 712, 369.555 712 C 370.458 712, 373.514 714.263, 376.348 717.030 C 390.295 730.646, 400.709 740.442, 406.792 745.667 C 410.481 748.837, 416.494 754.259, 420.153 757.715 C 423.812 761.172, 427.309 764, 427.925 764 C 428.541 764, 430.947 765.750, 433.272 767.888 C 435.598 770.026, 439.248 772.504, 441.385 773.393 C 443.521 774.283, 446.999 776.573, 449.112 778.482 C 454.038 782.933, 458.376 784.707, 468.762 786.518 C 473.374 787.322, 479.927 789.151, 483.324 790.583 C 495.165 795.574, 499.560 796.166, 517.842 795.228 C 533.448 794.428, 534.951 794.174, 541.640 791.199 C 545.632 789.424, 552.027 787.575, 556.140 787.005 C 560.188 786.445, 568.665 785.021, 574.979 783.842 C 586.977 781.600, 586.887 781.648, 593.265 774.024 C 594.322 772.759, 596.973 772.051, 602.620 771.523 C 612.032 770.644, 615.066 769.249, 617.858 764.515 C 619.013 762.559, 621.561 760.011, 623.521 758.855 C 625.481 757.699, 626.918 756.246, 626.714 755.626 C 625.863 753.041, 621.274 754.117, 610.533 759.420 C 604.316 762.489, 598.771 765, 598.210 765 C 597.648 765, 595.304 766.575, 593 768.500 C 590.696 770.425, 588.689 772, 588.540 772 C 586.879 772, 557.198 776.263, 553.263 777.067 C 549.879 777.758, 546.606 779.322, 544.014 781.489 C 538.867 785.788, 532.792 786.518, 509.229 785.670 C 491.317 785.024, 489.760 784.669, 484.380 779.998 C 481.614 777.597, 474.829 775.266, 462.827 772.595 C 461.357 772.268, 458.056 770.399, 455.491 768.442 C 452.927 766.484, 448.122 763.507, 444.812 761.825 C 440.867 759.820, 438.111 757.607, 436.806 755.397 C 435.679 753.485, 432.681 750.863, 429.884 749.340 C 427.170 747.863, 424.022 745.153, 422.888 743.319 C 421.754 741.484, 418.869 738.836, 416.478 737.434 C 414.087 736.033, 411.205 733.319, 410.075 731.402 C 408.944 729.486, 406.557 727.149, 404.771 726.209 C 401.743 724.616, 396.763 720.162, 384.500 708.080 C 381.750 705.370, 377.025 701.936, 374 700.447 C 370.975 698.959, 366.844 696.254, 364.821 694.437 C 362.797 692.620, 359.422 690.656, 357.321 690.072 C 353.624 689.046, 334.567 688.768, 330.500 689.681 M 1322.052 716.879 C 1320.138 718.179, 1324.538 719.350, 1331.665 719.437 C 1336.646 719.498, 1339.019 718.685, 1337.702 717.369 C 1336.597 716.264, 1323.559 715.856, 1322.052 716.879 M 1085.012 751.313 C 1083.094 751.966, 1081.379 753.257, 1081.202 754.183 C 1080.377 758.485, 1092.263 760.089, 1117.655 759.101 C 1133.318 758.491, 1137.295 758.037, 1139.472 756.611 C 1141.595 755.219, 1141.898 754.581, 1140.966 753.460 C 1139.305 751.457, 1136.236 751.166, 1111 750.616 C 1095.082 750.269, 1087.480 750.473, 1085.012 751.313" stroke="none" fill="#1a1a1a" fill-rule="evenodd"/>
</svg>