<svg shape-rendering="geometricPrecision" xmlns="http://www.w3.org/2000/svg" width="1600" height="1286" viewBox="0 0 1600 1286" version="1.1">
	<rect x="0" y="0" width="100%" height="100%" fill="#ffffff" />
	<path d="M 791 60.097 C 753.787 63.728, 745.788 65.102, 735.874 69.566 C 731.680 71.455, 727.803 73, 727.260 73 C 724.274 73, 704.830 80.438, 699.963 83.442 C 696.833 85.374, 692.132 87.872, 689.516 88.993 C 686.900 90.114, 681.160 93.744, 676.760 97.060 C 672.360 100.375, 666.677 104.144, 664.130 105.436 C 661.584 106.727, 658.600 108.793, 657.500 110.027 C 656.400 111.260, 652.512 114.664, 648.859 117.591 C 645.206 120.517, 641.271 124.444, 640.113 126.317 C 638.956 128.190, 636.221 130.961, 634.035 132.476 C 631.849 133.990, 628.723 137.315, 627.086 139.865 C 625.450 142.414, 622.476 146.075, 620.476 148 C 618.476 149.925, 615.213 153.750, 613.224 156.500 C 611.236 159.250, 608.137 163.171, 606.339 165.214 C 602.772 169.266, 599.005 176.228, 596.985 182.500 C 596.276 184.700, 593.828 189.236, 591.544 192.580 C 589.260 195.924, 586.406 201.365, 585.200 204.671 C 583.995 207.977, 582.055 211.541, 580.890 212.591 C 577.515 215.632, 566.948 214.889, 550.351 210.444 C 527.750 204.392, 513.958 204.588, 485.835 211.358 C 477.951 213.256, 468.464 215.508, 464.753 216.364 C 461.043 217.219, 455.868 219.004, 453.253 220.331 C 439.180 227.471, 429.764 232.741, 423.500 236.986 C 419.650 239.595, 415.096 242.446, 413.379 243.323 C 411.663 244.200, 408.288 247.001, 405.879 249.548 C 403.471 252.094, 399.475 255.222, 397 256.497 C 388.450 260.905, 366.287 284.291, 361.799 293.641 C 360.178 297.019, 358.085 300.619, 357.148 301.641 C 353.338 305.801, 350.894 310.150, 348.081 317.782 C 346.452 322.199, 343.486 329.057, 341.490 333.021 C 335.527 344.861, 331.841 369.821, 331.746 399 C 331.693 415.280, 331.993 418.911, 334.252 429.260 C 335.998 437.260, 337.813 442.695, 339.930 446.260 C 341.642 449.142, 344.762 455.100, 346.863 459.500 C 353.145 472.657, 372.225 492.388, 383.577 497.466 C 386.370 498.715, 390.580 501.132, 392.933 502.837 C 395.287 504.542, 400.877 507.349, 405.356 509.076 C 416.577 513.403, 419.996 515.289, 423.638 519.162 C 428.221 524.037, 429.692 527.573, 431.507 538.086 C 432.819 545.684, 434.149 549.429, 438.399 557.500 C 441.296 563, 444.248 569.369, 444.961 571.653 C 445.778 574.272, 448.608 578.313, 452.628 582.598 C 456.133 586.334, 459 589.759, 459 590.208 C 459 590.657, 461.587 592.663, 464.750 594.665 C 467.913 596.667, 472.335 599.975, 474.579 602.016 C 476.848 604.079, 481.063 606.515, 484.079 607.504 C 487.060 608.482, 493.451 611.205, 498.281 613.556 C 503.732 616.209, 509.798 618.293, 514.281 619.053 C 524.126 620.720, 544.989 619.664, 556 616.940 C 565.650 614.553, 566.411 614.586, 594.500 618.592 C 611.255 620.982, 616.690 621.309, 640.500 621.363 C 670.552 621.430, 676.618 620.655, 690.679 614.951 C 694.981 613.206, 702.980 610.252, 708.455 608.386 C 713.931 606.520, 720.099 603.876, 722.164 602.510 C 724.228 601.144, 731.090 597.587, 737.413 594.604 C 743.736 591.622, 750.079 588.012, 751.508 586.583 C 752.937 585.154, 756.539 582.188, 759.512 579.991 C 762.484 577.795, 766.143 573.905, 767.643 571.347 C 769.142 568.788, 772.471 564.293, 775.040 561.357 C 777.609 558.421, 781.197 553.202, 783.013 549.759 C 784.829 546.317, 787.601 541.852, 789.172 539.838 C 793.533 534.247, 794.737 530.463, 796.950 515.388 C 801.173 486.624, 798.404 456.909, 790.438 445.500 C 780.926 431.877, 777.423 427.655, 773.631 425.249 C 771.359 423.808, 767.250 420.480, 764.500 417.853 C 758.703 412.317, 738.315 400.986, 732.825 400.250 C 725.507 399.268, 716.587 408.264, 716.529 416.684 C 716.495 421.585, 719.202 424.957, 728 430.968 C 734.766 435.592, 750.207 444, 751.931 444 C 752.628 444, 754.691 444.708, 756.516 445.574 C 759.171 446.835, 760.741 448.980, 764.380 456.324 C 770.683 469.046, 772.027 473.290, 772.670 482.500 C 773.360 492.392, 772.338 497.972, 766.433 516.551 C 762.385 529.288, 761.218 531.814, 757.392 536.121 C 754.977 538.841, 753 541.467, 753 541.956 C 753 543.756, 734.284 562.916, 727.500 568.061 C 722.899 571.551, 717.544 574.450, 711.874 576.520 C 707.130 578.252, 700.726 581.092, 697.643 582.832 C 689.519 587.418, 679.478 589.757, 662.813 590.949 C 624.953 593.657, 590.379 590.927, 567.465 583.420 C 553.337 578.791, 544.872 579.013, 541.701 584.095 C 539.583 587.490, 541.666 590.528, 547.978 593.252 C 551.294 594.683, 554.302 596.622, 554.662 597.562 C 555.601 600.010, 553.734 602.448, 550.637 602.818 C 546.817 603.273, 537.037 600.229, 533.349 597.435 C 530.238 595.079, 520.453 592.484, 505.474 590.041 C 501.610 589.411, 496.819 587.906, 494.828 586.697 C 478.345 576.693, 466.161 563.892, 463.909 554.213 C 462.459 547.980, 457.196 509.084, 456.468 499.227 C 455.528 486.477, 455.509 486.462, 440 485.103 C 427.038 483.968, 412.344 480.293, 404.341 476.187 C 402.053 475.013, 398.081 472.234, 395.514 470.012 C 392.946 467.790, 389.643 465.335, 388.173 464.558 C 386.703 463.781, 381.798 459.107, 377.274 454.172 C 369.704 445.914, 368.892 444.614, 367.081 437.850 C 360.400 412.890, 360.500 393.931, 367.553 348.233 C 368.397 342.766, 370.025 336.911, 371.523 333.954 C 372.920 331.198, 376.113 324.143, 378.619 318.275 C 381.421 311.715, 384.721 305.854, 387.190 303.054 C 389.399 300.549, 392.045 296.859, 393.071 294.853 C 394.097 292.846, 396.355 290.146, 398.089 288.853 C 399.823 287.559, 403.392 284.395, 406.021 281.821 C 408.650 279.248, 412.758 276.154, 415.150 274.947 C 417.543 273.739, 421.887 270.727, 424.804 268.252 C 428.432 265.175, 432.951 262.696, 439.105 260.408 C 444.054 258.568, 449.317 256.208, 450.801 255.162 C 456.367 251.241, 462.280 248.910, 475.202 245.543 C 482.516 243.637, 491.875 241.108, 496 239.924 C 501.925 238.223, 507.185 237.665, 521.045 237.266 L 538.589 236.762 551.867 240.389 C 568.190 244.848, 572.136 246.610, 580.093 252.996 C 588.226 259.523, 592.862 260.845, 598.861 258.346 C 601.299 257.331, 604.203 255.280, 605.314 253.788 C 607.210 251.243, 607.260 250.568, 606.139 242.788 C 604.854 233.864, 605.665 225.502, 608.319 220.325 C 609.116 218.771, 611.642 212.694, 613.933 206.820 C 616.384 200.533, 619.691 194.137, 621.971 191.274 C 624.101 188.599, 626.982 183.838, 628.372 180.694 C 629.946 177.134, 633.652 172.027, 638.200 167.150 C 642.215 162.843, 646.861 157.786, 648.525 155.910 C 653.869 149.886, 665.795 139.999, 672.745 135.830 C 676.460 133.601, 681.300 130.053, 683.500 127.946 C 685.700 125.839, 689.831 123.040, 692.680 121.727 C 695.530 120.414, 700.255 117.701, 703.180 115.699 C 706.204 113.631, 713.680 110.288, 720.500 107.955 C 727.100 105.697, 734.525 102.563, 737 100.989 C 743.477 96.871, 746.252 96.010, 758 94.475 C 781.228 91.439, 805.027 90.729, 828.500 92.373 C 854.144 94.168, 866.042 96.064, 874.445 99.693 C 877.775 101.131, 886.967 104.475, 894.871 107.125 C 905.636 110.734, 910.534 112.941, 914.396 115.920 C 917.231 118.107, 921.341 120.707, 923.530 121.698 C 945.862 131.810, 989.669 175.579, 1000.898 199 C 1003.139 203.675, 1006.567 210.425, 1008.516 214 C 1010.741 218.083, 1012.623 223.475, 1013.575 228.500 C 1014.409 232.900, 1016.713 244.150, 1018.696 253.500 C 1021.259 265.586, 1022.293 272.957, 1022.272 279 C 1022.209 297.122, 1016.015 319.214, 1007.374 332.133 C 1004.620 336.251, 1001.789 341.681, 1001.084 344.200 C 999.963 348.204, 1000.019 349.238, 1001.531 352.425 C 1003.877 357.369, 1006.110 358.332, 1013.921 357.774 C 1022.293 357.175, 1026.186 355.138, 1030.538 349.080 C 1034.267 343.889, 1046.996 334.801, 1053.840 332.443 C 1055.983 331.705, 1063.309 330.385, 1070.119 329.511 C 1076.928 328.637, 1088.575 327.042, 1096 325.966 C 1113.873 323.377, 1122.009 323.476, 1137 326.461 C 1143.875 327.830, 1154.141 329.827, 1159.814 330.899 C 1168.249 332.494, 1171.256 333.574, 1176.314 336.830 C 1179.716 339.020, 1185.748 342.397, 1189.718 344.336 C 1193.688 346.274, 1198.863 349.181, 1201.218 350.796 C 1203.573 352.410, 1207.922 354.954, 1210.883 356.450 C 1213.843 357.945, 1218.343 361.096, 1220.883 363.453 C 1223.422 365.809, 1227.075 368.514, 1229 369.465 C 1234.894 372.374, 1259.318 398.123, 1265.253 407.685 C 1274.467 422.527, 1274.927 423.377, 1277.605 430.500 C 1279.053 434.350, 1281.726 440.268, 1283.546 443.651 C 1288.517 452.895, 1289.743 457.387, 1292.513 476.491 C 1293.907 486.109, 1295.497 496.345, 1296.045 499.238 C 1296.594 502.131, 1297.310 513.274, 1297.637 523.999 L 1298.232 543.500 1294.615 560.898 C 1289.758 584.258, 1289.603 584.758, 1284.979 591.911 C 1282.762 595.341, 1279.203 601.602, 1277.070 605.824 C 1274.937 610.046, 1271.784 614.836, 1270.063 616.469 C 1268.342 618.102, 1265.852 621.252, 1264.531 623.469 C 1260.948 629.480, 1247.576 641.017, 1238.500 645.927 C 1234.100 648.307, 1228.475 651.685, 1226 653.434 C 1220.394 657.394, 1220.329 657.420, 1204.268 661.985 C 1196.991 664.053, 1189.913 666.482, 1188.539 667.382 C 1184.510 670.022, 1182.602 674.730, 1182.817 681.500 C 1183.412 700.219, 1182.877 724.997, 1181.488 743 C 1180.618 754.275, 1179.632 769.350, 1179.296 776.500 L 1178.685 789.500 1175.486 792.500 C 1170.982 796.725, 1169.538 799.285, 1165.997 809.335 C 1162.431 819.453, 1162.456 821.523, 1166.176 824.289 C 1170.531 827.529, 1177.492 827.648, 1184.374 824.601 C 1187.605 823.170, 1191.880 821.992, 1193.874 821.982 C 1195.868 821.972, 1201.775 821.305, 1207 820.500 C 1227.902 817.279, 1240.556 818.825, 1268.269 827.987 C 1279.730 831.776, 1284.778 833.969, 1287.635 836.401 C 1289.761 838.210, 1293.525 840.936, 1296 842.460 C 1298.475 843.983, 1302.300 846.933, 1304.500 849.014 C 1306.700 851.095, 1310.975 854.368, 1314 856.289 C 1317.025 858.209, 1320.625 861.016, 1322 862.527 C 1323.375 864.038, 1328.550 868.518, 1333.500 872.483 C 1338.450 876.448, 1343.162 880.489, 1343.971 881.464 C 1344.780 882.439, 1348.686 885.427, 1352.652 888.102 C 1356.618 890.778, 1360.152 893.436, 1360.505 894.009 C 1360.859 894.581, 1365.503 897.237, 1370.824 899.912 C 1376.146 902.586, 1382.802 905.977, 1385.616 907.448 C 1396.365 913.067, 1433.963 916.202, 1461.500 913.776 C 1469.200 913.098, 1479.200 912.533, 1483.722 912.522 C 1490.947 912.503, 1492.220 912.775, 1494.209 914.764 C 1497.321 917.877, 1496.014 919.618, 1487.147 924.174 C 1483.213 926.195, 1478.178 929.404, 1475.957 931.305 C 1473.736 933.206, 1469.349 935.703, 1466.209 936.854 C 1463.069 938.005, 1456.978 940.960, 1452.673 943.420 C 1444.639 948.012, 1440.928 949.525, 1430.500 952.463 C 1427.200 953.393, 1422.169 955.728, 1419.319 957.651 C 1416.022 959.877, 1409.934 962.397, 1402.571 964.583 C 1396.209 966.473, 1387.642 969.593, 1383.533 971.517 C 1369.957 977.873, 1352.336 980.429, 1322.500 980.373 C 1294.542 980.319, 1268.801 976.925, 1254.635 971.425 C 1237.815 964.894, 1211.769 965.598, 1198.766 972.937 C 1195.771 974.627, 1190.202 977.071, 1186.391 978.367 C 1178.540 981.037, 1173.507 983.528, 1167 987.962 C 1159.785 992.879, 1145.877 996.845, 1132.262 997.870 C 1122.012 998.641, 1119.700 999.163, 1114.277 1001.928 C 1110.855 1003.673, 1104.798 1006.208, 1100.819 1007.562 C 1096.839 1008.915, 1090.639 1011.778, 1087.041 1013.923 C 1083.444 1016.068, 1076.900 1018.785, 1072.500 1019.960 C 1068.100 1021.136, 1060.183 1024.107, 1054.906 1026.563 C 1049.167 1029.234, 1041.534 1031.821, 1035.906 1033.002 C 1020.947 1036.140, 998.076 1040.827, 991 1042.204 C 986.784 1043.025, 976.065 1043.443, 960.500 1043.394 C 938.659 1043.326, 935.376 1043.084, 924 1040.708 C 917.125 1039.272, 902.476 1036.952, 891.447 1035.553 C 869.405 1032.757, 863.694 1031.377, 854.002 1026.510 C 850.426 1024.714, 844.800 1022.463, 841.500 1021.508 C 838.200 1020.552, 833.379 1019.144, 830.786 1018.377 C 828.193 1017.610, 823.468 1015.412, 820.286 1013.493 C 817.104 1011.574, 811.575 1009.041, 808 1007.864 C 800.144 1005.278, 794.630 1002.619, 790.143 999.253 C 788.296 997.868, 783.144 995.222, 778.694 993.373 C 774.244 991.524, 768.105 988.289, 765.052 986.184 C 759.172 982.130, 751.657 978.674, 746.208 977.520 C 744.398 977.137, 740.904 975.081, 738.445 972.952 C 733.584 968.745, 729.221 966.568, 718.506 963.002 C 714.680 961.729, 709.288 959.264, 706.525 957.525 C 700.401 953.671, 697.769 952.640, 687.500 950.071 C 683.100 948.970, 674.908 946.470, 669.296 944.515 C 653.287 938.939, 642.568 937.626, 612.500 937.559 C 583.354 937.493, 579.829 937.936, 561 944.029 C 554.125 946.254, 543.606 949.421, 537.625 951.067 C 530.805 952.943, 524.265 955.535, 520.083 958.020 C 516.416 960.199, 509.834 963.060, 505.458 964.380 C 495.691 967.323, 492.882 968.550, 486.500 972.661 C 483.735 974.442, 477.253 977.061, 472 978.521 C 466.173 980.140, 459.214 983.035, 454 986.007 C 449.325 988.673, 442.125 991.839, 438 993.042 C 433.875 994.246, 426.996 996.993, 422.713 999.146 C 414.010 1003.520, 407.487 1005.054, 385.134 1007.985 C 364.602 1010.677, 341.326 1010.658, 318.113 1007.930 C 294.517 1005.157, 288.317 1003.736, 276.827 998.469 C 271.464 996.011, 266.497 993.996, 265.788 993.990 C 263.532 993.973, 253.926 989.104, 246.791 984.361 C 242.995 981.837, 237.050 978.921, 233.582 977.880 C 230.114 976.840, 225.121 974.843, 222.487 973.442 C 215.160 969.546, 208.261 968.146, 188.055 966.455 C 163.753 964.421, 156.451 962.888, 145.500 957.517 C 140.550 955.090, 133.444 951.745, 129.708 950.085 C 122.127 946.715, 108 934.852, 108 931.854 C 108 930.860, 109.216 929.249, 110.702 928.276 C 113.073 926.722, 117.028 926.429, 142.952 925.887 C 174.419 925.228, 177.648 924.768, 185.500 919.826 C 187.700 918.441, 193.775 915.418, 199 913.107 C 205.285 910.328, 210.023 907.436, 213 904.561 C 215.475 902.171, 218.922 899.501, 220.660 898.628 C 222.398 897.756, 225.098 895.493, 226.660 893.600 C 228.222 891.707, 231.644 888.522, 234.264 886.522 C 237.484 884.066, 240.022 880.919, 242.091 876.819 C 243.776 873.482, 246.842 868.220, 248.905 865.126 C 250.968 862.032, 254.141 856.020, 255.956 851.766 C 257.771 847.513, 259.951 843.463, 260.801 842.766 C 261.650 842.070, 264.720 837.827, 267.622 833.338 C 275.166 821.668, 287.764 808.096, 296.808 801.897 C 301.039 798.996, 306.362 795.120, 308.639 793.283 C 310.915 791.445, 316.315 788.650, 320.639 787.071 C 324.962 785.492, 331.200 782.993, 334.500 781.518 C 343.132 777.660, 351.959 776.037, 364.418 776.017 C 378.488 775.995, 386.064 777.349, 399 782.200 C 415.633 788.436, 417.102 789.123, 424.500 794.136 C 432.548 799.589, 435.849 801.014, 440.315 800.965 C 444.970 800.913, 446.997 799.481, 459.858 787.165 C 492.652 755.761, 499.733 749.538, 507.334 745.444 C 510.175 743.914, 514.781 740.600, 517.569 738.081 C 520.356 735.561, 524.323 732.898, 526.384 732.162 C 528.445 731.425, 533.139 729.115, 536.816 727.027 C 545.385 722.160, 550.248 720.687, 568 717.581 C 597.947 712.341, 605.412 712.329, 640.236 717.464 C 659.970 720.374, 662.800 721.183, 675 727.413 C 679.675 729.800, 685.160 732.284, 687.188 732.934 C 689.217 733.583, 692.647 735.832, 694.810 737.931 C 696.973 740.030, 701.753 743.230, 705.433 745.042 C 709.113 746.853, 714.812 750.734, 718.097 753.665 C 721.382 756.597, 725.795 759.875, 727.902 760.950 C 730.010 762.025, 733.567 765.094, 735.807 767.770 C 738.047 770.445, 741.819 773.869, 744.190 775.379 C 746.560 776.889, 749.625 779.639, 751 781.490 C 754.461 786.149, 772.105 796.620, 778.971 798.090 C 782.443 798.833, 789.572 799.074, 798.471 798.749 C 811.134 798.287, 813.522 797.892, 823 794.700 C 828.775 792.755, 836.200 790.674, 839.500 790.075 C 848.173 788.501, 860.771 784.120, 866.169 780.800 C 868.737 779.220, 874.783 776.594, 879.604 774.965 C 885.458 772.986, 889.885 770.725, 892.934 768.157 C 895.445 766.042, 900.834 762.424, 904.909 760.116 C 908.983 757.809, 914.941 753.493, 918.147 750.524 C 921.354 747.555, 925.272 744.362, 926.853 743.428 C 928.435 742.493, 930.491 740.438, 931.423 738.861 C 932.355 737.284, 935.614 733.182, 938.666 729.747 C 941.717 726.311, 945.561 720.575, 947.208 717 C 948.855 713.425, 951.925 708.249, 954.032 705.498 C 956.138 702.746, 958.384 699.146, 959.022 697.498 C 959.660 695.849, 961.771 684.375, 963.712 672 C 969.315 636.285, 969.153 619.576, 962.904 588.622 C 960.643 577.421, 959.101 573.974, 952.041 564.330 C 943.503 552.669, 942.837 551.922, 938.612 549.271 C 936.351 547.852, 932.475 544.914, 930 542.743 C 923.909 537.399, 919.622 535.360, 909.525 533.006 C 904.819 531.909, 898.164 530.037, 894.735 528.847 C 890.177 527.264, 886.214 526.694, 880 526.724 C 872.428 526.762, 870.326 527.227, 860.752 530.986 C 846.052 536.758, 842.490 541.245, 846.480 548.961 C 849.872 555.521, 855.678 557.436, 863.648 554.624 C 873.365 551.196, 896.376 551.861, 905.348 555.830 C 910.175 557.965, 923.719 569.851, 928.001 575.710 C 931.151 580.021, 938.613 597.016, 940.641 604.500 C 942.889 612.798, 944.158 640.802, 943.011 656.843 C 941.768 674.242, 940.924 678.167, 936.583 686.763 C 934.711 690.468, 932.534 695.075, 931.744 697 C 929.700 701.987, 920.092 713.576, 906.356 727.626 C 897.132 737.059, 893.057 740.470, 888 742.986 C 884.425 744.765, 879.238 747.948, 876.474 750.059 C 873.220 752.544, 868.458 754.821, 862.974 756.513 C 858.313 757.951, 852.250 760.293, 849.500 761.716 C 846.750 763.140, 842.475 765.342, 840 766.610 C 831.732 770.845, 820.437 772.463, 799 772.482 C 775.227 772.504, 771.525 771.684, 765.003 764.958 C 762.526 762.403, 759.749 759.906, 758.830 759.407 C 757.912 758.908, 751.068 752.546, 743.622 745.270 C 735.911 737.736, 726.944 730.046, 722.791 727.409 C 718.781 724.862, 714.375 721.728, 713 720.444 C 711.625 719.159, 707.866 716.944, 704.646 715.521 C 701.426 714.098, 696.031 711.059, 692.658 708.768 C 685.266 703.748, 682.302 702.671, 670.105 700.569 C 664.829 699.660, 657.377 697.491, 653.105 695.621 C 648.922 693.791, 643.250 691.768, 640.500 691.126 C 622.295 686.878, 578.518 687.126, 560.569 691.580 C 557.307 692.389, 551.232 694.565, 547.069 696.414 C 542.906 698.264, 537.700 700.084, 535.500 700.458 C 526.545 701.981, 520.808 704.272, 516.406 708.082 C 513.914 710.238, 508.180 713.766, 503.664 715.922 C 495.837 719.658, 494.318 720.992, 471.185 744.456 C 457.837 757.995, 445.401 769.795, 443.549 770.678 C 440.361 772.198, 439.796 772.158, 432.976 769.922 C 429.014 768.623, 423.489 765.857, 420.699 763.776 C 414.380 759.061, 412.091 758.395, 393.500 755.866 C 375.658 753.438, 354.150 753.804, 331.500 756.921 C 316.106 759.039, 313.816 759.699, 307.674 763.787 C 305.378 765.315, 299.091 768.718, 293.702 771.350 C 284.648 775.771, 282.909 777.137, 270.815 789.317 C 263.616 796.568, 255.908 804.975, 253.686 808 C 251.463 811.025, 247.686 815.701, 245.292 818.392 C 242.898 821.083, 239.309 826.258, 237.316 829.892 C 235.324 833.526, 232.439 837.850, 230.907 839.500 C 229.374 841.150, 226.340 846.382, 224.163 851.126 C 221.734 856.421, 218.253 861.907, 215.150 865.334 C 212.369 868.405, 209.407 872.246, 208.567 873.871 C 207.498 875.938, 202.997 879.255, 193.564 884.925 C 182.098 891.818, 178.926 893.252, 172.294 894.544 C 168.007 895.379, 157.075 897.817, 148 899.962 C 131.282 903.914, 117.347 905.621, 93.590 906.627 C 79.808 907.210, 74.188 908.800, 70.528 913.149 C 67.430 916.831, 67.307 920.545, 69.995 929.250 C 71.424 933.876, 73.024 936.674, 75.629 939.105 C 77.630 940.972, 80.233 943.400, 81.413 944.500 C 82.594 945.600, 84.221 947.437, 85.030 948.583 C 85.838 949.729, 88.906 952.350, 91.846 954.408 C 94.787 956.466, 98.573 959.722, 100.260 961.643 C 101.947 963.564, 105.841 966.410, 108.913 967.966 C 111.986 969.522, 116.300 972.237, 118.500 973.997 C 124.332 978.665, 129.305 980.959, 139.464 983.668 C 144.434 984.994, 151.073 987.412, 154.217 989.043 C 163.823 994.025, 169.748 995.095, 192.500 995.957 C 204.050 996.395, 214.960 997.226, 216.745 997.805 C 218.529 998.384, 221.930 1000.447, 224.301 1002.391 C 226.673 1004.334, 231.738 1007.361, 235.557 1009.118 C 239.376 1010.874, 245.425 1014.225, 249 1016.563 C 252.575 1018.902, 258.650 1021.783, 262.500 1022.966 C 268.991 1024.959, 279.183 1028.489, 291.623 1033.050 C 300.875 1036.442, 313.827 1037.466, 347 1037.427 C 383.031 1037.385, 394.246 1036.159, 406.071 1030.969 C 409.923 1029.278, 416.995 1027.034, 421.787 1025.981 C 435.464 1022.976, 440.956 1021.114, 448.757 1016.833 C 452.749 1014.644, 460.174 1011.742, 465.257 1010.385 C 470.341 1009.028, 476.097 1006.864, 478.050 1005.577 C 484.289 1001.463, 491.269 998.319, 500.132 995.628 C 504.920 994.175, 511.056 991.431, 513.909 989.469 C 520.282 985.085, 521.927 984.457, 533.731 981.899 C 538.942 980.770, 547.447 978.114, 552.630 975.997 C 563.823 971.425, 571.520 969.602, 587 967.857 C 603.780 965.966, 644.409 966.206, 660.500 968.292 C 672.436 969.840, 674.236 970.360, 682.500 974.648 C 687.450 977.216, 696.053 980.762, 701.618 982.527 C 708.695 984.771, 713.367 986.967, 717.160 989.831 C 720.143 992.083, 725.137 995.055, 728.259 996.436 C 731.380 997.816, 735.704 1000.545, 737.867 1002.499 C 740.031 1004.454, 745.333 1007.832, 749.650 1010.007 C 753.968 1012.182, 760.276 1015.699, 763.670 1017.823 C 767.063 1019.946, 773.360 1022.933, 777.663 1024.461 C 781.966 1025.989, 787.914 1028.976, 790.880 1031.100 C 794.242 1033.508, 799.516 1035.942, 804.886 1037.565 C 809.624 1038.997, 817.177 1042.160, 821.672 1044.594 C 826.166 1047.028, 833.778 1050.160, 838.587 1051.553 C 843.396 1052.947, 850.069 1055.604, 853.415 1057.457 C 861.550 1061.963, 866.822 1063.387, 886.691 1066.442 C 895.936 1067.864, 911.150 1070.244, 920.500 1071.731 C 935.471 1074.112, 940.245 1074.430, 960.500 1074.397 C 979.099 1074.366, 985.988 1073.951, 996.500 1072.229 C 1018.427 1068.637, 1046.314 1062.363, 1053.077 1059.501 C 1056.610 1058.007, 1064.504 1054.843, 1070.620 1052.472 C 1076.736 1050.100, 1084.611 1046.710, 1088.120 1044.938 C 1091.629 1043.165, 1098.775 1040.380, 1104 1038.748 C 1109.225 1037.115, 1117.620 1033.613, 1122.655 1030.965 C 1127.789 1028.265, 1133.718 1025.927, 1136.155 1025.641 C 1138.545 1025.360, 1144.940 1024.613, 1150.366 1023.980 C 1162.015 1022.622, 1166.246 1021.258, 1175.084 1016.014 C 1178.706 1013.866, 1184.699 1010.967, 1188.403 1009.573 C 1192.106 1008.179, 1197.719 1005.445, 1200.874 1003.497 C 1209.713 998.041, 1216.491 995.826, 1226.105 995.253 C 1237.240 994.588, 1255.717 997.305, 1267 1001.265 C 1288.699 1008.882, 1300.809 1010.506, 1330 1009.714 C 1354.289 1009.055, 1357.487 1008.518, 1379 1001.491 C 1388.075 998.526, 1397.975 995.375, 1401 994.488 C 1404.025 993.601, 1409.031 991.336, 1412.124 989.455 C 1415.421 987.449, 1422.724 984.615, 1429.777 982.604 C 1442.655 978.932, 1443.819 978.438, 1451.500 973.385 C 1454.250 971.577, 1460.319 968.697, 1464.987 966.986 C 1469.655 965.275, 1474.830 962.854, 1476.487 961.606 C 1478.144 960.358, 1482.875 957.369, 1487 954.963 C 1496.836 949.226, 1506.096 941.249, 1518.500 927.828 C 1520.700 925.448, 1523.625 922.520, 1525 921.323 C 1531.908 915.308, 1540.221 905.750, 1541.927 901.864 C 1547.773 888.542, 1543.952 880.793, 1530.120 877.921 C 1525.333 876.927, 1523.372 877.100, 1513.594 879.373 C 1507.492 880.791, 1498.225 882.427, 1493 883.008 C 1479.636 884.493, 1466.763 886.791, 1458 889.254 C 1451.704 891.024, 1447.692 891.368, 1433 891.396 L 1415.500 891.430 1402.500 886.842 C 1383.748 880.225, 1381.983 879.375, 1377 874.557 C 1374.525 872.164, 1370.510 869.211, 1368.077 867.995 C 1365.644 866.778, 1357.994 860.311, 1351.077 853.624 C 1333.866 836.986, 1324.414 828.819, 1318.500 825.476 C 1315.750 823.922, 1311.475 821.200, 1309 819.428 C 1306.525 817.656, 1300.472 814.584, 1295.550 812.601 C 1290.627 810.618, 1283.915 807.396, 1280.635 805.442 C 1273.112 800.961, 1267.294 799.454, 1249.626 797.412 C 1239.154 796.202, 1231.878 795.960, 1221.500 796.478 C 1213.800 796.862, 1205.700 797.241, 1203.499 797.319 C 1198.651 797.492, 1190 794.369, 1190 792.447 C 1190 791.683, 1191.354 789.133, 1193.010 786.779 C 1194.806 784.226, 1197.007 778.805, 1198.467 773.339 C 1199.813 768.300, 1202.519 760.070, 1204.480 755.051 C 1209.180 743.023, 1210.758 735.868, 1212.008 720.906 C 1213.935 697.854, 1214.743 696.080, 1226.075 690.041 C 1229.424 688.256, 1234.392 684.817, 1237.115 682.398 C 1239.839 679.979, 1244.260 676.888, 1246.941 675.530 C 1253.303 672.306, 1263.752 664.405, 1272.500 656.203 C 1276.350 652.594, 1282.231 647.070, 1285.569 643.928 C 1289.581 640.153, 1292.937 635.722, 1295.469 630.858 C 1297.576 626.811, 1301.224 621.417, 1303.576 618.872 C 1305.928 616.326, 1309.450 611.072, 1311.402 607.194 C 1313.355 603.317, 1316.301 598.018, 1317.949 595.419 C 1319.597 592.820, 1321.468 589.075, 1322.105 587.097 C 1322.743 585.119, 1325.197 578.945, 1327.559 573.377 C 1330.335 566.832, 1332.279 560.346, 1333.056 555.030 C 1334.692 543.840, 1333.759 524.023, 1331.006 511.500 C 1327.201 494.194, 1326.061 487.915, 1323.940 472.563 C 1322.318 460.825, 1320.926 455.004, 1317.439 445.386 C 1312.238 431.039, 1305.261 415.855, 1301.744 411.230 C 1300.377 409.432, 1297.547 403.882, 1295.457 398.897 C 1293.173 393.450, 1290.007 387.972, 1287.523 385.167 C 1285.250 382.600, 1282.183 378.405, 1280.708 375.845 C 1279.233 373.284, 1276.211 369.751, 1273.992 367.993 C 1271.773 366.236, 1268.647 362.893, 1267.045 360.565 C 1263.842 355.910, 1253.824 347.460, 1244.500 341.548 C 1241.200 339.455, 1236.675 336.072, 1234.444 334.030 C 1232.213 331.987, 1227.263 328.816, 1223.444 326.982 C 1219.625 325.149, 1214.216 321.972, 1211.424 319.923 C 1208.246 317.591, 1202.636 314.997, 1196.424 312.987 C 1190.966 311.221, 1183.530 308.047, 1179.900 305.933 C 1170.942 300.716, 1164.886 298.467, 1156 297.057 C 1151.875 296.402, 1144.345 294.997, 1139.267 293.933 C 1123.028 290.533, 1104.103 291.687, 1071.967 298.039 C 1054.184 301.554, 1050.697 301.697, 1048.025 299.025 C 1044.699 295.699, 1044.636 292.560, 1047.608 278.216 C 1051.803 257.966, 1051.586 246.085, 1046.682 227.500 C 1044.650 219.800, 1041.921 211.475, 1040.618 209 C 1034.394 197.177, 1032.359 193.029, 1030.642 188.672 C 1029.620 186.078, 1027.052 181.861, 1024.936 179.300 C 1022.821 176.740, 1019.749 172.137, 1018.112 169.072 C 1016.474 166.008, 1013.485 161.925, 1011.468 160 C 1009.451 158.075, 1006.331 154.250, 1004.535 151.500 C 1001.182 146.367, 991.473 136.840, 977.021 124.500 C 972.512 120.650, 966.275 115.193, 963.161 112.373 C 960.048 109.554, 955.628 106.303, 953.341 105.149 C 951.053 103.996, 947.092 101.244, 944.538 99.033 C 938.714 93.993, 937.641 93.428, 927.142 89.879 C 922.428 88.286, 916.970 85.922, 915.013 84.627 C 906.776 79.176, 892.830 73.569, 872.500 67.536 C 848.934 60.542, 816.645 57.595, 791 60.097 M 736 295.056 C 706.168 298.116, 700.375 299.527, 689.314 306.428 C 685.362 308.894, 679.122 311.944, 675.448 313.206 C 671.699 314.493, 666.953 317.069, 664.633 319.075 C 662.360 321.042, 657.762 324.496, 654.415 326.751 C 645.981 332.433, 629.671 348.651, 624.787 356.212 C 622.553 359.670, 619.026 364.431, 616.951 366.790 C 614.518 369.556, 611.672 374.888, 608.946 381.790 C 604.975 391.841, 604.685 393.254, 604.237 404.749 C 603.763 416.886, 603.797 417.122, 607.944 430.749 C 612.542 445.853, 615.136 451.715, 620.886 460 C 622.985 463.025, 626.286 467.992, 628.220 471.037 C 631.035 475.468, 634.012 478.144, 643.119 484.432 C 657.103 494.086, 659.785 495.307, 673 498.029 C 685.350 500.574, 695.127 500.712, 707.444 498.516 C 718.410 496.562, 724.277 494.062, 729.500 489.119 C 731.700 487.037, 736.448 483.275, 740.050 480.759 C 749.616 474.078, 754 467.063, 754 458.435 C 754 453.043, 751.438 450, 746.900 450 C 743.466 450, 738.782 454.128, 735.785 459.797 C 734.621 461.997, 732.530 463.701, 729.286 465.092 C 726.655 466.220, 723.152 468.160, 721.501 469.405 C 713.380 475.528, 709.157 477.212, 700.581 477.747 C 689.094 478.463, 680.106 476.644, 674.174 472.403 C 671.603 470.565, 666.952 467.656, 663.837 465.938 C 656.032 461.633, 644.831 449.743, 643.133 443.962 C 642.412 441.508, 639.993 435.450, 637.756 430.500 C 632.601 419.093, 631.595 408.831, 634.765 400 C 643.353 376.078, 644.826 372.877, 649.651 367.646 C 652.318 364.754, 656.594 359.422, 659.152 355.795 C 662.876 350.518, 665.272 348.350, 671.152 344.936 C 675.194 342.589, 680.630 338.769, 683.234 336.446 C 687.030 333.060, 689.407 331.882, 695.234 330.498 C 699.230 329.549, 706.669 327.019, 711.764 324.876 C 719.724 321.528, 722.783 320.815, 733.494 319.805 C 749.083 318.336, 758.949 319.494, 772.087 324.336 C 777.264 326.244, 783.637 328.561, 786.249 329.485 C 796.672 333.172, 816.320 354.435, 820.587 366.647 C 821.835 370.220, 824.703 376.199, 826.961 379.935 C 830.674 386.081, 831.196 387.790, 832.445 397.902 C 834.225 412.318, 836.943 418.351, 841.870 418.822 C 846.106 419.227, 850.234 415.573, 852.631 409.296 C 853.967 405.799, 854.180 402.903, 853.704 394.716 C 852.710 377.618, 849.266 364.301, 843.513 355.313 C 841.467 352.116, 838.377 347.160, 836.646 344.300 C 832.298 337.113, 818.727 320.744, 814.040 317.031 C 811.909 315.344, 807.744 312.892, 804.783 311.583 C 801.822 310.273, 797.028 307.177, 794.128 304.702 C 788.342 299.763, 785.556 298.812, 770.401 296.605 C 756.159 294.531, 745.710 294.061, 736 295.056 M 902.403 440.994 C 897.895 441.486, 892.060 443.130, 886.403 445.500 C 881.507 447.552, 872.550 450.476, 866.500 451.998 C 852.677 455.475, 852.108 455.722, 851.401 458.538 C 850.522 462.042, 851.752 464.655, 854.895 465.957 C 857.903 467.203, 878.696 466.091, 894 463.866 C 904.192 462.385, 934.512 463.585, 948.500 466.025 C 962.891 468.534, 969.187 470.476, 972.111 473.308 C 976.548 477.605, 980.471 479.764, 987.810 481.946 C 995.258 484.162, 996.363 484.934, 1001.316 491.388 C 1002.864 493.407, 1005.901 496.175, 1008.063 497.540 C 1011.288 499.575, 1012.804 501.753, 1016.491 509.642 C 1019.401 515.870, 1022.984 521.538, 1026.653 525.717 C 1032.981 532.924, 1035.978 534.611, 1039.315 532.843 C 1042.523 531.143, 1050.503 524.353, 1057.428 517.429 C 1060.767 514.090, 1065.166 510.146, 1067.202 508.665 C 1069.238 507.184, 1071.686 504.647, 1072.642 503.028 C 1075.289 498.547, 1083.255 496.388, 1092.476 497.652 C 1096.513 498.205, 1097.493 498.821, 1099.570 502.111 C 1100.896 504.211, 1103.777 506.957, 1105.973 508.214 C 1108.321 509.558, 1110.444 511.737, 1111.124 513.500 C 1111.761 515.150, 1112.493 522.602, 1112.749 530.059 C 1113.211 543.446, 1113.177 543.714, 1110.115 551.059 C 1107.725 556.793, 1105.898 559.459, 1102.155 562.678 C 1096.470 567.567, 1093.229 573.366, 1094.995 575.494 C 1098.330 579.512, 1107.981 577.844, 1114.341 572.150 C 1116.628 570.102, 1120.321 567.259, 1122.546 565.833 C 1125.351 564.036, 1127.625 561.287, 1129.958 556.871 C 1131.809 553.367, 1134.151 549.427, 1135.162 548.115 C 1137.939 544.512, 1137.444 539.628, 1133.596 532.662 C 1131.723 529.273, 1128.733 522.957, 1126.951 518.628 C 1124.290 512.161, 1122.944 510.215, 1119.415 507.727 C 1117.051 506.061, 1114.588 503.421, 1113.942 501.860 C 1113.295 500.299, 1111.131 497.544, 1109.133 495.738 C 1107.135 493.932, 1103.838 490.188, 1101.806 487.420 C 1098.498 482.910, 1097.299 482.103, 1090.306 479.681 C 1080.824 476.396, 1076.022 476.300, 1068.920 479.255 C 1061.275 482.435, 1060.618 482.933, 1057.048 488.249 C 1053.952 492.860, 1049.241 496.333, 1041.955 499.375 C 1038.846 500.674, 1038.042 500.676, 1035.404 499.399 C 1033.750 498.598, 1031.550 496.493, 1030.514 494.721 C 1029.478 492.950, 1023.269 486.019, 1016.717 479.320 C 1007.744 470.148, 1003.408 466.486, 999.151 464.488 C 996.043 463.029, 991.475 460.574, 989 459.034 C 983.308 455.490, 977.147 453.505, 964.165 451.032 C 957.375 449.738, 952.097 448.065, 948.682 446.124 C 945.832 444.504, 941.700 442.731, 939.500 442.183 C 933.934 440.798, 910.955 440.061, 902.403 440.994 M 1054.655 577.829 C 1052.628 580.069, 1052.564 583.931, 1054.416 592.188 C 1058.707 611.307, 1059.459 658.744, 1055.975 690.500 C 1053.965 708.823, 1053.172 711.981, 1048.831 718.965 C 1047.275 721.468, 1044.457 727.112, 1042.568 731.508 C 1040.680 735.904, 1037.596 741.300, 1035.715 743.500 C 1033.834 745.700, 1031.347 749.300, 1030.188 751.500 C 1029.029 753.700, 1026.454 757.300, 1024.465 759.500 C 1022.477 761.700, 1019.210 765.525, 1017.205 768 C 1015.200 770.475, 1009.834 776.422, 1005.280 781.215 C 1000.726 786.009, 997 790.399, 997 790.972 C 997 791.545, 993.737 794.082, 989.750 796.610 C 985.763 799.139, 980.475 803.160, 978 805.547 C 975.525 807.934, 970.538 811.210, 966.919 812.826 C 963.299 814.443, 958.799 817.106, 956.919 818.744 C 952.332 822.741, 948.651 824.524, 940.956 826.477 C 932.367 828.658, 924.647 831.543, 919.617 834.454 C 917.353 835.764, 910.775 838.269, 905 840.020 C 899.225 841.772, 891.575 844.925, 888 847.027 C 880.625 851.364, 877.205 852.375, 864.500 853.974 C 855.108 855.156, 852.346 855.876, 837.500 861.005 C 825.764 865.060, 811.177 866.965, 792 866.946 C 772.698 866.926, 764.101 865.431, 749.628 859.573 C 743.395 857.050, 734.291 854.126, 729.397 853.075 C 718.682 850.772, 715.638 849.671, 710.808 846.349 C 708.778 844.952, 701.821 842.015, 695.349 839.823 C 688.876 837.631, 682.438 835.026, 681.040 834.033 C 676.648 830.913, 670.869 828.942, 658.984 826.509 C 647.158 824.088, 644.201 823.172, 633.015 818.461 C 619.181 812.636, 582.909 812.682, 566.846 818.546 C 562.806 820.020, 557.101 822.094, 554.169 823.153 C 551.237 824.212, 544.595 825.952, 539.409 827.019 C 529.222 829.115, 525.942 830.483, 518.999 835.532 C 516.523 837.332, 512.023 839.916, 508.999 841.273 C 505.974 842.631, 502.150 845.192, 500.500 846.964 C 498.850 848.736, 493.441 852.090, 488.480 854.417 C 482.386 857.276, 478.843 859.597, 477.555 861.574 C 475.011 865.482, 473.521 866.507, 466.791 868.980 C 463.283 870.269, 460.006 872.342, 458.291 874.357 C 454.656 878.629, 450.859 881.118, 443.522 884.038 C 440.234 885.347, 435.841 887.956, 433.760 889.836 C 430.936 892.387, 427.249 894.098, 419.238 896.577 C 413.332 898.404, 405.193 901.078, 401.151 902.518 C 390.034 906.481, 381.509 906.190, 361.500 901.165 C 344.179 896.816, 335.418 895.415, 332.108 896.466 C 326.436 898.266, 332.803 907.854, 341.060 909.946 C 349.001 911.957, 353.692 914.016, 358.136 917.441 C 364.590 922.413, 370.739 924.079, 385 924.717 C 399.839 925.381, 405.592 924.365, 415.445 919.338 C 419.325 917.359, 426.756 914.197, 431.957 912.312 C 439.069 909.736, 442.560 907.815, 446.031 904.568 C 448.570 902.193, 452.639 899.359, 455.074 898.270 C 457.508 897.182, 461.525 894.396, 464 892.079 C 466.475 889.762, 471.200 886.492, 474.500 884.812 C 477.800 883.133, 482.762 879.632, 485.527 877.034 C 488.870 873.891, 492.386 871.716, 496.027 870.538 C 499.037 869.564, 504.425 866.550, 508 863.841 C 512.644 860.322, 516.788 858.217, 522.511 856.470 C 526.916 855.125, 533.991 851.960, 538.231 849.437 C 544.242 845.860, 547.766 844.521, 554.221 843.366 C 558.774 842.550, 567.225 841.009, 573 839.941 C 587.726 837.217, 614.227 837.220, 627.222 839.947 C 632.325 841.019, 640.041 842.575, 644.368 843.407 C 650.231 844.534, 653.799 845.936, 658.368 848.907 C 662.277 851.448, 667.945 853.870, 674 855.586 C 684.560 858.578, 688.507 860.456, 694.717 865.444 C 698.153 868.204, 701.115 869.335, 710.717 871.553 C 717.515 873.123, 724.827 875.539, 728 877.264 C 739.076 883.286, 741.024 884, 750.576 885.537 C 756.300 886.459, 764.054 888.618, 769.404 890.780 C 778.035 894.268, 779.089 894.458, 790.023 894.478 L 801.545 894.500 806.523 890.877 C 812.646 886.419, 812.385 886.497, 829.433 884.002 C 842.081 882.150, 844.110 881.559, 851.433 877.587 C 859.751 873.075, 864.071 871.906, 879.500 869.995 C 892.211 868.421, 896.531 867.168, 901.845 863.515 C 907.336 859.742, 911.040 858.445, 920.500 856.987 C 924.350 856.394, 930.621 854.985, 934.435 853.857 C 944.283 850.943, 955.734 851.467, 959.519 855.004 C 960.988 856.377, 962.823 858.716, 963.596 860.203 C 964.370 861.689, 967.135 864.373, 969.740 866.165 C 972.346 867.958, 977.667 872.381, 981.563 875.995 C 986.178 880.273, 990.191 883.057, 993.074 883.978 C 995.701 884.817, 999.011 886.991, 1001.216 889.326 C 1003.604 891.853, 1007.894 894.574, 1013.216 896.937 C 1017.772 898.959, 1023.627 902.242, 1026.228 904.231 C 1030.880 907.791, 1034.597 908.951, 1046.356 910.510 C 1050.061 911.002, 1052.194 912.051, 1055.356 914.935 C 1060.555 919.679, 1061.911 920.377, 1072.164 923.592 C 1081.338 926.469, 1083.506 927.895, 1084.456 931.679 C 1085.637 936.387, 1082.924 938.629, 1071.952 942.015 C 1066.188 943.793, 1061.644 945.763, 1061.313 946.627 C 1060.201 949.525, 1062.801 950.440, 1071.586 950.242 C 1078.837 950.079, 1081.458 949.508, 1088.819 946.484 C 1093.593 944.522, 1102.675 941.857, 1109 940.561 C 1121.862 937.926, 1125.631 936.435, 1131.645 931.607 C 1134.317 929.461, 1138.225 927.658, 1142.645 926.530 C 1157.803 922.663, 1159.950 921.877, 1164.631 918.487 C 1167.309 916.548, 1170.857 914.333, 1172.516 913.565 C 1177.341 911.331, 1189.140 909.971, 1209 909.359 C 1225.033 908.866, 1229.161 909.073, 1239.958 910.916 C 1252.077 912.986, 1257.368 914.888, 1266.401 920.422 C 1268.546 921.737, 1274.621 924.024, 1279.901 925.505 C 1287.295 927.579, 1290.304 928.965, 1293 931.539 C 1297.090 935.445, 1299.525 936.467, 1311 939.097 C 1315.675 940.168, 1322.837 942.722, 1326.915 944.772 C 1333.572 948.119, 1335.266 948.535, 1343.474 948.840 C 1352.616 949.180, 1361 947.793, 1361 945.940 C 1361 944.734, 1358.665 943.759, 1349 940.926 C 1339.977 938.282, 1334.604 935.694, 1330.246 931.892 C 1326.735 928.830, 1320.826 926.912, 1309 924.997 C 1301.936 923.853, 1301.229 923.497, 1296.847 918.880 C 1291.945 913.717, 1288.772 912.019, 1280.352 910.052 C 1276.769 909.215, 1273.592 907.474, 1269.903 904.324 C 1263.715 899.042, 1262.909 898.694, 1249.592 895.537 C 1244.041 894.221, 1237.475 892.222, 1235 891.094 C 1229.098 888.405, 1218.611 888.376, 1206 891.012 C 1200.775 892.105, 1190.875 894.138, 1184 895.531 C 1167.765 898.820, 1165.746 899.479, 1158 904.019 C 1151.711 907.706, 1146.547 909.170, 1135 910.543 C 1131.975 910.902, 1125.770 912.052, 1121.211 913.098 C 1110.699 915.510, 1103.230 915.502, 1092.787 913.067 C 1088.227 912.004, 1080.028 910.415, 1074.566 909.536 C 1067.289 908.365, 1063.172 907.101, 1059.163 904.807 C 1056.154 903.086, 1049.035 900.215, 1043.342 898.428 C 1034.919 895.783, 1032.094 894.371, 1028.164 890.839 C 1024.374 887.434, 1021.738 886.071, 1015.917 884.509 C 1008.445 882.503, 1006.411 881.071, 1001.239 874.173 C 999.995 872.514, 996.984 870.395, 994.546 869.465 C 991.558 868.323, 989.296 866.535, 987.601 863.973 C 986.117 861.731, 982.919 859.010, 979.802 857.337 C 972.711 853.530, 971.417 850.732, 972.824 842.241 C 974.047 834.864, 975.476 832.902, 982.542 828.900 C 985.315 827.329, 988.915 824.638, 990.542 822.918 C 992.169 821.199, 995.898 818.247, 998.829 816.358 C 1006.627 811.332, 1026.859 792.234, 1032.444 784.627 C 1035.099 781.011, 1038.318 777.366, 1039.597 776.528 C 1040.876 775.691, 1043.829 772.191, 1046.159 768.752 C 1048.490 765.314, 1051.426 761.685, 1052.684 760.689 C 1053.942 759.692, 1056.939 754.967, 1059.343 750.189 C 1061.748 745.410, 1065.340 738.350, 1067.325 734.500 C 1070.297 728.736, 1071.300 725.116, 1073.006 714 C 1074.145 706.575, 1075.528 695.100, 1076.078 688.500 C 1076.629 681.900, 1077.736 672.133, 1078.540 666.795 C 1081.039 650.185, 1080.169 636.391, 1074.927 609.500 C 1072.885 599.023, 1073.073 596.626, 1076.457 590.084 C 1078.656 585.830, 1077.873 583.054, 1073.674 580.223 C 1067.085 575.780, 1057.591 574.585, 1054.655 577.829 M 319 891.893 C 319 892.855, 321.432 894.020, 323.332 893.968 C 323.974 893.951, 323.626 893.276, 322.559 892.468 C 320.355 890.801, 319 890.582, 319 891.893 M 825.239 912.666 C 824.545 912.946, 823.516 914.035, 822.953 915.087 C 821.335 918.111, 823.413 920.675, 830.288 924.140 C 833.704 925.862, 838.777 929.348, 841.559 931.886 C 844.341 934.423, 849.741 938.007, 853.559 939.849 C 857.377 941.690, 861.850 944.449, 863.500 945.979 C 867.819 949.983, 869.800 950.797, 880.407 952.931 C 887.192 954.296, 892.864 956.308, 900.243 959.966 C 910.388 964.996, 910.851 965.118, 925.539 966.642 C 933.767 967.496, 948.375 968.263, 958 968.347 C 981.086 968.549, 1022.732 966.382, 1031.362 964.530 C 1039.675 962.746, 1045.391 960.089, 1045.811 957.814 C 1046.447 954.364, 1040.084 953.794, 991.500 952.952 C 965.650 952.504, 939.590 951.667, 933.588 951.093 C 923.560 950.134, 921.940 949.672, 913.588 945.390 C 903.544 940.240, 901.872 939.649, 891 937.409 C 885.942 936.367, 881.266 934.524, 876.638 931.749 C 872.863 929.486, 866.222 926.606, 861.878 925.347 C 852.151 922.530, 850.675 921.756, 848.082 918.116 C 846.951 916.527, 844.211 914.501, 841.993 913.614 C 838.218 912.103, 828.061 911.529, 825.239 912.666" stroke="none" fill="#1a1a1a" fill-rule="evenodd"/>
</svg>