<svg shape-rendering="geometricPrecision" xmlns="http://www.w3.org/2000/svg" width="1600" height="1282" viewBox="0 0 1600 1282" version="1.1">
	<rect x="0" y="0" width="100%" height="100%" fill="#ffffff" />
	<path d="M 1006 89.150 C 989.225 89.614, 906.650 90.167, 822.500 90.378 C 738.350 90.589, 647.225 91.291, 620 91.939 C 551.409 93.572, 539.978 93.587, 486.500 92.117 C 416.340 90.187, 161.251 93.160, 148.791 96.052 C 138.997 98.324, 134.739 103.428, 130.907 117.486 C 128.798 125.225, 128.709 127.578, 128.318 186 C 127.152 360.518, 126.448 700.617, 127.024 811 C 127.328 869.149, 127.103 895.804, 126.214 907 C 124.989 922.412, 123.429 1038.600, 122.810 1160.500 L 122.500 1221.500 124.721 1226.005 C 127.203 1231.042, 139.382 1242.371, 144.989 1244.860 C 147.692 1246.060, 151.605 1246.373, 162 1246.220 C 217.898 1245.395, 262.238 1245.848, 275 1247.375 C 287.201 1248.835, 297.945 1249.773, 341 1253.136 C 357.575 1254.431, 377.437 1253.648, 394 1251.045 C 410.531 1248.448, 415.793 1246.756, 422.116 1242.005 C 425.019 1239.824, 429.712 1236.867, 432.544 1235.434 C 440.672 1231.321, 447.108 1225.961, 452.314 1218.967 C 454.961 1215.410, 459.583 1209.350, 462.584 1205.500 C 468.649 1197.718, 470.504 1192.679, 473.994 1174.500 C 477.347 1157.031, 477.601 1149.007, 475.181 1136.932 C 474.031 1131.194, 472.143 1119.841, 470.984 1111.702 C 468.001 1090.750, 466.248 1086.453, 455.042 1072.632 C 447.378 1063.178, 444.792 1061.483, 435.699 1059.949 C 426.543 1058.405, 397.441 1059.083, 394.092 1060.919 C 390.756 1062.749, 375.907 1075.587, 373.637 1078.604 C 371.136 1081.930, 367.035 1094.121, 365.973 1101.389 C 364.297 1112.861, 368.328 1121.303, 376.822 1124.106 C 384.272 1126.565, 398.093 1122.695, 402.198 1117 C 403.189 1115.625, 404.906 1111.222, 406.013 1107.216 C 409.207 1095.658, 411.002 1093.997, 420.297 1094.004 C 428.623 1094.010, 433.648 1098.357, 436.477 1108 C 436.880 1109.375, 439.155 1113.659, 441.533 1117.520 C 447.419 1127.080, 448.319 1131.351, 447.794 1147.240 C 447.287 1162.554, 447.031 1163.330, 437.381 1178.780 C 429.539 1191.333, 427.197 1194.173, 417.118 1203.339 C 408.137 1211.506, 399.832 1215.893, 386.454 1219.538 C 376.804 1222.167, 375.974 1222.227, 356.514 1221.719 C 339.543 1221.275, 333.418 1220.652, 316.230 1217.620 C 291.316 1213.225, 287.088 1212.020, 278.384 1206.836 C 268.959 1201.222, 267.167 1199.432, 264.016 1192.477 C 262.515 1189.164, 259.467 1184.351, 257.243 1181.781 C 252.581 1176.394, 250.031 1169.416, 247.090 1154 C 245.989 1148.225, 243.983 1138.325, 242.632 1132 C 238.292 1111.679, 236.989 1084.911, 239.073 1058.893 C 240.217 1044.603, 249.967 984.180, 252.609 975 C 253.480 971.975, 255.692 966.800, 257.526 963.500 C 259.359 960.200, 262.235 952.325, 263.918 946 C 266.346 936.872, 267.812 933.366, 271.030 929 C 273.259 925.975, 277.145 919.226, 279.666 914.001 C 282.186 908.777, 285.770 903.067, 287.630 901.312 C 289.491 899.558, 293.659 894.126, 296.894 889.242 C 300.531 883.748, 305.374 878.099, 309.591 874.431 C 313.340 871.169, 319.128 865.597, 322.453 862.049 C 335.649 847.970, 339.985 843.998, 347.095 839.478 C 351.168 836.888, 356.750 833.054, 359.500 830.956 C 362.250 828.859, 366.676 826.210, 369.336 825.070 C 371.996 823.930, 376.721 821.020, 379.836 818.603 C 386.215 813.655, 391.868 810.626, 399.857 807.877 C 402.856 806.845, 408.277 804.009, 411.905 801.574 C 416.209 798.685, 422.458 795.841, 429.894 793.386 C 438.274 790.620, 442.772 788.487, 446.894 785.322 C 449.977 782.955, 455.235 779.160, 458.578 776.888 C 462.120 774.480, 466.083 770.646, 468.078 767.698 C 469.960 764.916, 473.632 760.134, 476.237 757.070 C 480.832 751.667, 490.075 734.928, 498.638 716.500 C 500.938 711.550, 504.708 705.260, 507.015 702.523 C 509.322 699.786, 513.473 693.037, 516.239 687.524 C 519.005 682.012, 523.055 675.477, 525.239 673.001 C 527.423 670.526, 530.524 665.903, 532.130 662.730 C 534.220 658.599, 536.731 655.654, 540.970 652.362 C 544.226 649.833, 548.053 646.007, 549.474 643.860 C 550.895 641.712, 554.271 638.365, 556.975 636.423 C 559.679 634.480, 563.496 630.656, 565.459 627.924 C 567.421 625.193, 571.417 621.429, 574.339 619.560 C 583.755 613.537, 587.980 606.944, 587.994 598.250 C 588.001 594.231, 586.007 593.975, 581.865 597.460 C 580.257 598.813, 577.267 600.187, 575.221 600.513 C 565.578 602.048, 562.305 603.384, 554.595 608.932 C 545.053 615.798, 543.442 616.680, 536.861 618.634 C 532.898 619.811, 531.246 621.011, 528.788 624.498 C 526.773 627.358, 523.641 629.979, 519.782 632.036 C 515.334 634.406, 513.118 636.404, 510.854 640.082 C 509.199 642.773, 506.574 645.879, 505.022 646.984 C 501.513 649.483, 485.743 675.528, 483.116 683.163 C 480.607 690.455, 479.602 692.319, 474.450 699.231 C 471.632 703.011, 469.102 708.191, 467.018 714.446 C 465.280 719.662, 462.839 725.408, 461.594 727.215 C 442.792 754.486, 443.952 753.205, 433.203 758.575 C 429.189 760.580, 423.339 764.131, 420.203 766.467 C 416.558 769.182, 411.072 771.887, 405 773.966 C 393.615 777.863, 392.614 778.362, 387.570 782.655 C 385.409 784.495, 383.309 786, 382.905 786 C 382.501 786, 378.521 787.394, 374.059 789.098 C 368.200 791.335, 364.423 793.588, 360.457 797.214 C 356.886 800.477, 352.436 803.259, 347.733 805.167 C 343.420 806.917, 338.885 809.669, 336.500 811.982 C 334.300 814.116, 328.675 818.336, 324 821.360 C 319.325 824.383, 312.800 829.027, 309.500 831.679 C 301.758 837.900, 284.076 855.928, 278.781 863 C 276.516 866.025, 272.601 870.530, 270.081 873.010 C 267.547 875.505, 263.512 881.313, 261.051 886.010 C 258.603 890.680, 254.717 896.525, 252.415 899 C 246.192 905.689, 233.678 932.229, 229.344 947.931 C 227.457 954.769, 224.622 963.319, 223.044 966.931 C 216.137 982.748, 213.710 999.720, 210.944 1051.574 C 209.340 1081.633, 211.717 1131.692, 216.031 1158.692 C 217.296 1166.613, 219.241 1171.648, 224.246 1179.966 C 228.523 1187.071, 231 1195.066, 231 1201.761 C 231 1205.722, 230.715 1206.218, 227.750 1207.420 C 224.546 1208.719, 191.616 1210.612, 178.098 1210.274 C 169.034 1210.047, 163.384 1206.986, 160.039 1200.489 L 157.500 1195.556 157.196 1132.528 C 156.871 1065.211, 158.400 958.891, 160.036 935 C 161.337 915.998, 163.432 901.127, 166.566 888.639 C 169.344 877.575, 171.724 872.344, 178.454 862.514 C 180.882 858.967, 183.871 853.318, 185.095 849.960 C 186.579 845.890, 188.901 842.216, 192.058 838.940 C 194.663 836.237, 198.192 831.549, 199.900 828.523 C 203.151 822.763, 214.805 809.607, 239.785 783.500 C 244.330 778.750, 254.725 769.946, 264.500 762.569 C 269.450 758.833, 275.075 754.276, 277 752.443 C 278.925 750.609, 284.382 747.488, 289.126 745.506 C 293.871 743.525, 299.496 740.447, 301.626 738.666 C 307.016 734.161, 309.569 732.708, 316.722 730.071 C 320.554 728.658, 325.101 725.889, 328.564 722.859 C 331.656 720.153, 336.331 716.853, 338.953 715.524 C 341.575 714.195, 346.146 710.929, 349.110 708.266 C 352.075 705.603, 357.096 701.242, 360.269 698.574 C 363.442 695.907, 369.742 688.781, 374.269 682.738 C 378.796 676.696, 383.750 670.102, 385.277 668.086 C 387.093 665.688, 389.114 660.456, 391.119 652.960 C 392.805 646.657, 396.223 637.225, 398.714 632 C 401.205 626.775, 404.313 619.383, 405.622 615.572 C 407.785 609.276, 408.844 607.839, 417.251 599.802 C 423.790 593.551, 428.706 589.843, 434.029 587.148 C 438.170 585.052, 443.900 581.726, 446.761 579.758 C 449.623 577.790, 453.997 575.464, 456.482 574.590 C 458.967 573.715, 462.964 572.311, 465.365 571.469 C 467.766 570.627, 471.703 568.131, 474.115 565.922 C 478.985 561.462, 483.243 559.003, 491.349 555.971 C 494.341 554.851, 498.524 552.682, 500.645 551.150 C 508.174 545.710, 513.665 543.079, 526.963 538.537 C 542.750 533.145, 553.350 531.689, 557.418 534.354 C 560.944 536.664, 562.321 542.728, 561.767 553.505 C 561.182 564.889, 559.644 567.992, 552.760 571.681 C 549.262 573.556, 546.524 576.008, 544.586 579 C 542.983 581.475, 539.470 585.214, 536.779 587.310 C 532.313 590.788, 531.913 591.440, 532.193 594.792 C 532.444 597.791, 533.016 598.644, 535.318 599.449 C 539.426 600.885, 542.995 598.537, 544.757 593.239 C 546.412 588.264, 546.941 587.924, 557.500 585.063 C 561.900 583.870, 568.452 581.118, 572.060 578.947 C 582.542 572.640, 590.323 573.757, 595.322 582.286 C 597.983 586.827, 601.409 588.887, 609.865 591.032 C 621.136 593.891, 622.238 604.444, 612.314 614.500 C 606.911 619.974, 596.446 635.774, 592.513 644.394 C 590.730 648.302, 587.137 655.100, 584.529 659.500 C 581.922 663.900, 578.656 670.650, 577.271 674.500 C 574.106 683.304, 571.823 687.817, 566.850 695.102 C 564.682 698.279, 560.678 706.306, 557.954 712.939 C 555.229 719.573, 550.735 730.513, 547.967 737.250 C 545.198 743.987, 542.233 752.200, 541.376 755.500 C 540.520 758.800, 537.879 765.550, 535.507 770.500 C 533.135 775.450, 530.430 782.875, 529.495 787 C 526.661 799.503, 526.289 800.187, 517.244 809.585 C 508.757 818.404, 508.223 818.770, 499.057 822.041 C 493.863 823.895, 487.563 826.981, 485.057 828.898 C 482.551 830.816, 477.125 833.814, 473 835.561 C 465.460 838.755, 458.848 842.399, 451.578 847.365 C 449.421 848.839, 445.146 850.766, 442.078 851.649 C 434.555 853.813, 430.050 856.196, 424.653 860.867 C 422.162 863.023, 417.959 865.577, 415.312 866.543 C 405.722 870.042, 402.411 871.783, 397.500 875.907 C 394.750 878.217, 388.735 882.394, 384.134 885.190 C 379.533 887.986, 373.064 892.687, 369.758 895.637 C 366.452 898.587, 363.371 901, 362.911 901 C 362.451 901, 360.300 903.587, 358.130 906.750 C 355.961 909.913, 351.858 914.750, 349.012 917.500 C 346.167 920.250, 343.004 924.075, 341.984 926 C 340.965 927.925, 337.613 932.356, 334.536 935.847 C 328.441 942.763, 326.187 946.645, 322.704 956.224 C 321.450 959.676, 318.513 965.309, 316.179 968.743 C 310.349 977.319, 308.478 982.089, 305.590 995.743 C 304.222 1002.209, 301.736 1012.793, 300.066 1019.262 C 296.131 1034.502, 294.595 1053.617, 295.307 1078.500 C 295.895 1099.079, 295.781 1098.474, 303.277 1120.500 C 308.218 1135.016, 308.566 1135.678, 314.069 1141.023 C 317.197 1144.060, 321.167 1148.771, 322.892 1151.491 C 327.397 1158.594, 334.594 1165.763, 339.907 1168.438 C 345.895 1171.453, 356.809 1173.874, 367.743 1174.612 C 374.577 1175.073, 378.783 1174.731, 386.892 1173.054 C 403.011 1169.720, 407 1166.703, 407 1157.850 C 407 1153.687, 406.497 1152.422, 403.575 1149.235 L 400.149 1145.500 381.325 1145.483 C 355.872 1145.461, 349.006 1143.197, 337.687 1131.096 C 329.991 1122.869, 329.500 1119.982, 329.501 1083 C 329.501 1062.757, 329.976 1047.748, 330.830 1041 C 332.586 1027.113, 336.406 1009.623, 339.449 1001.540 C 340.799 997.952, 342.880 990.401, 344.073 984.759 C 346.743 972.132, 347.743 969.639, 353.303 961.752 C 355.726 958.313, 359.167 952.726, 360.949 949.335 C 364.497 942.582, 378.878 926.093, 386 920.613 C 388.475 918.708, 392.571 914.979, 395.102 912.325 C 397.633 909.671, 403.483 905.285, 408.102 902.577 C 412.721 899.869, 417.926 896.428, 419.668 894.929 C 421.410 893.431, 425.349 891.265, 428.421 890.116 C 436.222 887.197, 445.363 882.473, 446.980 880.524 C 449.590 877.379, 456.922 873.877, 465.954 871.460 C 475.834 868.816, 479.173 867.336, 485.334 862.873 C 487.633 861.208, 494.326 858.419, 500.930 856.373 C 507.294 854.403, 514.860 851.456, 517.745 849.825 C 521.340 847.792, 526.215 846.287, 533.245 845.040 C 551.654 841.775, 557.087 839.431, 559.467 833.728 C 560.208 831.953, 561.295 824.875, 561.881 818 C 563.685 796.867, 566.540 782.693, 570.934 773.057 C 573.080 768.351, 576.689 757.300, 578.954 748.500 C 583.967 729.026, 584.328 728.024, 589.065 720.500 C 591.143 717.200, 594.284 710.339, 596.046 705.253 C 597.880 699.956, 601.108 693.334, 603.600 689.753 C 605.993 686.314, 610.004 679.675, 612.513 675 C 620.662 659.816, 628.936 646.868, 634.930 639.921 C 638.518 635.763, 641.435 631.207, 642.433 628.202 C 643.331 625.499, 645.212 622.210, 646.613 620.894 C 648.844 618.798, 650.117 618.500, 656.831 618.500 C 661.049 618.500, 665.636 618.821, 667.025 619.213 C 670.802 620.279, 697.307 647.041, 702.778 655.313 C 705.375 659.239, 709.244 663.626, 711.376 665.060 C 715.950 668.138, 717.916 671.308, 717.965 675.685 C 718.060 684.291, 714.394 686.858, 704.376 685.198 C 696.025 683.814, 692.933 684.938, 686.860 691.562 C 684.462 694.178, 680.814 698.137, 678.753 700.361 C 671.953 707.700, 659.651 726.363, 656.251 734.500 C 654.412 738.900, 650.685 747.225, 647.969 753 C 645.252 758.775, 642.606 765.300, 642.088 767.500 C 639.097 780.206, 637.447 817.371, 638.937 838.500 C 640.673 863.130, 641.304 866.082, 647.492 878.500 C 655.376 894.325, 657.428 907.363, 652.538 910.567 C 649.455 912.587, 644.495 911.228, 640.897 907.376 C 637.209 903.428, 633.990 902.168, 624.293 900.877 C 612.270 899.276, 599.872 900.813, 591.500 904.942 C 584.418 908.435, 551.894 936.834, 548.244 942.713 C 543.540 950.289, 533.846 971.649, 532.455 977.500 C 530.413 986.093, 530.661 989.431, 534.050 999 C 535.705 1003.675, 537.316 1009.975, 537.629 1013 C 538.134 1017.878, 537.834 1019.179, 534.979 1024.500 C 528.809 1035.996, 526.973 1049.524, 528.940 1069 C 530.845 1087.859, 531.960 1090.994, 542.281 1106.500 C 549.834 1117.847, 551.271 1119.429, 557.906 1123.697 C 560.879 1125.609, 566.398 1129.831, 570.170 1133.078 C 573.943 1136.325, 579.386 1140.167, 582.265 1141.616 C 585.144 1143.065, 590.122 1146.212, 593.327 1148.609 C 601.316 1154.584, 609.755 1157.124, 623.686 1157.747 C 639.403 1158.449, 653.051 1155.027, 658.482 1149.021 C 659.572 1147.816, 662.617 1145.249, 665.248 1143.318 C 667.880 1141.386, 672.077 1137.149, 674.575 1133.903 C 679.850 1127.048, 682.160 1126.483, 687.215 1130.814 C 689.022 1132.361, 692.075 1134.709, 694 1136.031 C 695.925 1137.353, 700.763 1141.203, 704.750 1144.587 C 713.913 1152.363, 717.645 1153.500, 734 1153.500 C 748.490 1153.500, 753.006 1152.300, 763.259 1145.724 C 766.881 1143.401, 772.002 1140.150, 774.640 1138.500 C 777.278 1136.850, 780.870 1133.609, 782.623 1131.297 C 784.376 1128.985, 788.188 1125.155, 791.095 1122.785 C 794.002 1120.416, 797.983 1116.191, 799.940 1113.397 C 801.898 1110.602, 805.120 1106.908, 807.100 1105.187 C 809.290 1103.282, 812.754 1098.048, 815.948 1091.815 C 818.835 1086.182, 822.564 1079.587, 824.235 1077.158 C 825.906 1074.730, 827.882 1070.719, 828.626 1068.246 C 830.443 1062.211, 832.258 1034.343, 831.443 1025 C 830.627 1015.647, 828.589 1010.856, 822.519 1004.021 C 812.578 992.828, 812.655 987.924, 822.947 976.558 C 829.236 969.614, 831 963.731, 831 949.701 C 831 937.583, 828.947 929.444, 823.887 921.500 C 822.135 918.750, 819.425 913.416, 817.864 909.646 C 814.252 900.919, 809.677 892.912, 806.885 890.434 C 805.688 889.370, 802.035 885.125, 798.769 881 C 789.279 869.014, 769.745 856.009, 759 854.522 C 753.117 853.709, 740.236 857.010, 734.086 860.909 C 731.564 862.508, 724.849 865.525, 719.164 867.615 C 711.058 870.594, 707.984 872.284, 704.914 875.447 C 702.761 877.665, 701 879.767, 701 880.118 C 701 880.470, 699.638 881.321, 697.974 882.011 C 692.234 884.388, 681.670 881.478, 678.505 876.648 C 676.677 873.858, 673.634 857.715, 671.975 842 C 670.664 829.588, 671.157 813.945, 673.481 794.224 C 675.564 776.554, 676.829 771.845, 683.210 758 C 685.111 753.875, 687.927 747.184, 689.466 743.131 C 692.173 736.006, 696.019 730.738, 707.270 718.744 C 710.954 714.816, 711.162 714.737, 716.382 715.276 C 720.058 715.655, 724.866 717.424, 731.809 720.952 C 747.122 728.732, 762.101 730.785, 780.114 727.572 C 789.262 725.940, 793.946 723.879, 804.500 716.837 C 813.795 710.636, 816.391 706.605, 817.415 696.781 C 818.087 690.336, 817.718 687.689, 814.099 673 C 812.947 668.325, 811.531 662.497, 810.952 660.048 C 810.374 657.600, 808.389 653.100, 806.543 650.048 C 802.917 644.056, 801.245 635.713, 802.513 629.942 C 803.150 627.041, 806.653 622.610, 818.708 609.453 C 820.777 607.195, 826.234 604.519, 839.789 599.115 C 860.414 590.893, 866.017 589.651, 889.500 588.092 C 898.300 587.509, 910.027 586.144, 915.559 585.059 C 921.091 583.975, 930.541 582.812, 936.559 582.476 C 942.577 582.139, 951.683 581.195, 956.796 580.377 C 971.019 578.104, 978.643 580.030, 979.051 586 C 979.540 593.165, 979.134 593.902, 968.035 606.007 C 953.625 621.722, 953.492 621.989, 953.577 635 C 953.637 644.222, 953.968 646.169, 956.293 651 C 957.749 654.025, 961.364 659.267, 964.326 662.648 C 967.287 666.029, 970.700 670.396, 971.908 672.352 C 974.096 675.892, 980.787 681.357, 986.500 684.272 C 988.150 685.113, 992.641 688.308, 996.480 691.370 C 1000.887 694.886, 1006.048 697.892, 1010.480 699.525 C 1014.341 700.947, 1020.436 703.876, 1024.023 706.033 C 1034.162 712.129, 1044.434 714.384, 1062 714.369 C 1079.640 714.354, 1090.544 712.144, 1104.841 705.686 C 1110.153 703.287, 1116.075 700.717, 1118 699.975 C 1123.646 697.799, 1125.973 695.951, 1130.100 690.365 C 1134.591 684.285, 1137.710 683.014, 1148.161 683.006 C 1157.013 682.998, 1165.037 685.646, 1173.262 691.290 C 1184.444 698.963, 1197.350 701.557, 1220.312 700.748 C 1237.059 700.159, 1244.571 698.170, 1253.391 691.991 C 1256.570 689.764, 1261.945 686.558, 1265.335 684.866 C 1273.183 680.950, 1297.838 656.387, 1303.541 646.804 C 1305.604 643.337, 1309.230 638.475, 1311.599 636 C 1313.967 633.525, 1317.091 628.811, 1318.540 625.524 C 1319.989 622.237, 1323.813 615.603, 1327.038 610.782 C 1330.263 605.961, 1333.421 600.325, 1334.055 598.258 C 1334.689 596.191, 1335.427 587.750, 1335.695 579.500 C 1336.130 566.070, 1335.910 563.204, 1333.590 552.119 C 1330.612 537.882, 1330.376 532.019, 1332.538 525.893 C 1335.318 518.014, 1336.473 503.288, 1335.210 491.830 C 1333.824 479.248, 1332.134 474.160, 1326.965 467 C 1324.781 463.975, 1321.758 459.250, 1320.247 456.500 C 1318.736 453.750, 1314.294 448.350, 1310.375 444.500 C 1306.457 440.650, 1302.246 436.013, 1301.018 434.195 C 1299.790 432.377, 1296.934 429.721, 1294.673 428.293 C 1292.411 426.865, 1288.297 423.580, 1285.530 420.991 C 1279.562 415.408, 1261.120 403.307, 1255.625 401.368 C 1253.493 400.615, 1249.619 400, 1247.017 400 C 1242.906 400, 1241.053 400.807, 1232.893 406.148 C 1223.251 412.459, 1209.544 425.442, 1203.973 433.539 C 1202.292 435.983, 1199.873 438.245, 1198.600 438.564 C 1193.655 439.805, 1183.856 433.630, 1178.786 426.077 C 1177.096 423.560, 1174.099 419.799, 1172.125 417.720 C 1164.352 409.534, 1142.466 406.214, 1124.076 410.432 C 1116.742 412.115, 1114.024 413.427, 1103.076 420.575 C 1086.239 431.568, 1085.054 432.650, 1079.625 441.994 C 1077.045 446.434, 1073.436 451.739, 1071.604 453.783 C 1066.791 459.153, 1065.257 462.673, 1062.243 475.266 C 1059.723 485.789, 1059.551 487.990, 1059.527 510.040 L 1059.500 533.581 1056.344 537.566 C 1050.791 544.577, 1043.404 550.814, 1039.368 551.900 C 1027.295 555.146, 1013.090 555.717, 999.560 553.500 C 984.610 551.050, 968.874 550.665, 934.429 551.908 C 881.611 553.814, 873.206 554.912, 846.812 563.352 C 837.290 566.396, 827.025 569.579, 824 570.424 C 820.975 571.270, 817.318 572.757, 815.874 573.731 C 799.004 585.098, 785.613 597.434, 780.654 606.177 C 776.415 613.651, 774.026 615.004, 765.115 614.978 C 756.939 614.954, 754.347 614.033, 744.096 607.503 C 741.123 605.610, 735.048 602.851, 730.596 601.371 C 724.779 599.439, 721.645 597.752, 719.464 595.379 C 717.795 593.563, 714.304 591.137, 711.706 589.988 C 706.071 587.495, 703.519 584.973, 700.762 579.171 C 699.631 576.790, 697.378 573.865, 695.755 572.671 C 692.506 570.280, 690 566.150, 690 563.185 C 690 560.312, 693.673 556.204, 698.345 553.852 C 700.630 552.701, 704.300 550.322, 706.500 548.567 C 708.700 546.811, 713.469 543.732, 717.097 541.724 C 720.726 539.716, 724.255 537.397, 724.940 536.572 C 727.531 533.450, 737.103 527.912, 744.833 525.062 C 749.247 523.434, 756.378 519.900, 760.679 517.209 C 768.866 512.085, 773.871 510.129, 785.500 507.505 C 789.350 506.637, 796.775 503.934, 802 501.500 C 813.250 496.258, 819.559 494.555, 835 492.592 C 865.156 488.756, 918.204 487.956, 937.500 491.045 C 947.210 492.599, 952.054 491.820, 956.294 488.020 C 959.421 485.218, 959.496 484.953, 959.330 477.323 C 959.214 471.967, 958.308 466.820, 956.455 461 C 953.152 450.626, 953.426 444.138, 957.996 424.517 C 960.482 413.844, 961.909 409.994, 966.014 402.881 C 968.761 398.122, 971.639 392.489, 972.409 390.364 C 975.352 382.244, 978.917 375.262, 982.547 370.507 C 984.619 367.792, 987.777 363.080, 989.565 360.036 C 991.354 356.991, 994.034 353.375, 995.521 352 C 997.008 350.625, 1000.017 346.816, 1002.207 343.536 C 1004.398 340.256, 1008.805 334.856, 1012.001 331.536 C 1015.198 328.216, 1021.330 321.766, 1025.627 317.201 C 1029.925 312.637, 1035.930 307.014, 1038.971 304.706 C 1042.012 302.398, 1047.119 298.363, 1050.321 295.739 C 1053.523 293.115, 1058.023 290.011, 1060.321 288.841 C 1062.619 287.671, 1066.750 284.814, 1069.500 282.492 C 1072.250 280.171, 1076.525 277.019, 1079 275.488 C 1081.475 273.958, 1086.780 270.079, 1090.789 266.870 C 1095.963 262.726, 1099.734 260.576, 1103.789 259.455 C 1117.622 255.633, 1122.725 253.929, 1126 252.038 C 1143.028 242.205, 1150.261 240.687, 1180.500 240.607 C 1196.376 240.565, 1203.772 240.975, 1210.810 242.286 C 1221.210 244.224, 1225.345 246.049, 1234.331 252.667 C 1237.724 255.166, 1242.178 258.068, 1244.229 259.115 C 1246.281 260.163, 1248.643 262.343, 1249.479 263.960 C 1251.657 268.170, 1251.446 274.287, 1249.048 276.456 C 1247.310 278.029, 1246.534 278.088, 1241.963 276.991 C 1235.749 275.500, 1229.565 276.183, 1226.803 278.665 C 1222.127 282.866, 1212.880 299.618, 1210.903 307.471 C 1208.785 315.884, 1212.403 326.662, 1221.752 339.788 C 1226.526 346.492, 1229.858 348.716, 1239 351.302 C 1247.295 353.648, 1264.786 355.794, 1281 356.455 C 1294.256 356.996, 1296.379 356.832, 1305.746 354.540 C 1322.422 350.460, 1326.197 348.029, 1351.224 325.257 C 1361.343 316.050, 1362.320 314.807, 1368.559 303.200 C 1378.896 283.966, 1379.240 282.316, 1379.428 251 C 1379.516 236.425, 1380.098 220, 1380.722 214.500 C 1382.525 198.617, 1384.348 146.136, 1383.783 126.415 C 1383.348 111.264, 1382.946 107.680, 1381.263 103.945 C 1378.574 97.978, 1374.615 94.539, 1368 92.423 C 1362.944 90.806, 1353.372 90.605, 1249.500 89.933 C 1187.350 89.532, 1114 89.001, 1086.500 88.754 C 1059 88.508, 1022.775 88.686, 1006 89.150 M 1201.500 116.994 C 1182.250 117.317, 1143.550 117.687, 1115.500 117.816 C 1038.729 118.168, 1014.307 119.450, 978.500 125.002 C 975.200 125.514, 963.725 126.842, 953 127.953 C 918.480 131.529, 913.952 132.743, 908.132 139.986 C 906.382 142.163, 903.032 145.069, 900.689 146.442 C 898.345 147.816, 894.991 150.977, 893.235 153.468 C 891.480 155.959, 887.446 159.635, 884.272 161.637 C 881.097 163.639, 876.542 167.476, 874.149 170.165 C 871.757 172.853, 868.388 175.782, 866.664 176.674 C 864.940 177.565, 859.691 181.941, 855 186.397 C 850.309 190.854, 844.341 195.953, 841.737 197.728 C 839.002 199.594, 835.450 203.384, 833.326 206.705 C 831.303 209.867, 826.898 215.389, 823.536 218.977 C 820.175 222.565, 814.930 228.875, 811.881 233 C 808.832 237.125, 805.517 241.175, 804.515 242 C 803.512 242.825, 801.400 246.381, 799.820 249.902 C 798.240 253.423, 795.441 258.373, 793.599 260.902 C 788.883 267.378, 786.612 272.202, 783.553 282.231 C 782.089 287.033, 779.291 293.333, 777.337 296.231 C 775.382 299.129, 771.850 305.325, 769.489 310 C 765.927 317.050, 763.820 319.742, 757.137 325.782 C 752.705 329.787, 746.474 334.539, 743.290 336.341 C 740.105 338.144, 735.250 341.353, 732.500 343.472 C 729.750 345.591, 723.225 349.322, 718 351.764 C 712.775 354.205, 706.250 357.915, 703.500 360.007 C 700.750 362.099, 694.328 365.510, 689.229 367.586 C 683.469 369.931, 678.033 373.004, 674.876 375.699 C 672.081 378.084, 667.928 381.134, 665.647 382.475 C 659.895 385.856, 645.676 402.570, 642.050 410.211 C 640.409 413.670, 637.217 418.727, 634.958 421.449 C 629.915 427.525, 626.561 433.159, 624.489 439.031 C 623.623 441.487, 620.957 447.322, 618.566 451.998 C 614.207 460.522, 608 479.205, 608 483.801 C 608 485.149, 610.359 490.100, 613.243 494.803 C 619.294 504.670, 624.790 509, 631.262 509 C 636.481 509, 638.263 507.929, 647 499.538 C 652.186 494.558, 656.660 491.328, 661.500 489.071 C 665.350 487.275, 670.750 484.115, 673.500 482.048 C 676.250 479.982, 681.798 476.538, 685.828 474.395 C 689.859 472.253, 695.558 468.361, 698.492 465.747 C 701.427 463.133, 706.679 459.672, 710.164 458.056 C 713.649 456.440, 718.525 453.517, 721 451.560 C 724.134 449.082, 728.879 446.933, 736.630 444.483 C 745.469 441.688, 748.702 440.134, 752.342 436.930 C 754.862 434.712, 761.555 430.712, 767.214 428.043 C 772.873 425.374, 779.527 421.424, 782.001 419.267 C 784.476 417.109, 788.842 414.081, 791.705 412.537 C 794.900 410.815, 802.171 404.472, 810.530 396.115 C 822.629 384.019, 824.596 381.566, 828.159 374.132 C 830.365 369.529, 834.058 363.445, 836.365 360.613 C 838.910 357.488, 841.849 352.047, 843.838 346.776 C 845.813 341.544, 848.917 335.786, 851.644 332.295 C 854.134 329.108, 857.013 324.869, 858.042 322.875 C 859.071 320.881, 862.631 315.481, 865.953 310.875 C 869.275 306.269, 873.448 299.634, 875.227 296.130 C 877.006 292.627, 880.158 288.309, 882.231 286.535 C 884.304 284.760, 888.137 279.432, 890.750 274.694 C 898.648 260.370, 924.169 233.550, 955.772 206.361 C 966.914 196.776, 972.318 192.859, 977.965 190.273 C 982.071 188.392, 987.471 185.370, 989.965 183.557 C 995.759 179.343, 999.231 177.594, 1008.223 174.357 C 1012.225 172.916, 1017.427 170.415, 1019.782 168.799 C 1026.285 164.335, 1033.524 161.323, 1044.523 158.503 C 1050.011 157.097, 1058.255 154.350, 1062.845 152.399 C 1073.102 148.040, 1091.604 143.909, 1116 140.532 C 1126.175 139.123, 1138.606 137.302, 1143.624 136.485 C 1155.110 134.615, 1169.431 134.601, 1188 136.441 C 1195.975 137.232, 1209.700 138.388, 1218.500 139.011 C 1236.169 140.263, 1275.730 145.185, 1286.191 147.433 C 1289.871 148.224, 1296.598 150.505, 1301.139 152.501 C 1305.681 154.498, 1313.245 157.044, 1317.948 158.160 C 1322.932 159.342, 1329.679 161.910, 1334.119 164.314 C 1340.932 168.004, 1342.017 168.313, 1344.371 167.241 C 1347.975 165.599, 1350.647 160.846, 1352.468 152.841 C 1354.763 142.750, 1354.466 136.328, 1351.422 130.220 C 1346.307 119.955, 1341.978 118.322, 1317.765 117.524 C 1290.746 116.633, 1237.454 116.390, 1201.500 116.994 M 635 123.062 C 628.675 123.521, 616.300 124.364, 607.500 124.936 C 573.872 127.121, 554.649 130.084, 546.374 134.358 C 535.891 139.773, 531.837 143.224, 529.922 148.361 C 527.551 154.719, 525.263 157.171, 522.052 156.797 L 519.500 156.500 519.815 145.994 C 520.103 136.377, 519.933 135.196, 517.811 132.048 C 516.536 130.156, 513.920 127.684, 511.997 126.554 C 508.675 124.603, 507.024 124.503, 479 124.568 C 462.775 124.605, 437.833 125.168, 423.573 125.818 C 390.071 127.345, 340.972 127.349, 273.362 125.828 C 209.211 124.385, 182.223 125.261, 174.415 129.041 C 171.739 130.337, 168.910 132.735, 167.539 134.871 C 165.224 138.478, 165.203 138.794, 164.109 187.500 C 161.979 282.329, 160.720 389.869, 161.341 424 C 162.108 466.127, 163.658 482.615, 168.042 495.277 C 172.282 507.524, 171.985 514.278, 166.730 525.137 C 160.596 537.810, 159.763 542.216, 159.281 564.500 C 159.044 575.500, 159.235 604.975, 159.707 630 C 160.178 655.025, 160.301 708.800, 159.979 749.500 C 159.658 790.200, 159.777 824.962, 160.244 826.750 C 161.258 830.628, 162.527 830.815, 165.945 827.591 C 167.350 826.266, 170.750 823.877, 173.500 822.282 C 176.250 820.687, 179.400 817.846, 180.500 815.969 C 181.600 814.091, 185.486 809.618, 189.136 806.028 C 192.786 802.437, 197.021 797.136, 198.547 794.246 C 200.074 791.356, 202.856 787.822, 204.730 786.393 C 206.604 784.963, 209.484 781.928, 211.130 779.647 C 212.776 777.366, 221.182 768.362, 229.810 759.639 C 241.353 747.968, 246.982 743.028, 251.118 740.941 C 254.981 738.990, 257.822 736.595, 260.205 733.278 C 262.432 730.178, 265.430 727.566, 268.586 725.976 C 271.289 724.614, 276.200 721.631, 279.500 719.346 C 282.800 717.062, 289.636 713.412, 294.691 711.235 C 299.747 709.058, 305.287 706.095, 307.002 704.651 C 308.718 703.208, 314.482 699.886, 319.811 697.269 C 327.407 693.539, 330.904 691.076, 336 685.864 C 339.575 682.208, 344.424 678.030, 346.775 676.580 C 351.708 673.538, 354.560 668.013, 358.581 653.711 C 359.941 648.874, 362.357 641.636, 363.950 637.627 C 365.542 633.618, 367.355 626.550, 367.979 621.919 C 369.775 608.579, 371.083 602.862, 373.568 597.500 C 376.738 590.657, 377.128 590.262, 388.697 582.164 C 400.746 573.729, 404.759 571.762, 415.690 568.933 C 422.217 567.244, 425.163 565.818, 430.190 561.916 C 434.767 558.363, 439.046 556.167, 445.769 553.920 C 451.858 551.885, 457.004 549.348, 460.769 546.526 C 463.921 544.163, 469.496 540.874, 473.159 539.219 C 481.476 535.458, 483.549 532.684, 482.043 527.333 C 479.864 519.594, 476.230 515.876, 465.496 510.407 C 458.467 506.826, 454.759 504.274, 453.003 501.810 C 448.490 495.476, 446.397 494.495, 437.500 494.543 C 433.100 494.566, 428.516 495.129, 427.314 495.793 C 426.112 496.458, 423.637 499.205, 421.814 501.898 C 419.991 504.592, 416.197 508.605, 413.381 510.817 C 410.566 513.029, 407.258 516.464, 406.030 518.451 C 404.803 520.437, 401.256 523.823, 398.149 525.975 C 395.042 528.126, 390.588 531.900, 388.251 534.361 C 384.688 538.112, 382.506 539.331, 374.751 541.904 C 369.663 543.592, 362.028 545.507, 357.784 546.160 C 350.797 547.236, 348.953 547.125, 338.284 544.988 C 324.560 542.239, 308.338 541.725, 303.237 543.877 C 297.346 546.362, 297.569 552.366, 304.028 565.175 C 315.648 588.219, 312.413 609.715, 296.085 617.957 C 288.628 621.721, 276.919 625.005, 271.020 624.985 C 262.915 624.959, 246.362 620.236, 239.500 615.991 C 237.850 614.971, 234.719 611.743, 232.542 608.818 C 230.365 605.893, 226.837 601.554, 224.702 599.175 C 217.099 590.704, 213.432 578.069, 214.311 563.379 C 214.571 559.046, 215.307 547.400, 215.947 537.500 C 217.274 516.993, 217.163 515.595, 213.602 507.814 C 210.020 499.987, 210.211 497.480, 214.713 493.234 L 218.427 489.732 227.463 490.281 C 240.452 491.071, 248.689 494.255, 252.752 500.057 C 253.998 501.836, 253.787 502.527, 250.700 506.770 C 248.807 509.371, 246.568 512.850, 245.724 514.500 C 244.880 516.150, 241.939 520.066, 239.188 523.202 C 231.639 531.808, 230.303 540.628, 234.010 557.398 C 237.296 572.260, 245.699 583.683, 260.070 592.822 C 270.061 599.176, 275.678 598.465, 279.875 590.316 C 281.962 586.263, 281.116 580.936, 276.948 571.887 L 272.896 563.090 274.448 557.864 C 276.415 551.239, 276.434 542.481, 274.493 536.980 C 273.664 534.630, 271.187 530.757, 268.988 528.372 C 266.790 525.986, 264.107 522.115, 263.026 519.767 C 258.813 510.619, 255.890 501.921, 256.444 500.178 C 257.326 497.397, 261.852 493.499, 268.500 489.795 C 275.745 485.759, 277.996 481.990, 277.998 473.896 C 278 467.639, 276.483 465.296, 269.736 461.139 C 267.666 459.863, 264.602 456.828, 262.928 454.395 C 260.814 451.323, 258.076 449.058, 253.976 446.988 C 249.854 444.907, 246.856 442.419, 244.052 438.753 C 241.843 435.864, 238.227 432.012, 236.017 430.193 C 233.698 428.285, 230.719 424.306, 228.971 420.783 C 227.305 417.425, 224.435 413.010, 222.592 410.970 C 218.306 406.226, 215.173 397.814, 213.881 387.581 C 212.046 373.041, 214.811 365.227, 224.337 358.035 C 231.193 352.859, 236.591 350.542, 247.411 348.131 C 252.285 347.045, 256.932 345.497, 257.739 344.690 C 259.738 342.690, 258.621 339.643, 254.043 334.604 C 249.071 329.132, 241.003 316.978, 236.669 308.431 C 232.350 299.915, 230.538 293.020, 228.538 277.500 C 227.688 270.900, 226.052 260.473, 224.903 254.330 C 221.910 238.333, 222.533 217.060, 226.334 205.419 C 227.785 200.974, 230.005 195.804, 231.268 193.931 C 234.042 189.814, 247.758 180.445, 253.418 178.801 C 255.675 178.145, 263.313 177.631, 270.500 177.652 C 285.108 177.695, 293.616 179.316, 304 184.035 C 307.575 185.659, 314.499 188.132, 319.386 189.529 C 330.523 192.714, 338.376 196.391, 340.906 199.607 C 341.981 200.974, 345.485 204.209, 348.694 206.796 C 351.902 209.383, 356.609 213.600, 359.153 216.166 C 363.249 220.298, 365.018 221.216, 374.601 224.192 C 383.912 227.084, 385.519 227.898, 386.111 230.026 C 387.467 234.891, 387.030 252.096, 385.393 258.356 C 384.100 263.295, 383.921 267.113, 384.477 277.823 C 385.638 300.187, 387.263 309.085, 391.919 318.568 C 394.163 323.140, 396 328.002, 396 329.371 C 396 330.741, 394.312 335.155, 392.249 339.181 C 388.892 345.730, 387.736 347.002, 381.256 351.274 C 370.555 358.329, 370.290 358.930, 372.443 371.232 C 375.028 386.004, 377.242 392.020, 381.189 395 C 383.010 396.375, 386.975 399.808, 390 402.629 C 393.025 405.450, 397.827 408.927, 400.672 410.356 C 405.230 412.646, 406.076 413.578, 407.808 418.221 C 410.516 425.482, 413.382 427.379, 422.319 427.831 C 431.125 428.275, 433.833 426.661, 434.664 420.471 C 435.551 413.857, 433.454 408.477, 427.442 401.937 C 423.158 397.277, 422 395.318, 422 392.731 C 422 388.470, 424.180 385.459, 429.074 382.962 C 431.242 381.856, 435.098 378.956, 437.643 376.518 C 442.062 372.284, 442.247 371.883, 441.765 367.603 C 440.938 360.269, 438.087 355.964, 430.941 351.259 C 422.625 345.785, 420 342.746, 420 338.593 C 420 333.541, 421.841 329.219, 427.634 320.668 C 433.649 311.788, 433.594 312.010, 435.013 291 C 436.933 262.547, 438.201 257.909, 446.081 250.508 C 448.419 248.313, 451.441 244.095, 452.796 241.135 C 455.104 236.094, 455.181 235.395, 454.018 230.126 C 451.137 217.075, 450.019 214.194, 446.783 211.471 C 443.771 208.936, 443.101 208.797, 436.035 209.237 C 427.142 209.791, 413.649 214.616, 409.933 218.571 C 406.010 222.747, 401.321 225.129, 395.458 225.925 C 387.677 226.981, 386.546 225.943, 387.232 218.379 C 388.066 209.180, 390.864 200.518, 394.058 197.252 C 396.612 194.640, 400.470 191.798, 413.668 182.808 C 420.110 178.420, 425.320 177, 434.977 177 C 444.037 177, 448.698 178.053, 453.061 181.086 C 457.916 184.462, 460.614 184.474, 467.817 181.154 C 474.271 178.179, 494.118 173.409, 504.500 172.338 C 510.638 171.704, 514.956 174.230, 519.500 181.112 C 521.150 183.611, 525.425 188.545, 529 192.078 C 536.252 199.243, 544.078 209.099, 547.790 215.740 C 549.196 218.256, 552.004 221.217, 554.371 222.679 C 556.642 224.082, 560.223 227.204, 562.328 229.615 C 566.686 234.608, 570.096 235.330, 572.405 231.750 C 573.204 230.512, 574.834 225.308, 576.027 220.185 C 578.097 211.301, 578.526 210.475, 585.276 202.375 C 590.437 196.182, 594.136 192.841, 598.933 190.039 C 602.551 187.926, 606.409 185.206, 607.505 183.995 C 610.995 180.138, 617.305 177.127, 626.451 174.955 C 631.340 173.794, 638.526 171.579, 642.420 170.033 C 659.024 163.442, 672.206 161.416, 687.912 163.043 C 696.567 163.940, 698.177 164.474, 707.912 169.674 C 716.415 174.215, 719.934 176.822, 725.785 182.914 C 734.416 191.902, 737.597 197.904, 738.987 207.826 C 740.472 218.418, 737.633 233.830, 732.693 242 C 729.267 247.665, 717.157 263.019, 710.988 269.520 C 707.846 272.831, 704.314 277.424, 703.139 279.727 C 700.324 285.245, 682.765 303, 680.122 303 C 676.606 303, 673.195 298.766, 669.078 289.293 C 666.877 284.228, 663.506 277.703, 661.586 274.793 C 657.272 268.251, 653.585 255.375, 654.274 249.258 C 655.193 241.111, 661.233 237.505, 672.860 238.162 C 679.597 238.543, 684.071 240.495, 691.193 246.162 C 693.754 248.201, 694.010 248.224, 696.439 246.632 C 699.936 244.340, 705.062 233.807, 705.697 227.606 C 706.850 216.355, 700.863 207.273, 689.500 203.033 C 680.174 199.553, 671.976 200.024, 657.392 204.875 C 650.851 207.051, 641.722 209.836, 637.105 211.065 C 629.739 213.024, 627.482 214.226, 618.696 220.876 C 607.396 229.429, 603.597 233.999, 602.132 240.801 C 600.458 248.571, 592.095 265.006, 587.017 270.500 C 581.593 276.369, 579.988 278.875, 577.663 285.107 C 576.717 287.641, 574.146 292.124, 571.948 295.069 C 569.595 298.223, 566.967 303.523, 565.555 307.962 C 564.235 312.108, 561.934 318.150, 560.441 321.389 C 557.314 328.172, 557.433 329.196, 563.143 344.500 C 566.434 353.324, 566.498 353.793, 566.378 368.500 C 566.287 379.723, 565.721 385.951, 564.128 393.233 C 560.429 410.147, 561.509 433.202, 566.453 442.862 C 569.400 448.619, 575.280 454.394, 580.345 456.504 C 586.540 459.085, 588.212 457.304, 592.503 443.557 C 594.795 436.215, 597.482 430.009, 600.002 426.235 C 602.344 422.727, 605.185 416.349, 607.043 410.427 C 611.504 396.204, 612.784 393.099, 616.279 388.022 C 617.991 385.535, 621.501 380.350, 624.079 376.500 C 626.657 372.650, 630.424 367.999, 632.450 366.165 C 634.476 364.331, 637.696 360.388, 639.605 357.403 C 641.604 354.278, 644.862 350.875, 647.288 349.377 C 649.605 347.947, 653.975 344.402, 657 341.500 C 660.025 338.598, 664.525 334.977, 667 333.453 C 669.475 331.930, 673.464 329.189, 675.864 327.364 C 680.118 324.129, 680.411 324.060, 687.416 324.652 C 694.104 325.218, 695.258 324.999, 704.051 321.500 C 718.186 315.876, 720.008 314.771, 729.116 306.297 C 743.497 292.919, 745.180 290.891, 749.255 282.036 C 751.415 277.341, 755.362 269.675, 758.025 265 C 760.688 260.325, 763.818 253.350, 764.981 249.500 C 766.143 245.650, 768.421 240.700, 770.042 238.500 C 771.662 236.300, 775.546 230.675, 778.671 226 C 781.796 221.325, 787.393 214.268, 791.109 210.319 C 794.824 206.369, 798.620 201.983, 799.544 200.573 C 800.468 199.163, 804.663 195.600, 808.866 192.655 C 813.069 189.709, 818.597 185.270, 821.150 182.789 C 823.702 180.308, 828.651 176.102, 832.146 173.443 C 835.640 170.784, 840.525 166.849, 843 164.700 C 845.475 162.550, 849.525 159.737, 852 158.447 C 854.475 157.158, 857.942 154.334, 859.705 152.172 C 861.468 150.010, 865.393 146.841, 868.427 145.128 C 875.340 141.226, 877.456 138.199, 876.667 133.337 C 875.936 128.832, 872.744 125.330, 868.074 123.910 C 863.675 122.572, 652.350 121.803, 635 123.062 M 1144 166.672 C 1135.738 167.504, 1127.494 169.232, 1118.336 172.051 C 1112.949 173.709, 1103.358 175.984, 1097.021 177.106 C 1078.560 180.377, 1073.107 181.945, 1062.490 187.035 C 1056.985 189.675, 1048.704 192.799, 1044.089 193.977 C 1034.975 196.304, 1027.493 199.700, 1022 204.003 C 1020.075 205.511, 1015.181 208.411, 1011.125 210.448 C 1007.069 212.484, 1001.472 215.951, 998.688 218.152 C 995.904 220.353, 990.315 223.971, 986.267 226.192 C 982.220 228.414, 976.566 232.364, 973.704 234.972 C 970.842 237.579, 966.925 240.508, 965 241.480 C 963.075 242.453, 958.526 246.230, 954.891 249.874 C 951.256 253.518, 946.306 258.352, 943.891 260.616 C 935.811 268.189, 927.303 277.460, 924.529 281.715 C 923.017 284.033, 920.215 287.124, 918.302 288.583 C 916.389 290.042, 913.213 293.770, 911.243 296.868 C 909.274 299.966, 905.732 304.721, 903.372 307.436 C 901.013 310.151, 897.018 316.259, 894.494 321.011 C 891.971 325.763, 888.069 331.866, 885.823 334.575 C 883.578 337.284, 880.200 342.875, 878.317 347 C 876.435 351.125, 872.730 357.650, 870.084 361.500 C 867.438 365.350, 863.904 371.478, 862.231 375.117 C 860.557 378.757, 857.562 383.997, 855.575 386.763 C 853.588 389.529, 849.954 395.886, 847.501 400.889 C 844.370 407.275, 841.320 411.721, 837.270 415.803 C 834.097 419.002, 830.254 423.524, 828.730 425.851 C 826.280 429.594, 824.293 430.876, 811.510 436.962 C 803.563 440.745, 794.465 444.595, 791.293 445.517 C 783.721 447.719, 780.629 449.385, 775.636 453.955 C 770.759 458.419, 766.047 460.894, 756.500 464.007 C 751.433 465.658, 748.533 467.316, 746 470.008 C 741.935 474.328, 738.681 476.123, 730.817 478.383 C 723.601 480.457, 719 484.195, 719 487.982 C 719 491.527, 720.235 491.974, 727.064 490.903 C 736.558 489.414, 744.169 486.251, 748.513 481.988 C 751.767 478.794, 753.883 477.721, 759.521 476.407 C 773.708 473.100, 779.785 471.038, 791.831 465.445 L 804.162 459.720 821.269 458.902 C 830.678 458.453, 841.597 457.565, 845.534 456.930 C 851.319 455.997, 855.845 456.085, 869.111 457.388 C 911.229 461.524, 913.658 459.931, 923.871 421.489 C 924.458 419.283, 926.689 414.558, 928.831 410.989 C 930.973 407.420, 934.400 399.921, 936.446 394.324 C 938.613 388.399, 942.386 380.796, 945.477 376.124 C 948.398 371.711, 952.011 364.897, 953.507 360.982 C 955.003 357.067, 957.821 351.532, 959.770 348.682 C 961.719 345.832, 966.018 339.450, 969.323 334.500 C 972.627 329.550, 977.861 322.800, 980.954 319.500 C 984.046 316.200, 988.219 311.475, 990.227 309 C 995.218 302.849, 1009.719 288.122, 1020 278.762 C 1040.732 259.887, 1044.120 257.160, 1051.818 253.155 C 1056.270 250.839, 1061.170 247.896, 1062.707 246.616 C 1064.243 245.336, 1073.600 240.134, 1083.500 235.055 C 1098.526 227.347, 1105.217 224.615, 1124 218.517 C 1136.375 214.500, 1148.334 210.914, 1150.576 210.548 C 1159.884 209.029, 1182.149 208.327, 1194.391 209.165 C 1210.512 210.270, 1219.830 212.416, 1238.328 219.285 C 1250.795 223.916, 1253.901 225.543, 1262.085 231.735 C 1274.802 241.356, 1286.404 254.358, 1293.408 266.836 C 1298.896 276.614, 1299.323 277.929, 1303.037 296.500 C 1304.646 304.545, 1307.427 309.818, 1310.464 310.580 C 1314.235 311.527, 1322.702 308.211, 1326.892 304.148 C 1332.371 298.833, 1343.340 277.341, 1345.340 268 C 1350.984 241.637, 1352.003 228.275, 1349.594 212.228 C 1347.538 198.540, 1345.843 196.632, 1332.549 193.043 C 1328.176 191.862, 1321.651 189.612, 1318.049 188.043 C 1314.447 186.474, 1309.700 184.710, 1307.500 184.124 C 1301.412 182.500, 1277.608 178.249, 1267.613 176.999 C 1262.724 176.389, 1253.499 174.816, 1247.113 173.505 C 1232.525 170.510, 1224.196 169.429, 1201.017 167.521 C 1184.599 166.170, 1153.580 165.708, 1144 166.672 M 482.299 207.408 C 471.777 212.529, 469.785 214.766, 465.011 226.825 C 461.985 234.468, 461.762 235.777, 462.288 242.825 C 462.603 247.046, 462.451 253.875, 461.949 258 C 459.520 277.976, 459.575 279.900, 462.809 288.500 C 464.464 292.900, 466.749 298.525, 467.887 301 C 470.188 306.004, 470.595 311.991, 468.860 315.316 C 468.233 316.517, 465.758 319.618, 463.360 322.207 C 458.447 327.512, 458.031 329.873, 461.109 335 C 464.170 340.099, 467.018 342.948, 471.199 345.092 C 475.891 347.498, 478.643 346.571, 483.033 341.109 C 489.688 332.828, 498.773 329, 511.774 329 C 522.840 329, 524.564 327.908, 530.568 317.095 C 533.193 312.368, 536.829 306.248, 538.648 303.497 C 542.328 297.930, 545.142 288.150, 546.998 274.470 L 548.224 265.440 544.597 255.003 C 542.602 249.262, 539.740 242.793, 538.235 240.628 C 536.731 238.463, 533.680 233.282, 531.456 229.115 C 528.208 223.028, 525.650 219.980, 518.456 213.619 C 508.069 204.436, 505.196 203, 497.210 203 C 492.325 203, 489.854 203.731, 482.299 207.408 M 272.659 209.054 C 266.996 210.028, 262.653 214.968, 258.497 225.163 C 254.573 234.786, 252.902 244.931, 253.993 252.500 C 255.907 265.778, 258.329 277.399, 261.080 286.500 C 268.013 309.435, 268.746 310.530, 283.964 320.679 C 288.659 323.811, 294.781 328.431, 297.568 330.946 C 305.899 338.465, 317.951 341.022, 326.581 337.103 C 328.849 336.072, 332.402 333.084, 334.581 330.375 C 339.559 324.182, 340.299 323.574, 347.230 319.971 C 354.259 316.316, 355.741 314.138, 358.682 303.143 C 361.290 293.390, 361.841 277.055, 359.874 267.799 C 358.016 259.063, 351.805 247.860, 346.232 243.194 C 343.542 240.942, 340.058 237.248, 338.490 234.986 C 336.923 232.724, 333.584 229.688, 331.070 228.238 C 328.557 226.789, 323.012 223.235, 318.749 220.341 C 309.829 214.286, 302.402 211.718, 289 210.051 C 283.775 209.401, 278.825 208.763, 278 208.632 C 277.175 208.501, 274.772 208.691, 272.659 209.054 M 1252.004 282.495 C 1251.106 283.577, 1250.881 287.519, 1251.190 296.745 C 1251.649 310.473, 1252.364 312.834, 1258.297 320.220 C 1263.889 327.180, 1272.964 327.386, 1277.074 320.647 C 1279.958 315.917, 1279.513 311.970, 1275.426 306.029 C 1273.461 303.172, 1271.255 299.140, 1270.525 297.070 C 1268.222 290.545, 1265.149 285.262, 1262.393 283.095 C 1259.294 280.657, 1253.793 280.340, 1252.004 282.495 M 315 342.723 C 313.075 342.945, 307.225 344.455, 302 346.079 C 296.775 347.703, 288.450 349.477, 283.500 350.023 C 268.605 351.664, 269.197 351.374, 265.943 358.628 C 264.331 362.220, 260.859 367.384, 258.078 370.324 C 245.945 383.153, 244.899 397.870, 255.211 410.660 C 257.357 413.322, 260.625 417.814, 262.474 420.642 C 264.324 423.470, 267.045 426.620, 268.523 427.642 C 270 428.664, 273.806 431.814, 276.979 434.643 C 280.153 437.471, 283.745 440.102, 284.962 440.488 C 288.965 441.758, 293.942 439.984, 299.772 435.208 C 302.922 432.627, 308.650 428.898, 312.500 426.920 C 317.881 424.156, 320.224 422.232, 322.632 418.604 C 324.354 416.008, 327.596 412.537, 329.835 410.890 C 332.074 409.243, 335.593 405.557, 337.656 402.698 C 339.718 399.839, 343.714 394.968, 346.535 391.874 C 355.021 382.567, 361.005 370.244, 360.996 362.093 C 360.989 354.939, 354.328 348.088, 345.500 346.154 C 337.614 344.426, 322.174 341.984, 320.250 342.160 C 319.287 342.248, 316.925 342.502, 315 342.723 M 513.687 362.203 L 505.875 365.336 498.687 363.655 C 488.895 361.365, 478.747 361.506, 471.407 364.034 C 468.158 365.153, 462.594 366.743, 459.041 367.568 C 452.557 369.074, 449 371.207, 449 373.589 C 449 374.717, 451.370 380.918, 455.497 390.590 C 458.393 397.379, 467.168 397.554, 473.428 390.948 C 478.047 386.073, 483.457 383.173, 489.470 382.349 C 499.750 380.940, 505.259 388.362, 499.132 395.365 C 496.940 397.869, 493.912 398.983, 485 400.561 C 478.129 401.777, 477.215 402.230, 474.107 405.961 C 472.241 408.201, 467.132 413.513, 462.755 417.766 C 458.378 422.020, 452.725 428.425, 450.193 432 C 447.661 435.575, 443.657 440.686, 441.295 443.358 C 435.606 449.794, 435.515 453.407, 440.840 461.595 C 444.842 467.750, 449.875 471.908, 458.733 476.377 C 461.612 477.829, 465.367 480.556, 467.078 482.436 C 468.902 484.440, 472.945 486.992, 476.845 488.601 C 480.505 490.112, 487.775 494.179, 493 497.639 C 504.406 505.194, 509.312 506.512, 522.982 505.699 C 536.504 504.894, 541.410 503.130, 548.843 496.404 C 559.300 486.941, 560.103 482.490, 552.993 473.409 C 548.498 467.667, 539.916 455.201, 532.638 443.838 C 529.966 439.667, 525 425.309, 525 421.754 C 525 416.653, 528.450 412.467, 535.627 408.861 C 543.503 404.903, 546.344 401.756, 548.653 394.432 C 550.117 389.786, 550.221 387.919, 549.310 382.599 C 547.275 370.718, 541.556 363.134, 532.637 360.485 C 525.547 358.379, 522.542 358.652, 513.687 362.203 M 359.458 419.403 C 357.785 420.132, 353.330 422.841, 349.559 425.423 C 345.788 428.005, 340.632 431.166, 338.100 432.449 C 335.568 433.732, 331.586 437.048, 329.251 439.817 C 326.520 443.056, 323.011 445.796, 319.414 447.497 C 313.035 450.515, 296.452 466.561, 295.232 470.896 C 293.764 476.118, 294.574 488.357, 296.889 495.920 C 298.827 502.250, 300.051 504.268, 305.217 509.647 C 308.547 513.116, 313.281 516.926, 315.737 518.115 C 319.834 520.098, 321.311 520.234, 333.668 519.762 C 346.561 519.270, 347.418 519.102, 353.817 515.820 C 357.493 513.935, 365.094 510.059, 370.710 507.207 C 379.443 502.771, 381.529 501.213, 385.134 496.438 C 387.452 493.368, 391.282 489.526, 393.645 487.901 C 396.007 486.275, 399.188 483.270, 400.712 481.223 C 402.237 479.175, 406.016 474.519, 409.111 470.877 C 414.980 463.969, 418.411 456.909, 417.836 452.924 C 417.638 451.544, 415.661 449.244, 413 447.299 C 410.525 445.489, 406.446 442.244, 403.935 440.087 C 401.424 437.931, 396.944 434.736, 393.979 432.988 C 391.014 431.239, 386.093 427.850, 383.044 425.456 C 373.811 418.207, 366.508 416.332, 359.458 419.403 M 1239.211 438.358 C 1236.466 440.205, 1230.684 443.862, 1226.360 446.486 C 1222.037 449.109, 1215.883 453.676, 1212.684 456.636 C 1204.164 464.518, 1201.963 465.460, 1192 465.481 C 1181.410 465.505, 1178.825 464.278, 1173.526 456.715 C 1170.664 452.630, 1167.714 449.907, 1163.486 447.449 C 1144.094 436.173, 1140.734 435.941, 1123 444.652 C 1109.383 451.341, 1104.620 455.279, 1093.109 469.366 C 1084.593 479.789, 1083.699 482.244, 1083.590 495.500 C 1083.475 509.521, 1085.051 514.018, 1092.447 520.778 C 1098.765 526.552, 1100.398 529.451, 1102.044 537.820 C 1104.968 552.681, 1098.374 558.359, 1075.677 560.524 C 1070.491 561.019, 1066.772 562.210, 1060.177 565.491 C 1055.405 567.865, 1048.448 571.179, 1044.717 572.856 C 1033.734 577.792, 1008.343 601.708, 1002.956 612.191 C 1001.347 615.321, 998.674 620.022, 997.015 622.637 C 994.506 626.593, 994 628.421, 994 633.523 C 994 639.191, 994.427 640.369, 999.630 649.078 C 1003.078 654.849, 1007.922 661.129, 1012.130 665.283 C 1015.908 669.014, 1019 672.465, 1019 672.952 C 1019 674.685, 1025.608 677.805, 1032.500 679.326 C 1050.924 683.393, 1072.814 683.404, 1093.500 679.356 C 1103.965 677.308, 1107.657 675.705, 1112.500 671.108 C 1114.700 669.020, 1118.075 666.260, 1120 664.976 C 1121.925 663.691, 1125.550 660.760, 1128.056 658.462 C 1134.338 652.700, 1138.366 651.510, 1146.688 652.959 C 1150.312 653.591, 1155.354 655.159, 1157.893 656.446 C 1160.431 657.732, 1168.357 660.692, 1175.504 663.022 C 1182.652 665.353, 1190.750 668.436, 1193.500 669.873 C 1197.807 672.124, 1199.678 672.474, 1207 672.400 C 1214.129 672.327, 1217.156 671.720, 1225.770 668.635 C 1241.813 662.890, 1246.304 660.611, 1252.319 655.164 C 1255.398 652.376, 1259.223 649.419, 1260.820 648.593 C 1262.416 647.768, 1266.122 644.322, 1269.055 640.936 C 1271.989 637.550, 1276.076 633.714, 1278.139 632.412 C 1280.202 631.110, 1283.126 627.897, 1284.637 625.272 C 1286.148 622.648, 1289.699 617.967, 1292.528 614.870 C 1299.858 606.848, 1302.511 598.430, 1302.417 583.500 C 1302.336 570.699, 1300.924 563.083, 1296.925 553.890 C 1291.962 542.478, 1292.040 533.116, 1297.160 525.816 C 1300.945 520.419, 1302.225 514.890, 1302.210 504 C 1302.186 485.522, 1299.325 475.521, 1291.694 467.241 C 1289.291 464.633, 1285.475 459.964, 1283.215 456.864 C 1280.955 453.765, 1277.394 450.192, 1275.303 448.924 C 1273.211 447.657, 1269.119 444.472, 1266.208 441.846 C 1257.428 433.924, 1247.673 432.663, 1239.211 438.358 M 188.308 493.958 C 185.144 495.307, 182.666 499.532, 183.377 502.366 C 184.619 507.316, 194.161 508.293, 198.825 503.949 C 201.329 501.616, 201.712 496.836, 199.539 495.033 C 197.594 493.418, 191.045 492.792, 188.308 493.958 M 708.540 497.347 C 707.288 498.263, 707.060 498.919, 707.828 499.394 C 709.138 500.203, 713 498.390, 713 496.965 C 713 495.579, 710.687 495.777, 708.540 497.347 M 576.249 511.408 C 567.540 515.556, 566.836 520.932, 574.081 527.963 C 576.801 530.603, 580.253 532.587, 584.701 534.067 C 590.790 536.093, 592.550 537.449, 607.895 551.938 C 617.028 560.562, 627.200 569.450, 630.500 571.691 C 633.800 573.931, 637.725 577.149, 639.222 578.842 C 640.719 580.535, 643.227 582.583, 644.796 583.394 C 648.714 585.420, 661.136 587.057, 662.750 585.760 C 665.008 583.945, 664.062 579.238, 660.250 573.320 C 658.188 570.117, 655.407 565.327, 654.071 562.674 C 652.735 560.020, 649.990 556.421, 647.970 554.675 C 645.950 552.929, 643.126 549.628, 641.694 547.341 C 640.174 544.914, 636.467 541.444, 632.795 539.010 C 629.333 536.715, 625.278 533.089, 623.783 530.952 C 622.289 528.816, 619.139 525.864, 616.783 524.392 C 614.428 522.921, 610.663 520.042, 608.419 517.994 C 603.501 513.506, 594.492 509.853, 587 509.308 C 582.639 508.991, 580.413 509.426, 576.249 511.408 M 661.943 529.107 C 660.479 531.842, 661.881 533.256, 665.628 532.828 C 667.918 532.567, 668.564 531.943, 668.816 529.750 C 669.100 527.285, 668.818 527, 666.102 527 C 664.042 527, 662.709 527.676, 661.943 529.107 M 1180.247 533.688 C 1176.638 534.412, 1171.304 540.156, 1170.105 544.611 C 1169.231 547.854, 1169.335 549.765, 1170.617 554.087 C 1173.053 562.297, 1176.523 568.462, 1179.463 569.801 C 1185.422 572.516, 1192.909 570.501, 1196.111 565.321 C 1197.975 562.305, 1198.195 560.866, 1197.698 554.941 C 1196.519 540.873, 1189.153 531.902, 1180.247 533.688 M 691.580 601.563 C 690.280 602.863, 689.945 604.276, 690.349 606.763 C 691.063 611.162, 692.048 612.272, 698.445 615.882 C 702.644 618.252, 704.081 619.750, 705.444 623.182 C 707.280 627.801, 710.630 632, 712.480 632 C 714.927 632, 720.523 637.256, 724.101 642.914 C 726.170 646.187, 728.984 649.599, 730.354 650.496 C 731.724 651.394, 734.559 654.687, 736.655 657.814 C 738.750 660.941, 742.353 665.584, 744.662 668.132 C 747.268 671.007, 749.267 674.420, 749.935 677.132 C 753.596 692.005, 755.260 694.025, 764.475 694.790 C 774.318 695.606, 783.070 691.552, 784.597 685.470 C 784.938 684.111, 784.710 680.187, 784.090 676.750 C 783.471 673.312, 782.520 667.800, 781.978 664.500 C 780.718 656.829, 778.803 654.317, 770.902 649.965 C 767.373 648.021, 761.981 644.541, 758.921 642.230 C 755.861 639.920, 750.258 636.335, 746.470 634.265 C 741.733 631.675, 738.419 628.959, 735.852 625.563 C 733.139 621.973, 730.534 619.904, 726.310 617.982 C 722.473 616.237, 719.243 613.802, 716.799 610.811 C 710.381 602.959, 695.603 597.540, 691.580 601.563 M 743 888.633 C 736.028 889.955, 729.149 892.482, 724.582 895.401 C 721.787 897.187, 717.270 899.500, 714.543 900.539 C 709.958 902.288, 706.620 905.099, 698.421 914.115 C 696.728 915.977, 693.702 918.964, 691.696 920.753 C 689.690 922.541, 687.304 925.446, 686.393 927.207 C 683.976 931.881, 683.538 941.405, 685.414 948.460 C 687.567 956.553, 687.425 959.552, 684.436 969.012 C 682.460 975.269, 680.961 978.039, 677.891 981.109 L 673.910 985.090 677.432 990.888 C 681.667 997.860, 683.460 1005.431, 682.603 1012.724 C 681.766 1019.843, 679.961 1022.340, 673.709 1025.030 C 669.156 1026.988, 667.400 1027.193, 659.507 1026.686 C 649.855 1026.067, 639.902 1023.815, 636.250 1021.426 C 634.768 1020.456, 634 1018.959, 634 1017.040 C 634 1014.670, 635.261 1013.063, 640.750 1008.440 C 652.290 998.721, 668 982.938, 668 981.064 C 668 980.081, 666.635 976.266, 664.967 972.587 C 663.298 968.907, 660.979 963.333, 659.813 960.199 C 655.991 949.925, 650.064 940.403, 646.116 938.194 C 641.441 935.578, 628.807 932.995, 620.792 933.017 C 612.348 933.041, 601.696 935.401, 596.636 938.371 C 590.698 941.856, 580.713 952.647, 577.521 959.030 C 576.016 962.038, 573.733 965.625, 572.446 967 C 568.161 971.580, 565.615 978.849, 565.615 986.500 C 565.615 994.866, 566.745 997.318, 575.633 1008.238 C 583.865 1018.352, 584.083 1020.882, 577.250 1026.994 C 574.638 1029.331, 571.271 1032.343, 569.770 1033.688 C 563.053 1039.701, 560.715 1059.704, 564.894 1075.406 C 566.051 1079.754, 567.786 1084.548, 568.749 1086.060 C 569.712 1087.571, 572.234 1091.664, 574.354 1095.154 C 581.109 1106.278, 588.624 1114.776, 594.211 1117.607 C 600.439 1120.763, 615.908 1124.792, 625.066 1125.643 C 638.568 1126.898, 659.357 1119.717, 667.244 1111.074 C 676.830 1100.569, 681.052 1099.626, 690.595 1105.854 C 693.843 1107.974, 697.825 1110.959, 699.444 1112.486 C 703.750 1116.549, 707.869 1117.932, 719.551 1119.237 C 727.542 1120.130, 732.411 1120.128, 740.250 1119.226 C 754.898 1117.542, 757.747 1116.518, 763.066 1111.028 C 765.598 1108.416, 769.758 1105.054, 772.312 1103.557 C 776.153 1101.307, 777.490 1099.683, 780.046 1094.168 C 781.746 1090.501, 785.350 1083, 788.055 1077.500 C 792.524 1068.411, 793.209 1066.042, 795.575 1051.500 C 798.014 1036.513, 798.113 1034.611, 797.143 1021.456 C 796.573 1013.732, 795.608 1006.099, 794.997 1004.493 C 794.387 1002.888, 791.663 999.222, 788.944 996.347 C 782.069 989.078, 782.138 986.090, 789.529 971.030 C 795.529 958.805, 799 947.939, 799 941.382 C 799 935.652, 794.441 920.332, 791.322 915.582 C 788.508 911.297, 781.992 903.136, 777.034 897.687 C 772.070 892.233, 763.080 888.684, 753.500 888.398 C 749.100 888.267, 744.375 888.373, 743 888.633" stroke="none" fill="#1a1a1a" fill-rule="evenodd"/>
</svg>