<svg shape-rendering="geometricPrecision" xmlns="http://www.w3.org/2000/svg" width="959" height="1600" viewBox="0 0 959 1600" version="1.1">
	<rect x="0" y="0" width="100%" height="100%" fill="#ffffff" />
	<path d="M 622.822 26.980 C 621.349 27.425, 617.427 29.466, 614.105 31.516 C 605.705 36.701, 598.549 46.326, 594.202 58.288 C 588.019 75.303, 587.988 75.516, 586.992 108.500 C 585.997 141.436, 584.966 152.154, 581.946 161 C 580.913 164.025, 579.136 170.775, 577.996 176 C 576.622 182.299, 574.799 187.353, 572.587 191 C 570.752 194.025, 568.456 198.075, 567.485 200 C 565.369 204.194, 562.058 208.516, 556 214.990 C 553.525 217.635, 550.825 220.707, 550 221.818 C 547.644 224.989, 544.443 225.443, 541.957 222.957 L 539.812 220.812 540.548 166.890 L 541.283 112.968 536.092 102.496 C 531.226 92.682, 530.416 91.647, 523.200 86.014 C 511.532 76.908, 507.243 76.840, 496.064 85.587 C 490.763 89.735, 488.252 92.608, 485.428 97.758 C 477.193 112.773, 477.689 110.945, 477.195 128.088 C 476.637 147.455, 478.148 160.781, 482.061 171 C 483.640 175.125, 485.664 181.425, 486.558 185 C 487.452 188.575, 489.309 193.525, 490.685 196 C 492.061 198.475, 494.452 204.100, 495.999 208.500 C 497.546 212.900, 499.944 219.650, 501.328 223.500 C 502.838 227.699, 504.343 235.109, 505.092 242.019 C 506.191 252.175, 506.135 254.659, 504.613 263.019 C 503.536 268.936, 501.836 274.379, 500.093 277.500 C 498.556 280.250, 496.543 284.793, 495.620 287.595 C 494.698 290.397, 492.819 294.213, 491.445 296.074 C 490.072 297.936, 488.046 302.487, 486.944 306.189 C 485.842 309.890, 483.910 314.174, 482.653 315.709 C 480.137 318.779, 478.681 322.176, 476.956 329 C 476.331 331.475, 474.555 336.425, 473.009 340 C 471.464 343.575, 469.680 349.055, 469.044 352.177 C 467.826 358.161, 463.732 364.819, 459.610 367.520 C 458.274 368.395, 454.103 369.550, 450.340 370.085 C 446.578 370.621, 439.225 371.709, 434 372.503 C 411.231 375.962, 405.041 375.368, 396.936 368.949 C 392.132 365.145, 384.512 354.466, 379.489 344.500 C 377.549 340.650, 374.832 335.952, 373.452 334.059 C 372.072 332.167, 370.679 329.467, 370.356 328.059 C 370.033 326.652, 368.080 322.350, 366.015 318.500 C 363.950 314.650, 361.934 310.375, 361.534 309 C 361.133 307.625, 359.084 302.675, 356.980 298 C 353.540 290.355, 350.797 279.804, 346.868 259.100 C 346.304 256.130, 345.991 248.255, 346.172 241.600 C 346.473 230.482, 346.753 228.966, 349.622 222.912 C 352.381 217.089, 354.530 214.707, 368.112 202.412 C 376.564 194.760, 384.609 187.188, 385.990 185.584 C 387.370 183.980, 390.234 180.730, 392.353 178.360 C 395.248 175.123, 397.172 171.249, 400.091 162.776 C 405.213 147.908, 405.216 143.909, 400.115 133.362 C 396.653 126.202, 395.741 125.099, 391.726 123.211 C 384.770 119.942, 382.580 119.690, 376.494 121.459 C 372.093 122.738, 370.481 123.771, 369.175 126.149 C 368.254 127.826, 366.239 131.151, 364.697 133.537 C 363.156 135.922, 361.030 140.899, 359.973 144.596 C 358.915 148.293, 357.215 152.259, 356.195 153.409 C 355.175 154.559, 353.810 157.365, 353.162 159.644 C 352.235 162.901, 351.397 163.924, 349.242 164.428 C 347.734 164.781, 345.055 166.741, 343.288 168.784 C 340.301 172.240, 339.960 172.384, 338.422 170.848 C 336.641 169.070, 335.114 162.742, 335.044 156.852 C 335.017 154.627, 336.210 150.919, 338.101 147.352 C 339.859 144.034, 341.994 137.602, 343.031 132.499 C 344.038 127.549, 346.248 120.036, 347.943 115.803 C 350.172 110.235, 351.330 105.119, 352.128 97.303 C 353.471 84.156, 352.752 61.998, 350.803 56.500 C 348.543 50.124, 342.252 42.274, 336.164 38.233 C 330.711 34.614, 330.265 34.500, 321.520 34.500 L 312.500 34.500 304.720 39.372 C 300.440 42.052, 296.450 45.202, 295.851 46.372 C 295.253 47.543, 293.310 50.075, 291.534 52 C 286.977 56.939, 279.448 71.524, 278.097 78.031 C 273.557 99.900, 274.296 162.869, 279.604 206.488 C 281.308 220.490, 281.044 225.189, 278.388 228.124 C 276.029 230.730, 274.824 230.506, 269.845 226.536 C 267.455 224.631, 263.084 221.143, 260.132 218.786 C 249.756 210.502, 244.775 205.494, 242.150 200.708 C 240.693 198.050, 238.534 194.102, 237.353 191.935 C 235.218 188.017, 234.044 181.254, 232.069 161.500 C 230.854 149.345, 226.676 125.522, 224.440 118 C 222.488 111.436, 216.148 104.712, 208.479 101.074 C 202.188 98.089, 193.453 97.720, 189.925 100.290 C 188.591 101.261, 185.656 103.236, 183.401 104.679 C 179.504 107.173, 176.789 110.657, 170.886 120.732 C 167.180 127.058, 163.563 143.572, 163.599 154 C 163.640 165.717, 168.173 187.448, 172.460 196.484 C 174.291 200.343, 176.299 205.394, 176.922 207.710 C 177.545 210.025, 179.522 213.850, 181.314 216.210 C 183.107 218.569, 185.208 222.044, 185.983 223.930 C 186.758 225.817, 188.849 229.269, 190.630 231.603 C 192.411 233.936, 194.527 237.117, 195.332 238.673 C 197.260 242.399, 216.368 261.652, 222.045 265.590 C 230.378 271.369, 244.562 278.084, 251.503 279.536 C 255.273 280.325, 260.073 282.106, 262.171 283.494 C 264.269 284.883, 268.576 287.164, 271.743 288.564 C 274.909 289.963, 278.625 292.143, 280 293.407 C 281.375 294.671, 284.578 297.103, 287.119 298.810 C 289.710 300.552, 293.198 304.238, 295.065 307.208 C 296.896 310.118, 299.880 314.189, 301.697 316.253 C 303.514 318.317, 305 320.582, 305 321.287 C 305 321.991, 306.587 325.027, 308.528 328.034 C 310.468 331.040, 312.957 336.650, 314.058 340.500 C 315.160 344.350, 316.723 348.978, 317.531 350.784 C 318.339 352.590, 319 354.503, 319 355.034 C 319 356.932, 313.349 355.950, 307.475 353.031 C 304.189 351.399, 301.042 350.049, 300.482 350.031 C 299.922 350.014, 297.672 348.779, 295.482 347.286 C 291.466 344.549, 282.378 339.642, 269.500 333.257 C 265.650 331.348, 261.574 328.937, 260.441 327.899 C 259.309 326.861, 255.134 324.906, 251.162 323.555 C 247.191 322.204, 242.761 320.170, 241.317 319.035 C 239.874 317.900, 234.825 315.808, 230.096 314.387 C 225.368 312.966, 219.700 310.770, 217.500 309.507 C 215.300 308.244, 211.475 306.687, 209 306.048 C 206.525 305.409, 200.900 303.117, 196.500 300.955 C 185.050 295.328, 172.890 293.472, 164.899 296.131 C 160.493 297.598, 153.594 304.176, 149.830 310.500 C 148.193 313.250, 145.874 317.075, 144.677 319 C 140.425 325.836, 141.284 361.298, 146.150 379.803 C 147.264 384.036, 149.025 392.530, 150.064 398.678 C 151.103 404.826, 152.897 412.251, 154.051 415.178 C 155.205 418.105, 157.439 424.218, 159.015 428.763 C 160.592 433.307, 162.747 438.257, 163.804 439.763 C 164.862 441.268, 166.703 444.728, 167.896 447.451 C 172.980 459.056, 180.665 469.378, 194.332 482.960 C 204.524 493.088, 205.962 494.341, 211 497.487 C 213.475 499.032, 216.724 501.314, 218.219 502.558 C 219.714 503.801, 223.314 505.582, 226.219 506.516 C 229.124 507.449, 234.425 509.938, 238 512.047 C 241.575 514.156, 246.649 516.414, 249.276 517.066 C 258.525 519.360, 260.297 526.164, 255.072 539.318 C 253.462 543.372, 251.683 549.346, 251.119 552.594 C 246.477 579.315, 248.581 633.703, 254.874 649.684 C 255.917 652.333, 257.741 659.387, 258.928 665.360 C 260.282 672.179, 262.320 678.690, 264.404 682.860 C 266.230 686.512, 268.281 691.868, 268.964 694.761 C 269.647 697.655, 271.348 701.705, 272.745 703.761 C 274.142 705.818, 276.352 710.650, 277.656 714.500 C 278.960 718.350, 280.894 722.683, 281.953 724.128 C 283.968 726.877, 284.757 729.163, 290.186 748 L 293.500 759.500 293.454 794.500 C 293.410 827.754, 293.277 830.248, 290.770 844.500 C 289.319 852.750, 287.419 864.732, 286.548 871.126 C 285.677 877.521, 283.858 886.007, 282.506 889.984 C 281.153 893.961, 278.936 902.679, 277.580 909.357 C 276.224 916.036, 274.011 924.425, 272.663 928 C 271.315 931.575, 269.252 939, 268.079 944.500 C 266.906 950, 264.801 957.861, 263.401 961.969 C 262 966.078, 259.981 975.475, 258.913 982.853 C 257.845 990.231, 255.884 1001.045, 254.555 1006.884 C 250.747 1023.616, 249.681 1035.653, 249.628 1062.500 C 249.573 1090.665, 250.561 1099.256, 255.260 1111.486 C 257.417 1117.103, 258.353 1121.315, 258.414 1125.680 L 258.500 1131.886 246.500 1144.193 C 239.900 1150.962, 223.782 1168.650, 210.682 1183.500 C 197.581 1198.350, 182.804 1214.775, 177.844 1220 C 162.560 1236.098, 161.397 1237.393, 158.981 1241 C 157.691 1242.925, 155.031 1246.404, 153.068 1248.731 C 139.294 1265.067, 134.366 1271.904, 131.295 1278.942 C 129.961 1281.999, 127.886 1286.525, 126.685 1289 C 124.713 1293.061, 124.502 1295.060, 124.525 1309.500 C 124.548 1324.523, 124.712 1325.897, 127.221 1332 C 128.690 1335.575, 130.654 1341.566, 131.584 1345.313 C 132.514 1349.060, 134.408 1353.785, 135.793 1355.813 C 137.179 1357.841, 139.442 1361.975, 140.823 1365 C 142.204 1368.025, 144.369 1371.873, 145.634 1373.551 C 146.899 1375.230, 149.095 1379.055, 150.514 1382.051 C 153.282 1387.898, 158.125 1396.041, 162.676 1402.500 C 164.226 1404.700, 166.748 1408.737, 168.281 1411.471 C 169.814 1414.206, 171.922 1417.356, 172.966 1418.471 C 174.011 1419.587, 175.823 1422.750, 176.995 1425.500 C 178.166 1428.250, 180.373 1431.850, 181.900 1433.500 C 183.427 1435.150, 185.849 1438.561, 187.281 1441.080 C 188.713 1443.599, 190.591 1446.246, 191.454 1446.962 C 192.317 1447.678, 193.940 1450.342, 195.061 1452.882 C 196.182 1455.422, 198.571 1459.075, 200.371 1461 C 202.171 1462.925, 204.406 1465.625, 205.339 1467 C 206.272 1468.375, 208.940 1471.810, 211.268 1474.633 C 213.595 1477.456, 217.444 1482.181, 219.820 1485.133 C 227.314 1494.443, 245.278 1512.099, 251 1515.778 C 254.025 1517.724, 257.978 1520.594, 259.785 1522.158 C 262.655 1524.641, 263.876 1525, 269.458 1525 C 275.250 1525, 276.286 1524.665, 280.549 1521.410 C 283.136 1519.436, 287.108 1517.017, 289.376 1516.035 C 293.555 1514.226, 302.775 1505.511, 309.903 1496.634 C 314.089 1491.419, 320.016 1476.623, 319.978 1471.481 C 319.940 1466.307, 314.218 1445.760, 312.067 1443.074 C 310.933 1441.658, 308.819 1438.250, 307.368 1435.500 C 305.918 1432.750, 303.524 1428.700, 302.050 1426.500 C 300.575 1424.300, 298.570 1420.354, 297.595 1417.732 C 296.619 1415.110, 294.286 1410.733, 292.410 1408.006 C 290.535 1405.279, 289 1402.638, 289 1402.136 C 289 1401.635, 287.373 1398.860, 285.385 1395.970 C 283.397 1393.079, 280.841 1388.416, 279.704 1385.607 C 278.567 1382.798, 276.867 1379.373, 275.925 1377.995 C 274.983 1376.617, 272.587 1372.150, 270.600 1368.067 C 268.613 1363.984, 266.306 1359.890, 265.472 1358.970 C 264.164 1357.523, 258.987 1343.742, 257.356 1337.360 C 256.451 1333.819, 260.381 1326.366, 264.162 1324.454 C 265.998 1323.526, 268.400 1321.953, 269.500 1320.959 C 271.468 1319.181, 279.188 1314.563, 290 1308.695 C 293.025 1307.054, 296.850 1304.477, 298.500 1302.970 C 300.150 1301.463, 303.750 1299.254, 306.500 1298.061 C 309.250 1296.869, 312.625 1294.841, 314 1293.556 C 315.375 1292.271, 318.525 1290.219, 321 1288.996 C 323.475 1287.773, 327.750 1285.101, 330.500 1283.059 C 353.943 1265.650, 360.117 1262.387, 364.834 1264.911 C 367.983 1266.596, 368.988 1272.095, 368.994 1287.667 C 369.005 1313.945, 366.906 1362.379, 364.993 1380 C 363.949 1389.625, 362.404 1403.800, 361.562 1411.500 C 360.719 1419.200, 359.356 1434.275, 358.534 1445 C 357.461 1459.006, 356.344 1466.982, 354.570 1473.309 C 353.212 1478.153, 351.385 1488.278, 350.508 1495.809 C 349.632 1503.339, 347.571 1514.824, 345.929 1521.331 C 341.720 1538.004, 337.750 1564.292, 338.495 1570.556 C 339.215 1576.618, 343.119 1585.464, 345.667 1586.808 C 355.625 1592.062, 377.322 1593.712, 407.267 1591.491 C 433.520 1589.544, 438.665 1588.607, 441.420 1585.266 C 442.564 1583.879, 444.914 1581.339, 446.643 1579.622 C 451.005 1575.289, 459.396 1557.139, 461.494 1547.500 C 462.451 1543.100, 464.488 1536.575, 466.021 1533 C 467.553 1529.425, 469.573 1522.675, 470.509 1518 C 471.445 1513.325, 473.233 1507.025, 474.483 1504 C 475.838 1500.718, 477.642 1492.267, 478.954 1483.045 C 480.164 1474.544, 482.216 1464.337, 483.514 1460.361 C 486.128 1452.354, 487.227 1446.845, 489.502 1430.348 C 490.348 1424.214, 491.906 1416.681, 492.963 1413.607 C 494.021 1410.533, 495.841 1402.277, 497.007 1395.259 C 498.174 1388.242, 500.414 1376.875, 501.985 1370 C 503.555 1363.125, 505.125 1354.575, 505.473 1351 C 507.431 1330.869, 511.696 1307.094, 514.568 1300.299 C 516.590 1295.514, 519.635 1293.897, 524.500 1295.025 C 526.700 1295.535, 538.527 1295.963, 550.782 1295.976 C 579.374 1296.007, 581.713 1296.792, 586.072 1307.829 C 587.304 1310.948, 589.322 1314.874, 590.557 1316.553 C 591.791 1318.233, 594.145 1322.569, 595.787 1326.190 C 597.428 1329.810, 599.437 1333.161, 600.251 1333.636 C 602.126 1334.732, 609.165 1345.804, 612.561 1353 C 613.988 1356.025, 616.402 1359.850, 617.925 1361.500 C 619.448 1363.150, 621.737 1367.425, 623.011 1371 C 624.286 1374.575, 626.154 1379.170, 627.164 1381.210 C 629.731 1386.397, 629.619 1398.319, 626.914 1408.020 C 625.767 1412.134, 623.968 1421.065, 622.918 1427.868 C 621.791 1435.161, 619.983 1442.546, 618.512 1445.868 C 617.140 1448.965, 614.881 1456.369, 613.491 1462.319 C 612.101 1468.270, 609.871 1475.294, 608.536 1477.929 C 607.201 1480.563, 605.405 1485.754, 604.544 1489.464 C 603.684 1493.175, 601.674 1499.201, 600.078 1502.855 C 598.481 1506.510, 596.418 1512.200, 595.493 1515.500 C 594.568 1518.800, 592.399 1524.425, 590.673 1528 C 588.170 1533.187, 587.459 1536.096, 587.155 1542.402 C 586.946 1546.748, 587.273 1551.968, 587.883 1554.002 C 589.354 1558.912, 598.436 1567.506, 603.609 1568.883 C 607.193 1569.836, 625.039 1572.003, 641.188 1573.446 C 648.104 1574.063, 661.169 1572.023, 665.785 1569.605 C 670.433 1567.169, 686.167 1544.734, 688.999 1536.502 C 689.946 1533.751, 691.885 1529.785, 693.307 1527.689 C 694.730 1525.593, 696.620 1521.318, 697.507 1518.189 C 698.395 1515.060, 700.632 1510.250, 702.478 1507.500 C 704.324 1504.750, 706.354 1500.475, 706.988 1498 C 708.177 1493.359, 714.958 1477.682, 719.965 1468 C 721.529 1464.975, 723.799 1459.145, 725.008 1455.045 C 726.218 1450.944, 728.274 1446.019, 729.579 1444.099 C 730.883 1442.179, 732.685 1437.209, 733.582 1433.054 C 734.480 1428.899, 736.481 1423.205, 738.030 1420.401 C 741.869 1413.451, 748.568 1392.465, 750.448 1381.500 C 751.297 1376.550, 752.242 1366.875, 752.548 1360 C 753.242 1344.417, 753.701 1341.329, 755.419 1340.669 C 757.696 1339.796, 768.616 1344.791, 777.188 1350.628 C 796.596 1363.843, 802.596 1369.691, 808.157 1380.813 L 812.500 1389.500 812.488 1429.500 C 812.477 1466.709, 812.322 1470.268, 810.272 1480.500 C 807.822 1492.731, 806.578 1502.752, 804.938 1523.462 C 804.290 1531.648, 802.804 1541.370, 801.346 1546.962 C 798.361 1558.411, 798.077 1566.899, 800.482 1572.766 C 802.664 1578.092, 809.661 1584.363, 815.254 1586.006 C 820.965 1587.684, 871.088 1588.594, 876.546 1587.118 C 883.712 1585.181, 893.924 1577.708, 899.174 1570.559 C 903.603 1564.527, 904.406 1562.489, 908.949 1545.743 C 913.719 1528.162, 914.322 1524.452, 917 1496.218 C 917.589 1490.012, 919.169 1478.987, 920.513 1471.718 C 921.857 1464.448, 924.072 1448.600, 925.436 1436.500 C 926.801 1424.400, 928.636 1411.125, 929.514 1407 C 934.918 1381.633, 935.414 1324.237, 930.361 1309.192 C 927.710 1301.299, 923.862 1293.855, 920.487 1290.087 C 918.719 1288.114, 916.580 1285.150, 915.734 1283.500 C 914.888 1281.850, 908.855 1275.325, 902.328 1269 C 890.500 1257.539, 883.290 1247.738, 880.915 1239.892 C 877.676 1229.192, 879.010 1198.929, 883.640 1178.057 C 885.860 1168.049, 886.218 1163.953, 886.316 1147.500 C 886.424 1129.410, 886.279 1127.877, 883.282 1115.500 C 877.231 1090.506, 877.713 1086.972, 888.069 1080.374 C 894.222 1076.454, 895.329 1075.096, 909.732 1053.800 C 915.570 1045.168, 917.039 1038.426, 917.097 1020 C 917.142 1005.574, 915.021 992.744, 911.971 989 C 910.851 987.625, 909.021 984.571, 907.904 982.213 C 905.318 976.753, 900.874 971.689, 896.180 968.854 C 894.156 967.631, 891.175 965.544, 889.556 964.217 C 887.937 962.889, 885.462 961.365, 884.056 960.828 C 880.376 959.425, 873.461 960.742, 870.228 963.462 C 868.698 964.749, 864.613 966.954, 861.152 968.360 C 857.690 969.767, 853.299 972.286, 851.394 973.959 C 849.489 975.631, 847.413 977, 846.781 977 C 846.149 977, 843.659 977.955, 841.247 979.122 C 834.294 982.488, 829.514 981.449, 821.251 974.772 C 817.523 971.760, 813.012 968.540, 811.225 967.617 C 809.439 966.693, 807.420 965.030, 806.739 963.921 C 805.012 961.111, 792.141 952.521, 787.415 951.024 C 785.262 950.342, 781.053 948.432, 778.063 946.778 C 775.072 945.124, 768.819 942.668, 764.168 941.320 C 759.516 939.971, 753.638 937.797, 751.105 936.488 C 748.369 935.074, 740.211 932.886, 731 931.095 C 722.475 929.437, 712.350 927.419, 708.500 926.610 C 696.334 924.054, 663.073 922.737, 634 923.659 C 591.198 925.017, 567.701 923.910, 556 919.982 C 536.244 913.352, 533.922 912.086, 525.306 903.254 C 518.929 896.716, 516.736 893.706, 515.418 889.677 C 514.486 886.830, 512.625 882.307, 511.282 879.626 C 508.433 873.939, 506.551 865.457, 505.039 851.500 C 504.444 846, 503.313 838.350, 502.528 834.500 C 501.742 830.650, 500.363 819.591, 499.463 809.924 C 497.099 784.520, 497.829 783.283, 517.161 779.906 C 538.561 776.167, 581.331 763.945, 595.553 757.506 C 599.433 755.749, 605.958 753.507, 610.053 752.523 C 614.149 751.539, 620.030 749.688, 623.122 748.409 C 626.915 746.839, 634.225 745.392, 645.600 743.958 C 654.871 742.789, 664.267 741.151, 666.478 740.318 C 668.690 739.485, 675 737.450, 680.500 735.795 C 686.564 733.971, 692.271 731.505, 695 729.530 C 697.475 727.738, 701.203 725.477, 703.285 724.505 C 705.366 723.534, 707.517 721.903, 708.064 720.880 C 708.612 719.857, 710.445 718.304, 712.138 717.428 C 716.549 715.147, 731.667 700.364, 734.204 695.852 C 735.383 693.753, 737.988 690.950, 739.992 689.624 C 741.996 688.298, 745.855 684.404, 748.568 680.971 C 751.280 677.538, 755.188 672.936, 757.250 670.744 C 759.312 668.552, 761 666.173, 761 665.456 C 761 664.739, 762.647 661.996, 764.660 659.359 C 766.673 656.722, 769.301 652.075, 770.502 649.032 C 771.702 645.989, 773.853 641.790, 775.282 639.699 C 779.044 634.194, 780.290 627.130, 779.823 613.950 C 779.386 601.645, 779.203 601.063, 771.257 586.718 C 769.191 582.987, 766.322 579.162, 764.883 578.218 C 763.443 577.273, 761.063 575.065, 759.594 573.310 C 753.226 565.704, 727.312 555.412, 703 550.833 C 696.708 549.648, 690.811 547.874, 688.285 546.406 C 685.966 545.059, 681.241 543.067, 677.785 541.981 C 668.548 539.077, 659.438 529.658, 645.405 508.500 C 643.946 506.300, 641.063 502.250, 639 499.500 C 636.936 496.750, 634.729 492.879, 634.095 490.897 C 633.461 488.915, 631.771 486.215, 630.339 484.897 C 627.199 482.005, 619.715 466.275, 620.707 464.653 C 622.873 461.111, 628.551 454.308, 630.380 453.063 C 631.546 452.270, 632.919 450.919, 633.430 450.060 C 633.942 449.202, 636.417 446.397, 638.930 443.827 C 648.106 434.445, 649.788 432.407, 652.408 427.500 C 653.876 424.750, 656.124 421.061, 657.404 419.302 C 658.684 417.543, 660.492 413.043, 661.422 409.302 C 662.352 405.561, 664.179 400.873, 665.482 398.884 C 668.733 393.921, 669.788 389.427, 671.015 375.294 C 672.154 362.178, 671.372 353.693, 668.459 347.555 C 665.989 342.350, 656.826 338, 648.334 338 C 629.942 338, 590.923 347.512, 578.840 354.941 C 576.276 356.517, 571.551 358.558, 568.340 359.477 C 565.128 360.396, 560.916 362.403, 558.980 363.936 C 557.044 365.470, 553.444 367.735, 550.980 368.970 C 548.516 370.205, 545.150 372.445, 543.500 373.948 C 539.567 377.531, 529.179 383.229, 527.957 382.474 C 526.126 381.342, 527.005 374.475, 529.608 369.585 C 531.042 366.891, 533.081 362.170, 534.139 359.095 C 535.198 356.019, 537.180 351.815, 538.546 349.752 C 539.911 347.689, 541.931 343.587, 543.035 340.637 C 544.139 337.686, 545.982 334.423, 547.130 333.386 C 548.279 332.349, 550.568 328.800, 552.217 325.500 C 553.867 322.200, 556.405 318.322, 557.858 316.882 C 559.311 315.442, 563.177 311.036, 566.449 307.091 C 569.721 303.145, 573.889 298.996, 575.711 297.869 C 577.534 296.743, 579.504 294.927, 580.088 293.835 C 580.673 292.742, 584.055 290.545, 587.605 288.953 C 591.154 287.361, 595.507 284.958, 597.279 283.613 C 599.050 282.268, 603.425 280.414, 607 279.493 C 610.575 278.572, 617.325 276.338, 622 274.528 C 626.675 272.718, 631.625 270.904, 633 270.496 C 634.375 270.089, 638.650 268.301, 642.500 266.524 C 646.350 264.747, 651.828 262.527, 654.673 261.591 C 657.518 260.656, 660.417 259.202, 661.115 258.361 C 661.814 257.520, 665.541 255.242, 669.398 253.300 C 673.255 251.357, 678.180 248.358, 680.341 246.634 C 686.097 242.045, 697 231.134, 697 229.964 C 697 229.409, 698.820 226.981, 701.044 224.568 C 707.933 217.095, 712.170 201.461, 710.287 190.468 C 708.889 182.304, 706.401 177.450, 701.642 173.598 C 698.557 171.101, 696.815 170.519, 691.383 170.173 C 685.347 169.789, 684.256 170.057, 677.295 173.628 C 673.145 175.758, 666.814 180.088, 663.226 183.250 C 659.639 186.412, 656.336 189, 655.886 189 C 655.437 189, 653.591 190.289, 651.785 191.865 C 649.978 193.441, 647.375 195.059, 646 195.460 C 644.625 195.862, 640.213 197.788, 636.196 199.741 C 627.921 203.764, 626.808 203.457, 626.642 197.111 C 626.557 193.895, 627.163 192.406, 629.620 189.787 C 631.316 187.979, 633.441 184.590, 634.342 182.256 C 635.242 179.921, 637.334 176.141, 638.990 173.856 C 640.645 171.570, 642 169.181, 642 168.547 C 642 167.913, 643.824 163.622, 646.054 159.011 C 648.284 154.400, 651.034 147.223, 652.165 143.063 C 653.296 138.904, 655.352 133.089, 656.734 130.141 C 659.537 124.167, 664.916 95.267, 664.969 85.904 C 664.986 82.827, 663.898 74.353, 662.550 67.073 C 660.277 54.789, 659.771 53.356, 655.520 47.168 C 648.253 36.590, 647.983 36.339, 638.198 31.039 C 628.693 25.890, 627.488 25.572, 622.822 26.980 M 622.308 50.649 C 617.773 53.822, 616.681 55.305, 613.665 62.390 C 609.237 72.792, 609.215 72.923, 608.007 96 C 606.770 119.635, 605.473 131.669, 602.904 143.332 C 601.834 148.190, 600.539 158.090, 600.027 165.332 C 598.938 180.730, 597.955 184.660, 593.619 190.963 C 591.859 193.522, 589.590 197.840, 588.578 200.558 C 587.566 203.276, 585.738 206.625, 584.516 208 C 583.294 209.375, 580.800 212.750, 578.974 215.500 C 577.148 218.250, 574.495 221.926, 573.077 223.669 C 571.660 225.413, 568.475 229.378, 566 232.481 C 563.525 235.584, 558.477 241.309, 554.782 245.203 L 548.065 252.283 542.680 251.650 C 536.298 250.900, 534.824 252.022, 533.027 259 C 532.389 261.475, 530.555 265.363, 528.951 267.639 C 527.347 269.916, 525.575 272.988, 525.013 274.465 C 524.452 275.942, 522.710 279.030, 521.142 281.326 C 519.575 283.622, 517.487 287.975, 516.503 291 C 515.518 294.025, 513.437 298.300, 511.879 300.500 C 510.320 302.700, 508.121 307.200, 506.991 310.500 C 505.862 313.800, 503.381 319.650, 501.480 323.500 C 494.695 337.237, 491.050 347.063, 488.852 357.540 C 485.992 371.168, 486.892 374.757, 494.432 379.796 C 497.144 381.608, 500.294 382.958, 501.432 382.796 C 503.865 382.448, 509.326 371.977, 513.580 359.500 C 515.080 355.100, 517.813 348.650, 519.654 345.167 C 521.494 341.684, 523 338.256, 523 337.549 C 523 336.165, 532.317 321.418, 536.299 316.500 C 537.635 314.850, 539.656 311.670, 540.791 309.433 C 541.925 307.196, 543.636 304.721, 544.592 303.933 C 545.549 303.145, 547.793 300.250, 549.579 297.500 C 552.712 292.677, 564.200 280.879, 570.602 275.908 C 572.309 274.584, 576.939 270.880, 580.891 267.677 C 584.843 264.474, 590.197 260.954, 592.788 259.854 C 595.380 258.754, 600.317 256.506, 603.761 254.859 C 607.806 252.924, 613.566 251.311, 620.036 250.302 C 627.733 249.101, 631.068 248.066, 634.446 245.828 C 636.864 244.227, 642.140 242.003, 646.171 240.886 C 650.202 239.769, 654.850 237.829, 656.500 236.576 C 658.150 235.322, 661.075 233.493, 663 232.512 C 664.925 231.530, 668.149 229.326, 670.163 227.614 C 672.178 225.901, 675.957 222.723, 678.561 220.552 C 684.509 215.591, 689 208.626, 689 204.361 C 689 196.075, 677.020 196.010, 663.535 204.222 C 660.805 205.885, 655.855 208.045, 652.535 209.022 C 649.216 209.999, 643.826 211.935, 640.558 213.324 C 637.290 214.713, 630.860 216.409, 626.270 217.092 C 618.393 218.264, 617.771 218.220, 615.212 216.309 C 611.890 213.829, 610.567 206.925, 611.416 196.500 C 612.118 187.884, 613.894 181.931, 617.860 174.899 C 619.534 171.930, 621.848 165.453, 623 160.506 C 624.153 155.560, 626.167 149.684, 627.478 147.448 C 628.788 145.213, 630.778 139.785, 631.901 135.386 C 633.024 130.987, 635.048 124.453, 636.399 120.865 C 638.566 115.106, 642.588 94.985, 644.479 80.435 C 645.128 75.441, 642.653 62.722, 639.825 56.514 C 638.638 53.910, 630.460 46.994, 628.586 47.009 C 627.989 47.014, 625.164 48.652, 622.308 50.649 M 317.500 54.498 C 312.575 56.801, 309.500 60.076, 304.571 68.264 C 298.781 77.883, 297.657 83.396, 295.956 110.500 C 294.633 131.589, 295.211 185.037, 297.018 208.728 C 297.639 216.868, 297.601 223.387, 296.904 228.228 C 294.597 244.249, 294.639 246.334, 297.485 257.169 C 298.978 262.851, 301.013 269.975, 302.007 273 C 303.002 276.025, 304.073 279.665, 304.387 281.089 C 304.700 282.513, 307.171 287.069, 309.876 291.213 C 312.581 295.357, 315.763 300.937, 316.948 303.614 C 318.132 306.291, 320.412 310.525, 322.014 313.022 C 323.616 315.518, 325.446 320.023, 326.080 323.031 C 326.714 326.039, 328.710 331.200, 330.515 334.500 C 332.511 338.148, 334.653 344.419, 335.980 350.500 C 337.181 356, 338.992 361.673, 340.006 363.107 C 341.327 364.977, 341.706 366.814, 341.346 369.607 C 340.701 374.596, 344.714 383.948, 348.723 386.803 C 350.290 387.919, 352.168 389.944, 352.896 391.305 C 354.777 394.820, 358.083 396, 366.047 396 C 374.687 396, 377.273 394.145, 376.070 388.812 C 375.155 384.755, 373.626 381.764, 371.609 380.091 C 370.785 379.406, 369.385 376.663, 368.498 373.995 C 367.612 371.327, 365.502 367.232, 363.809 364.895 C 362.116 362.558, 359.824 358.588, 358.716 356.073 C 357.607 353.558, 355.699 350.150, 354.476 348.500 C 353.252 346.850, 351.505 343.203, 350.593 340.395 C 349.682 337.587, 347.616 333.209, 346.003 330.665 C 344.390 328.122, 342.090 322.769, 340.893 318.770 C 339.695 314.772, 337.427 308.221, 335.853 304.214 C 334.280 300.206, 332.353 292.781, 331.573 287.714 C 329.309 273.005, 327.652 248.790, 328.331 240.308 C 329.147 230.104, 330.742 213.006, 331.558 205.709 C 332.787 194.721, 341.574 186.016, 351.462 185.989 C 354.687 185.980, 356.974 184.950, 362.822 180.869 C 366.848 178.059, 371.920 173.452, 374.092 170.630 C 376.263 167.809, 379.397 163.824, 381.056 161.775 C 387.006 154.424, 388.227 145.797, 383.568 144.026 C 379.873 142.621, 372.776 144.500, 370.518 147.480 C 369.408 148.946, 365.125 153.463, 361 157.519 C 350.467 167.874, 350.766 167.508, 349.008 172.230 C 347.462 176.380, 347.293 176.500, 342.959 176.500 C 339.719 176.500, 337.543 177.212, 335 179.102 C 333.075 180.533, 330.717 181.980, 329.760 182.317 C 328.803 182.654, 326.427 185.420, 324.479 188.465 C 322.532 191.509, 320.390 194.053, 319.719 194.118 C 317.371 194.347, 315.494 193.790, 314.765 192.650 C 313.247 190.274, 314.096 180.362, 316.948 167.152 C 318.569 159.644, 320.839 147.425, 321.990 140 C 323.142 132.575, 325.424 121.794, 327.061 116.043 C 330.506 103.937, 333.441 81.205, 332.683 72.500 C 331.919 63.730, 329.462 56.567, 326.764 55.239 C 322.707 53.244, 320.550 53.071, 317.500 54.498 M 503.784 108.712 C 502.290 109.653, 500.614 111.565, 500.059 112.961 C 496.384 122.207, 497.008 145.348, 501.354 161 C 502.804 166.225, 505.085 175.044, 506.421 180.598 C 507.903 186.756, 510.008 192.520, 511.817 195.372 C 513.517 198.054, 515.301 202.797, 515.998 206.491 C 517.335 213.576, 518.980 215.934, 520.940 213.573 C 521.872 212.450, 521.923 202.765, 521.168 170.810 C 520.209 130.265, 520.142 129.343, 517.539 121 C 513.772 108.926, 512.961 107.544, 509.469 107.251 C 507.836 107.114, 505.278 107.771, 503.784 108.712 M 192.715 128.250 C 191.798 128.938, 189.462 134.363, 187.524 140.307 C 183.047 154.039, 182.755 163.488, 186.430 175.767 C 187.767 180.232, 189.168 185.940, 189.545 188.451 C 189.936 191.057, 191.510 194.784, 193.212 197.134 C 194.852 199.398, 197.027 203.671, 198.045 206.630 C 199.063 209.589, 201.382 213.891, 203.198 216.188 C 209.031 223.569, 224.389 239.075, 228 241.230 C 229.925 242.378, 232.643 244.365, 234.039 245.644 C 235.435 246.923, 239.346 248.879, 242.730 249.989 C 246.113 251.100, 251.046 253.343, 253.691 254.974 C 259.748 258.709, 273.751 262.022, 274.992 260.013 C 275.444 259.281, 275.601 258.123, 275.339 257.440 C 274.941 256.404, 264.860 248.033, 249.520 236 C 241.685 229.855, 224.828 211.287, 222.284 206 C 220.829 202.975, 218.888 199.375, 217.972 198 C 217.056 196.625, 215.762 193.925, 215.096 192 C 213.735 188.061, 210.497 170.606, 209.439 161.500 C 209.056 158.200, 207.962 153.925, 207.010 152 C 206.057 150.075, 204.982 145.507, 204.621 141.848 C 203.749 133.014, 202.416 129.511, 199.403 128.138 C 196.203 126.680, 194.778 126.704, 192.715 128.250 M 164.571 320.338 C 161.471 323.438, 160.604 330.218, 161.434 344.880 C 162.501 363.715, 163.922 375.147, 166.054 382.035 C 167.155 385.591, 168.900 392.604, 169.932 397.621 C 170.965 402.637, 173.367 410.287, 175.272 414.621 C 177.176 418.954, 179.043 423.907, 179.419 425.627 C 179.796 427.346, 182.106 431.800, 184.552 435.525 C 186.999 439.249, 189 442.860, 189 443.548 C 189 446.789, 204.500 465.346, 210.500 469.289 C 212.700 470.735, 215.751 473.260, 217.280 474.901 C 218.809 476.542, 221.059 478.201, 222.280 478.588 C 223.501 478.975, 226.300 480.432, 228.500 481.826 C 235.905 486.517, 249.445 493.270, 257 496.039 C 271.653 501.411, 284.519 507.102, 285.820 508.789 C 287.911 511.500, 286.386 517.873, 282.179 524 C 273.530 536.597, 271.799 543.533, 269.950 573 C 268.119 602.191, 270.232 634.135, 275.009 649.500 C 276.548 654.450, 278.568 662.100, 279.496 666.500 C 280.425 670.900, 282.943 678.151, 285.092 682.613 C 287.242 687.075, 289 691.295, 289 691.989 C 289 692.684, 290.408 696.008, 292.129 699.376 C 293.850 702.744, 296.332 708.635, 297.643 712.467 C 298.955 716.298, 301.141 721.038, 302.500 723 C 306.875 729.313, 310.047 740.490, 311.015 753 C 311.505 759.325, 312.409 769.450, 313.024 775.500 C 314.385 788.876, 313.564 809.506, 310.935 828 C 309.879 835.425, 308.123 849.495, 307.031 859.266 C 305.104 876.512, 303.640 884.099, 300.548 892.864 C 299.728 895.189, 298.360 902.358, 297.509 908.795 C 296.657 915.233, 294.851 923.425, 293.496 927 C 292.141 930.575, 289.939 938.450, 288.603 944.500 C 287.266 950.550, 285.193 957.975, 283.996 961 C 281.144 968.205, 279.152 978.830, 278.346 991.133 C 277.752 1000.200, 277.898 1001.511, 279.998 1005.996 L 282.302 1010.915 279.817 1014.208 C 274.140 1021.730, 271.853 1026.970, 270.435 1035.705 C 267.439 1054.167, 269.614 1098.561, 274.120 1110.886 C 275.249 1113.974, 277.413 1121, 278.928 1126.500 C 282.179 1138.295, 297.828 1170.889, 302.926 1176.481 C 303.938 1177.591, 305.554 1180.075, 306.517 1182 C 307.480 1183.925, 309.895 1187.379, 311.884 1189.676 C 313.873 1191.973, 317.975 1197.107, 321 1201.086 C 331.820 1215.317, 342.307 1225.806, 354.311 1234.405 C 366.576 1243.191, 368.010 1242.367, 367.977 1226.550 C 367.965 1220.473, 367.510 1209.875, 366.966 1203 C 364.588 1172.919, 366.090 1147.667, 370.732 1139.719 C 375.197 1132.074, 377.815 1136.615, 379.062 1154.162 C 381.600 1189.876, 382.241 1197.192, 383.603 1206 C 385.124 1215.832, 386.562 1239.609, 387.625 1272.500 C 388.393 1296.261, 386.648 1340.831, 383.978 1365.637 C 382.861 1376.011, 381.069 1398.225, 379.995 1415 C 377.709 1450.701, 377.456 1453.312, 375.005 1466.500 C 372.341 1480.833, 372.176 1481.984, 370.511 1497.837 C 368.813 1513.995, 369.249 1519.462, 372.402 1521.528 C 373.655 1522.349, 381.086 1523.568, 390.513 1524.499 C 405.018 1525.932, 413.597 1527.082, 431.615 1530.007 C 439.805 1531.337, 444.265 1531.258, 446.331 1529.747 C 447.350 1529.002, 449.222 1524.031, 450.946 1517.497 C 452.542 1511.449, 454.736 1503.125, 455.821 1499 C 456.907 1494.875, 458.545 1486.617, 459.462 1480.649 C 460.378 1474.681, 462.062 1466.806, 463.203 1463.149 C 464.345 1459.492, 466.753 1449.525, 468.554 1441 C 470.355 1432.475, 472.714 1422.350, 473.796 1418.500 C 474.877 1414.650, 476.521 1404.789, 477.449 1396.586 C 478.377 1388.384, 480.192 1378.259, 481.482 1374.086 C 484.488 1364.365, 484.652 1363.423, 486.479 1345.356 C 487.322 1337.027, 489.145 1325.777, 490.531 1320.356 C 491.917 1314.935, 494.406 1301.950, 496.062 1291.500 C 497.718 1281.050, 499.930 1267.999, 500.978 1262.499 C 502.237 1255.892, 503.255 1243.673, 503.975 1226.499 C 505.471 1190.829, 506.352 1182.981, 509.109 1180.727 C 513.148 1177.426, 518.974 1181.263, 521.020 1188.571 C 522.751 1194.754, 521.775 1238.706, 519.573 1253.730 C 518.081 1263.911, 518.073 1265.240, 519.481 1267.963 C 522.740 1274.265, 526.007 1274.841, 562 1275.457 C 589.867 1275.933, 590.385 1275.895, 620.500 1271.185 C 630.950 1269.550, 641.975 1267.914, 645 1267.549 C 648.025 1267.183, 653.314 1265.561, 656.753 1263.942 C 660.192 1262.324, 663.376 1261, 663.828 1261 C 664.281 1261, 665.727 1259.855, 667.042 1258.455 L 669.432 1255.911 667.707 1247.531 C 666.759 1242.922, 664.849 1236.965, 663.463 1234.295 C 659.817 1227.268, 655.604 1198.129, 656.334 1185 C 657.118 1170.911, 660.820 1162.259, 665.676 1163.165 C 669.307 1163.843, 670.996 1169.654, 671.006 1181.500 C 671.019 1197.246, 672.455 1207.980, 675.310 1213.681 C 676.637 1216.332, 678.524 1220.975, 679.502 1224 C 680.481 1227.025, 682.180 1230.781, 683.278 1232.347 C 684.376 1233.913, 686.539 1238.584, 688.085 1242.727 C 689.630 1246.869, 691.792 1251.214, 692.889 1252.382 C 693.987 1253.550, 696.037 1257.024, 697.446 1260.102 C 698.855 1263.179, 700.960 1266.553, 702.124 1267.599 C 703.287 1268.644, 705.721 1271.810, 707.532 1274.632 C 711.185 1280.327, 735.279 1304.910, 741.517 1309.307 C 748.063 1313.922, 758.148 1319.909, 763.869 1322.577 C 766.823 1323.954, 770.648 1326.145, 772.369 1327.447 C 774.091 1328.748, 778.401 1330.984, 781.946 1332.416 C 785.491 1333.847, 789.316 1335.840, 790.446 1336.843 C 791.576 1337.847, 794.572 1339.848, 797.105 1341.291 C 803.062 1344.685, 811.038 1352.480, 818.220 1361.928 C 824.396 1370.053, 826.035 1374.972, 829.405 1395.500 C 832.805 1416.206, 832.200 1454.124, 827.957 1486.366 C 825.036 1508.557, 825.506 1518.829, 829.511 1520.366 C 830.194 1520.628, 843.295 1521.131, 858.626 1521.484 C 889.225 1522.189, 890.232 1522.042, 892.949 1516.471 C 893.746 1514.837, 895.372 1508.100, 896.563 1501.500 C 897.754 1494.900, 899.667 1485, 900.813 1479.500 C 901.960 1474, 903.622 1461.175, 904.508 1451 C 905.394 1440.825, 907.222 1427.100, 908.571 1420.500 C 909.920 1413.900, 911.539 1403.100, 912.169 1396.500 C 913.631 1381.193, 913.676 1323.371, 912.232 1316 C 910.588 1307.605, 903.564 1297.080, 890.878 1284 C 884.744 1277.675, 878.565 1270.700, 877.147 1268.500 C 875.730 1266.300, 873.092 1262.811, 871.285 1260.747 C 869.478 1258.683, 868 1256.508, 868 1255.915 C 868 1255.321, 866.577 1251.610, 864.838 1247.668 C 863.099 1243.725, 861.090 1237.800, 860.373 1234.500 C 858.394 1225.386, 858.697 1210.026, 861.074 1199 C 866.824 1172.327, 867.146 1169.070, 866.713 1142 C 866.353 1119.437, 866.053 1115.636, 864.111 1109 C 862.904 1104.875, 861.263 1097.675, 860.464 1093 C 859.666 1088.325, 858.592 1082.700, 858.078 1080.500 C 856.234 1072.615, 846.950 1046.851, 844.997 1044.202 C 843.901 1042.716, 842.156 1038.435, 841.120 1034.690 C 840.083 1030.944, 838.286 1026.869, 837.126 1025.634 C 835.966 1024.399, 833.631 1020.529, 831.938 1017.033 C 826.237 1005.265, 813.172 992, 796.500 981.056 C 793.200 978.890, 789.283 976.174, 787.796 975.021 C 786.309 973.867, 782.558 972.052, 779.460 970.986 C 776.363 969.921, 771.385 967.651, 768.399 965.942 C 765.413 964.234, 759.714 961.769, 755.735 960.465 C 751.756 959.160, 745.126 956.930, 741.002 955.509 C 736.879 954.087, 729.904 952.290, 725.502 951.516 C 721.101 950.741, 713.675 949.194, 709 948.078 C 704.325 946.962, 695.325 945.591, 689 945.033 C 674.990 943.795, 633.912 943.795, 617.500 945.033 C 573.918 948.318, 550.580 946.566, 542.021 939.364 C 540.395 937.996, 536.303 935.795, 532.928 934.472 C 526.487 931.948, 522.316 928.769, 511.224 917.930 C 502.261 909.173, 498.279 904, 495.665 897.721 C 494.469 894.849, 492.262 890.447, 490.761 887.938 C 488.682 884.465, 487.443 879.930, 485.570 868.938 C 484.216 860.997, 482.435 851.396, 481.611 847.603 C 479.943 839.920, 479.362 831.667, 477.984 796.148 C 477.352 779.867, 477.374 771.170, 478.049 769.908 C 478.605 768.870, 480.283 767.396, 481.780 766.633 C 484.968 765.007, 501.098 761.371, 509 760.497 C 517.980 759.504, 525.044 758.019, 533 755.453 C 537.125 754.122, 545.675 751.943, 552 750.610 C 558.325 749.277, 565.975 747.241, 569 746.084 C 572.025 744.928, 578.100 743.020, 582.500 741.844 C 586.900 740.668, 592.975 738.489, 596 737.002 C 601.013 734.537, 623.502 728.048, 632 726.614 C 633.925 726.289, 642.984 725.342, 652.131 724.509 C 668.924 722.981, 674.918 721.604, 679.816 718.149 C 681.292 717.108, 684.750 715.083, 687.500 713.648 C 694.833 709.822, 703.656 701.236, 704.373 697.229 C 705.216 692.520, 702.430 690.019, 696.250 689.937 C 651.210 689.336, 649 688.884, 649 680.266 C 649 674.810, 652.461 673.783, 661.500 676.555 C 665.223 677.697, 671.353 678.098, 685.500 678.125 C 698.510 678.150, 706.911 678.647, 712.146 679.703 C 719.195 681.124, 720.141 681.112, 724.241 679.546 C 730.375 677.203, 738.029 668.227, 744.156 656.193 C 749.696 645.312, 752.450 636.994, 751.502 634.006 C 750.776 631.718, 747.659 631.412, 741.766 633.048 C 735.649 634.747, 730.404 632.749, 724.164 626.342 C 716.671 618.651, 713.737 611.822, 713.737 602.078 C 713.737 593.628, 715.390 589.101, 719.446 586.443 C 721.718 584.955, 724 580.376, 724 577.305 C 724 574.041, 719.384 571.245, 711.913 569.986 C 707.836 569.299, 701.275 567.446, 697.333 565.868 C 693.392 564.291, 689.243 563, 688.114 563 C 684.825 563, 659.168 557.190, 656.241 555.783 C 654.775 555.077, 652.572 552.925, 651.346 551 C 650.121 549.075, 647.721 545.700, 646.014 543.500 C 640.179 535.979, 635.992 529.500, 632.490 522.572 C 630.563 518.761, 628.283 514.865, 627.422 513.914 C 626.561 512.962, 624.538 508.944, 622.927 504.984 C 621.315 501.025, 618.828 496.396, 617.400 494.699 C 615.972 493.002, 613.712 489.338, 612.379 486.557 C 609.314 480.167, 603.557 472.066, 600.696 470.117 C 599.488 469.294, 598.086 467.919, 597.579 467.060 C 597.073 466.202, 594.823 463.605, 592.579 461.288 C 590.336 458.972, 586.475 454.976, 584 452.410 C 581.525 449.843, 577.110 445.967, 574.189 443.795 C 571.268 441.624, 568.645 439.239, 568.360 438.497 C 568.075 437.754, 565.944 436.254, 563.623 435.163 C 561.303 434.072, 557.573 431.677, 555.335 429.840 C 546.121 422.277, 529.283 411.231, 522.500 408.298 C 520.300 407.347, 515.230 404.854, 511.234 402.757 C 505.156 399.569, 502.457 398.794, 494.734 398.022 C 489.655 397.515, 478.075 395.699, 469 393.988 C 453.423 391.050, 451.633 390.913, 437 391.530 C 426.337 391.980, 419.471 392.780, 415 394.095 C 411.425 395.146, 403.715 396.861, 397.867 397.906 C 389.037 399.484, 386.347 400.416, 382.005 403.403 C 379.129 405.381, 376.111 407, 375.299 407 C 374.486 407, 371.922 408.913, 369.600 411.250 C 367.278 413.587, 364.281 416.445, 362.939 417.601 C 359.068 420.934, 354.025 427.174, 351.908 431.250 C 350.324 434.297, 349.406 435, 347.005 435 C 343.334 435, 341.545 431.889, 340.561 423.791 C 340.136 420.298, 338.910 416.672, 337.402 414.451 C 336.046 412.453, 333.604 408.177, 331.973 404.947 C 330.343 401.718, 328.112 398.595, 327.015 398.008 C 325.918 397.421, 324.372 395.717, 323.579 394.220 C 321.540 390.373, 304.194 372.703, 300 370.201 C 298.075 369.053, 295.949 367.213, 295.276 366.112 C 294.538 364.905, 291.442 363.327, 287.479 362.138 C 283.865 361.054, 279.350 358.979, 277.446 357.527 C 275.543 356.075, 271.504 354.034, 268.471 352.990 C 265.438 351.946, 261.053 349.751, 258.728 348.112 C 256.403 346.473, 252.475 344.615, 250 343.984 C 247.525 343.352, 242.800 341.358, 239.500 339.552 C 236.200 337.746, 230.125 335.469, 226 334.491 C 221.875 333.514, 216.019 331.476, 212.986 329.962 C 209.953 328.448, 203.428 326.454, 198.486 325.531 C 193.544 324.609, 186.203 322.536, 182.174 320.927 C 173.084 317.295, 167.791 317.118, 164.571 320.338 M 631.500 358.016 C 628.200 359.023, 619.971 360.786, 613.214 361.934 C 604.827 363.358, 599.750 364.760, 597.214 366.354 C 595.171 367.637, 590.575 369.661, 587 370.850 C 583.425 372.039, 579.150 373.940, 577.500 375.074 C 575.850 376.208, 571.296 378.628, 567.381 380.451 C 563.466 382.275, 559.955 384.263, 559.580 384.870 C 559.205 385.477, 555.796 386.916, 552.005 388.067 C 548.213 389.219, 544.599 390.778, 543.973 391.533 C 541.165 394.915, 547.551 401.364, 557.335 405.024 C 563.929 407.491, 570.949 412.767, 576.227 419.222 C 578.750 422.307, 582.390 425.027, 587.497 427.640 C 594.158 431.049, 595.287 432.043, 597.150 436.144 C 599.356 440.997, 607.211 448, 610.451 448 C 613.928 448, 630.487 432.890, 633.465 427 C 634.438 425.075, 636.049 422.600, 637.045 421.500 C 638.040 420.400, 639.859 416.800, 641.087 413.500 C 642.314 410.200, 644.350 405.925, 645.611 404 C 648.269 399.941, 649.595 394.585, 651.552 380 C 653.575 364.923, 653.543 364.655, 649.155 360.042 C 644.668 355.325, 641.503 354.962, 631.500 358.016 M 210.250 362.610 C 209.563 362.916, 209 363.853, 209 364.692 C 209 367.047, 219.260 376.591, 224.822 379.410 C 227.561 380.798, 230.635 382.961, 231.651 384.217 C 232.668 385.473, 235.412 387.744, 237.750 389.264 C 240.088 390.784, 242 392.469, 242 393.008 C 242 393.547, 243.820 395.306, 246.044 396.917 C 251.521 400.884, 264.514 415.949, 269 423.532 C 270.375 425.857, 272.756 429.501, 274.291 431.629 C 280.695 440.510, 284.043 445.787, 286.342 450.622 C 287.681 453.439, 289.283 456.057, 289.903 456.440 C 291.806 457.616, 294.709 464.211, 295.932 470.138 C 298.177 481.018, 303.973 481.669, 308.601 471.560 L 311.087 466.129 308.597 456.771 C 305.601 445.508, 304.470 442.409, 303.037 441.523 C 302.439 441.153, 300.416 437.804, 298.540 434.079 C 296.664 430.355, 293.911 425.860, 292.422 424.090 C 290.933 422.320, 288.766 419.581, 287.607 418.003 C 275.350 401.316, 256.439 382.369, 247.370 377.688 C 245.648 376.800, 242.868 374.918, 241.190 373.507 C 239.513 372.095, 235.589 370.063, 232.469 368.989 C 229.350 367.916, 225.327 366.129, 223.529 365.018 C 220.225 362.976, 212.552 361.585, 210.250 362.610 M 598.864 419.399 C 597.963 421.378, 597.992 422.285, 598.996 423.496 C 600.159 424.896, 600.475 424.880, 602.187 423.330 C 604.455 421.278, 604.203 417.654, 601.761 417.189 C 600.675 416.982, 599.587 417.812, 598.864 419.399 M 424.756 468.696 C 423.246 469.664, 421.334 471.884, 420.506 473.629 C 417.353 480.273, 419.225 485.963, 425.577 489.037 C 429.489 490.931, 430.291 490.995, 435.173 489.802 C 439.675 488.702, 440.780 487.958, 442.305 485 C 444.786 480.187, 444.061 473.606, 440.675 470.220 C 437.321 466.866, 428.868 466.057, 424.756 468.696 M 484.686 535.958 C 483.138 536.455, 481.338 537.269, 480.686 537.767 C 480.034 538.265, 476.943 539.686, 473.818 540.925 C 468.179 543.160, 462.705 548.152, 454.290 558.734 C 450.093 564.012, 445.016 581.690, 445.007 591.062 C 445 597.932, 447.833 610.525, 451.009 617.735 C 453.725 623.901, 461.200 630.769, 471.857 636.890 C 480.820 642.037, 481.585 642.284, 490.042 642.767 C 495.189 643.060, 500.781 642.789, 503.453 642.116 C 514.528 639.327, 530.491 624.491, 536.871 611.056 C 540.132 604.190, 540.425 602.834, 540.337 595.028 C 540.242 586.620, 538.800 581.494, 532.576 567.451 C 530.720 563.264, 524.528 554.955, 518.322 548.325 C 509.919 539.345, 493.241 533.213, 484.686 535.958 M 487.209 555.009 C 481.238 556.379, 475.972 563.211, 477.987 566.975 C 480.991 572.589, 501.685 571.717, 503.532 565.898 C 503.846 564.909, 503.397 562.735, 502.535 561.067 C 500.051 556.264, 493.327 553.606, 487.209 555.009 M 955.567 675.658 C 949.959 685.694, 949.501 689.042, 949.581 719.500 C 949.664 751.024, 950.953 762.677, 955.942 777 L 958.902 785.500 958.951 728.250 C 958.978 696.763, 958.813 671, 958.585 671 C 958.358 671, 956.999 673.096, 955.567 675.658 M 448.750 974.946 C 444.230 979.579, 443 981.509, 443 983.969 C 443 988.582, 445.495 992.628, 449.119 993.892 C 454.879 995.900, 456.995 995.291, 462.143 990.143 C 466.371 985.915, 467 984.755, 467 981.190 C 467 975.827, 465.259 972.186, 461.855 970.425 C 457.034 967.932, 454.861 968.681, 448.750 974.946 M 657.299 979.078 C 648.857 981.753, 643.991 986.350, 644.025 991.618 C 644.045 994.770, 644.819 996.315, 648.140 999.835 C 650.390 1002.219, 654.154 1004.995, 656.505 1006.002 C 658.856 1007.010, 661.085 1008.328, 661.458 1008.932 C 662.481 1010.587, 669.029 1013.644, 673.154 1014.392 C 679.352 1015.516, 684.409 1014.104, 689.655 1009.785 C 692.320 1007.590, 695.047 1004.828, 695.715 1003.647 C 698.369 998.954, 696.635 987.428, 692.794 984.243 C 691.961 983.552, 687.944 982.563, 683.868 982.047 C 679.792 981.530, 674.442 980.193, 671.979 979.076 C 666.500 976.591, 665.146 976.591, 657.299 979.078 M 863 985.293 C 843.996 995.244, 840.477 1000.193, 847.541 1007.039 C 851.673 1011.045, 860.266 1026.496, 861.979 1033 C 862.630 1035.475, 864.276 1039.421, 865.635 1041.769 C 866.994 1044.117, 868.575 1048.698, 869.148 1051.950 C 870.469 1059.452, 872.700 1061.781, 876.897 1060.043 C 880.749 1058.447, 886.233 1052.899, 890.969 1045.807 C 897.400 1036.178, 899.541 1019.345, 896.424 1002.914 C 894.635 993.484, 893.605 991.279, 888.095 985.089 C 884.555 981.113, 883.644 980.635, 878.834 980.236 C 873.909 979.828, 872.695 980.216, 863 985.293 M 297.826 987.066 C 296.547 988.752, 293.855 992.019, 291.844 994.326 C 289.484 997.033, 287.661 1000.535, 286.703 1004.204 C 285.337 1009.438, 285.355 1010.011, 286.938 1011.444 C 289.763 1014, 292.545 1013.292, 295.559 1009.250 C 297.097 1007.188, 300.075 1003.598, 302.178 1001.272 C 305.599 997.488, 306 996.486, 306 991.722 C 306 983.574, 302.142 981.377, 297.826 987.066 M 355.108 989.902 C 353.669 990.823, 353.731 992.131, 355.845 1005.583 C 357.007 1012.978, 360.633 1021.733, 363.075 1023.040 C 365.435 1024.303, 370.638 1024.264, 373.066 1022.965 C 375.521 1021.651, 375.533 1018.947, 373.096 1015.850 C 372.049 1014.519, 370.694 1011.578, 370.085 1009.315 C 369.392 1006.743, 367.293 1003.493, 364.488 1000.647 C 362.020 998.143, 360 995.448, 360 994.658 C 360 992.161, 356.657 988.911, 355.108 989.902 M 541.686 998.017 C 534.807 1000.081, 534.166 1004.895, 539.499 1014.431 C 544.207 1022.851, 545.840 1024.161, 551.853 1024.347 C 557.756 1024.528, 560.970 1022.150, 562.957 1016.131 C 564.794 1010.564, 564.077 1008.913, 557.990 1004.701 C 545.780 996.250, 546.536 996.561, 541.686 998.017 M 764.323 1019.601 C 763.985 1020.481, 764.337 1021.600, 765.104 1022.086 C 766.984 1023.276, 772.146 1023.206, 774 1021.966 C 775.298 1021.097, 775.239 1020.763, 773.559 1019.481 C 770.921 1017.468, 765.112 1017.544, 764.323 1019.601 M 729.770 1047.449 C 723.576 1052.179, 722.431 1056.065, 725.488 1061.977 C 727.747 1066.345, 739.424 1075.801, 743.504 1076.567 C 750.968 1077.967, 758.352 1074.393, 760.949 1068.123 C 761.949 1065.708, 761.878 1064.664, 760.534 1062.065 C 759.038 1059.173, 757.503 1058.186, 749.730 1055.118 C 748.206 1054.517, 746.489 1052.782, 745.913 1051.262 C 742.893 1043.291, 737.030 1041.906, 729.770 1047.449 M 601.390 1063.729 C 599.625 1064.954, 597 1070.676, 597 1073.295 C 597 1076.579, 599.609 1078.661, 606.739 1081.069 C 612.314 1082.952, 613.078 1082.994, 616.396 1081.608 C 622.327 1079.130, 627.137 1074.962, 626.799 1072.594 C 626.567 1070.966, 624.607 1069.796, 618 1067.338 C 608.396 1063.766, 603.018 1062.598, 601.390 1063.729 M 799.364 1108.061 C 796.945 1108.956, 790.999 1116.696, 791.002 1118.947 C 791.004 1121.608, 798.500 1131.452, 801.264 1132.424 C 803.014 1133.039, 805.264 1132.938, 807.992 1132.121 C 812.851 1130.665, 814.411 1127.667, 813.699 1121.152 C 813.324 1117.723, 812.328 1115.891, 808.986 1112.485 C 804.350 1107.761, 802.488 1106.905, 799.364 1108.061 M 260.945 1155.195 C 258.790 1158.332, 255.203 1162.325, 246.750 1170.996 C 244.688 1173.112, 243 1175.225, 243 1175.691 C 243 1176.158, 239.287 1180.477, 234.750 1185.291 C 230.213 1190.104, 223.575 1197.472, 220 1201.663 C 210.065 1213.312, 194.915 1230.206, 191.899 1233 C 189.272 1235.433, 181.978 1243.542, 173.620 1253.321 C 171.354 1255.972, 168.105 1259.572, 166.399 1261.321 C 164.694 1263.069, 162.270 1266.005, 161.014 1267.845 C 159.757 1269.684, 157.730 1272.267, 156.509 1273.585 C 155.288 1274.902, 152.849 1278.572, 151.088 1281.740 C 149.327 1284.908, 146.930 1289.031, 145.762 1290.903 C 141.331 1298, 142.409 1324.828, 147.510 1334.423 C 148.786 1336.822, 150.949 1341.871, 152.318 1345.642 C 153.687 1349.414, 156.426 1355.174, 158.404 1358.441 C 160.382 1361.709, 162 1364.956, 162 1365.656 C 162 1366.357, 163.291 1368.409, 164.870 1370.215 C 166.448 1372.022, 169.138 1376.280, 170.847 1379.677 C 172.557 1383.075, 174.425 1386.145, 175 1386.500 C 175.575 1386.855, 177.398 1389.826, 179.052 1393.103 C 180.706 1396.379, 183.621 1401.106, 185.530 1403.607 C 187.438 1406.107, 189 1408.713, 189 1409.397 C 189 1410.080, 190.513 1412.409, 192.361 1414.570 C 194.210 1416.732, 197.156 1421.200, 198.909 1424.500 C 203.096 1432.385, 205.726 1436.339, 210.123 1441.362 C 212.115 1443.638, 214.913 1447.818, 216.340 1450.651 C 222.176 1462.241, 229.426 1463.591, 240.336 1455.120 C 245.825 1450.858, 254.191 1445.688, 261 1442.351 C 269.021 1438.421, 278.001 1430.361, 277.994 1427.100 C 277.985 1422.735, 275.926 1416.753, 272.939 1412.412 C 271.378 1410.142, 269.254 1406.084, 268.219 1403.393 C 267.184 1400.702, 265.166 1396.794, 263.735 1394.709 C 262.304 1392.623, 260.372 1388.573, 259.441 1385.709 C 258.510 1382.844, 256.705 1379.099, 255.428 1377.388 C 254.152 1375.676, 251.554 1371.176, 249.655 1367.388 C 247.755 1363.599, 245.222 1358.614, 244.025 1356.308 C 242.828 1354.002, 240.902 1347.477, 239.745 1341.808 C 237.678 1331.676, 237.674 1331.398, 239.478 1325.500 C 240.959 1320.659, 242.393 1318.469, 246.907 1314.163 C 249.983 1311.228, 254.525 1307.661, 257 1306.238 C 259.475 1304.815, 263.525 1302.213, 266 1300.457 C 268.475 1298.700, 272.734 1296.287, 275.463 1295.093 C 278.193 1293.900, 281.151 1292.269, 282.035 1291.468 C 282.920 1290.668, 286.761 1288.440, 290.572 1286.518 C 294.382 1284.597, 298.625 1282.171, 300 1281.128 C 302.275 1279.402, 308.482 1275.378, 321.146 1267.420 C 333.801 1259.467, 337 1256.769, 337 1254.050 C 337 1249.985, 331.037 1240.944, 320.924 1229.676 C 303.408 1210.159, 302.223 1208.678, 295.636 1198.100 C 294.061 1195.570, 291.285 1191.852, 289.468 1189.838 C 287.652 1187.825, 285.620 1185.125, 284.954 1183.838 C 284.288 1182.552, 283.013 1180.671, 282.122 1179.658 C 281.230 1178.646, 277.556 1172.121, 273.957 1165.158 C 266.561 1150.848, 264.837 1149.528, 260.945 1155.195 M 674.500 1276.048 C 672.850 1276.431, 667 1278.422, 661.500 1280.473 C 646.784 1285.962, 638.758 1287.701, 622.287 1288.971 C 605.074 1290.299, 603.256 1290.653, 602.045 1292.915 C 600.916 1295.025, 604.190 1303.368, 609.835 1312.766 C 612.060 1316.470, 614.812 1322.013, 615.950 1325.085 C 617.089 1328.157, 619.108 1331.692, 620.437 1332.941 C 621.766 1334.189, 623.856 1337.751, 625.082 1340.855 C 626.308 1343.960, 628.337 1347.625, 629.591 1349 C 630.845 1350.375, 632.770 1353.605, 633.869 1356.177 C 634.967 1358.749, 637.464 1363.177, 639.417 1366.016 C 648.059 1378.579, 649.663 1394.855, 644.637 1419 C 643.091 1426.425, 640.504 1435.611, 638.888 1439.414 C 637.272 1443.216, 635.260 1449.741, 634.418 1453.914 C 633.575 1458.086, 631.517 1464.375, 629.845 1467.889 C 628.173 1471.403, 625.957 1478.492, 624.921 1483.642 C 623.885 1488.792, 622.135 1494.775, 621.031 1496.938 C 619.027 1500.866, 618.472 1503.978, 618.817 1509.348 L 619 1512.196 624.903 1511.511 C 630.639 1510.846, 654.901 1512.888, 667.215 1515.073 C 671.879 1515.900, 673.484 1515.801, 675.937 1514.533 C 680.104 1512.378, 683.689 1506.755, 686.159 1498.500 C 687.311 1494.650, 689.509 1489.250, 691.044 1486.500 C 692.580 1483.750, 694.585 1478.575, 695.500 1475 C 696.415 1471.425, 698.468 1466.212, 700.061 1463.415 C 701.655 1460.618, 703.653 1455.025, 704.503 1450.987 C 705.352 1446.949, 707.298 1441.587, 708.827 1439.072 C 710.355 1436.557, 712.641 1431.575, 713.905 1428 C 715.170 1424.425, 716.844 1420.487, 717.626 1419.249 C 719.095 1416.922, 727.048 1395.311, 729.677 1386.500 C 731.656 1379.869, 732.742 1340.342, 731.110 1334.358 C 730.407 1331.777, 728.571 1328.934, 726.240 1326.814 C 721.020 1322.068, 706.774 1306.116, 704.525 1302.500 C 703.499 1300.850, 701.832 1298.909, 700.820 1298.186 C 699.808 1297.464, 697.431 1294.539, 695.538 1291.686 C 690.239 1283.701, 683.814 1277.071, 680.500 1276.169 C 678.850 1275.719, 676.150 1275.665, 674.500 1276.048 M 275.500 1451.701 C 272.200 1453.061, 267.925 1455.394, 266 1456.885 C 264.075 1458.376, 260.415 1460.800, 257.867 1462.271 C 255.319 1463.743, 252.979 1465.614, 252.666 1466.428 C 252.353 1467.243, 250.276 1468.839, 248.049 1469.975 C 244.795 1471.635, 244 1472.582, 244 1474.798 C 244 1479.193, 246.585 1481.823, 252.631 1483.581 C 257.946 1485.126, 258.255 1485.112, 260.334 1483.220 C 264.469 1479.459, 266.531 1478.894, 271.701 1480.109 C 274.341 1480.729, 277.281 1481.633, 278.236 1482.118 C 280.843 1483.442, 280.873 1483.399, 281.198 1477.750 L 281.500 1472.500 286.477 1472 C 290.518 1471.594, 291.690 1471.030, 292.712 1469 C 295.557 1463.349, 293.457 1453.840, 288.672 1450.704 C 285.301 1448.496, 282.817 1448.684, 275.500 1451.701 M 263 1489.878 C 263 1490.360, 263.675 1491.315, 264.500 1492 C 265.697 1492.993, 266.303 1492.993, 267.500 1492 C 269.823 1490.072, 269.287 1489, 266 1489 C 264.350 1489, 263 1489.395, 263 1489.878 M 616.153 1524.695 C 615.412 1524.990, 613.500 1527.992, 611.904 1531.366 C 608.227 1539.136, 607.901 1546.341, 611.145 1548.078 C 613.925 1549.566, 631.532 1548.868, 633.196 1547.204 C 634.975 1545.425, 639.828 1545.735, 646.741 1548.070 C 654.047 1550.537, 655.994 1549.891, 658.997 1544.006 C 661.690 1538.728, 661.522 1536.368, 658.217 1533.064 C 655.033 1529.879, 646.353 1527.869, 634.327 1527.532 C 629.606 1527.399, 626.285 1526.761, 624.612 1525.665 C 622.107 1524.024, 618.791 1523.644, 616.153 1524.695 M 364.066 1544.420 C 362.755 1546.001, 362.717 1546.549, 363.233 1556.519 C 363.433 1560.380, 363.950 1564.110, 364.381 1564.808 C 365.396 1566.450, 397.527 1566.262, 410.500 1564.538 C 417.855 1563.561, 420.368 1562.750, 424.250 1560.100 C 429.130 1556.770, 430.170 1554.216, 427.538 1552.031 C 425.374 1550.236, 416.322 1552.389, 413.964 1555.261 C 412.477 1557.072, 411.779 1557.289, 410.313 1556.398 C 409.316 1555.792, 408.346 1554.217, 408.159 1552.898 C 407.325 1547.034, 403.085 1545.882, 390.443 1548.083 C 385.154 1549.004, 383.742 1548.918, 381.009 1547.505 C 377.295 1545.584, 369.250 1543.027, 366.872 1543.011 C 365.977 1543.005, 364.715 1543.639, 364.066 1544.420 M 827.909 1545.740 C 826.739 1548.817, 827.490 1554.567, 829.201 1555.624 C 830.817 1556.623, 834 1552.260, 834 1549.044 C 834 1546.581, 831.421 1543, 829.647 1543 C 829.264 1543, 828.482 1544.233, 827.909 1545.740" stroke="none" fill="#1a1a1a" fill-rule="evenodd"/>
</svg>