<svg shape-rendering="geometricPrecision" xmlns="http://www.w3.org/2000/svg" width="792" height="1600" viewBox="0 0 792 1600" version="1.1">
	<rect x="0" y="0" width="100%" height="100%" fill="#ffffff" />
	<path d="M 316.500 86.404 C 310.610 88.274, 298.361 96.575, 295.690 100.506 C 294.413 102.385, 292.189 104.850, 290.747 105.984 C 289.306 107.118, 287.172 110.598, 286.005 113.717 C 284.838 116.836, 282.292 121.966, 280.347 125.116 C 277.461 129.793, 276.547 132.648, 275.369 140.672 C 274.576 146.077, 273.156 153.425, 272.213 157 C 269.903 165.766, 270.034 205.586, 272.412 217 C 273.271 221.125, 274.434 229.225, 274.996 235 C 276.739 252.905, 279.095 266.265, 281.536 272.074 C 282.824 275.140, 284.591 281.890, 285.463 287.074 C 286.469 293.056, 288.158 298.692, 290.086 302.500 C 293.884 309.998, 297 323.073, 297 331.505 C 297 337.665, 296.820 338.136, 292.686 342.791 C 290.313 345.462, 286.183 351.665, 283.509 356.574 C 279.120 364.629, 278.643 366.134, 278.624 372 C 278.606 377.713, 279.072 379.337, 282.475 385.407 C 284.605 389.206, 288.753 395.009, 291.691 398.303 C 300.381 408.041, 300.094 411.173, 290.203 414.579 C 286.853 415.733, 282.400 417.979, 280.306 419.571 C 271.174 426.515, 259.637 440.027, 254.875 449.357 C 253.431 452.186, 249.962 456.637, 247.167 459.250 L 242.086 464 234.793 464.011 C 226.436 464.023, 220.023 465.718, 212.656 469.860 C 209.820 471.454, 205.132 473.526, 202.237 474.464 C 194.938 476.829, 186.042 483.019, 180.212 489.790 C 173.893 497.128, 173.695 497.541, 170.547 509.999 C 168.446 518.315, 168.029 521.757, 168.542 526.548 C 169.472 535.232, 169.206 535.366, 149.596 536.112 C 140.743 536.449, 131.475 537.273, 129 537.942 C 122.442 539.716, 105.105 548.734, 100.747 552.638 C 98.683 554.487, 96.557 556, 96.023 556 C 95.164 556, 85.240 565.697, 75.415 576.136 C 73.533 578.136, 71.292 581.511, 70.436 583.636 C 69.579 585.761, 67.127 591.100, 64.987 595.500 C 61.746 602.161, 60.897 605.257, 59.911 614 C 58.655 625.144, 59.217 643.251, 61.091 651.990 C 61.689 654.778, 63.300 658.391, 64.671 660.021 C 66.042 661.650, 68.443 665.624, 70.006 668.851 C 73.601 676.273, 84.750 689.077, 90.604 692.508 C 93.065 693.951, 96.595 696.461, 98.447 698.087 C 100.299 699.713, 104.367 701.922, 107.487 702.996 C 110.608 704.069, 115.365 706.565, 118.058 708.543 C 121.587 711.133, 126.667 713.261, 136.228 716.155 C 150.473 720.466, 148.677 720.348, 170.544 718.419 C 176.018 717.936, 177.852 718.117, 178.778 719.232 C 179.433 720.022, 180.396 725.355, 180.917 731.084 C 182.433 747.733, 184.505 752.339, 195.324 763.107 C 200.349 768.108, 206.590 773.279, 209.193 774.598 C 211.796 775.917, 215.405 778.283, 217.213 779.855 C 221.036 783.180, 222.639 783.707, 242 788.011 C 267.377 793.653, 270.791 794.849, 276.974 800.267 C 289.960 811.647, 294.332 815.610, 295.869 817.393 C 296.766 818.433, 299.412 821.486, 301.750 824.176 C 304.087 826.866, 306 829.531, 306 830.099 C 306 832.887, 297.881 843.193, 286.383 855 C 272.197 869.566, 270.410 875.697, 275.578 892.057 C 277.775 899.013, 279.030 901.158, 284.078 906.584 C 288.900 911.767, 290 913.582, 290 916.352 C 290 918.224, 289.372 920.276, 288.605 920.913 C 287.838 921.549, 281.073 923.630, 273.570 925.536 C 266.068 927.442, 257.808 930.075, 255.215 931.387 C 252.622 932.699, 247.306 934.723, 243.402 935.883 C 239.499 937.044, 234.774 939.109, 232.902 940.471 C 231.031 941.833, 227.281 944.197, 224.570 945.724 C 221.858 947.251, 217.583 950.344, 215.070 952.599 C 212.556 954.853, 209.759 957.103, 208.854 957.599 C 204.246 960.121, 174 992.469, 174 994.874 C 174 995.343, 171.828 998.669, 169.173 1002.265 C 166.519 1005.861, 163.549 1010.893, 162.574 1013.446 C 161.599 1015.999, 159.328 1020.534, 157.529 1023.522 C 155.719 1026.527, 153.278 1032.877, 152.067 1037.728 C 150.862 1042.553, 149.064 1047.887, 148.072 1049.581 C 143.939 1056.635, 142.434 1064.720, 140.966 1087.735 C 140.241 1099.110, 140.253 1109.103, 141.007 1121.114 C 142.317 1141.991, 143.946 1150.968, 147.817 1158.642 C 149.442 1161.864, 151.736 1167.744, 152.916 1171.709 C 154.095 1175.674, 156.181 1180.250, 157.550 1181.877 C 158.920 1183.505, 160.939 1186.869, 162.038 1189.353 C 164.341 1194.560, 175.500 1211.527, 179.967 1216.615 C 181.635 1218.515, 183 1220.519, 183 1221.067 C 183 1222.182, 205.378 1244.443, 212.294 1250.208 C 214.741 1252.247, 218.488 1254.927, 220.621 1256.162 C 222.755 1257.398, 226.847 1260.160, 229.716 1262.299 C 232.584 1264.438, 237.759 1267.065, 241.216 1268.137 C 244.672 1269.208, 250.425 1271.570, 254 1273.386 C 260.729 1276.804, 269.113 1279.366, 277.135 1280.458 C 284.008 1281.393, 285.354 1283.400, 284.675 1291.706 C 284.370 1295.443, 283.428 1301.425, 282.581 1305 C 281.685 1308.782, 281.033 1316.172, 281.021 1322.672 L 281 1333.845 275.812 1338.383 C 272.958 1340.880, 267.896 1344.365, 264.562 1346.129 C 254.912 1351.235, 238.779 1365.949, 235.027 1373.067 C 233.992 1375.029, 232.404 1377.250, 231.496 1378.003 C 230.589 1378.756, 227.418 1383.499, 224.450 1388.542 C 221.482 1393.585, 218.392 1398.260, 217.583 1398.931 C 216.774 1399.602, 215.161 1403.011, 213.998 1406.506 C 212.835 1410.002, 210.516 1414.749, 208.845 1417.056 C 207.173 1419.363, 204.966 1423.692, 203.939 1426.676 C 202.912 1429.661, 200.705 1434.129, 199.033 1436.606 C 197.362 1439.082, 194.811 1444.797, 193.365 1449.304 C 191.918 1453.812, 189.701 1459.300, 188.437 1461.500 C 187.173 1463.700, 184.550 1470.937, 182.608 1477.583 C 180.666 1484.228, 178.671 1490.753, 178.173 1492.083 C 177.675 1493.412, 176.944 1497.140, 176.548 1500.366 C 175.863 1505.941, 176.038 1506.650, 180.093 1514.684 C 183.062 1520.567, 185.901 1524.526, 189.430 1527.704 C 196.380 1533.963, 197.366 1534.532, 207.557 1538.168 C 215.565 1541.025, 217.598 1541.349, 227 1541.268 C 236.314 1541.187, 238.675 1540.772, 247.906 1537.588 C 260.938 1533.095, 262.593 1533.057, 264.797 1537.210 C 270.949 1548.805, 286.659 1559.189, 305 1563.784 C 314.058 1566.054, 317.506 1566.405, 330.103 1566.342 C 347.022 1566.258, 353.020 1565.115, 362 1560.263 C 375.843 1552.782, 377.575 1551.336, 381.387 1544.084 C 387.627 1532.209, 392.133 1530.967, 409.321 1536.380 C 415.643 1538.371, 422.857 1540, 425.352 1540 C 430.873 1540, 443.097 1534.687, 450.455 1529.089 C 453.230 1526.978, 456.507 1524.731, 457.737 1524.097 C 458.968 1523.462, 461.550 1520.481, 463.475 1517.472 C 465.400 1514.462, 467.391 1512, 467.898 1512 C 468.406 1512, 469.815 1509.947, 471.030 1507.438 C 472.926 1503.521, 473.179 1501.646, 472.817 1494.188 C 472.442 1486.479, 471.986 1484.768, 468.770 1479 C 466.776 1475.425, 464.207 1468.706, 463.062 1464.070 C 461.916 1459.433, 459.821 1453.663, 458.406 1451.249 C 456.990 1448.834, 454.737 1443.636, 453.397 1439.697 C 452.057 1435.758, 449.692 1430.952, 448.141 1429.017 C 446.590 1427.083, 444.335 1422.533, 443.131 1418.907 C 441.927 1415.281, 439.593 1410.481, 437.946 1408.241 C 436.298 1406, 434.049 1401.548, 432.948 1398.348 C 431.846 1395.145, 429.435 1390.949, 427.586 1389.014 C 425.738 1387.081, 423.350 1383.475, 422.279 1381 C 421.208 1378.525, 418.460 1374.339, 416.172 1371.697 C 413.885 1369.056, 411.487 1365.911, 410.844 1364.708 C 409.449 1362.102, 384.292 1337, 383.075 1337 C 380.539 1337, 378.679 1331.155, 378.004 1321.064 C 377.503 1313.581, 376.710 1309.333, 375.284 1306.500 C 374.177 1304.300, 372.706 1300.025, 372.014 1297 C 371.322 1293.975, 369.851 1289.352, 368.745 1286.726 C 366.826 1282.173, 366.814 1281.863, 368.483 1280.019 C 369.445 1278.956, 373.218 1277.116, 376.866 1275.931 C 380.515 1274.745, 384.965 1272.940, 386.756 1271.918 C 388.546 1270.897, 393.721 1268.929, 398.256 1267.545 C 402.790 1266.161, 408.166 1263.896, 410.202 1262.511 C 412.238 1261.126, 417.188 1258.432, 421.202 1256.523 C 425.216 1254.613, 430.579 1251.577, 433.121 1249.776 C 435.662 1247.974, 439.037 1245.717, 440.621 1244.760 C 448.764 1239.839, 458.726 1231.494, 466.413 1223.152 C 471.136 1218.028, 475 1213.403, 475 1212.875 C 475 1212.346, 476.939 1209.796, 479.309 1207.207 C 485.314 1200.646, 490.201 1193.607, 493.985 1186.068 C 495.760 1182.530, 498.267 1178.030, 499.555 1176.068 C 500.843 1174.106, 502.862 1168.900, 504.042 1164.500 C 505.222 1160.100, 507.054 1154.996, 508.114 1153.159 C 514.038 1142.884, 516.715 1122.026, 515.643 1094.500 C 514.739 1071.289, 513.463 1062.814, 509.550 1054 C 507.718 1049.875, 505.457 1042.900, 504.525 1038.500 C 503.456 1033.452, 501.449 1028.101, 499.088 1024 C 497.030 1020.425, 494.597 1015.475, 493.682 1013 C 492.092 1008.701, 483.881 996.869, 478.067 990.500 C 476.561 988.850, 474.353 985.784, 473.161 983.688 C 469.528 977.296, 455.415 963.007, 448 958.211 C 444.975 956.255, 441.904 953.821, 441.176 952.802 C 440.448 951.784, 436.623 949.329, 432.676 947.346 C 428.729 945.364, 424.035 942.462, 422.246 940.898 C 420.456 939.333, 416.406 937.353, 413.246 936.496 C 410.085 935.640, 405.250 933.993, 402.500 932.837 C 391.624 928.264, 386.809 927.019, 375.587 925.882 C 365.794 924.889, 363.742 924.386, 362.875 922.767 C 361.554 920.299, 364.715 915.551, 372.810 907.844 C 381.399 899.666, 383.370 892.197, 380.950 877 C 380.380 873.425, 378.961 868.700, 377.796 866.500 C 376.631 864.300, 374.033 859.279, 372.024 855.343 C 370.014 851.407, 367.050 846.644, 365.435 844.758 C 363.821 842.873, 361.563 840.244, 360.418 838.915 C 359.272 837.587, 356.910 835.259, 355.168 833.742 C 352.402 831.335, 352 830.351, 352 825.992 C 352 820.454, 351.762 820.770, 362.539 812 C 366.256 808.975, 372.268 803.850, 375.899 800.610 C 382.089 795.087, 387.469 791.985, 394.480 789.896 C 396.472 789.302, 400.700 789.548, 407.236 790.636 L 417.012 792.265 429.099 788.428 C 440.727 784.735, 441.505 784.309, 449.625 777.191 C 458.164 769.706, 460.730 766.003, 464.032 756.407 C 465.014 753.552, 467.403 748.913, 469.340 746.097 C 471.399 743.103, 473.373 738.593, 474.094 735.238 C 474.771 732.082, 475.741 728.670, 476.248 727.656 C 477.865 724.426, 485.554 721.878, 496.839 720.832 C 511.617 719.463, 533.893 712.327, 535.365 708.492 C 535.640 707.775, 538.599 705.732, 541.942 703.950 C 553.288 697.903, 571.579 680.657, 575.255 672.542 C 576.490 669.815, 578.265 666.215, 579.200 664.542 C 585.756 652.812, 586.961 646.831, 586.960 626 C 586.960 609.198, 585.832 601.146, 582.642 595.162 C 581.275 592.598, 578.832 587.800, 577.213 584.500 C 572.746 575.398, 548.121 551.262, 537.500 545.576 C 534.750 544.104, 530.724 541.828, 528.554 540.518 C 523.030 537.184, 514.780 536.002, 496.918 535.985 C 476.440 535.966, 476.541 536.020, 476.366 524.969 C 476.177 513.103, 472.981 501.610, 468.594 497.025 C 466.738 495.086, 464.461 491.992, 463.532 490.149 C 461.686 486.485, 453.069 478.052, 447.208 474.174 C 445.169 472.825, 442.360 470.668, 440.968 469.382 C 436.936 465.658, 412.340 457.931, 401.532 456.992 C 390.614 456.044, 384.701 453.836, 381.831 449.636 C 379.103 445.644, 374.749 440.908, 362.674 428.796 C 357.353 423.459, 353 418.805, 353 418.455 C 353 418.105, 354.575 415.978, 356.500 413.729 C 358.425 411.480, 360 409.196, 360 408.654 C 360 408.112, 361.979 404.480, 364.397 400.584 C 375.235 383.125, 375.793 363.177, 365.787 350.888 C 360.793 344.754, 355 333.421, 355 329.785 C 355 328.108, 355.884 325.305, 356.965 323.556 C 358.046 321.808, 359.816 316.580, 360.899 311.938 C 361.982 307.297, 364.228 300.575, 365.891 297 C 368.206 292.022, 369.408 287.030, 371.024 275.686 C 372.185 267.538, 373.765 259.084, 374.535 256.900 C 376.780 250.537, 378.755 238.584, 380.137 223 C 381.791 204.357, 381.824 162.866, 380.194 153.188 C 378.421 142.663, 369.035 119.549, 362.536 109.706 C 356.900 101.168, 346.678 91.477, 338.852 87.250 C 334.030 84.646, 323.314 84.240, 316.500 86.404 M 317.617 105.641 C 309.567 109.015, 300.573 118.030, 298.092 125.210 C 297.087 128.120, 294.858 133.200, 293.140 136.500 C 289.491 143.509, 288.448 149.996, 287.513 171.500 C 286.440 196.205, 289.803 229.452, 295.429 249.741 C 296.228 252.623, 297.600 261.173, 298.477 268.741 C 299.871 280.763, 300.516 283.371, 303.590 289.402 C 305.707 293.556, 307.887 300.091, 309.064 305.812 C 311.212 316.249, 312.136 318, 315.500 318 C 319.372 318, 320.184 315.925, 319.078 308.854 C 318.531 305.359, 317.391 294.800, 316.543 285.388 C 315.696 275.976, 313.910 262.926, 312.575 256.388 C 308.569 236.772, 307.609 223.791, 307.552 188.500 C 307.494 151.618, 307.280 152.950, 314.921 142.606 C 320.084 135.617, 323.635 134.615, 330.742 138.140 C 336.095 140.795, 338.194 144.160, 340.013 153 C 340.635 156.025, 341.995 159.697, 343.035 161.159 C 346.500 166.033, 347.315 172.178, 346.702 188.832 C 346.120 204.645, 345.281 210.073, 343.319 210.727 C 341.338 211.387, 340.794 207.596, 340.069 188.078 L 339.348 168.657 334.424 164.258 C 325.622 156.395, 319.923 155.474, 318.370 161.664 C 317.660 164.490, 318.495 185.611, 320.042 204 C 320.864 213.772, 321.470 216.386, 324.076 221.400 C 328.564 230.036, 333.664 254.043, 334.549 270.697 C 335.379 286.310, 333.637 305.603, 330.901 311.104 C 329.554 313.813, 329.393 314.993, 330.254 315.854 C 332.044 317.644, 333.558 317.258, 339.395 313.524 C 345.536 309.595, 345.970 308.675, 348.595 294 C 349.530 288.775, 351.359 281.366, 352.661 277.535 C 356.683 265.696, 363.764 195.168, 362.655 178 C 361.757 164.116, 356.828 141.213, 353.240 134.254 C 351.608 131.089, 349.700 126.700, 349.001 124.500 C 346.929 117.981, 344.386 113.608, 340.325 109.579 C 333.174 102.486, 327.493 101.500, 317.617 105.641 M 315.898 345.287 C 311.749 348.080, 310.477 350.602, 308.518 359.914 C 306.398 369.992, 306.615 375.679, 309.465 384.698 C 311.781 392.032, 317.342 402.690, 320.559 405.963 C 322.386 407.821, 328.914 407.613, 332.864 405.570 C 334.502 404.723, 336.861 402.561, 338.105 400.765 C 339.350 398.969, 341.818 395.858, 343.590 393.852 C 349.515 387.142, 350.839 370.532, 346.210 361 C 343.117 354.633, 335.761 345.764, 332.371 344.316 C 327.498 342.235, 319.754 342.692, 315.898 345.287 M 309.789 433.345 C 303.587 434.941, 299.988 436.503, 297.289 438.770 C 295.205 440.520, 291.131 443.350, 288.235 445.059 C 285.339 446.767, 282.189 449.287, 281.235 450.658 C 280.281 452.030, 277.334 455.833, 274.687 459.109 C 265.598 470.354, 264.046 477.670, 268.449 488.500 L 270.888 494.500 279.194 495.054 C 286.314 495.529, 288.206 496.065, 292.446 498.804 C 298.536 502.739, 300.724 502.795, 305.331 499.134 C 307.314 497.558, 310.188 495.725, 311.718 495.060 C 313.248 494.395, 315.850 491.747, 317.500 489.176 C 320.033 485.228, 321.045 484.460, 324 484.241 C 329.990 483.797, 334.923 487.490, 339.406 495.774 C 343.153 502.698, 343.608 503.132, 350.557 506.431 C 354.541 508.322, 358.099 510.351, 358.463 510.940 C 358.827 511.529, 359.614 516.316, 360.211 521.579 C 361.553 533.388, 362.957 535.606, 368.440 534.577 C 370.833 534.128, 373.936 532.313, 376.864 529.648 C 384.440 522.754, 392.561 516.986, 396.137 515.961 C 401.174 514.516, 408.466 514.802, 413.018 516.624 C 417.234 518.311, 419.227 521.031, 420.468 526.792 C 420.858 528.602, 422.937 532.117, 425.089 534.602 C 429.859 540.114, 430.191 544.111, 426.415 550.554 C 423.036 556.321, 418.574 560, 414.961 560 C 410.985 560, 401.651 556.377, 399.498 553.998 C 397.257 551.521, 398.707 549.424, 403.319 548.473 C 405.069 548.112, 408.240 546.692, 410.366 545.318 C 413.861 543.058, 414.180 542.499, 413.692 539.490 C 412.858 534.347, 410.220 531, 407.002 531 C 404.670 531, 403.647 531.985, 400.514 537.244 C 398.469 540.678, 396.568 545.065, 396.290 546.994 C 396.011 548.922, 394.895 552.406, 393.809 554.736 C 390.891 560.998, 391.987 564.099, 399.881 571.916 C 403.538 575.537, 407.581 579.322, 408.865 580.326 C 411.270 582.206, 411.342 583.643, 409.425 591.406 C 408.581 594.824, 410.764 597, 415.036 597 C 419.167 597, 421.076 594.114, 420.866 588.187 C 420.656 582.242, 421.835 580.416, 426.764 579.055 C 431.041 577.874, 432 578.341, 432 581.609 C 432 582.979, 432.672 585.399, 433.493 586.987 C 435.520 590.906, 440.802 591.627, 452.504 589.580 C 463.635 587.633, 479.157 587.541, 485.285 589.385 C 492.084 591.431, 498.442 595.638, 506.731 603.572 C 512.992 609.566, 514.492 611.671, 516.560 617.368 C 519.643 625.861, 519.629 630.272, 516.493 639.615 C 514.321 646.086, 513.087 647.980, 507.243 653.811 C 501.920 659.123, 498.197 661.694, 489.563 666.020 L 478.626 671.500 465.563 671.500 C 457.648 671.500, 451.121 671.008, 449 670.250 C 447.075 669.563, 442.085 665.680, 437.912 661.622 C 426.079 650.117, 424.297 649.818, 420.377 658.683 C 417.490 665.210, 417.462 666.069, 419.996 670.226 C 422.207 673.852, 422.511 677.734, 420.997 683.007 C 420.445 684.928, 419.532 691.380, 418.969 697.344 C 418.292 704.511, 417.269 709.513, 415.951 712.096 C 414.855 714.245, 413.258 719.691, 412.403 724.198 C 410.496 734.253, 409.369 736.501, 403.288 742.393 C 396.098 749.359, 394.570 749.413, 388.708 742.910 C 382.953 736.527, 380.385 731.839, 377.919 723.217 C 375.873 716.062, 376.186 714.242, 379.610 713.383 C 384.264 712.215, 386.988 713.775, 389.406 718.994 C 391.891 724.358, 393.769 727, 395.097 727 C 397.166 727, 399.138 720.039, 400.960 706.303 C 402.040 698.161, 403.193 690.583, 403.523 689.462 C 403.904 688.165, 403.323 686.409, 401.923 684.629 C 398.981 680.889, 396.115 679.911, 393 681.584 C 388.614 683.940, 379.212 694.313, 376.308 700 C 373.944 704.630, 372.673 705.895, 368.267 708 C 365.389 709.375, 362.420 711.400, 361.670 712.500 C 359.817 715.218, 357 723.811, 357 726.748 C 357 729.740, 362.042 737.181, 365.959 739.971 C 367.583 741.127, 370.170 744.253, 371.706 746.917 C 379.221 759.943, 381.681 762.701, 389.198 766.532 C 396.306 770.155, 396.577 770.208, 404.467 769.522 C 416.467 768.480, 427.439 763.458, 433.823 756.085 C 436.484 753.013, 439.493 749.150, 440.510 747.500 C 441.528 745.850, 443.676 743.081, 445.283 741.346 C 447.394 739.069, 448.997 735.356, 451.049 727.993 L 453.892 717.794 451.488 711.147 C 450.072 707.232, 448.151 703.883, 446.814 703 C 440.927 699.110, 439.331 694.812, 442.571 691.571 C 445.302 688.841, 448.595 689.763, 459.480 696.305 L 466.461 700.500 481.980 700.360 C 500.911 700.189, 507.730 699.032, 513.303 695.047 C 515.611 693.396, 520.185 691.126, 523.467 690.002 C 526.749 688.878, 530.574 686.915, 531.967 685.640 C 533.360 684.365, 535.954 682.325, 537.732 681.106 C 542.461 677.863, 552.086 667.487, 554.986 662.506 C 556.369 660.131, 558.363 656.984, 559.417 655.514 C 565.876 646.508, 566.799 610.704, 560.859 599.567 C 559.666 597.330, 557.296 592.774, 555.592 589.442 C 551.786 581.999, 540.520 570.447, 535.253 568.589 C 533.173 567.856, 529.235 565.837, 526.501 564.103 C 519.690 559.783, 511.939 557.933, 488.268 554.976 C 476.527 553.510, 466.247 556.158, 457.108 563.002 C 453.543 565.672, 448.715 568.338, 446.381 568.926 C 443.734 569.592, 441.913 570.699, 441.543 571.865 C 440.248 575.944, 432 580.084, 432 576.655 C 432 573.815, 434.185 570.237, 436.587 569.142 C 437.889 568.549, 439.752 566.378, 440.727 564.317 C 441.702 562.256, 444.075 559.512, 446 558.220 C 447.925 556.927, 450.126 554.662, 450.891 553.185 C 451.656 551.708, 453.839 548.761, 455.742 546.636 C 459.144 542.836, 459.195 542.644, 458.841 535.136 C 458.512 528.156, 457.970 526.475, 452.529 515.569 C 447.636 505.760, 445.312 502.355, 439.459 496.426 C 435.544 492.460, 430.351 488.215, 427.920 486.993 C 425.489 485.771, 422.057 483.690, 420.294 482.368 C 414.439 477.980, 397.983 476.491, 391.151 479.732 C 389.143 480.685, 384.800 484.221, 381.500 487.591 C 378.200 490.961, 374.081 494.445, 372.347 495.335 C 370.612 496.224, 368.213 498.537, 367.015 500.476 C 362.454 507.855, 361.329 504.417, 362.976 488.135 C 364.375 474.299, 364.424 474.631, 358.747 459.500 C 355.878 451.854, 354.454 449.570, 349.275 444.316 C 342.443 437.386, 338.174 434.877, 329.296 432.577 C 321.582 430.578, 320.355 430.626, 309.789 433.345 M 228.500 486.577 C 227.400 486.820, 224.187 487.486, 221.360 488.057 C 218.091 488.717, 213.906 490.711, 209.860 493.536 C 206.362 495.979, 203.016 497.983, 202.424 497.989 C 200.688 498.007, 197.704 501.929, 192.527 511 C 187.823 519.242, 187.662 519.795, 187.206 529.223 C 186.742 538.805, 186.788 539.053, 190.368 546.298 C 193.072 551.772, 194 554.920, 194 558.625 C 194 566.853, 190.104 568.234, 182.163 562.820 C 167.419 552.768, 169.621 553.636, 159.483 553.878 C 146.575 554.187, 126.108 559.504, 119.356 564.302 C 116.685 566.200, 112.925 568.541, 111 569.503 C 107.823 571.092, 105.125 573.393, 96.676 581.717 C 91.392 586.923, 85.013 597.848, 83.495 604.290 C 81.245 613.842, 80.602 627.422, 81.922 637.500 C 83.629 650.538, 84.605 653.423, 89.047 658.554 C 91.237 661.084, 93.672 664.357, 94.458 665.827 C 98.558 673.492, 120.756 687.905, 132.432 690.483 C 136.319 691.341, 142.650 693.496, 146.500 695.272 L 153.500 698.500 178.485 698.500 L 203.470 698.500 204.853 701.383 C 206.647 705.122, 204.951 711.331, 201.522 713.578 C 196.564 716.826, 197.642 724.508, 205.103 739.099 C 208.425 745.597, 211.098 749.181, 216.035 753.763 C 221.879 759.186, 223.484 760.092, 231.225 762.336 C 235.985 763.716, 241.932 766.048, 244.440 767.517 C 250.483 771.059, 260.133 772.095, 262.991 769.508 C 264.068 768.534, 265.237 766.783, 265.589 765.618 C 266.649 762.113, 270.159 759, 273.052 759 C 276.421 759, 277.637 760.431, 278.848 765.817 C 279.968 770.804, 286.944 780.264, 291.976 783.622 C 293.914 784.915, 296.571 787.554, 297.879 789.487 C 299.187 791.419, 300.601 793, 301.021 793 C 301.440 793, 304.116 795.097, 306.967 797.661 C 314.154 804.122, 322.749 809.156, 327.500 809.686 C 330.916 810.067, 332.275 809.575, 336.807 806.316 C 342.948 801.901, 366.160 779.438, 367.855 776.271 C 368.485 775.094, 369 772.131, 369 769.686 C 369 765.659, 368.594 764.909, 364.684 761.704 C 362.310 759.759, 358.948 755.504, 357.213 752.247 C 353.444 745.176, 345.125 737, 341.699 737 C 340.387 737, 336.655 737.921, 333.407 739.046 C 330.158 740.172, 323 741.745, 317.500 742.541 C 303.664 744.546, 302.988 744.783, 298.713 749.140 C 294.857 753.070, 291.428 754.028, 289.200 751.800 C 286.751 749.351, 287.871 746.219, 292.249 743.278 C 296.179 740.639, 296.559 739.987, 297.312 734.598 C 298.327 727.333, 295.357 716.157, 291.758 713.697 C 290.516 712.849, 287.731 710.545, 285.568 708.577 C 283.406 706.610, 280.778 705, 279.729 705 C 277.950 705, 277.867 705.560, 278.504 713.250 C 279.204 721.705, 277.901 732.437, 275.666 736.630 C 274.091 739.583, 263.275 751, 262.051 751 C 261.514 751, 258.061 747.400, 254.378 743 C 248.407 735.867, 247.311 735, 244.264 735 C 239.863 735, 235.634 730.901, 233.851 724.908 C 232.067 718.913, 232.323 708.378, 234.369 703.580 C 236.280 699.096, 243.433 689.112, 249.940 681.845 C 253.909 677.412, 254.425 676.269, 254.801 671.077 C 255.177 665.876, 254.977 665.097, 252.888 663.634 C 251.404 662.595, 248.519 662, 244.961 662 C 241.885 662, 236.727 661.512, 233.499 660.915 C 225.032 659.350, 211.635 661.906, 201.009 667.115 C 185.106 674.910, 170.171 674.757, 158.749 666.682 C 155.312 664.252, 150.850 661.496, 148.834 660.558 C 146.817 659.619, 144.006 657.096, 142.586 654.950 C 141.166 652.804, 138.947 650.356, 137.656 649.510 C 136.365 648.664, 134.735 646.741, 134.035 645.236 C 131.453 639.690, 128 628.566, 128 625.793 C 128 622.805, 131.200 612.448, 133.494 608.012 C 135.417 604.292, 149.869 590.761, 154.020 588.793 C 160.401 585.768, 175.370 581.919, 183.090 581.319 C 190.104 580.773, 191.033 580.935, 195.326 583.451 C 197.881 584.948, 202.261 586.778, 205.060 587.516 C 207.858 588.254, 212.518 590.491, 215.416 592.487 C 220.119 595.726, 221.262 596.082, 226.059 595.808 C 230.905 595.530, 231.657 595.167, 233.716 592.102 C 235.099 590.045, 236 587.203, 236 584.900 C 236 581.668, 235.097 580.079, 230 574.336 C 226.700 570.619, 224 567.103, 224 566.524 C 224 565.944, 222.638 562.678, 220.973 559.266 C 218.798 554.808, 218.134 552.315, 218.613 550.407 C 219.948 545.085, 224.346 538.737, 228.538 536.078 C 230.867 534.601, 236.086 529.937, 240.136 525.714 C 250.068 515.358, 251.399 515.137, 258.559 522.645 C 266.287 530.749, 267.419 533.584, 267.290 544.500 C 267.172 554.355, 268.307 557, 272.650 557 C 274.430 557, 275.477 555.963, 277.028 552.663 C 278.149 550.278, 280.433 547.316, 282.104 546.081 C 285.069 543.889, 289.010 536.499, 288.990 533.167 C 288.975 530.550, 284.127 520.765, 281.460 517.969 C 278.608 514.980, 271.397 503.652, 269.893 499.799 C 269.039 497.611, 267.996 496.972, 264.393 496.432 C 261.948 496.065, 258.496 494.694, 256.723 493.386 C 250.229 488.592, 244.778 486.601, 237.500 486.363 C 233.650 486.237, 229.600 486.333, 228.500 486.577 M 316.214 527.928 C 309.221 529.096, 308.642 530.268, 308.566 543.387 C 308.505 553.985, 308.325 555.021, 306.146 557.343 C 302.905 560.795, 295.651 562.369, 286.986 561.499 L 279.983 560.795 277.308 566.648 C 271.408 579.557, 260.259 593.875, 247.649 604.737 C 243.331 608.457, 237.877 613.300, 235.530 615.500 C 229.921 620.757, 222.323 627, 221.534 627 C 221.189 627, 216.622 623.356, 211.385 618.902 C 195.338 605.255, 187.212 603.462, 168.412 609.421 C 159.690 612.186, 158.384 613.198, 154.940 619.857 C 151.980 625.580, 152.140 631.334, 155.466 638.744 C 157.702 643.728, 158.976 645.169, 163.645 647.998 C 171.276 652.623, 176.906 652.970, 189.925 649.616 C 201.231 646.704, 210.602 641.891, 218.082 635.157 C 222.826 630.886, 222.970 630.834, 226.703 632.033 C 228.791 632.704, 232.750 634.257, 235.500 635.485 C 238.250 636.712, 242.700 638.517, 245.390 639.494 C 249.907 641.137, 255.335 645.314, 265.500 654.970 C 267.700 657.060, 270.931 659.492, 272.680 660.375 C 274.429 661.257, 276.813 663.671, 277.977 665.740 C 279.141 667.808, 281.534 670.524, 283.296 671.776 C 285.058 673.028, 288.047 675.178, 289.938 676.553 C 292.725 678.580, 293.616 678.812, 294.647 677.777 C 296.570 675.847, 294.443 668.879, 290.535 664.304 C 288.748 662.212, 286.369 658.700, 285.249 656.500 C 284.129 654.300, 282.217 651.600, 281 650.500 C 279.783 649.400, 277.939 646.839, 276.903 644.808 C 275.866 642.777, 273.450 639.920, 271.534 638.458 C 269.617 636.996, 266.866 633.382, 265.420 630.425 L 262.790 625.050 264.912 618.063 C 266.585 612.556, 267.769 610.515, 270.502 608.431 C 272.409 606.976, 274.883 604.372, 275.999 602.643 C 277.116 600.914, 280.965 597.025, 284.553 594 C 288.141 590.975, 293.197 586.643, 295.789 584.373 C 298.380 582.103, 303.245 578.868, 306.601 577.184 C 309.957 575.500, 314.056 572.982, 315.712 571.589 C 320.088 567.906, 323.226 567, 331.597 567 C 342.159 567, 344.886 568.427, 350.291 576.783 C 352.774 580.621, 355.309 584.073, 355.925 584.454 C 356.541 584.834, 358.335 587.700, 359.913 590.823 C 361.491 593.945, 363.777 597.399, 364.993 598.498 C 367.953 601.172, 369.531 604.401, 371.401 611.616 C 372.260 614.931, 374.589 620.761, 376.577 624.572 C 379.507 630.188, 380.092 632.241, 379.669 635.416 C 379.030 640.202, 374.557 646.805, 370.128 649.500 C 365.015 652.611, 352.773 663.678, 350 667.697 C 348.158 670.365, 345.656 672.098, 340.500 674.276 C 325.690 680.532, 322.915 681.236, 312 681.500 C 298.523 681.826, 299.228 681.706, 298.567 683.789 C 297.553 686.983, 300.910 697.304, 304.003 700.500 C 305.600 702.150, 308.164 706.610, 309.703 710.410 C 312.731 717.891, 315.846 720.452, 323.411 721.679 C 328.605 722.522, 335.472 719.689, 336.964 716.088 C 337.607 714.534, 339.706 711.741, 341.628 709.881 C 345.425 706.206, 347.877 701.374, 350.469 692.457 C 353.624 681.607, 359.345 675.157, 368.764 671.832 C 373.131 670.290, 376.619 668.184, 379.486 665.357 C 381.823 663.053, 386.157 659.957, 389.118 658.476 C 392.078 656.996, 395.760 654.596, 397.300 653.143 C 398.840 651.689, 403.773 648.700, 408.263 646.500 C 421.461 640.033, 424.633 632.826, 416.232 628.397 C 413.884 627.160, 410.587 624.989, 408.905 623.573 C 407.223 622.158, 405.246 621, 404.512 621 C 402.196 621, 398.210 615.235, 396.530 609.456 C 394.422 602.205, 386.917 586.946, 383.069 582.087 C 381.405 579.986, 379.185 576.294, 378.135 573.883 C 376.291 569.647, 371.425 565.035, 361.500 558.118 C 358.968 556.353, 356.216 552.976, 354 548.915 C 349.848 541.306, 339.432 530.597, 334.794 529.171 C 329.999 527.696, 321.146 527.104, 316.214 527.928 M 239.035 540.934 C 237.908 543.041, 237.819 548.194, 238.850 551.735 C 239.673 554.565, 246.905 563.822, 249.333 565.154 C 250.706 565.907, 251.648 565.723, 253.083 564.425 C 254.609 563.044, 255 561.323, 255 555.994 C 255 546.128, 253.810 543.595, 248 541.095 C 241.970 538.501, 240.353 538.472, 239.035 540.934 M 322.500 589.863 C 316.866 592.426, 315.529 594.441, 315.513 600.388 L 315.500 605.500 311.500 606.354 C 303.961 607.963, 298.955 610.184, 297.228 612.684 C 296.278 614.060, 293.587 617.195, 291.250 619.652 C 287.172 623.937, 287 624.373, 287 630.419 C 287 637.141, 288.342 639.994, 294.627 646.640 C 296.261 648.367, 298.421 651.608, 299.429 653.842 C 301.052 657.442, 301.951 658.137, 307.324 659.952 C 314.559 662.395, 317.952 662.500, 324.719 660.491 C 331.076 658.603, 334.089 656.202, 335.528 651.877 C 336.308 649.532, 337.850 647.871, 340.575 646.440 C 343.295 645.013, 344.838 643.355, 345.600 641.037 C 346.471 638.391, 347.610 637.358, 351.067 636.080 C 354.379 634.857, 356.128 633.345, 358.305 629.825 L 361.175 625.183 359.114 620.526 C 357.981 617.964, 355.321 613.900, 353.203 611.494 C 351.085 609.087, 348.832 605.383, 348.197 603.263 C 346.939 599.066, 343.068 594.239, 337.902 590.428 C 333.892 587.469, 328.220 587.261, 322.500 589.863 M 316.015 610.750 C 316.024 613.913, 316.370 617.034, 316.785 617.687 C 317.200 618.340, 319.669 619.786, 322.270 620.901 C 327.107 622.975, 328.298 625.302, 325.800 627.800 C 323.954 629.646, 321.431 629.261, 314 626 C 303.850 621.545, 298.202 622.313, 301.336 627.721 C 301.976 628.825, 303.465 631.477, 304.644 633.614 C 307.406 638.622, 309.069 640.040, 317.218 644.336 C 323.026 647.398, 324.381 647.751, 327.212 646.939 C 329.013 646.423, 330.628 646, 330.800 646 C 330.972 646, 331.985 644.028, 333.051 641.618 C 335.102 636.980, 336.790 636.038, 343.089 636.014 C 347.460 635.997, 349 633.379, 349 625.965 C 349 621.335, 348.762 620.875, 345.210 618.633 C 343.126 617.317, 340.213 614.657, 338.736 612.721 C 335.722 608.769, 326.480 605, 319.806 605 L 316 605 316.015 610.750 M 452.227 610.461 C 445.149 612.066, 433.603 617.920, 428.144 622.672 C 423.515 626.702, 423.560 626.749, 440.500 635.450 C 447.650 639.123, 454.413 642.984, 455.528 644.030 C 459.010 647.295, 465.682 649, 474.977 649 C 479.775 649, 485.071 648.523, 486.745 647.939 C 488.419 647.356, 492.086 644.161, 494.894 640.841 C 499.381 635.535, 500 634.258, 500 630.312 C 500 626.349, 499.501 625.333, 495.750 621.658 C 493.413 619.369, 490.825 616.466, 490 615.208 C 489.175 613.950, 486.475 612.202, 484 611.324 C 477.788 609.120, 460.242 608.644, 452.227 610.461 M 264 692.798 C 260.389 694.554, 257.526 699.255, 253.064 710.753 C 250.379 717.672, 249.442 728.849, 251.482 729.631 C 254.493 730.787, 261.879 722.943, 265.993 714.220 C 269.345 707.113, 270.418 705.723, 273.570 704.406 C 277.024 702.963, 277.207 702.663, 276.666 699.330 C 275.365 691.314, 271.330 689.233, 264 692.798 M 326.357 844.806 C 322.327 846.454, 311.769 855.792, 303.334 865.169 C 296.122 873.188, 296.419 883.018, 304.139 891.811 C 305.868 893.781, 308.380 897.871, 309.720 900.901 C 314.872 912.552, 320.169 916.623, 329.064 915.768 C 334.321 915.263, 334.246 915.315, 345.500 904.256 C 354.887 895.031, 358.141 887.791, 356.146 880.565 C 354.884 875.995, 349.486 868.755, 345.626 866.453 C 343.091 864.943, 342.127 864.890, 337.460 866.010 C 330.568 867.663, 328.781 866.961, 329.186 862.757 C 329.457 859.946, 330.044 859.322, 333.474 858.203 C 341.697 855.518, 342.997 851.797, 337.600 846.400 C 333.787 842.587, 332.299 842.376, 326.357 844.806 M 337.500 938.082 C 335.850 938.582, 326.625 939.187, 317 939.425 C 298.842 939.875, 294.694 940.589, 282.911 945.294 C 279.385 946.702, 272.552 948.541, 267.726 949.381 C 262.365 950.314, 256.725 952.074, 253.226 953.906 C 250.077 955.555, 244.822 958.066, 241.548 959.487 C 238.274 960.907, 233.324 963.800, 230.548 965.916 C 227.772 968.033, 224.104 970.469, 222.398 971.331 C 220.693 972.193, 218.578 973.995, 217.700 975.336 C 216.821 976.677, 214.537 978.741, 212.625 979.923 C 210.713 981.105, 207.983 984.060, 206.559 986.490 C 205.135 988.920, 203.143 991.491, 202.132 992.204 C 201.122 992.917, 198.237 996.715, 195.721 1000.646 C 193.205 1004.576, 190.614 1008.121, 189.962 1008.524 C 189.310 1008.926, 187.704 1011.681, 186.394 1014.644 C 185.083 1017.608, 182.471 1022.271, 180.589 1025.007 C 178.707 1027.743, 176.382 1032.349, 175.423 1035.241 C 174.464 1038.133, 172.200 1043.200, 170.392 1046.500 C 167.146 1052.423, 166.836 1053.706, 161.449 1083.500 C 159.759 1092.849, 159.560 1108.434, 161.033 1116.114 C 161.602 1119.076, 162.944 1127.433, 164.016 1134.684 C 166.187 1149.373, 167.636 1154.374, 171.292 1159.805 C 172.660 1161.837, 174.780 1166.580, 176.003 1170.343 C 177.225 1174.107, 179.464 1178.607, 180.978 1180.343 C 182.492 1182.080, 184.704 1185.300, 185.894 1187.500 C 188.278 1191.908, 191.876 1196.704, 201.267 1207.991 C 214.359 1223.726, 224.374 1232.033, 242.182 1241.926 C 245.485 1243.760, 251.838 1246.291, 267.615 1252.054 C 270.429 1253.082, 277.671 1254.795, 283.709 1255.862 C 289.748 1256.928, 296.516 1258.733, 298.750 1259.873 C 302.421 1261.745, 304.820 1261.968, 323.656 1262.183 C 346.041 1262.439, 344.625 1262.645, 366.500 1255.936 C 369.800 1254.924, 375.200 1253.391, 378.500 1252.530 C 381.800 1251.669, 389.900 1248.221, 396.500 1244.868 C 403.100 1241.514, 411.200 1237.420, 414.500 1235.770 C 417.800 1234.119, 423.132 1230.796, 426.349 1228.384 C 429.566 1225.973, 432.607 1224, 433.108 1224 C 433.956 1224, 436.407 1221.898, 452.759 1207.146 C 456.202 1204.041, 460.153 1199.596, 461.540 1197.268 C 462.928 1194.941, 464.915 1192.581, 465.956 1192.023 C 466.998 1191.466, 469.056 1188.420, 470.530 1185.255 C 472.004 1182.090, 474.600 1177.300, 476.298 1174.612 C 479.278 1169.895, 483.564 1160.340, 488.583 1147.226 C 491.708 1139.061, 494.149 1119.275, 494.163 1102 C 494.175 1087.518, 491.895 1065.227, 489.658 1057.958 C 487.310 1050.327, 479.085 1031.984, 476.002 1027.503 C 474.384 1025.152, 472.115 1020.814, 470.960 1017.864 C 469.805 1014.914, 467.604 1011.150, 466.068 1009.500 C 464.532 1007.850, 462.009 1004.124, 460.462 1001.220 C 456.821 994.385, 437.955 975.380, 428.430 968.953 C 424.419 966.246, 420.824 963.525, 420.441 962.904 C 420.058 962.284, 417.214 960.666, 414.122 959.310 C 411.030 957.953, 406.419 955.517, 403.876 953.898 C 400.664 951.852, 396.238 950.368, 389.376 949.036 C 383.944 947.982, 375.450 945.729, 370.500 944.030 C 359.383 940.215, 346.591 936.972, 343.113 937.086 C 341.676 937.133, 339.150 937.581, 337.500 938.082 M 322 969.991 C 314.575 970.950, 306.700 972.451, 304.500 973.327 C 302.300 974.203, 295.629 975.839, 289.676 976.964 C 278.278 979.117, 276.837 979.657, 270.802 984.028 C 268.734 985.526, 265.120 987.248, 262.771 987.854 C 260.422 988.460, 257.341 989.754, 255.924 990.728 C 254.508 991.703, 250.458 994.400, 246.924 996.723 C 240.216 1001.133, 228.154 1013.630, 223.976 1020.500 C 222.638 1022.700, 220.113 1025.936, 218.364 1027.691 C 216.616 1029.446, 214.888 1032.233, 214.525 1033.884 C 214.163 1035.536, 212.059 1039.578, 209.850 1042.867 C 207.205 1046.807, 205.158 1051.518, 203.853 1056.674 C 202.762 1060.978, 200.572 1067.200, 198.984 1070.500 C 195.001 1078.782, 193.470 1093.732, 194.786 1111.500 C 195.628 1122.867, 196.350 1126.321, 200.538 1139 C 203.470 1147.876, 206.453 1154.963, 208.230 1157.273 C 209.825 1159.348, 212.667 1164.153, 214.543 1167.950 C 216.420 1171.748, 218.434 1175.150, 219.018 1175.511 C 219.603 1175.873, 221.258 1178.033, 222.697 1180.312 C 226.474 1186.296, 244.709 1203.744, 250.063 1206.497 C 252.572 1207.788, 255.245 1209.591, 256.002 1210.503 C 256.760 1211.415, 261.456 1214.174, 266.440 1216.633 C 271.423 1219.092, 277.133 1221.991, 279.128 1223.076 C 281.123 1224.161, 287.237 1225.902, 292.715 1226.946 C 298.192 1227.989, 305.784 1229.745, 309.587 1230.846 C 314.634 1232.309, 320.945 1233.015, 332.968 1233.465 L 349.436 1234.080 360.968 1230.579 C 367.311 1228.653, 374.371 1226.604, 376.658 1226.025 C 378.944 1225.446, 383.013 1223.461, 385.700 1221.613 C 388.387 1219.765, 392.366 1217.340, 394.542 1216.224 C 396.719 1215.108, 399.625 1212.981, 401 1211.498 C 402.375 1210.015, 405.750 1207.658, 408.500 1206.259 C 417.182 1201.844, 439.872 1178.028, 443.368 1169.662 C 444.205 1167.659, 446.233 1164.328, 447.875 1162.260 C 449.516 1160.192, 451.820 1155.575, 452.994 1152 C 454.167 1148.425, 456.188 1142.800, 457.485 1139.500 C 463.412 1124.414, 464.719 1081.956, 459.671 1068.500 C 455.086 1056.281, 449.567 1044.122, 447.201 1041.027 C 445.717 1039.087, 443.560 1035.475, 442.407 1033 C 441.254 1030.525, 439.175 1027.150, 437.786 1025.500 C 436.398 1023.850, 434.050 1020.700, 432.568 1018.500 C 425.083 1007.390, 412.744 995.444, 402 988.907 C 398.975 987.066, 394.569 984.097, 392.210 982.308 C 389.850 980.519, 386.025 978.574, 383.710 977.986 C 381.394 977.397, 376.125 975.846, 372 974.539 C 363.053 971.703, 343.693 967.950, 338.908 968.124 C 337.034 968.192, 329.425 969.032, 322 969.991 M 316.411 983.142 C 313.206 985.480, 309.654 986.665, 299.978 988.625 C 286.541 991.347, 285.821 991.623, 279.395 996.528 C 277 998.357, 274.019 1000.163, 272.770 1000.542 C 271.522 1000.921, 268.250 1002.894, 265.500 1004.925 C 262.750 1006.956, 258.806 1009.857, 256.736 1011.371 C 250.619 1015.844, 239.317 1027.250, 237.611 1030.673 C 236.741 1032.418, 234.258 1035.891, 232.095 1038.391 C 229.789 1041.055, 227.513 1045.123, 226.597 1048.218 C 225.737 1051.123, 223.474 1055.447, 221.568 1057.826 C 218.996 1061.037, 217.670 1064.130, 216.425 1069.826 C 215.502 1074.047, 213.597 1081.100, 212.190 1085.500 C 208.778 1096.175, 208.664 1109.618, 211.910 1118.500 C 213.116 1121.800, 214.964 1128.740, 216.017 1133.923 C 217.531 1141.379, 218.572 1144.093, 221.004 1146.923 C 222.695 1148.890, 225.256 1152.975, 226.696 1156 C 228.135 1159.025, 230.705 1163.119, 232.406 1165.097 C 234.108 1167.075, 237.525 1171.308, 240 1174.503 C 242.475 1177.698, 246.860 1181.829, 249.745 1183.683 C 252.630 1185.538, 255.675 1188.101, 256.513 1189.380 C 257.351 1190.658, 260.032 1192.731, 262.472 1193.985 C 264.911 1195.240, 268.008 1197.502, 269.353 1199.012 C 270.699 1200.523, 273.982 1202.554, 276.650 1203.526 C 279.317 1204.498, 284.200 1206.390, 287.500 1207.729 C 290.800 1209.068, 295.525 1210.821, 298 1211.625 C 304.658 1213.786, 320.727 1214.543, 327.853 1213.031 C 332.695 1212.004, 334.763 1212.011, 338.892 1213.069 C 342.928 1214.103, 345.985 1214.135, 353.771 1213.221 C 362.667 1212.177, 364.665 1211.518, 375.445 1206.069 C 381.977 1202.768, 388.486 1198.979, 389.910 1197.648 C 391.335 1196.317, 393.986 1194.478, 395.801 1193.562 C 397.617 1192.645, 399.369 1191.203, 399.694 1190.356 C 400.019 1189.509, 403.001 1186.839, 406.321 1184.424 C 412.037 1180.265, 420 1171.811, 420 1169.902 C 420 1169.417, 422.250 1166.537, 425 1163.500 C 427.750 1160.463, 430.003 1157.421, 430.007 1156.739 C 430.010 1156.058, 432.020 1152.388, 434.472 1148.584 C 437.271 1144.242, 439.351 1139.589, 440.060 1136.084 C 440.680 1133.013, 442.322 1125.550, 443.708 1119.500 C 446.681 1106.519, 446.522 1102.639, 442.112 1080.568 C 439.668 1068.333, 438.574 1064.850, 436.056 1061.277 C 434.365 1058.878, 431.885 1054.215, 430.543 1050.915 C 429.202 1047.614, 426.931 1043.519, 425.497 1041.814 C 424.063 1040.110, 421.782 1036.530, 420.429 1033.860 C 415.488 1024.110, 396.791 1005.970, 383.711 998.236 C 376.134 993.756, 374.636 992.997, 363.750 988.126 C 360.038 986.464, 357 984.608, 357 984.002 C 357 981.311, 350.295 980.110, 335.413 980.134 L 320.500 980.159 316.411 983.142 M 343.376 1010.086 C 338.446 1011.516, 337.635 1013.188, 338.319 1020.518 C 339.077 1028.626, 340.077 1030.488, 345.033 1033.017 C 349.402 1035.246, 349.717 1036.349, 347.500 1041.654 C 346.675 1043.629, 346 1046.664, 346 1048.400 C 346 1052.485, 343.582 1055.859, 339.401 1057.606 C 331.412 1060.944, 326.991 1058.140, 327.015 1049.750 C 327.023 1046.862, 327.691 1042.600, 328.500 1040.277 C 330.190 1035.428, 329.545 1032.840, 325.220 1027.106 C 323.724 1025.123, 321.456 1021.420, 320.179 1018.878 C 317.330 1013.205, 314.126 1011.473, 309.377 1013.041 C 307.523 1013.652, 305.373 1015.057, 304.599 1016.163 C 303.451 1017.801, 302.815 1017.972, 301.161 1017.086 C 298.285 1015.547, 291.403 1015.740, 288.091 1017.453 C 284.582 1019.267, 282.562 1023.921, 283.410 1028.236 C 283.763 1030.031, 284.465 1036.240, 284.972 1042.032 C 285.478 1047.825, 286.355 1054.575, 286.922 1057.032 C 289.229 1067.047, 286.931 1074, 281.314 1074 C 277.542 1074, 271.187 1070.039, 268.824 1066.215 C 266.495 1062.447, 263.011 1060.708, 259.537 1061.580 C 258.211 1061.913, 254.699 1065.444, 251.357 1069.805 C 248.136 1074.007, 243.575 1079.265, 241.223 1081.488 C 235.957 1086.465, 234 1092.323, 234 1103.110 C 234 1116.589, 235.209 1119.964, 242.907 1127.974 C 249.143 1134.462, 249.978 1135, 253.811 1135 C 259.636 1135, 259.928 1132.836, 256.010 1118.690 L 252.839 1107.240 255.480 1096.370 C 256.932 1090.392, 258.810 1084.970, 259.653 1084.322 C 264.367 1080.698, 275.506 1082.182, 276.610 1086.581 C 277.352 1089.539, 282.443 1094, 285.077 1094 C 288.245 1094, 287.249 1096.763, 283.653 1097.949 C 281.813 1098.557, 278.183 1100.400, 275.589 1102.046 C 271.604 1104.573, 270.920 1105.462, 271.185 1107.765 C 271.426 1109.851, 272.755 1111.241, 276.832 1113.672 C 279.764 1115.421, 283.939 1117.152, 286.110 1117.519 C 290.052 1118.185, 290.055 1118.189, 289.283 1121.843 C 287.689 1129.390, 288.943 1137.364, 291.979 1138.989 C 294.096 1140.122, 310.282 1140.562, 311.949 1139.532 C 312.508 1139.186, 314.971 1135.803, 317.422 1132.015 C 323.706 1122.301, 324.996 1121.638, 337.229 1121.835 L 347.310 1121.997 350.923 1118.083 C 352.911 1115.930, 356.441 1113.407, 358.768 1112.476 C 362.725 1110.893, 363.271 1110.891, 367.161 1112.448 C 369.450 1113.364, 373.597 1114.544, 376.376 1115.071 C 379.155 1115.598, 384.479 1117.872, 388.207 1120.125 C 393.517 1123.333, 395.569 1124.074, 397.682 1123.544 C 404.186 1121.911, 408.412 1116.200, 413.023 1102.810 C 415.308 1096.177, 415.313 1096.056, 413.615 1088.310 C 410.445 1073.843, 410.113 1073.084, 404.688 1067.854 C 401.835 1065.103, 398.019 1062.196, 396.209 1061.395 C 391.434 1059.282, 375.547 1057.188, 368 1057.677 C 358.442 1058.296, 357 1058.743, 357 1061.085 C 357 1063.632, 355.260 1067, 353.943 1067 C 353.401 1067, 352.470 1065.932, 351.876 1064.626 C 350.528 1061.669, 352.212 1058, 354.916 1058 C 356.266 1058, 357.063 1056.806, 357.881 1053.557 C 359.361 1047.681, 359.298 1045.948, 357.403 1040.366 C 355.932 1036.033, 355.937 1035.260, 357.465 1030.581 C 358.378 1027.786, 359.381 1022.530, 359.695 1018.900 C 360.224 1012.777, 360.094 1012.179, 357.910 1010.650 C 355.345 1008.853, 348.539 1008.589, 343.376 1010.086 M 299.981 1028.750 L 296.773 1035.500 297.899 1045.444 C 298.518 1050.914, 299.704 1056.426, 300.535 1057.694 C 302.060 1060.021, 306.212 1060.788, 308.703 1059.204 C 310.492 1058.067, 315.961 1049.717, 315.982 1048.090 C 316.001 1046.624, 304.310 1022, 303.595 1022 C 303.371 1022, 301.745 1025.037, 299.981 1028.750 M 307 1069.233 C 300.757 1071.410, 300.377 1071.737, 297.394 1077.500 C 295.685 1080.800, 293.323 1085.283, 292.144 1087.461 C 290.965 1089.640, 290 1092.197, 290 1093.143 C 290 1095.142, 293.280 1097.633, 301 1101.496 C 304.025 1103.010, 307.625 1105.488, 309 1107.004 C 312.096 1110.415, 321.685 1114.254, 326.931 1114.182 C 331.943 1114.112, 336.729 1111.634, 338.793 1108.038 C 339.683 1106.487, 342.086 1104.183, 344.132 1102.918 C 349.045 1099.882, 350.130 1097.350, 348.786 1092.056 C 348.052 1089.162, 346.570 1086.945, 343.981 1084.864 C 341.922 1083.210, 339.397 1080.279, 338.369 1078.352 C 336.907 1075.610, 334.868 1074.092, 329 1071.372 C 319.122 1066.794, 315.111 1066.404, 307 1069.233 M 362.196 1073.858 C 361.479 1074.312, 360.196 1077.343, 359.344 1080.592 C 357.590 1087.281, 358.108 1095.374, 360.597 1100.188 C 361.990 1102.881, 362.496 1103.129, 365.328 1102.500 C 367.073 1102.113, 374.797 1101.581, 382.494 1101.318 C 390.190 1101.055, 397.053 1100.371, 397.744 1099.798 C 399.761 1098.123, 399.217 1094.185, 396.750 1092.604 C 395.512 1091.812, 392.589 1090.659, 390.254 1090.044 C 385.364 1088.755, 382.848 1086.383, 379.890 1080.272 C 376.743 1073.772, 375.601 1072.998, 369.179 1073.015 C 366.055 1073.024, 362.913 1073.403, 362.196 1073.858 M 359.038 1123.679 C 357.296 1125.893, 357.047 1127.150, 357.602 1130.929 C 358.611 1137.808, 359.605 1139.787, 365.029 1145.722 C 367.763 1148.714, 370 1151.598, 370 1152.132 C 370 1153.735, 376.635 1156, 381.333 1156 C 386.763 1156, 390.686 1153.190, 391.529 1148.696 C 392.577 1143.110, 390.678 1140.397, 381.553 1134.449 C 376.883 1131.405, 372.299 1127.622, 371.366 1126.043 C 368.163 1120.621, 362.324 1119.501, 359.038 1123.679 M 268.750 1143.080 C 267.788 1143.641, 267 1144.999, 267 1146.099 C 267 1148.605, 269.337 1153.205, 271.540 1155.033 C 272.459 1155.796, 274.225 1158.712, 275.464 1161.514 C 276.703 1164.315, 279.059 1168.158, 280.701 1170.054 C 282.342 1171.949, 284.924 1175.638, 286.438 1178.250 C 287.952 1180.862, 289.597 1183, 290.095 1183 C 290.593 1183, 293.456 1185.475, 296.457 1188.500 L 301.913 1194 308.706 1194.014 C 317.847 1194.032, 319.757 1194.686, 321.521 1198.403 C 323.265 1202.078, 330.585 1207.200, 333.500 1206.785 C 334.833 1206.595, 336.577 1204.355, 338.729 1200.072 C 340.504 1196.537, 342.328 1193.387, 342.781 1193.072 C 343.235 1192.758, 344.837 1190.859, 346.342 1188.854 C 348.173 1186.414, 350.171 1185.003, 352.380 1184.589 C 357.656 1183.599, 360.303 1179.964, 360.805 1173.019 C 361.142 1168.365, 360.788 1166.205, 359.185 1163.130 C 356.516 1158.010, 346.365 1145.371, 344.190 1144.460 C 341.832 1143.473, 322.682 1142.612, 319.703 1143.360 C 318.176 1143.743, 316.756 1145.203, 315.932 1147.237 C 315.206 1149.032, 313.124 1152.688, 311.306 1155.362 C 309.488 1158.036, 308 1160.624, 308 1161.112 C 308 1161.600, 306.613 1162, 304.918 1162 C 300.667 1162, 289.729 1153.823, 286.054 1147.897 C 283.677 1144.064, 282.555 1143.188, 279.350 1142.658 C 273.960 1141.768, 270.787 1141.894, 268.750 1143.080 M 313.441 1166.423 C 311.827 1167.606, 311.539 1168.899, 311.732 1174.106 C 311.937 1179.662, 312.331 1180.749, 315.232 1183.765 C 317.029 1185.635, 319.288 1187.593, 320.250 1188.117 C 325.943 1191.218, 333.742 1175.991, 330.021 1169.039 C 328.036 1165.331, 317.253 1163.629, 313.441 1166.423 M 340.053 1172.901 C 338.097 1176.556, 342.101 1183.291, 345.121 1181.425 C 346.209 1180.753, 345.213 1174.097, 343.747 1172.250 C 342.354 1170.495, 341.235 1170.692, 340.053 1172.901 M 317.774 1284.828 C 310.651 1287.349, 309.286 1289.323, 305.853 1302.060 C 303.332 1311.413, 302.858 1314.777, 303.259 1320.500 C 303.833 1328.699, 306.813 1337.153, 310.822 1341.956 C 313.615 1345.302, 313.849 1345.377, 322.794 1345.805 C 337.809 1346.522, 341.695 1345.657, 349.350 1339.894 C 353.243 1336.962, 356.241 1333.889, 356.599 1332.462 C 357.513 1328.821, 355.368 1317.859, 351.325 1305.500 C 346.230 1289.928, 345.830 1289.308, 338.687 1285.929 C 331.514 1282.535, 325.191 1282.202, 317.774 1284.828 M 363.174 1360.314 C 361.398 1362.205, 361.006 1363.807, 361.031 1369.064 C 361.082 1379.646, 362.716 1389.135, 365.849 1397.040 C 367.805 1401.973, 369.373 1408.722, 370.481 1416.966 C 371.507 1424.601, 373.102 1431.678, 374.595 1435.225 C 377.579 1442.314, 379.652 1451.219, 380.481 1460.500 C 382.045 1478.018, 385.212 1491.586, 390.577 1503.755 C 393.354 1510.052, 394.432 1510.560, 407.972 1511.949 C 418.482 1513.028, 434.089 1512.047, 439.634 1509.960 C 443.980 1508.324, 449.920 1502.010, 451.046 1497.828 C 452.410 1492.764, 449.986 1481.343, 445.882 1473.500 C 444.156 1470.200, 441.873 1464.350, 440.811 1460.500 C 439.748 1456.650, 437.624 1451.250, 436.090 1448.500 C 434.556 1445.750, 432.099 1439.870, 430.629 1435.434 C 429.160 1430.997, 426.393 1424.938, 424.479 1421.968 C 422.566 1418.997, 421 1416.172, 421 1415.688 C 421 1412.190, 417.248 1403.168, 414.533 1400.138 C 412.740 1398.137, 410.573 1395.150, 409.718 1393.500 C 408.148 1390.472, 404.841 1386.372, 391.702 1371.164 C 383.326 1361.468, 377.663 1358, 370.208 1358 C 366.422 1358, 364.869 1358.511, 363.174 1360.314 M 281 1361.948 C 269.722 1365.448, 244.328 1391.040, 236.878 1406.414 C 235.302 1409.667, 233.348 1413.063, 232.536 1413.960 C 231.724 1414.857, 229.647 1418.721, 227.921 1422.546 C 226.194 1426.371, 223.275 1431.975, 221.433 1435 C 219.591 1438.025, 217.113 1444.080, 215.925 1448.455 C 214.738 1452.830, 212.668 1458.150, 211.326 1460.276 C 209.984 1462.402, 208.195 1467.147, 207.350 1470.821 C 206.506 1474.494, 204.652 1481.550, 203.230 1486.500 C 201.808 1491.450, 200.457 1497.868, 200.229 1500.762 C 199.845 1505.626, 200.053 1506.247, 202.978 1508.980 C 207.026 1512.761, 210.196 1513.305, 224.131 1512.614 C 230.384 1512.304, 241.445 1511.769, 248.710 1511.426 C 258.151 1510.979, 262.249 1510.404, 263.074 1509.411 C 263.709 1508.646, 265.062 1501.666, 266.082 1493.900 C 268.186 1477.867, 268.271 1477.493, 271.500 1470 C 274.156 1463.837, 275.593 1456.255, 276.914 1441.437 C 277.607 1433.656, 278.504 1429.846, 280.866 1424.635 C 283.156 1419.584, 284.324 1414.776, 285.528 1405.434 C 286.412 1398.580, 288.043 1389.941, 289.153 1386.236 C 290.262 1382.531, 291.849 1376.448, 292.679 1372.717 C 294.048 1366.555, 294.039 1365.708, 292.570 1363.467 C 291.307 1361.539, 290.140 1361.019, 287.227 1361.086 C 285.177 1361.133, 282.375 1361.521, 281 1361.948 M 320.083 1367.069 C 312.489 1369.765, 311.315 1371.174, 309.425 1379.867 C 308.493 1384.156, 306.104 1390.567, 303.971 1394.500 C 301.329 1399.374, 299.979 1403.323, 299.529 1407.500 C 297.614 1425.293, 295.325 1436.444, 292.962 1439.500 C 291.498 1441.393, 289.120 1451.519, 287.982 1460.708 C 286.790 1470.332, 285.490 1475.804, 282.211 1485 C 279.880 1491.540, 278.317 1515.855, 280.023 1519.043 C 280.593 1520.108, 282.283 1521.619, 283.780 1522.400 C 285.276 1523.181, 290.269 1527.465, 294.876 1531.919 C 306.010 1542.684, 308.591 1543.507, 331 1543.439 C 351.360 1543.377, 353.583 1542.689, 360.186 1534.402 C 369.349 1522.900, 371.191 1512.669, 369.071 1485.029 C 367.692 1467.057, 366.753 1462.066, 362.950 1452.500 C 361.109 1447.871, 359.621 1441.232, 358.557 1432.901 C 356.793 1419.096, 356.252 1416.828, 353.014 1409.662 C 351.808 1406.993, 349.782 1398.340, 348.494 1390.358 C 347.209 1382.401, 345.479 1374.853, 344.648 1373.585 C 343.817 1372.317, 341.004 1369.866, 338.397 1368.140 C 332.792 1364.427, 328.271 1364.163, 320.083 1367.069" stroke="none" fill="#1a1a1a" fill-rule="evenodd"/>
</svg>