<svg shape-rendering="geometricPrecision" xmlns="http://www.w3.org/2000/svg" width="1600" height="1425" viewBox="0 0 1600 1425" version="1.1">
	<rect x="0" y="0" width="100%" height="100%" fill="#ffffff" />
	<path d="M 909.500 5.142 C 902.350 6.217, 888.981 8.596, 879.792 10.429 C 864.782 13.422, 862.291 14.221, 855.292 18.283 C 851.006 20.770, 844.125 24.002, 840 25.465 C 835.591 27.029, 830.630 29.699, 827.962 31.943 C 825.467 34.043, 820.174 37.398, 816.202 39.398 C 810.083 42.480, 806.234 45.774, 791.017 60.956 C 781.137 70.812, 771.466 81.359, 769.525 84.394 C 767.583 87.429, 764.037 91.844, 761.643 94.206 C 759.249 96.568, 756.319 100.408, 755.131 102.739 C 753.943 105.071, 751.241 109.653, 749.128 112.923 C 747.015 116.192, 744.252 121.485, 742.987 124.684 C 740.433 131.146, 737.700 135.199, 731.143 142.250 C 725.316 148.516, 722.864 148.539, 716.997 142.383 C 714.253 139.504, 709.942 136.535, 705.548 134.497 C 701.672 132.699, 696.949 130.051, 695.053 128.612 C 687.011 122.509, 666.397 117.998, 646.575 118.003 C 619.865 118.011, 598.993 121.697, 584.500 128.968 C 580.100 131.175, 572.599 134.265, 567.831 135.836 C 561.916 137.784, 556.992 140.282, 552.331 143.700 C 548.574 146.455, 543.025 149.865, 540 151.277 C 536.403 152.956, 530.281 157.764, 522.306 165.172 C 501.362 184.629, 488.425 199.824, 480.027 214.830 C 477.974 218.498, 474.653 224.173, 472.648 227.440 C 470.643 230.707, 468.145 235.668, 467.099 238.466 C 466.052 241.263, 463.181 248.041, 460.718 253.526 C 455.387 265.402, 453.372 274.452, 451.969 292.825 C 450.832 307.703, 452.077 336.183, 454.468 350 C 456.679 362.784, 468.579 398.002, 472.580 403.605 C 474.502 406.297, 480.642 415.424, 486.225 423.886 C 493.573 435.025, 497.635 440.188, 500.938 442.588 C 503.447 444.411, 506.585 447.521, 507.911 449.498 C 509.236 451.475, 511.711 454.052, 513.411 455.224 C 515.110 456.396, 518.834 459.523, 521.686 462.174 C 524.737 465.009, 530.070 468.449, 534.641 470.533 C 538.914 472.480, 544.680 475.805, 547.455 477.922 C 550.230 480.040, 554.525 482.774, 557 483.999 C 566.954 488.925, 567.286 490.121, 563.943 509 C 561.351 523.638, 561.075 550.543, 563.397 562.344 C 566.594 578.601, 580.667 601.832, 597.195 618.141 C 600.340 621.244, 604.084 625.519, 605.517 627.641 C 606.949 629.764, 613.606 636.588, 620.310 642.807 C 627.013 649.026, 632.861 655.095, 633.305 656.294 C 633.750 657.498, 633.577 662.382, 632.918 667.200 C 630.934 681.725, 631.893 688.174, 637.823 700.177 C 643.007 710.669, 646 719.937, 646 725.500 C 646 731.294, 642.915 740.498, 639.129 746 C 637.048 749.025, 633.656 754.563, 631.591 758.308 C 629.527 762.052, 626.595 766.552, 625.076 768.308 C 623.558 770.063, 620.735 773.975, 618.804 777 C 616.872 780.025, 614.262 783.400, 613.003 784.500 C 611.744 785.600, 608.696 789.650, 606.229 793.500 C 603.762 797.350, 599.613 802.750, 597.010 805.500 C 584.903 818.290, 569.124 835.714, 565.500 840.296 C 563.300 843.078, 558.575 848.312, 554.999 851.927 C 551.424 855.542, 547.374 860.188, 545.999 862.252 C 544.625 864.315, 542.788 866.234, 541.917 866.516 C 541.047 866.798, 532.426 875.235, 522.759 885.264 C 502.302 906.491, 503.031 905.771, 492 915.602 C 487.325 919.768, 481.475 925.092, 479 927.433 C 471.758 934.283, 456.391 947.115, 449.304 952.229 C 445.700 954.831, 440.613 958.881, 437.999 961.229 C 435.385 963.578, 431.866 966.400, 430.179 967.500 C 424.700 971.071, 414.661 980.157, 411.236 984.643 C 409.397 987.051, 405.779 990.094, 403.196 991.406 C 400.613 992.718, 397.234 995.216, 395.687 996.958 C 394.140 998.699, 392.340 999.949, 391.687 999.735 C 388.604 998.724, 390.197 988.745, 394.503 982.100 C 395.786 980.120, 398.209 973.994, 399.888 968.487 C 401.604 962.857, 404.790 955.415, 407.166 951.487 C 409.490 947.644, 413.288 939.100, 415.606 932.500 C 417.923 925.900, 420.968 917.800, 422.371 914.500 C 423.775 911.200, 425.665 905.125, 426.572 901 C 428.261 893.317, 431.895 878.728, 435.093 866.785 C 437.917 856.242, 439.271 841.112, 439.236 820.500 C 439.190 794.188, 438.390 788.598, 430.071 756.500 C 426.025 740.891, 424.167 735.187, 421.903 731.424 C 420.885 729.732, 417.845 723.128, 415.147 716.748 C 412.449 710.368, 409.324 703.859, 408.202 702.284 C 407.081 700.709, 404.698 696.738, 402.909 693.460 C 399.456 687.136, 392.744 677.578, 391 676.500 C 390.426 676.145, 388.174 673.443, 385.996 670.495 C 380.746 663.387, 369.622 652.197, 363.905 648.272 C 361.378 646.537, 357.997 643.628, 356.392 641.809 C 352.774 637.706, 334.566 624.552, 329.677 622.509 C 323.579 619.962, 321.496 620.528, 315 626.500 C 311.710 629.525, 308.850 632, 308.645 632 C 308.440 632, 305.920 632.446, 303.045 632.991 C 295.485 634.425, 290.092 632.787, 283.827 627.155 C 278.887 622.713, 268.805 617.025, 249 607.507 C 243.775 604.996, 236.533 601.392, 232.906 599.497 C 229.279 597.603, 220.054 593.828, 212.406 591.108 C 204.758 588.388, 194.757 584.777, 190.182 583.083 C 179.629 579.176, 161.146 576.626, 147.829 577.241 C 125.391 578.278, 120.011 586.516, 121.313 617.842 C 122.016 634.763, 123.995 647.982, 127.606 659.891 C 131.325 672.157, 132.764 680.750, 134.526 701.211 C 135.392 711.270, 136.564 721.300, 137.132 723.500 C 138.631 729.311, 148.575 745.616, 154.513 752 C 167.354 765.804, 167.334 766.612, 153.893 776.945 C 149.277 780.494, 144.590 790.956, 145.457 795.776 C 147.035 804.558, 150.485 813.825, 154.231 819.340 C 156.443 822.597, 160.017 828.916, 162.174 833.381 C 164.331 837.847, 167.536 843.373, 169.298 845.662 C 171.059 847.951, 174.072 852.676, 175.993 856.162 C 182.496 867.964, 211.158 894.457, 222.737 899.370 C 226.456 900.948, 232.043 904.144, 235.150 906.471 C 238.958 909.321, 243.687 911.607, 249.650 913.480 C 254.518 915.008, 261.125 917.830, 264.332 919.751 C 267.540 921.673, 274.740 924.565, 280.332 926.177 C 285.925 927.790, 294.100 930.708, 298.500 932.661 C 302.900 934.615, 310.325 937.399, 315 938.849 C 321.827 940.966, 324.287 942.288, 327.500 945.568 C 329.700 947.815, 333.334 950.864, 335.576 952.344 C 342.043 956.614, 344.165 961.408, 344.181 971.785 C 344.195 980.199, 341.848 997.656, 340.085 1002.260 C 339.217 1004.525, 327.954 1021.719, 324.418 1026.175 C 323.363 1027.505, 319.907 1030.502, 316.737 1032.837 C 313.568 1035.172, 308.719 1039.085, 305.963 1041.533 C 303.206 1043.981, 299.243 1046.856, 297.156 1047.920 C 295.069 1048.985, 291.367 1051.537, 288.931 1053.590 C 286.494 1055.644, 280.225 1059.331, 275 1061.783 C 269.775 1064.235, 264.032 1067.529, 262.238 1069.101 C 260.444 1070.674, 255.373 1073.758, 250.970 1075.955 C 246.566 1078.152, 240.384 1081.693, 237.232 1083.824 C 234.079 1085.955, 228.800 1088.696, 225.500 1089.917 C 222.200 1091.137, 216.729 1093.679, 213.341 1095.565 C 209.954 1097.452, 203.166 1100.529, 198.257 1102.402 C 193.347 1104.276, 186.219 1107.365, 182.415 1109.268 C 178.612 1111.171, 171.703 1113.948, 167.062 1115.440 C 156.651 1118.785, 152.231 1121.009, 149 1124.528 C 147.625 1126.025, 144.617 1128.435, 142.315 1129.884 C 140.013 1131.332, 134.741 1135.783, 130.599 1139.774 C 124.443 1145.706, 122.789 1147.972, 121.534 1152.196 C 118.774 1161.491, 119.926 1175.386, 124.105 1183.196 C 124.783 1184.463, 128.971 1189, 133.412 1193.277 C 142.544 1202.073, 145.664 1203.447, 156.500 1203.447 C 165.555 1203.447, 170.179 1202.001, 178.406 1196.598 C 182.399 1193.975, 187.825 1191.478, 191.808 1190.429 C 199.330 1188.449, 203.362 1186.513, 210.214 1181.588 C 212.807 1179.725, 218.746 1177.010, 223.412 1175.556 C 228.455 1173.984, 234.453 1171.179, 238.198 1168.640 C 241.664 1166.290, 247.648 1163.048, 251.496 1161.434 C 255.344 1159.820, 260.727 1156.964, 263.459 1155.087 C 266.190 1153.210, 272.250 1149.907, 276.925 1147.748 C 281.600 1145.588, 286.747 1142.707, 288.364 1141.347 C 289.981 1139.986, 295.398 1136.947, 300.402 1134.593 C 305.406 1132.239, 311.750 1128.430, 314.500 1126.129 C 317.250 1123.828, 321.144 1121.450, 323.154 1120.843 C 325.164 1120.237, 328.989 1117.997, 331.654 1115.865 C 334.319 1113.733, 338.434 1110.754, 340.797 1109.244 C 343.160 1107.735, 347.660 1104.811, 350.797 1102.748 C 353.934 1100.684, 359.104 1097.309, 362.287 1095.248 C 365.470 1093.186, 370.195 1090.068, 372.787 1088.318 C 375.379 1086.568, 380.650 1083.238, 384.500 1080.917 C 391.773 1076.533, 396.149 1073.655, 401.856 1069.500 C 403.702 1068.156, 408.877 1065.937, 413.356 1064.570 C 417.835 1063.202, 424.560 1060.236, 428.299 1057.979 C 436.138 1053.247, 440.972 1051.614, 453.500 1049.465 C 463.047 1047.828, 473.225 1044.847, 479 1041.997 C 480.925 1041.048, 487.225 1039.047, 493 1037.551 C 498.775 1036.055, 507.325 1033.316, 512 1031.465 C 539.486 1020.579, 564.404 1020.678, 577.051 1031.724 C 578.948 1033.380, 582.756 1035.874, 585.514 1037.265 C 590.299 1039.679, 614.991 1058.559, 616.450 1060.918 C 616.832 1061.538, 619.925 1063.447, 623.323 1065.161 C 626.720 1066.874, 631.442 1069.985, 633.816 1072.072 C 636.190 1074.160, 641.590 1077.296, 645.816 1079.041 C 650.042 1080.786, 655.836 1084, 658.691 1086.183 C 661.796 1088.557, 668.428 1091.888, 675.191 1094.471 C 681.411 1096.845, 688.944 1099.765, 691.931 1100.959 C 694.919 1102.153, 704.144 1104.271, 712.431 1105.666 C 732.778 1109.090, 744.455 1108.659, 758 1103.984 L 767.500 1100.705 785.596 1102.431 C 806.427 1104.418, 833.807 1104.704, 845.677 1103.058 C 854.396 1101.849, 886.112 1093.015, 891.356 1090.334 C 893.085 1089.451, 896.167 1087.233, 898.205 1085.407 C 900.243 1083.581, 903.631 1081.209, 905.734 1080.136 C 907.837 1079.063, 912.964 1074.620, 917.126 1070.263 C 923.200 1063.906, 925.218 1060.972, 927.344 1055.407 C 932.937 1040.772, 937.315 1037.460, 953.728 1035.450 C 962.695 1034.352, 965.427 1033.507, 975.877 1028.599 C 982.432 1025.519, 988.256 1023, 988.817 1023 C 989.379 1023, 992.384 1020.827, 995.496 1018.172 C 998.954 1015.221, 1004.619 1011.860, 1010.067 1009.526 C 1014.970 1007.426, 1020.672 1004.269, 1022.740 1002.509 C 1024.808 1000.750, 1028.429 998.099, 1030.787 996.619 C 1033.144 995.140, 1036.744 992.467, 1038.787 990.681 C 1040.829 988.894, 1045.200 985.438, 1048.500 983.001 C 1051.800 980.563, 1057.241 976.078, 1060.590 973.034 C 1063.940 969.990, 1068.379 966.202, 1070.456 964.615 C 1072.891 962.754, 1075.299 959.449, 1077.239 955.303 C 1081.026 947.209, 1080.662 943.033, 1075.565 936.088 C 1071.697 930.819, 1051.840 911.954, 1046 908.001 C 1044.075 906.698, 1040.785 904.115, 1038.688 902.262 C 1036.591 900.409, 1031.436 897.326, 1027.233 895.410 C 1023.029 893.494, 1017.320 890.219, 1014.545 888.131 C 1011.770 886.043, 1006.575 883.100, 1003 881.591 C 999.425 880.082, 995.030 877.728, 993.233 876.360 C 991.437 874.992, 988.016 873.010, 985.633 871.956 C 979.657 869.312, 950.446 862, 945.863 862 C 943.804 862, 936.609 863.855, 929.875 866.123 C 922.429 868.630, 915.931 870.212, 913.292 870.159 C 907.668 870.046, 902.139 867.402, 901.404 864.474 C 900.798 862.060, 902.426 858, 903.999 858 C 905.716 858, 910 850.565, 910 847.584 C 910 845.960, 909.080 842.731, 907.956 840.409 C 904.918 834.134, 901.274 832.775, 887.777 832.884 C 880.024 832.946, 872.825 832.240, 863.328 830.486 C 851.982 828.391, 846.853 828.001, 830.683 828.004 C 807.514 828.009, 797.651 829.418, 778.500 835.461 C 770.800 837.891, 762.478 840.403, 760.006 841.044 C 754.444 842.485, 748.829 845.295, 746.933 847.585 C 746.145 848.538, 741.675 851.073, 737 853.219 C 732.325 855.365, 726.025 859.048, 723 861.404 C 719.975 863.760, 715.475 866.979, 713 868.557 C 703.677 874.502, 691.325 883.573, 686.500 888.019 C 683.750 890.553, 678.610 894.164, 675.078 896.044 C 671.545 897.924, 666.210 901.697, 663.222 904.429 C 660.233 907.160, 655.170 911.218, 651.970 913.447 C 643.553 919.310, 631.953 928.960, 631.311 930.632 C 631.008 931.423, 628.824 933.401, 626.459 935.028 C 624.094 936.655, 619.514 940.577, 616.282 943.743 C 607.729 952.122, 595.544 961.197, 587.221 965.389 C 583.224 967.402, 577.988 970.549, 575.585 972.383 C 569.932 976.698, 559.270 980.482, 545.500 983.060 C 539.450 984.192, 530.450 986.394, 525.500 987.952 C 520.550 989.510, 512.135 991.784, 506.799 993.005 C 498.970 994.796, 496.318 995.892, 493.054 998.686 C 487.036 1003.837, 477.467 1006.712, 468.250 1006.140 C 466.396 1006.025, 466 1005.415, 466 1002.674 C 466 997.773, 469.172 995.389, 478.387 993.364 C 482.706 992.415, 487.649 990.612, 489.370 989.358 C 493.850 986.093, 501.006 982.405, 504.500 981.561 C 506.150 981.163, 509.329 978.927, 511.565 976.593 C 513.801 974.259, 517.627 970.966, 520.066 969.275 C 522.504 967.584, 525.850 964.759, 527.500 962.998 C 529.150 961.237, 533.373 957.734, 536.885 955.214 C 540.396 952.694, 554.571 939.420, 568.385 925.716 C 582.198 912.012, 595.841 899.289, 598.702 897.443 C 601.590 895.579, 604.641 892.621, 605.560 890.793 C 607.085 887.759, 614.699 879.337, 622.857 871.659 C 633.913 861.254, 640.727 853.380, 647.822 842.807 C 650.661 838.576, 654.551 833.919, 656.467 832.458 C 658.517 830.894, 661.155 827.272, 662.882 823.651 C 664.495 820.268, 667.644 815.786, 669.880 813.692 C 672.115 811.597, 675.371 807.208, 677.114 803.937 C 678.857 800.667, 683.708 794.281, 687.893 789.746 C 692.079 785.210, 698.935 777.675, 703.130 773 C 712.909 762.101, 728.884 751.705, 742.454 747.410 C 747.379 745.852, 753.454 743.132, 755.954 741.367 C 758.454 739.602, 763.141 736.681, 766.369 734.876 C 772.847 731.254, 780.884 722.109, 785.372 713.253 C 790.559 703.017, 799.319 698.977, 822.973 695.912 C 848.427 692.614, 853.984 691.025, 863.001 684.468 C 865.477 682.668, 870.492 679.767, 874.145 678.022 C 878.279 676.047, 881.949 673.402, 883.867 671.016 C 887.172 666.903, 897.697 661, 901.725 661 C 903.049 661, 904.971 661.450, 905.998 661.999 C 907.952 663.045, 915.638 675.254, 920.791 685.500 C 928.727 701.278, 952.333 725.139, 966 731.198 C 972.855 734.236, 978.627 737.151, 988.500 742.560 C 995.696 746.503, 1005.127 748.986, 1026.500 752.565 C 1046.448 755.906, 1050.563 755.648, 1075.500 749.492 C 1091.917 745.439, 1096.607 744.688, 1110 743.968 C 1118.525 743.510, 1126.175 742.912, 1127 742.639 C 1127.825 742.367, 1136.440 739.614, 1146.145 736.520 C 1157.056 733.043, 1166.024 729.524, 1169.645 727.301 C 1172.865 725.324, 1178.577 721.985, 1182.337 719.881 C 1186.097 717.778, 1194.200 711.844, 1200.344 706.695 C 1210.257 698.387, 1212.054 696.369, 1216.325 688.760 C 1218.972 684.044, 1222.055 679.356, 1223.177 678.343 C 1225.291 676.432, 1229.176 669.356, 1230.502 665 C 1230.921 663.625, 1233.283 658, 1235.750 652.500 C 1243.005 636.334, 1244.470 622.866, 1241.401 600.549 C 1240.522 594.154, 1240.072 587.849, 1240.401 586.538 C 1241.996 580.183, 1254.820 572.668, 1270.374 568.974 C 1281.385 566.359, 1284.319 565.076, 1291.680 559.657 C 1295.037 557.185, 1299.295 554.383, 1301.142 553.430 C 1304.390 551.754, 1312.238 544.721, 1320.500 536.083 C 1322.700 533.783, 1327.219 529.111, 1330.543 525.700 C 1335.993 520.107, 1340.351 514.596, 1349.554 501.656 C 1351.233 499.294, 1353.637 494.018, 1354.896 489.931 C 1356.155 485.844, 1359.183 478.164, 1361.627 472.863 C 1365.343 464.800, 1366.311 461.371, 1367.555 451.863 C 1368.373 445.614, 1370.213 432.400, 1371.644 422.500 C 1375.024 399.125, 1374.620 387.612, 1369.554 363 C 1366.081 346.127, 1365.679 344.962, 1358.355 330.500 C 1351.025 316.027, 1340.467 299.818, 1332.951 291.500 C 1330.963 289.300, 1327.825 285.270, 1325.979 282.544 C 1322.245 277.034, 1310.890 265.382, 1304.008 260 C 1301.547 258.075, 1298.315 255.121, 1296.826 253.436 C 1295.337 251.750, 1290.379 248.648, 1285.809 246.543 C 1281.239 244.437, 1275.025 240.821, 1272 238.508 C 1268.464 235.804, 1263.464 233.298, 1258 231.491 C 1253.325 229.945, 1246.575 227.359, 1243 225.745 C 1230.655 220.171, 1217.065 217.868, 1193 217.272 C 1178.626 216.917, 1168.485 217.150, 1162.404 217.975 C 1154.408 219.061, 1152.932 219.016, 1150.200 217.604 C 1146.342 215.608, 1144.845 210.852, 1145.629 203.079 C 1146.571 193.729, 1144.283 161.367, 1142.089 153 C 1139.272 142.261, 1130.770 120.794, 1126.706 114.161 C 1124.799 111.047, 1121.999 106.032, 1120.484 103.016 C 1115.324 92.744, 1088.820 65.387, 1072.500 53.488 C 1070.300 51.884, 1066.625 48.893, 1064.334 46.842 C 1062.043 44.792, 1057.318 41.678, 1053.834 39.924 C 1050.350 38.169, 1045.700 35.506, 1043.500 34.004 C 1036.897 29.497, 1031.966 27.412, 1022.500 25.124 C 1017.240 23.852, 1009.329 20.862, 1003.463 17.927 C 994.400 13.393, 991.541 12.536, 973.963 9.089 C 940.372 2.499, 930.925 1.921, 909.500 5.142 M 910.886 34.069 C 907.798 34.523, 895.873 37.195, 884.386 40.008 C 865.616 44.604, 862.538 45.661, 854 50.446 C 848.775 53.374, 842.250 56.902, 839.500 58.286 C 836.750 59.670, 833.375 62.017, 832 63.501 C 830.625 64.986, 826.933 67.502, 823.795 69.092 C 820.658 70.682, 816.383 73.727, 814.295 75.859 C 812.208 77.990, 808.700 81.031, 806.500 82.617 C 800.989 86.589, 787.635 100.858, 785.503 105.053 C 784.539 106.949, 782.214 110.398, 780.335 112.718 C 778.423 115.079, 775.214 121.461, 773.045 127.218 C 770.914 132.873, 767.567 140.462, 765.607 144.082 C 760.332 153.828, 758.851 160.975, 758.602 177.881 C 758.465 187.160, 757.938 193.322, 757.158 194.750 C 753.887 200.741, 740.833 194.030, 726.171 178.819 C 719.109 171.492, 714.979 168.136, 709.171 165.004 C 704.952 162.728, 699.700 159.769, 697.500 158.427 C 695.300 157.086, 689 154.585, 683.500 152.871 C 678 151.156, 669.332 148.459, 664.238 146.877 C 648.866 142.102, 641.253 142.728, 609.087 151.415 C 591.392 156.193, 587.846 157.544, 582.500 161.538 C 580.850 162.771, 576.800 165.182, 573.500 166.897 C 566.192 170.694, 552.616 180.178, 544.500 187.158 C 541.200 189.996, 536.144 193.831, 533.265 195.680 C 530.385 197.530, 527.384 200.271, 526.594 201.771 C 525.805 203.272, 522.452 208.069, 519.144 212.432 C 515.835 216.794, 512.086 222.395, 510.814 224.878 C 509.541 227.361, 506.969 231.217, 505.099 233.446 C 499.865 239.684, 487.667 265.368, 485.711 274.271 C 480.183 299.426, 481.688 345.998, 488.552 362.214 C 490.016 365.671, 492.929 373.182, 495.026 378.905 C 497.123 384.628, 500.223 391.153, 501.914 393.405 C 503.606 395.657, 506.967 400.425, 509.385 404 C 511.802 407.575, 514.784 411.400, 516.012 412.500 C 517.239 413.600, 520.249 417.100, 522.701 420.277 C 527.360 426.315, 533.848 431.758, 544.422 438.500 C 547.872 440.700, 552.452 443.903, 554.598 445.617 C 560.303 450.174, 565.269 452.437, 577.172 455.905 C 584.665 458.087, 589.909 459, 594.956 459 C 603.049 459, 610.630 460.594, 611.340 462.444 C 611.950 464.033, 608.773 477.715, 607.032 481 C 606.303 482.375, 604.422 484.979, 602.851 486.787 C 599.256 490.926, 595.621 498.165, 594.208 504 C 592.287 511.931, 590.740 530.274, 591.364 537.717 C 592.746 554.208, 595.903 564.508, 602.944 575.500 C 605.057 578.800, 607.397 583.258, 608.143 585.406 C 608.921 587.646, 613.483 593.829, 618.841 599.906 C 630.796 613.465, 634.256 616.810, 641 621.324 C 644.025 623.349, 648.357 626.467, 650.628 628.253 C 652.898 630.039, 657.154 632.850, 660.086 634.500 C 663.017 636.150, 666.949 638.359, 668.823 639.408 C 674.402 642.531, 680.911 642.645, 687.278 639.730 C 695.699 635.875, 722.070 629.603, 726.425 630.420 C 730.913 631.262, 735.813 636.014, 742.784 646.285 C 748.233 654.315, 751.264 656.815, 759 659.662 C 761.475 660.573, 767.686 663.066, 772.802 665.203 C 786.372 670.870, 790.067 671.384, 809.121 670.250 C 822.012 669.482, 826.778 668.792, 831.500 667.009 C 834.800 665.763, 841.093 663.460, 845.485 661.891 C 849.877 660.322, 856.627 656.841, 860.485 654.155 C 864.343 651.469, 870.064 648.064, 873.198 646.588 C 876.916 644.836, 879.614 642.742, 880.963 640.561 C 882.099 638.722, 885.058 635.555, 887.538 633.522 C 890.018 631.490, 892.886 628.179, 893.911 626.164 C 900.453 613.302, 908.035 579.821, 908.215 563 C 908.329 552.294, 907.262 532.408, 906.431 529.753 C 905.047 525.330, 899.865 519.005, 895.560 516.482 C 893.153 515.072, 886.553 512.775, 880.892 511.378 C 875.232 509.981, 866.304 506.971, 861.051 504.690 C 851.589 500.582, 851.370 500.540, 837.500 500.181 C 821.748 499.773, 821.226 499.560, 817.975 492.211 C 816.889 489.755, 812.802 484.584, 808.761 480.554 C 801.933 473.743, 800.929 473.122, 791.931 470.134 C 780.841 466.451, 777.077 463.260, 772.139 453.352 C 766.887 442.817, 762.020 440.613, 744.609 440.889 C 729.375 441.131, 723 438.767, 723 432.877 C 723 430.638, 724.121 429.218, 728.500 425.912 C 731.525 423.628, 734 421.176, 734 420.462 C 734 417.631, 732.583 415.828, 728.869 413.933 C 726.732 412.843, 722.912 409.966, 720.380 407.540 C 717.848 405.113, 713.239 401.938, 710.138 400.483 C 707.037 399.029, 702.925 396.385, 701 394.609 C 699.075 392.832, 695.700 390.098, 693.500 388.534 C 691.300 386.969, 686.800 382.917, 683.500 379.529 C 678.800 374.704, 676.417 373.070, 672.503 371.986 C 668.918 370.993, 666.233 369.301, 663.003 366.001 C 660.526 363.471, 656.138 359.913, 653.250 358.096 C 650.362 356.278, 648 354.445, 648 354.022 C 648 353.599, 645.494 350.444, 642.432 347.012 C 639.369 343.580, 636.500 339.810, 636.056 338.636 C 634.438 334.360, 633.897 324.344, 634.935 317.878 C 635.890 311.924, 636.974 309.431, 643.075 299.153 C 646.376 293.592, 655.257 289.900, 656.643 293.513 C 657.519 295.794, 655.429 297.654, 650.308 299.152 C 643.717 301.079, 642.466 304.332, 644.535 314.166 C 646.396 323.012, 648.390 326.590, 653.641 330.500 C 655.857 332.150, 658.981 335.223, 660.585 337.329 C 662.188 339.435, 665.975 342.682, 669 344.545 C 672.025 346.407, 676.570 350.310, 679.100 353.216 C 682.153 356.722, 686.190 359.817, 691.100 362.413 C 701.761 368.052, 713.136 375.718, 715.804 379.063 C 717.071 380.652, 720.537 383.405, 723.507 385.182 C 727.351 387.481, 729.637 389.754, 731.445 393.077 C 734.733 399.117, 736.171 400.246, 739.512 399.408 C 741.360 398.944, 742.691 397.591, 743.719 395.131 C 745.013 392.033, 745.072 388.822, 744.141 372.017 C 743.547 361.282, 743.426 350.925, 743.872 349 C 745.623 341.441, 749.853 336.326, 760.289 329.145 C 762.880 327.362, 766.502 323.563, 768.337 320.702 C 774.196 311.569, 798.724 288.488, 809.696 281.784 C 816.274 277.765, 816.868 277.603, 827.592 276.930 C 833.692 276.547, 841.223 275.496, 844.328 274.593 C 849.228 273.169, 850.496 272.243, 853.947 267.572 C 856.132 264.613, 859.238 261.254, 860.849 260.108 C 862.459 258.961, 865.197 255.809, 866.933 253.104 C 868.866 250.093, 871.496 247.518, 873.718 246.464 C 878.972 243.970, 888.694 243.423, 894.613 245.288 C 902.315 247.714, 904.818 247.867, 911.368 246.310 C 914.852 245.483, 920.487 245.011, 924.416 245.219 L 931.332 245.584 936.416 251.237 C 942.539 258.046, 945.038 259.104, 953.223 258.355 C 958.122 257.907, 960.799 258.240, 965.418 259.874 C 973.128 262.601, 975.580 264.983, 979.656 273.710 C 981.979 278.684, 984.338 281.992, 987.262 284.374 C 989.593 286.274, 993.975 289.871, 997 292.369 C 1000.025 294.866, 1005.748 298.753, 1009.717 301.006 C 1013.686 303.260, 1017.961 306.464, 1019.217 308.126 C 1020.473 309.789, 1024.200 314.179, 1027.500 317.882 C 1039.945 331.845, 1045.195 338.452, 1047.570 343.138 C 1050.538 348.995, 1056.154 352.528, 1069.683 357.051 C 1088.547 363.356, 1090.500 366.729, 1090.500 393 C 1090.500 409.349, 1090.348 410.789, 1088.189 414.897 C 1085.376 420.251, 1074.048 435.098, 1068.817 440.287 C 1064.457 444.613, 1063.808 448.611, 1066.999 451.499 C 1068.782 453.113, 1070.260 453.238, 1080.749 452.659 C 1098.085 451.704, 1098.842 451.377, 1112.678 438.893 C 1113.877 437.812, 1115.154 435.577, 1115.516 433.926 C 1115.879 432.275, 1118.589 428.318, 1121.538 425.132 C 1127.292 418.918, 1135.341 403.860, 1136.465 397.210 C 1137.143 393.197, 1136.453 390.999, 1132.479 384.500 C 1129.413 379.486, 1129.372 376.939, 1132.314 374.174 C 1135.550 371.134, 1139.727 371.437, 1147.163 375.250 C 1152.758 378.119, 1153.834 379.167, 1156.347 384.193 C 1158.843 389.185, 1159.202 391.034, 1159.256 399.193 C 1159.338 411.714, 1157.347 418.206, 1151.137 425.667 C 1148.467 428.875, 1145.544 432.940, 1144.642 434.699 C 1143.724 436.488, 1139.950 440.016, 1136.084 442.699 C 1119.361 454.305, 1117.032 456.189, 1113.569 460.906 C 1109.391 466.598, 1106.398 468.661, 1095.937 473.059 C 1080.353 479.611, 1078.548 480.114, 1065.850 481.442 C 1051.624 482.930, 1050.132 483.548, 1042.980 490.911 C 1039.703 494.286, 1036.680 496.200, 1031.980 497.878 C 1028.416 499.150, 1022.514 501.969, 1018.864 504.142 C 1015.213 506.315, 1008.608 509.204, 1004.185 510.562 C 997.375 512.654, 995.827 513.545, 994.072 516.384 C 991.908 519.884, 991.277 526.435, 993 527.500 C 993.550 527.840, 994 528.593, 994 529.173 C 994 530.585, 990.032 529.776, 981.500 526.627 C 974.785 524.147, 973.626 524.041, 953 524.025 C 933.448 524.009, 931.211 524.184, 928.311 525.952 C 926.315 527.169, 924.789 529.130, 924.230 531.198 C 923.699 533.165, 923.746 543.193, 924.347 556 C 925.444 579.357, 925.514 587.418, 924.903 620 C 924.510 640.970, 924.557 641.609, 926.830 645.935 C 928.112 648.374, 930.712 652.182, 932.608 654.398 C 934.505 656.613, 937.209 660.917, 938.619 663.963 C 940.970 669.041, 943.350 671.872, 956.305 685 C 961.128 689.887, 974.389 699.691, 980 702.518 C 981.925 703.488, 986.899 706.455, 991.053 709.111 C 997.025 712.929, 1001.524 714.774, 1012.553 717.926 C 1036.652 724.813, 1042.329 725.020, 1057 719.543 C 1068.757 715.155, 1071.746 714.785, 1098 714.469 C 1120.011 714.205, 1124.389 713.891, 1130 712.178 C 1139.147 709.384, 1157.159 701.727, 1161.148 698.936 C 1175.127 689.157, 1191.955 670.938, 1197.112 660 C 1198.798 656.425, 1202.177 649.385, 1204.620 644.356 C 1210.808 631.621, 1212.329 623.663, 1211.665 607.500 C 1211.064 592.900, 1210.081 588.493, 1205.973 582 C 1204.407 579.525, 1201.505 573.706, 1199.524 569.069 C 1195.404 559.428, 1195.499 556.440, 1200.050 552.612 C 1203.983 549.302, 1207.874 548.624, 1214.730 550.053 C 1227.067 552.624, 1253.651 550.440, 1261.713 546.193 C 1264.682 544.628, 1270.203 541.085, 1281.490 533.500 C 1291.014 527.101, 1301.192 518.589, 1306.392 512.677 C 1309.380 509.279, 1313.658 504.520, 1315.898 502.099 C 1318.555 499.229, 1321.054 494.883, 1323.087 489.599 C 1324.801 485.145, 1327.980 477.873, 1330.152 473.441 C 1335.231 463.074, 1336.469 455.843, 1338.643 423.836 C 1340.294 399.547, 1340.295 397.243, 1338.676 380.836 C 1336.530 359.097, 1334.985 352.521, 1330.058 344.158 C 1327.900 340.496, 1324.916 334.350, 1323.427 330.500 C 1321.937 326.650, 1318.822 321.025, 1316.503 318 C 1314.185 314.975, 1311.569 311.099, 1310.690 309.388 C 1308.518 305.159, 1280.559 278.542, 1274.981 275.393 C 1272.517 274.001, 1269.150 271.590, 1267.500 270.035 C 1265.850 268.480, 1261.749 265.835, 1258.386 264.158 C 1255.024 262.481, 1249.903 259.711, 1247.006 258.004 C 1232.753 249.599, 1211.875 246.462, 1176 247.332 C 1163.625 247.633, 1150.125 248.382, 1146 248.997 C 1137.267 250.299, 1128.744 254.010, 1121 259.881 C 1111.437 267.131, 1103.998 267.633, 1101.313 261.207 C 1099.366 256.548, 1100.577 251.778, 1107.206 238 C 1113.416 225.093, 1114.428 218.357, 1113.604 195.431 C 1113.009 178.860, 1111.300 166.932, 1108.027 156.500 C 1106.992 153.200, 1104.702 145.180, 1102.938 138.678 C 1100.289 128.908, 1098.947 125.789, 1095.204 120.705 C 1092.714 117.322, 1089.201 112.067, 1087.398 109.027 C 1084.252 103.722, 1070.189 89.849, 1061.500 83.478 C 1059.300 81.866, 1054.800 78.229, 1051.500 75.397 C 1048.200 72.566, 1043.041 69.011, 1040.035 67.498 C 1037.029 65.986, 1032.979 63.485, 1031.035 61.942 C 1029.091 60.398, 1025.475 58.382, 1023 57.460 C 1020.525 56.539, 1012.851 53.122, 1005.946 49.867 C 994.533 44.487, 991.477 43.547, 972.326 39.522 C 941.362 33.015, 926.832 31.725, 910.886 34.069 M 881.987 278.872 C 878.955 279.843, 873.555 282.247, 869.987 284.215 C 866.419 286.184, 860.850 288.546, 857.610 289.466 C 850.218 291.564, 847.913 293.075, 844.420 298.115 C 840.336 304.009, 824.219 314.412, 816 316.460 C 805.826 318.995, 804.903 319.563, 797.109 328.083 C 789.124 336.812, 787.553 339.999, 783.457 355.762 C 781.155 364.621, 780.999 366.583, 781.530 379.952 C 782.312 399.641, 783.476 406.211, 787.564 413.989 C 792.451 423.287, 803.699 437.019, 808.677 439.765 C 814.452 442.951, 828.018 454.840, 830.868 459.213 C 836.587 467.988, 859.784 474.760, 870.877 470.893 C 873.940 469.825, 874.237 469.977, 879.276 475.202 C 886.197 482.378, 892.574 484.296, 909 484.146 C 916.269 484.080, 922.523 484.581, 926 485.509 C 937.491 488.575, 945.308 487.327, 951.937 481.367 C 954.608 478.965, 957.556 477, 958.488 477 C 959.420 477, 962.014 478.568, 964.254 480.485 C 969.214 484.731, 973.365 485.616, 981.944 484.255 C 991.311 482.769, 999.375 479.436, 1004.653 474.867 C 1007.170 472.689, 1012.665 469.170, 1016.864 467.046 C 1025.357 462.751, 1028.670 459.592, 1034.829 449.915 C 1037.134 446.293, 1040.126 442.291, 1041.477 441.021 C 1043.779 438.859, 1045.069 435.700, 1047.940 425.188 C 1048.588 422.816, 1050.605 419.216, 1052.422 417.188 C 1057.457 411.570, 1059 407.799, 1059 401.115 C 1059 393.344, 1057.887 390.642, 1052.172 384.537 C 1049.578 381.767, 1046.566 378.346, 1045.478 376.935 C 1042.572 373.168, 1039.279 371.347, 1032 369.482 C 1025.224 367.746, 1014.998 361.356, 1011.133 356.442 C 1010.024 355.032, 1008.644 351.318, 1008.065 348.189 C 1004.848 330.774, 1001.457 324.884, 991.903 320.109 C 986.556 317.438, 984.596 317, 977.975 317 C 968.293 317, 967.192 316.201, 958 302.499 C 953.938 296.446, 949.754 291.409, 947.805 290.228 C 939.682 285.304, 930.031 282.082, 915.914 279.583 C 899.017 276.591, 889.723 276.396, 881.987 278.872 M 666.496 283.007 C 665.736 284.236, 668.488 285.434, 669.968 284.520 C 670.554 284.158, 670.774 283.443, 670.457 282.931 C 669.694 281.696, 667.277 281.742, 666.496 283.007 M 822 392.644 C 817.888 394.251, 816.586 401.536, 819.633 405.886 C 822.759 410.349, 833.220 413.388, 838.495 411.364 C 843.685 409.372, 841.247 399.170, 834.599 395.061 C 830.882 392.764, 824.718 391.581, 822 392.644 M 851.698 422.250 C 843.919 430.530, 842.691 432.450, 843.513 435.042 C 844.436 437.949, 849.431 439.847, 858.187 440.619 C 868.616 441.538, 871.622 442.977, 872.925 447.670 C 873.510 449.777, 874.001 451.950, 874.017 452.500 C 874.032 453.050, 874.889 454.599, 875.921 455.942 C 877.769 458.346, 877.899 458.364, 884.537 457.141 C 894.483 455.309, 903.372 450.029, 901.530 447.049 C 900.261 444.996, 893.213 442.078, 887.175 441.106 C 877.415 439.534, 876.445 438.611, 871.960 426.623 C 869.505 420.062, 865.203 416, 860.708 416 C 858.151 416, 856.481 417.158, 851.698 422.250 M 936.440 427.145 C 933.448 429.975, 931 433.148, 931 434.196 C 931 437.116, 937.273 439.287, 945.623 439.257 C 959.513 439.206, 962.433 434.941, 954.086 426.896 C 947.006 420.072, 943.872 420.116, 936.440 427.145 M 970.147 447.323 C 969.543 448.050, 968.321 451.490, 967.430 454.967 C 965.421 462.809, 966.415 466, 970.868 466 C 975.268 466, 977.892 463.190, 979.591 456.659 C 980.963 451.383, 980.957 450.584, 979.532 448.409 C 977.749 445.687, 972.052 445.028, 970.147 447.323 M 155.500 608.945 C 152.972 609.980, 150.430 612.865, 149.577 615.668 C 148.210 620.161, 153.864 655.241, 158.990 674.065 C 161.172 682.076, 164.105 694.852, 165.510 702.456 C 167.564 713.579, 169.014 718.354, 172.927 726.890 C 178.424 738.878, 180.498 748.201, 179.749 757.540 C 179.165 764.809, 180.034 767.101, 185.413 772.479 C 189.975 777.042, 190.047 780.047, 185.903 792.897 C 181.823 805.544, 182.148 812.165, 187.265 820.669 C 189.195 823.876, 191.961 828.870, 193.412 831.766 C 198.016 840.957, 220.668 865.263, 228.208 869.102 C 230.569 870.304, 234.300 872.743, 236.500 874.523 C 238.700 876.302, 243.200 879.246, 246.500 881.065 C 249.800 882.884, 255.214 886.283, 258.532 888.618 C 263.651 892.222, 266.693 893.401, 278.619 896.404 C 286.348 898.351, 296.009 901.504, 300.086 903.411 C 304.193 905.332, 312.076 907.822, 317.760 908.994 C 323.402 910.158, 329.477 911.717, 331.260 912.460 C 333.042 913.202, 337.357 914.369, 340.849 915.054 C 350.074 916.863, 349.888 917.553, 345.969 896 C 344.919 890.225, 343.347 881.026, 342.476 875.557 C 340.466 862.947, 337.698 854.729, 333.534 849.009 C 331.728 846.529, 329.246 842.475, 328.018 840 C 324.826 833.570, 312.628 817.863, 308.991 815.500 C 307.298 814.400, 304.300 811.025, 302.330 808 C 300.359 804.975, 296.984 799.925, 294.829 796.778 C 292.675 793.632, 289.405 787.751, 287.564 783.710 C 285.723 779.669, 282.030 773.860, 279.358 770.799 C 276.686 767.739, 273.600 762.852, 272.500 759.938 C 271.400 757.025, 268.535 752.359, 266.134 749.571 C 263.733 746.782, 260.746 742.339, 259.497 739.698 C 258.248 737.057, 255.880 733.416, 254.233 731.607 C 248.428 725.226, 247.563 720.869, 250.989 715.250 C 253.387 711.318, 256.057 711.077, 264 714.080 C 270.026 716.358, 273.082 718.779, 276.105 723.670 C 277.194 725.432, 280.301 728.465, 283.009 730.411 C 285.909 732.494, 288.828 735.707, 290.110 738.224 C 291.307 740.576, 294.176 744.750, 296.486 747.500 C 298.796 750.250, 302.718 755.650, 305.202 759.500 C 307.685 763.350, 310.941 767.624, 312.437 768.998 C 313.932 770.371, 316.708 774.051, 318.606 777.174 C 320.503 780.297, 324.030 784.348, 326.444 786.176 C 340.553 796.862, 343.869 800.092, 345.555 804.788 C 346.485 807.379, 348.822 812.875, 350.747 817 C 352.673 821.125, 355.925 828.861, 357.974 834.192 C 360.024 839.523, 363.531 846.948, 365.769 850.692 C 368.718 855.626, 370.820 861.216, 373.409 871 C 375.372 878.425, 378.109 887.806, 379.490 891.846 C 380.870 895.886, 382 899.900, 382 900.766 C 382 903.454, 388.154 915.845, 389.803 916.478 C 393.815 918.018, 396.248 911.597, 399.837 890 C 404.842 859.880, 407.105 841.115, 408.087 821.579 C 409.297 797.544, 408.365 784.773, 404.449 771.699 C 400.796 759.505, 397.220 747.038, 396.027 742.337 C 395.446 740.048, 393.405 735.998, 391.492 733.337 C 389.579 730.677, 385.930 724.450, 383.382 719.500 C 380.834 714.550, 377.200 708.776, 375.305 706.670 C 373.410 704.563, 371.042 700.963, 370.042 698.670 C 369.042 696.376, 366.036 691.769, 363.362 688.431 C 360.688 685.093, 356.304 679.595, 353.619 676.213 C 350.935 672.831, 346.268 668.362, 343.250 666.282 L 337.761 662.500 327.630 662.584 C 322.059 662.631, 314.575 662.819, 311 663.002 C 303.708 663.377, 298.644 661.400, 291.698 655.467 C 288.917 653.091, 285.588 651.641, 279.291 650.061 C 274.559 648.874, 265.694 645.934, 259.593 643.526 C 253.459 641.106, 243.687 638.225, 237.734 637.081 C 225.445 634.721, 221.337 633.215, 218.500 630.032 C 215.788 626.988, 210.186 624.250, 199.753 620.867 C 194.942 619.308, 188.303 616.668, 185 615 C 178.933 611.937, 164.607 607.966, 160 608.070 C 158.625 608.101, 156.600 608.495, 155.500 608.945 M 1597.241 663.750 C 1595.880 667.168, 1596.447 673.876, 1598.250 675.679 C 1599.917 677.345, 1600 677.061, 1600 669.714 C 1600 662.294, 1598.828 659.762, 1597.241 663.750 M 692.429 668.086 C 686.138 668.895, 684.128 669.951, 680.060 674.585 C 674.068 681.409, 673.514 686.546, 678.523 688.829 C 682.186 690.498, 683.855 690.299, 689.500 687.522 C 695.685 684.480, 698.944 684.381, 702.440 687.131 C 708.437 691.849, 707.965 697.397, 700.890 705.334 C 694.734 712.241, 694.406 715.606, 699.400 720.600 C 702.337 723.537, 703.461 723.999, 707.650 723.990 C 710.611 723.984, 714.448 723.074, 717.500 721.653 C 720.250 720.373, 724.975 718.521, 728 717.539 C 737.823 714.349, 740.760 712.168, 744.019 705.645 C 745.659 702.365, 747 698.965, 746.999 698.090 C 746.998 694.732, 741.103 684.181, 737.854 681.721 C 731.127 676.629, 719.069 671, 714.887 671 C 712.677 671, 710.101 670.589, 709.162 670.087 C 706.078 668.436, 697.594 667.422, 692.429 668.086 M 672.898 749.251 C 671.018 750.497, 668.433 753.654, 667.112 756.318 C 663.070 764.466, 663.053 778, 667.083 778 C 668.529 778, 672.027 773.731, 675.686 767.500 C 677.623 764.200, 679.888 761.112, 680.717 760.637 C 683.943 758.792, 686 755.878, 686 753.155 C 686 747.158, 679.141 745.114, 672.898 749.251 M 650.989 789.250 C 647.888 794.336, 648.588 799, 652.452 799 C 656.510 799, 658.623 795.017, 658.156 788.250 C 657.904 784.611, 653.438 785.234, 650.989 789.250 M 794.772 857.982 C 786.043 859.083, 782.306 860.366, 774.428 864.970 C 770.869 867.050, 764.551 870.045, 760.388 871.626 C 755.833 873.356, 750.807 876.213, 747.766 878.803 C 744.987 881.170, 741.090 883.945, 739.106 884.970 C 737.123 885.994, 733.073 888.919, 730.106 891.470 C 727.140 894.020, 723.090 896.937, 721.106 897.953 C 719.123 898.969, 714.379 902.560, 710.565 905.933 C 706.750 909.306, 701.320 913.386, 698.498 915.001 C 695.676 916.616, 692.497 918.906, 691.434 920.090 C 690.370 921.274, 687.025 923.934, 684 926 C 680.975 928.066, 677.600 930.766, 676.500 932 C 675.400 933.234, 671.903 936.011, 668.730 938.173 C 664.734 940.894, 662.050 943.714, 660.002 947.343 C 658.375 950.225, 655.684 953.886, 654.022 955.479 C 650.364 958.984, 650.241 960.457, 653.433 962.548 C 656.190 964.355, 658.836 963.469, 662.573 959.488 C 666.854 954.926, 684.151 952.802, 731.500 951.024 C 746.958 950.443, 762.262 949.201, 774.500 947.535 C 784.950 946.112, 800.475 944.280, 809 943.465 C 817.525 942.649, 826.525 941.556, 829 941.035 C 835.039 939.763, 848.226 939.755, 851.555 941.021 C 853.032 941.583, 856.283 943.839, 858.778 946.036 C 862.397 949.222, 865.590 950.740, 874.560 953.540 C 880.745 955.471, 886.040 957.662, 886.327 958.410 C 887.241 960.791, 884.208 963.710, 879.619 964.866 C 877.175 965.481, 860.848 966.438, 843.337 966.993 C 811.393 968.004, 782.560 971.024, 777.135 973.928 C 774.120 975.541, 771 982.194, 771 987.010 C 771 992.063, 772.872 995.806, 779.203 1003.412 C 784.866 1010.215, 788.380 1016.568, 787.601 1018.597 C 787.305 1019.369, 785.901 1020, 784.482 1020 C 780.172 1020, 776.276 1017.299, 774.376 1012.992 C 772.955 1009.770, 771.519 1008.444, 767.275 1006.437 C 763.857 1004.820, 760.886 1002.445, 758.966 999.795 C 757.323 997.526, 754.295 994.559, 752.239 993.201 C 750.183 991.843, 746.700 989.041, 744.500 986.975 C 742.300 984.908, 739.024 982.475, 737.220 981.568 C 735.416 980.660, 731.232 978.167, 727.922 976.028 C 714.202 967.160, 697.060 966.795, 673.303 974.863 C 668.461 976.508, 659.775 978.584, 654 979.478 C 636.220 982.229, 629.806 983.898, 621.500 987.936 C 615.180 991.009, 610.770 992.281, 600.500 993.996 C 585.757 996.457, 582.631 997.601, 582.188 1000.702 C 581.842 1003.123, 583.963 1004.517, 593.316 1008.017 C 596.329 1009.144, 600.935 1011.964, 603.552 1014.283 C 606.169 1016.603, 610.668 1020.075, 613.549 1022 C 616.431 1023.925, 620.973 1027.200, 623.644 1029.277 C 630.230 1034.400, 643.613 1043.183, 652.328 1048.102 C 656.273 1050.329, 660.625 1053.187, 662 1054.453 C 665.664 1057.828, 668.264 1058.961, 679.547 1062.105 C 685.142 1063.663, 693.271 1066.582, 697.610 1068.591 C 701.950 1070.600, 709.550 1073.082, 714.500 1074.107 C 727.205 1076.736, 762.189 1078.490, 773.792 1077.079 C 778.716 1076.480, 793.264 1075.539, 806.122 1074.987 C 840.161 1073.527, 848.791 1072.534, 862 1068.564 C 868.325 1066.663, 877.325 1063.977, 882 1062.597 C 894.325 1058.958, 894.307 1058.979, 895.138 1047.620 C 895.947 1036.553, 898.990 1028.547, 903.622 1025.303 C 905.205 1024.194, 909.425 1021.893, 913 1020.189 C 916.575 1018.486, 921.686 1015.271, 924.359 1013.046 C 927.031 1010.821, 929.345 1009, 929.499 1009 C 929.654 1009, 934.218 1007.849, 939.641 1006.441 C 945.463 1004.930, 952.775 1002.110, 957.500 999.553 C 961.900 997.172, 968.775 994.054, 972.777 992.624 C 981.155 989.630, 985.273 987.620, 989.500 984.462 C 991.150 983.229, 995.425 980.766, 999 978.989 C 1002.575 977.211, 1007.525 974.291, 1010 972.500 C 1012.475 970.709, 1017.200 967.878, 1020.500 966.210 C 1023.800 964.542, 1029.142 961.112, 1032.370 958.588 C 1035.599 956.065, 1038.551 954, 1038.930 954 C 1040.854 954, 1046 947.517, 1046 945.094 C 1046 940.366, 1034.735 930.069, 1024.717 925.638 C 1021.587 924.254, 1017.488 921.948, 1015.607 920.514 C 1013.727 919.080, 1007.229 915.732, 1001.167 913.073 C 995.106 910.415, 988.789 907.274, 987.131 906.093 C 982.427 902.744, 978.038 901.218, 965.407 898.543 C 958.964 897.178, 950.274 894.960, 946.096 893.612 C 925.089 886.839, 915.698 884.755, 908.500 885.269 C 904.530 885.553, 899.514 886.674, 896.911 887.860 C 894.387 889.010, 889.076 890.508, 885.109 891.188 C 875.055 892.912, 873.853 891.928, 872.484 880.856 C 871.373 871.880, 861.384 862.963, 848.500 859.448 C 841.526 857.545, 805.942 856.574, 794.772 857.982 M 455.250 1010.662 C 454.563 1010.940, 454 1011.834, 454 1012.650 C 454 1014.829, 459.389 1013.995, 459.815 1011.750 C 460.144 1010.013, 458.079 1009.521, 455.250 1010.662 M 419.642 1014.180 C 417.571 1015.340, 417.543 1016.611, 419.572 1017.389 C 421.276 1018.043, 425 1016.459, 425 1015.081 C 425 1013.756, 421.463 1013.161, 419.642 1014.180 M 791.154 1025.970 C 791.344 1027.275, 792.063 1028.529, 792.750 1028.755 C 794.549 1029.348, 794.291 1026.486, 792.404 1024.920 C 791.010 1023.764, 790.852 1023.897, 791.154 1025.970 M 384.450 1033.461 C 376.080 1034.982, 372.777 1036.566, 366.327 1042.154 C 363.672 1044.454, 358.125 1047.866, 354 1049.737 C 349.875 1051.608, 344.700 1054.883, 342.500 1057.016 C 339.761 1059.671, 335.820 1061.905, 330 1064.101 C 323.430 1066.580, 320.587 1068.290, 317.481 1071.631 C 314.417 1074.927, 311.393 1076.766, 304.759 1079.370 C 299.973 1081.249, 294.295 1084.182, 292.142 1085.888 C 289.988 1087.594, 284.238 1090.643, 279.363 1092.663 C 274.488 1094.684, 268.521 1097.679, 266.103 1099.318 C 263.684 1100.958, 258.284 1103.726, 254.103 1105.470 C 249.921 1107.213, 243.494 1110.705, 239.820 1113.229 C 236.143 1115.754, 230.524 1118.543, 227.320 1119.431 C 219.705 1121.543, 215.588 1123.419, 209.500 1127.554 C 206.718 1129.443, 200.200 1132.267, 194.808 1133.919 C 184.882 1136.960, 180.515 1138.852, 175.841 1142.138 C 174.378 1143.166, 170.118 1145.314, 166.374 1146.911 C 156.801 1150.995, 155 1152.973, 155 1159.405 C 155 1167.724, 157.038 1168.543, 167.879 1164.580 C 180.848 1159.838, 189.571 1155.895, 194.500 1152.544 C 197.250 1150.674, 203.046 1147.743, 207.380 1146.031 C 211.713 1144.319, 217.286 1141.524, 219.762 1139.820 C 222.238 1138.116, 228.574 1134.962, 233.841 1132.810 C 239.108 1130.659, 245.330 1127.331, 247.669 1125.415 C 252.289 1121.629, 256.016 1119.856, 265.544 1116.914 C 269.051 1115.830, 273.855 1113.320, 276.619 1111.127 C 279.304 1108.997, 285.222 1105.387, 289.771 1103.105 C 294.321 1100.823, 299.721 1097.461, 301.771 1095.635 C 303.822 1093.808, 308.136 1091.120, 311.358 1089.662 C 314.580 1088.205, 319.378 1085.425, 322.020 1083.486 C 324.662 1081.546, 330.125 1078.600, 334.162 1076.938 C 338.840 1075.012, 343.131 1072.335, 346 1069.554 C 349.003 1066.643, 353.162 1064.102, 358.500 1061.916 C 363.775 1059.756, 367.692 1057.373, 370 1054.920 C 371.925 1052.874, 375.804 1050.052, 378.620 1048.649 C 384.282 1045.828, 388.662 1041.267, 389.638 1037.173 C 389.989 1035.703, 390.719 1033.938, 391.260 1033.250 C 391.802 1032.563, 392.077 1032.041, 391.872 1032.090 C 391.668 1032.140, 388.327 1032.757, 384.450 1033.461 M 1588 1131.422 C 1582.775 1133.235, 1573.775 1136.973, 1568 1139.729 C 1562.225 1142.486, 1555.861 1145.268, 1553.858 1145.913 C 1550.629 1146.951, 1545.998 1150.418, 1535.345 1159.770 C 1528.818 1165.500, 1527.303 1180.086, 1531.841 1193.500 C 1533.476 1198.334, 1535.001 1200.527, 1539.685 1204.783 C 1542.883 1207.688, 1546.762 1210.750, 1548.304 1211.586 C 1554.935 1215.183, 1567.896 1214.273, 1578.234 1209.483 C 1581.096 1208.157, 1587.163 1206.088, 1591.718 1204.885 L 1600 1202.697 1600 1187.720 L 1600 1172.742 1594.877 1173.422 C 1592.060 1173.796, 1587.522 1174.950, 1584.793 1175.987 C 1576.935 1178.972, 1574.775 1176.598, 1579.274 1169.922 C 1582.467 1165.183, 1587.292 1162.225, 1594.129 1160.812 L 1600 1159.600 1600 1143.800 C 1600 1131.793, 1599.700 1128.015, 1598.750 1128.064 C 1598.063 1128.099, 1593.225 1129.610, 1588 1131.422" stroke="none" fill="#1a1a1a" fill-rule="evenodd"/>
</svg>