<svg shape-rendering="geometricPrecision" xmlns="http://www.w3.org/2000/svg" width="901" height="1600" viewBox="0 0 901 1600" version="1.1">
	<rect x="0" y="0" width="100%" height="100%" fill="#ffffff" />
	<path d="M 427.500 174 C 392.411 174.839, 376.276 176.182, 365.537 179.157 C 361.667 180.230, 351.750 182.471, 343.500 184.137 C 334 186.057, 326.850 188.084, 324 189.666 C 321.525 191.040, 316.871 193.238, 313.657 194.550 C 310.443 195.862, 306.054 198.525, 303.904 200.468 C 301.754 202.411, 299.517 204, 298.933 204 C 296.819 204, 280.405 221.636, 277.527 227 C 274.779 232.121, 274.574 233.257, 274.545 243.500 C 274.517 253.712, 274.715 254.858, 277.308 259.500 C 280.103 264.502, 291.531 279.685, 298.622 287.819 C 300.692 290.194, 303.584 294.975, 305.048 298.444 C 306.511 301.913, 308.849 306.270, 310.244 308.126 C 311.638 309.982, 313.996 315.550, 315.482 320.500 C 316.969 325.450, 319.070 330.946, 320.152 332.713 C 321.233 334.481, 323.427 341.231, 325.028 347.713 C 326.628 354.196, 328.833 362.022, 329.926 365.104 C 331.020 368.186, 332.378 373.604, 332.943 377.144 C 334.477 386.745, 336.014 418.591, 336.199 444.593 C 336.348 465.483, 336.186 467.946, 334.431 471.529 C 331.988 476.518, 327.989 479.173, 317.809 482.564 C 313.016 484.160, 308.250 486.542, 306.111 488.412 C 304.125 490.148, 300.925 492.728, 299 494.146 C 296.392 496.068, 294.367 499.245, 291.053 506.613 C 287.083 515.439, 286.603 517.304, 286.578 524 C 286.553 530.823, 286.918 532.222, 290.623 539.500 C 292.863 543.900, 295.854 549.199, 297.270 551.276 C 298.731 553.418, 300.760 558.946, 301.959 564.055 C 303.904 572.339, 304.018 574.745, 303.379 594.124 L 302.684 615.189 299.592 619.023 C 297.891 621.132, 295.431 624.637, 294.123 626.811 C 288.902 635.496, 257.518 665.154, 248.984 669.467 C 247.068 670.436, 244.311 672.339, 242.859 673.697 C 241.406 675.055, 238.198 677.591, 235.731 679.333 C 229.639 683.633, 211.643 698.085, 203.624 705.116 C 201.356 707.105, 198.126 709.433, 196.446 710.290 C 194.767 711.147, 189.066 716.270, 183.779 721.674 C 178.491 727.078, 171.833 733.750, 168.983 736.500 C 166.132 739.250, 162.324 743.750, 160.520 746.500 C 158.716 749.250, 156.241 752.397, 155.021 753.494 C 153.801 754.591, 151.041 758.506, 148.886 762.194 C 146.732 765.883, 144.471 769.209, 143.861 769.586 C 143.251 769.963, 141.456 773.128, 139.874 776.618 C 138.291 780.109, 135.199 785.335, 133.002 788.232 C 130.806 791.129, 129.007 793.794, 129.004 794.154 C 129.002 794.514, 127.380 797.664, 125.401 801.154 C 123.421 804.644, 120.468 810.845, 118.838 814.933 C 117.208 819.022, 114.980 823.624, 113.886 825.161 C 112.792 826.697, 110.856 831.002, 109.584 834.727 C 108.313 838.452, 105.694 844.650, 103.764 848.500 C 101.834 852.350, 99.269 859.550, 98.063 864.500 C 96.812 869.633, 94.609 875.471, 92.936 878.086 C 91.322 880.609, 89.284 885.784, 88.408 889.586 C 87.531 893.389, 85.490 901, 83.872 906.500 C 82.253 912, 80.080 921, 79.042 926.500 C 78.004 932, 76.419 940.325, 75.519 945 C 68.507 981.447, 67.579 992.564, 67.546 1040.500 C 67.519 1080.706, 68.635 1099, 72.071 1114.628 C 73.143 1119.508, 75.341 1132.050, 76.955 1142.500 C 78.569 1152.950, 81.060 1165.325, 82.491 1170 C 83.922 1174.675, 85.959 1182.753, 87.017 1187.951 C 88.103 1193.284, 90.444 1200.483, 92.390 1204.473 C 94.708 1209.228, 96.543 1215.305, 97.990 1223.022 C 99.542 1231.298, 101.063 1236.174, 103.443 1240.500 C 105.258 1243.800, 107.303 1248.300, 107.987 1250.500 C 109.499 1255.361, 120.563 1278.451, 123.172 1282.188 C 124.204 1283.667, 126.822 1288.468, 128.990 1292.858 C 131.157 1297.248, 133.408 1301.134, 133.992 1301.495 C 134.576 1301.856, 136.792 1305.605, 138.916 1309.826 C 141.040 1314.047, 143.776 1318.400, 144.995 1319.500 C 146.215 1320.600, 148.113 1323.300, 149.214 1325.500 C 150.315 1327.700, 152.458 1330.850, 153.977 1332.500 C 155.495 1334.150, 158.371 1337.975, 160.368 1341 C 167.263 1351.444, 211.046 1395.994, 221 1402.693 C 222.375 1403.618, 225.750 1406.218, 228.500 1408.470 C 231.250 1410.723, 237.550 1415.244, 242.500 1418.518 C 255.047 1426.817, 263.950 1434.018, 265.600 1437.200 C 267.265 1440.412, 267.407 1446.172, 265.940 1451.007 C 264.229 1456.648, 261.003 1479.984, 261.033 1486.500 C 261.051 1490.331, 261.865 1494.483, 263.284 1497.986 C 265.248 1502.834, 266.385 1504.062, 273.038 1508.530 C 277.180 1511.312, 284.154 1514.850, 288.535 1516.394 C 292.916 1517.937, 297.850 1519.999, 299.500 1520.977 C 303.705 1523.468, 310.749 1525.538, 323.282 1527.966 C 329.212 1529.115, 336.187 1530.890, 338.782 1531.912 C 344.885 1534.315, 356.808 1536.654, 370 1538.036 C 375.775 1538.640, 385.410 1539.778, 391.412 1540.564 C 420.953 1544.433, 483.057 1544.945, 517 1541.599 C 525.525 1540.759, 540.150 1539.364, 549.500 1538.500 C 571.739 1536.444, 583.698 1534.418, 593.500 1531.046 C 597.900 1529.532, 603.750 1527.968, 606.500 1527.571 C 615.872 1526.217, 624.490 1523.642, 632 1519.952 C 636.125 1517.925, 640.625 1515.920, 642 1515.496 C 648.474 1513.501, 658.383 1504.321, 663.515 1495.565 C 666.124 1491.113, 666.328 1490.004, 666.256 1480.628 C 666.175 1469.998, 665.206 1465.752, 659.077 1449.178 C 657.385 1444.600, 656 1439.539, 656 1437.930 C 656 1433.925, 661.461 1428.099, 668.962 1424.101 C 672.262 1422.342, 676.396 1419.687, 678.149 1418.202 C 679.902 1416.716, 682.812 1414.600, 684.616 1413.500 C 691.257 1409.450, 703.705 1399.310, 711 1392.007 C 730.325 1372.662, 754.647 1346.969, 758.338 1342 C 760.586 1338.975, 764.242 1334.402, 766.462 1331.838 C 776.320 1320.455, 778.811 1317.284, 780.476 1314 C 781.452 1312.075, 783.761 1308.025, 785.607 1305 C 787.453 1301.975, 790.026 1296.800, 791.325 1293.500 C 792.625 1290.200, 795.092 1285.299, 796.809 1282.609 C 798.526 1279.918, 800.888 1274.841, 802.058 1271.327 C 803.227 1267.812, 805.634 1262.528, 807.407 1259.584 C 809.179 1256.641, 811.218 1251.593, 811.938 1248.366 C 812.657 1245.140, 814.755 1239.575, 816.601 1236 C 818.447 1232.423, 820.879 1225.282, 822.009 1220.120 C 823.139 1214.960, 825.404 1207.310, 827.043 1203.120 C 828.682 1198.929, 831.190 1189.650, 832.616 1182.500 C 834.042 1175.350, 836.310 1166.575, 837.655 1163 C 840.767 1154.730, 841.501 1151.322, 843.472 1136 C 844.356 1129.125, 846.168 1119.450, 847.497 1114.500 C 851.659 1099.008, 853.130 1081.744, 853.719 1041.492 C 854.249 1005.252, 853.167 973.148, 850.934 958.900 C 850.383 955.380, 848.793 947.368, 847.402 941.096 C 846.011 934.824, 843.783 922.224, 842.451 913.096 C 841.085 903.735, 838.935 893.448, 837.518 889.500 C 836.137 885.650, 833.909 876.963, 832.566 870.195 C 831.042 862.513, 829.194 856.301, 827.648 853.662 C 826.285 851.337, 823.940 845.635, 822.437 840.992 C 820.934 836.348, 818.454 830.513, 816.926 828.025 C 815.399 825.536, 813.198 820.954, 812.037 817.843 C 810.876 814.731, 808.819 810.681, 807.467 808.843 C 806.114 807.004, 803.849 803.052, 802.432 800.059 C 801.015 797.066, 798.691 793.241, 797.268 791.559 C 795.844 789.877, 793.235 785.341, 791.470 781.481 C 789.705 777.620, 787.453 773.795, 786.465 772.981 C 785.477 772.166, 783.157 769.250, 781.309 766.500 C 774.101 755.773, 745.615 721.722, 736.257 712.646 C 724.748 701.483, 713.127 690.737, 707.444 686 C 703.814 682.975, 698.541 678.522, 695.725 676.104 C 692.909 673.687, 688.230 670.621, 685.326 669.292 C 682.423 667.963, 679.101 665.546, 677.945 663.922 C 676.788 662.298, 674.475 660.263, 672.805 659.399 C 671.134 658.535, 665.432 654.546, 660.133 650.534 C 649.421 642.423, 638.488 629.805, 636 622.680 C 635.175 620.317, 633.310 616.385, 631.855 613.942 C 630.401 611.499, 628.732 607.700, 628.147 605.500 C 626.709 600.085, 625.193 584.177, 625.712 579.936 C 626.795 571.090, 628.335 565.863, 631.181 561.376 C 632.881 558.695, 635.139 553.801, 636.199 550.501 C 637.259 547.200, 639.716 542.155, 641.658 539.289 C 645.774 533.216, 647.730 522.996, 646.563 513.656 C 645.567 505.686, 639.584 497.262, 624.079 482 C 617.094 475.125, 610.200 467.700, 608.757 465.500 C 605.091 459.907, 600.012 439.710, 599.328 428 C 598.762 418.322, 599.334 412.429, 604.514 374.500 C 607.525 352.459, 608.398 348.148, 611.083 342.079 C 613.014 337.714, 616.169 326.146, 617.439 318.779 C 617.791 316.733, 619.129 313.808, 620.412 312.279 C 621.695 310.751, 624.395 306.019, 626.411 301.764 C 628.428 297.510, 630.920 293.578, 631.949 293.027 C 632.979 292.476, 634.852 290.358, 636.111 288.320 C 637.370 286.283, 640.336 282.437, 642.700 279.774 C 645.065 277.112, 647 274.547, 647 274.076 C 647 273.604, 648.756 271.093, 650.902 268.496 C 653.047 265.900, 655.410 261.688, 656.152 259.137 C 658.089 252.474, 657.909 231.550, 655.875 227 C 653.492 221.668, 642.695 209.805, 634.673 203.705 C 624.031 195.611, 605.992 187.419, 592.239 184.433 C 586.046 183.088, 577.721 181.106, 573.739 180.028 C 563.605 177.285, 553.026 176.174, 526.500 175.070 C 488.514 173.489, 461.224 173.194, 427.500 174 M 406 198.017 C 397.475 198.402, 388.475 199.036, 386 199.428 C 366.684 202.481, 346.913 206.435, 344 207.827 C 339.402 210.025, 338.722 213.564, 342.612 215.043 C 349.972 217.841, 369.716 222.309, 380 223.503 C 399.338 225.750, 459.369 227.353, 498 226.656 C 539.834 225.900, 551.274 224.986, 561.197 221.605 C 567.705 219.389, 577.955 217.373, 592.250 215.500 C 597.718 214.783, 598.336 213.196, 594.365 210.072 C 591.102 207.506, 589.008 206.944, 566.036 202.477 C 550.649 199.485, 544.065 198.734, 526.536 197.973 C 502.685 196.938, 429.340 196.965, 406 198.017 M 311.176 218.138 C 309.072 218.744, 307.237 220.221, 306.176 222.163 C 305.254 223.851, 302.991 227.078, 301.146 229.335 C 298.055 233.117, 297.823 233.880, 298.198 239.056 C 298.534 243.712, 299.418 245.909, 303.363 251.897 C 310.751 263.112, 314.360 266.039, 327.984 271.871 C 348.948 280.844, 376.692 285.377, 420.500 286.988 C 470.809 288.838, 516.455 287.908, 542.868 284.494 C 597.014 277.496, 608.601 275.538, 612.851 272.666 C 614.858 271.310, 617.441 269.922, 618.592 269.583 C 623.597 268.106, 630.863 256.098, 632.276 246.969 C 633.842 236.857, 632.873 233.871, 625.647 226.537 C 618.920 219.710, 615.175 218.016, 606.797 218.006 C 602.388 218, 601.988 218.222, 600.404 221.561 C 598.873 224.786, 592.849 230, 590.652 230 C 590.166 230, 587.590 231.599, 584.927 233.554 C 581.436 236.116, 577.774 237.638, 571.793 239.012 C 554.291 243.032, 533.524 246.104, 516.847 247.139 C 493.774 248.572, 444.815 247.481, 421.500 245.016 C 369.436 239.511, 354.458 237.427, 350.135 235.087 C 348.136 234.005, 344.142 231.975, 341.260 230.576 C 338.378 229.178, 333.319 225.551, 330.018 222.517 C 324.434 217.383, 323.687 217.006, 319.259 217.090 C 316.641 217.140, 313.004 217.611, 311.176 218.138 M 329.200 295.200 C 327.769 296.631, 327.630 301.898, 328.933 305.324 C 329.446 306.674, 331.227 309.328, 332.890 311.222 C 334.899 313.510, 336.641 317.325, 338.079 322.583 C 339.269 326.938, 341.550 333.098, 343.148 336.274 C 344.752 339.462, 346.970 346.628, 348.102 352.274 C 349.228 357.898, 351.023 365.092, 352.089 368.259 C 355.850 379.432, 357 386.697, 358.066 406 C 359.204 426.603, 358.601 454.636, 356.814 464.232 C 355.909 469.096, 355.997 470.346, 357.396 472.482 C 360.102 476.611, 364.318 475.926, 368.059 470.750 C 373.106 463.767, 381.097 460.760, 387.500 463.436 C 389.986 464.474, 393.910 464.927, 399.406 464.808 C 406.488 464.656, 408.165 464.964, 411.714 467.066 C 418.807 471.268, 428.102 478.101, 428.643 479.512 C 428.929 480.257, 432.839 484.076, 437.331 487.999 C 441.824 491.922, 447.300 496.860, 449.500 498.973 C 453.459 502.774, 464.112 508, 467.902 508 C 469.884 508, 470.305 507.207, 471.521 501.176 C 472.045 498.576, 473.346 497.114, 477.499 494.458 C 480.418 492.590, 484.537 488.986, 486.653 486.449 C 488.769 483.911, 492.616 479.416, 495.203 476.459 C 497.789 473.502, 500.585 469.769, 501.416 468.163 C 504.376 462.439, 507.741 462.637, 513.800 468.891 C 521.713 477.057, 525.119 477.399, 544.932 472.018 C 554.433 469.438, 560.716 469.465, 569.682 472.122 C 578.052 474.603, 581.676 474.139, 582.597 470.469 C 582.942 469.094, 581.763 459.538, 579.977 449.234 C 576.098 426.857, 575.823 409.952, 578.979 388 C 580.047 380.575, 581.621 369.044, 582.477 362.376 C 584.063 350.020, 586.336 340.528, 587.948 339.532 C 589.098 338.821, 592.546 328.153, 593.987 320.844 C 594.606 317.704, 596.519 313.049, 598.286 310.382 C 600.889 306.452, 601.472 304.571, 601.485 300.063 C 601.503 293.501, 599.873 292.579, 594.045 295.855 C 589.753 298.267, 581.565 299.331, 550.500 301.514 C 538.400 302.365, 523.550 303.596, 517.500 304.251 C 500.306 306.112, 435.011 305.775, 408.500 303.689 C 396.400 302.737, 379.382 301.517, 370.683 300.978 C 351.117 299.765, 341.600 298.336, 336.790 295.888 C 332.472 293.691, 330.856 293.544, 329.200 295.200 M 459.204 372.570 C 456.340 374.576, 451.788 383.503, 452.191 386.322 C 452.607 389.229, 455.437 389.588, 458.562 387.130 C 459.972 386.021, 462.784 384.581, 464.812 383.931 C 469.657 382.376, 472 380.229, 472 377.345 C 472 371.931, 464.247 369.038, 459.204 372.570 M 540.834 394.467 C 538.838 395.823, 536.208 398.546, 534.990 400.517 C 532.002 405.350, 529.072 416.963, 530.123 419.804 C 531.843 424.452, 539.748 425.208, 542.031 420.942 C 542.630 419.823, 543.526 416.414, 544.022 413.367 C 544.704 409.174, 545.784 406.875, 548.462 403.911 C 552.110 399.873, 552.759 397.286, 550.965 393.934 C 549.527 391.248, 545.240 391.473, 540.834 394.467 M 487.250 397.662 C 485.319 398.442, 485.559 412.389, 487.532 414.026 C 489.566 415.715, 496.547 413.714, 497.984 411.030 C 500.368 406.576, 498.289 400.839, 493.460 398.548 C 490.056 396.933, 489.318 396.828, 487.250 397.662 M 391.557 406.223 C 389.483 409.183, 389.571 410.376, 392.502 419.075 C 395.849 429.006, 400.334 432.523, 404.429 428.429 C 406.701 426.156, 406.360 422.687, 403.610 420.103 C 402.296 418.869, 400.656 415.844, 399.967 413.382 C 398.704 408.873, 395.597 404, 393.984 404 C 393.505 404, 392.413 405, 391.557 406.223 M 387.761 490.786 C 384.790 493.152, 382.630 493.908, 377.261 494.462 C 373.542 494.845, 368.700 495.548, 366.500 496.023 C 364.300 496.498, 358.073 497.337, 352.662 497.888 C 346.310 498.535, 341.420 499.622, 338.861 500.956 C 336.681 502.092, 331.705 503.906, 327.803 504.987 C 323.902 506.069, 319.875 507.708, 318.855 508.632 C 316.354 510.895, 316.492 516.084, 319.143 519.454 C 321.043 521.871, 321.807 522.129, 325.893 521.739 C 328.427 521.497, 335.684 521.874, 342.021 522.576 C 357.570 524.299, 406.264 526.500, 428.832 526.500 C 445.884 526.500, 447.263 526.363, 448.595 524.540 C 450.585 521.817, 450.034 520.824, 445.147 518.328 C 442.808 517.134, 439.456 515.061, 437.697 513.723 C 435.939 512.384, 432.647 510.345, 430.383 509.192 C 428.118 508.038, 424.408 504.876, 422.137 502.163 C 419.866 499.451, 416.318 496.435, 414.254 495.461 C 412.189 494.488, 408.983 492.541, 407.130 491.135 C 404.582 489.203, 402.264 488.485, 397.630 488.193 C 392.041 487.841, 391.170 488.070, 387.761 490.786 M 514.156 493.721 C 512.366 494.588, 509.461 496.980, 507.700 499.036 C 502.008 505.685, 498.586 507.017, 484.010 508.261 L 470.930 509.378 468.997 512.505 C 467.934 514.224, 466.150 516.459, 465.032 517.471 C 461.769 520.424, 462.481 522.636, 467.287 524.472 C 471.119 525.935, 474.118 525.997, 495.537 525.058 C 508.717 524.480, 528.275 523.998, 539 523.987 C 562.586 523.964, 577.301 522.825, 597.350 519.469 C 612.480 516.936, 617.129 515.172, 617.811 511.707 C 617.982 510.838, 616.987 509.382, 615.600 508.473 C 611.842 506.011, 599.311 503.037, 592.614 503.017 C 586.913 503.001, 586.600 502.858, 582.692 498.509 L 578.656 494.018 572.078 494.628 C 567.169 495.084, 564.518 494.828, 561.628 493.619 C 555.570 491.086, 550.136 491.528, 544.661 495 C 538.159 499.123, 532.754 498.824, 520.955 493.688 C 517.751 492.293, 517.099 492.296, 514.156 493.721 M 318.250 537.465 C 314.142 539.283, 314.045 541.693, 317.571 554.304 C 319.311 560.526, 321.041 564.470, 322.918 566.500 C 324.444 568.150, 327.394 572.599, 329.472 576.387 C 332.849 582.541, 333.193 583.820, 332.705 588.387 C 332.120 593.858, 326.305 607.672, 323.663 609.865 C 322.785 610.594, 320.418 614.185, 318.403 617.845 C 316.389 621.505, 313.282 626.075, 311.500 628 C 309.717 629.925, 307.531 633.701, 306.642 636.391 C 305.752 639.082, 303.129 643.740, 300.813 646.743 C 295.769 653.281, 295.269 657.498, 299.050 661.608 C 303.970 666.957, 308.044 667.903, 335.195 669.999 C 364.248 672.243, 365.661 672.395, 384.500 675.324 C 397.908 677.408, 401.417 677.497, 467.500 677.435 C 536.375 677.370, 555.830 676.622, 583.285 672.979 C 587.253 672.453, 596.239 671.330, 603.253 670.484 C 627.159 667.602, 629.980 666.621, 632.006 660.482 C 633.561 655.769, 632.576 652.261, 628.617 648.416 C 626.838 646.689, 624.372 642.626, 623.136 639.388 C 621.900 636.150, 619.570 632.135, 617.958 630.467 C 616.278 628.728, 613.978 624.346, 612.566 620.194 C 611.212 616.212, 609.159 611.627, 608.004 610.005 C 606.849 608.384, 605.254 603.940, 604.460 600.131 C 602.423 590.361, 602.428 590.369, 596.335 587.843 C 588.805 584.722, 588.163 583.154, 591.771 576.694 C 594.043 572.627, 595.880 570.849, 600.232 568.500 C 607.679 564.482, 609.713 562.493, 613.018 556 C 614.557 552.975, 617.208 548.956, 618.909 547.070 C 624.660 540.689, 622.306 537, 612.483 537 C 605.290 537, 582.766 540.121, 572.978 542.474 C 563.934 544.648, 493.509 548.290, 464.500 548.084 C 414.209 547.727, 376.536 545.674, 361.500 542.470 C 355.450 541.181, 344.849 539.404, 337.942 538.520 C 331.036 537.636, 324.511 536.714, 323.442 536.470 C 322.374 536.227, 320.038 536.674, 318.250 537.465 M 482.273 561.706 C 480.882 563.830, 480.568 566.035, 480.815 571.956 C 481.520 588.814, 481.354 591.607, 479.234 598.500 C 477.338 604.663, 476.476 605.978, 472.021 609.500 C 469.238 611.700, 466.548 613.641, 466.043 613.812 C 465.539 613.984, 463.860 612.658, 462.313 610.866 C 460.766 609.074, 457.920 605.783, 455.989 603.554 C 447.013 593.191, 442.192 587.259, 440.505 584.500 C 439.497 582.850, 436.833 579.659, 434.586 577.408 C 432.339 575.158, 429.596 571.783, 428.490 569.908 C 426.939 567.277, 425.168 566.047, 420.725 564.515 C 414.192 562.262, 412.667 562.719, 409.674 567.828 C 407.259 571.951, 408.219 574.561, 413.059 577.030 C 415.665 578.360, 417.692 580.443, 419.126 583.263 C 420.309 585.594, 422.277 588.432, 423.498 589.572 C 424.719 590.711, 426.732 594.691, 427.972 598.415 C 429.211 602.140, 431.450 606.607, 432.947 608.343 C 434.445 610.080, 436.756 613.082, 438.085 615.016 C 445.029 625.125, 455.771 631.959, 464.761 631.989 C 469.776 632.006, 476.838 628.202, 479.632 623.979 C 480.987 621.933, 483.896 618.811, 486.097 617.042 C 488.452 615.150, 491.254 611.443, 492.903 608.038 C 494.445 604.855, 496.846 600.732, 498.239 598.876 C 499.632 597.019, 501.774 592.711, 503 589.303 L 505.230 583.106 502.983 578.464 C 500.101 572.512, 488.207 559, 485.850 559 C 484.858 559, 483.248 560.218, 482.273 561.706 M 543.946 574.582 C 538.583 580.157, 537.242 580.589, 534.148 577.743 C 527.566 571.688, 525.572 571.398, 519 575.536 C 511.589 580.203, 510.563 583.556, 515.805 585.971 C 519.916 587.865, 529.211 588.416, 533.450 587.016 C 537.064 585.824, 537.317 585.900, 540.846 589.239 C 547.634 595.662, 551.666 597.996, 559.372 599.967 C 568.282 602.246, 571.066 601.670, 572.935 597.158 C 574.556 593.244, 573.630 590.577, 569.691 587.813 C 565.588 584.934, 564.421 583.348, 563.061 578.810 C 561.505 573.616, 557.820 571, 552.061 571 C 548.013 571, 546.934 571.476, 543.946 574.582 M 350.223 578.557 C 346.654 581.056, 347.310 585.421, 352.210 591.772 C 354.525 594.773, 357.472 597.919, 358.759 598.762 C 361.658 600.661, 372.481 600.804, 379.838 599.039 C 384.651 597.884, 386.949 596.446, 396.750 588.453 C 401.226 584.804, 401.039 579.726, 396.364 577.948 C 392.950 576.650, 389.295 578.386, 386.903 582.440 C 385.776 584.349, 384.040 586.170, 383.044 586.486 C 379.720 587.541, 371.633 585.018, 368.435 581.928 C 363.490 577.150, 354.584 575.502, 350.223 578.557 M 644.366 680.071 C 642.093 681.118, 636.981 682.435, 633.007 682.999 C 629.033 683.563, 622.841 685.200, 619.246 686.638 C 608.447 690.959, 587.626 692.876, 539.500 693.982 C 519.150 694.450, 490.800 695.391, 476.500 696.074 C 456.147 697.046, 444.853 697.059, 424.500 696.133 C 410.200 695.483, 386.605 694.487, 372.067 693.921 C 357.529 693.355, 345.261 692.661, 344.805 692.379 C 344.348 692.097, 337.731 691.719, 330.100 691.540 C 316.723 691.226, 315.945 691.088, 308.363 687.700 C 300.734 684.291, 287.749 681, 281.928 681 C 277.386 681, 269.765 683.947, 266.500 686.966 C 263.657 689.595, 256.077 694.846, 248.112 699.703 C 243.187 702.707, 238.999 707.565, 239.005 710.266 C 239.011 712.423, 239.400 712.513, 250.255 712.879 C 267.693 713.466, 272.103 713.414, 277.612 712.553 C 283.892 711.572, 289.413 713.175, 291.683 716.639 C 293.195 718.947, 293.151 719.407, 290.978 724.047 C 289.704 726.768, 288.876 729.209, 289.139 729.472 C 290.204 730.537, 302.557 727.755, 307.362 725.368 C 310.188 723.964, 314.625 720.544, 317.223 717.767 L 321.946 712.719 329.723 713.398 C 335.574 713.909, 339.357 714.952, 344.997 717.607 C 352.737 721.250, 354.472 721.568, 379.833 723.994 C 388.374 724.811, 393.111 724.780, 399.062 723.869 C 408.733 722.389, 412 723.382, 412 727.804 C 412 735.679, 393.125 743.877, 377.801 742.658 C 370.254 742.058, 368.121 741.161, 362.698 736.311 C 360.606 734.441, 357.681 732.425, 356.198 731.831 C 352.992 730.548, 336.375 727.025, 333.458 727.010 C 330.680 726.996, 322.705 735.230, 323.167 737.635 C 323.413 738.914, 325.528 740.187, 329.899 741.686 C 333.405 742.889, 337.674 745.193, 339.387 746.807 C 341.099 748.421, 344.750 750.529, 347.500 751.492 C 350.250 752.454, 356.167 755.020, 360.648 757.195 C 367.839 760.683, 369.895 761.212, 378.148 761.693 C 389.952 762.382, 394.260 761.223, 400.153 755.775 C 405.332 750.987, 406.438 749.156, 407.411 743.762 C 408.419 738.178, 410.412 737.648, 419.081 740.663 C 429.720 744.363, 436.467 744.701, 441.470 741.784 C 443.654 740.511, 446.497 737.902, 447.788 735.987 C 450.540 731.904, 452.120 730.892, 457.204 729.963 C 462.289 729.033, 476.406 730.442, 482.308 732.468 C 490.486 735.276, 499.274 741.570, 501.183 745.986 C 502.254 748.463, 504.074 750.488, 506.183 751.550 C 508.008 752.469, 511.196 754.846, 513.269 756.832 L 517.038 760.443 536.269 761.271 C 549.737 761.851, 556.842 761.763, 559.978 760.978 C 564.627 759.813, 576.794 750.864, 579.393 746.698 C 581.680 743.031, 582.197 736.408, 580.512 732.375 C 579.681 730.384, 579 728.377, 579 727.913 C 579 725.752, 584.578 724.615, 598.042 724.030 L 612.584 723.398 623.096 718.289 C 630.238 714.818, 636.445 712.617, 642.459 711.422 C 650.253 709.875, 651.873 709.166, 656.010 705.491 C 659.788 702.136, 661.963 701.072, 667.105 700.065 C 678.015 697.928, 678.527 695.928, 670.250 687.769 C 660.807 678.459, 652.946 676.122, 644.366 680.071 M 680.619 715.574 C 674.176 718.834, 665.406 722.264, 659.119 723.982 C 653.278 725.577, 646.531 727.584, 644.124 728.441 C 641.718 729.299, 638.005 730, 635.874 730 C 629.165 730, 625.345 736.335, 630.250 739.325 C 631.487 740.080, 638.575 741.464, 646 742.402 C 653.425 743.339, 662.111 744.599, 665.302 745.201 C 669.578 746.007, 672.470 745.993, 676.302 745.145 C 679.161 744.513, 686.900 743.551, 693.500 743.007 C 712.932 741.407, 721 739.626, 721 736.936 C 721 734.044, 714.738 723.999, 711.789 722.162 C 709.980 721.036, 707.910 719.151, 707.190 717.974 C 706.005 716.039, 698.591 712.062, 693.500 710.631 C 692.221 710.271, 687.579 712.053, 680.619 715.574 M 229 715.363 C 224.368 717.867, 214.274 728.641, 213.030 732.409 C 211.618 736.687, 212.542 738.423, 216.791 739.474 C 218.281 739.843, 224.087 742.137, 229.694 744.572 C 239.418 748.796, 240.331 749, 249.506 749 C 257.693 749, 259.911 748.628, 264.416 746.496 C 267.327 745.119, 273.254 743.086, 277.587 741.978 C 281.920 740.869, 286.053 739.376, 286.770 738.658 C 288.683 736.745, 288.845 731.624, 287 731.381 C 286.175 731.272, 280.325 730.641, 274 729.977 C 260.077 728.517, 249.928 726.531, 246 724.500 C 244.393 723.669, 241.893 720.966, 240.444 718.494 C 238.203 714.671, 237.339 714.001, 234.655 714.006 C 232.920 714.010, 230.375 714.620, 229 715.363 M 551 727.512 C 540.810 732.366, 538.361 737.177, 543.586 742.076 C 545.774 744.128, 547.118 744.486, 552.336 744.410 C 559.668 744.303, 564.490 742.110, 566.837 737.815 C 567.752 736.141, 569.508 733.235, 570.739 731.357 L 572.979 727.942 570.239 726.876 C 568.733 726.289, 565.025 725.603, 562 725.351 C 557.517 724.977, 555.483 725.377, 551 727.512 M 511.750 734.080 C 509.412 735.442, 509.541 736.647, 512.096 737.315 C 516.171 738.381, 519.161 735.043, 515.418 733.607 C 513.527 732.881, 513.888 732.835, 511.750 734.080 M 302.741 743.543 C 297.285 744.620, 295.356 745.533, 292.741 748.279 C 290.958 750.150, 287.250 752.500, 284.500 753.501 C 281.750 754.503, 277.882 756.848, 275.906 758.712 C 273.929 760.577, 270.104 762.785, 267.406 763.621 C 260.501 765.758, 245.155 766.440, 234.228 765.095 C 225.754 764.052, 223.743 763.337, 210.855 756.786 L 196.754 749.618 191.627 751.421 C 183.974 754.112, 168.128 770.152, 162.592 780.810 C 161.824 782.290, 159.757 785.300, 158 787.500 C 156.243 789.700, 153.513 794.343, 151.935 797.817 C 150.356 801.292, 147.977 805.427, 146.648 807.006 C 145.319 808.586, 143.298 812.943, 142.158 816.689 C 141.017 820.435, 138.639 825.750, 136.875 828.500 C 135.110 831.250, 132.121 837.100, 130.232 841.500 C 122.133 860.369, 120.036 865.579, 120.018 866.874 C 120.008 867.630, 118.447 871.689, 116.548 875.894 C 114.649 880.098, 111.986 888.778, 110.630 895.182 C 109.274 901.586, 107.710 907.674, 107.155 908.711 C 106.600 909.748, 105.221 914.218, 104.091 918.645 C 102.141 926.282, 101.463 932.073, 98.959 962.500 C 97.557 979.539, 95.476 995.602, 92.746 1010.458 C 90.788 1021.114, 90.531 1025.895, 90.517 1052 C 90.499 1083.683, 91.525 1096.501, 95.637 1115.966 C 96.969 1122.272, 98.952 1135.322, 100.044 1144.966 C 102.441 1166.142, 102.592 1166.931, 105.672 1174.500 C 107.014 1177.800, 109.196 1185.767, 110.519 1192.205 C 111.937 1199.099, 114.143 1206.321, 115.887 1209.775 C 117.515 1213.001, 119.953 1219.434, 121.305 1224.070 C 122.657 1228.707, 125.278 1234.835, 127.131 1237.689 C 128.984 1240.543, 131.850 1244.945, 133.500 1247.470 C 135.150 1249.995, 137.929 1254.410, 139.675 1257.281 C 143.017 1262.776, 149.859 1271.597, 153.896 1275.615 C 156.135 1277.844, 157.019 1277.999, 167.396 1277.983 C 181.048 1277.961, 190.744 1276.014, 196.913 1272.056 C 205.147 1266.772, 215.639 1263, 222.100 1263 C 229.977 1263, 238.558 1266.288, 243 1271.008 C 244.925 1273.054, 248.075 1275.527, 250 1276.504 C 251.925 1277.482, 257.325 1281.743, 262 1285.973 C 266.675 1290.203, 272.300 1294.874, 274.500 1296.352 C 278.425 1298.990, 278.708 1299.028, 289.562 1298.385 C 302.049 1297.644, 302.540 1297.792, 310.694 1304.729 C 314.592 1308.044, 316.302 1310.393, 317.546 1314.137 C 319.394 1319.701, 321.415 1321, 328.227 1321 C 333.111 1321, 339.599 1317.492, 343.676 1312.647 C 345.229 1310.802, 347.850 1308.471, 349.500 1307.468 C 351.150 1306.464, 354.096 1304.147, 356.046 1302.318 C 357.997 1300.488, 361.463 1297.981, 363.749 1296.746 C 366.034 1295.511, 369.999 1293.192, 372.558 1291.593 C 376.258 1289.282, 378.699 1288.591, 384.469 1288.220 C 393.951 1287.612, 396.680 1288.649, 407.500 1296.971 C 412.450 1300.778, 418.975 1305.413, 422 1307.271 C 425.025 1309.128, 428.858 1312.007, 430.518 1313.669 C 432.521 1315.673, 435.378 1317.115, 439.018 1317.957 C 442.033 1318.654, 447.200 1320.698, 450.500 1322.500 C 459.466 1327.393, 463.344 1327.729, 470.018 1324.192 C 473.033 1322.594, 477.975 1320.711, 481 1320.008 C 487.943 1318.393, 492.807 1315.950, 496 1312.472 C 497.375 1310.975, 500.362 1308.569, 502.638 1307.125 C 504.914 1305.681, 508.587 1302.202, 510.799 1299.392 C 513.011 1296.583, 517.674 1292.431, 521.161 1290.164 C 524.647 1287.898, 529.449 1284.604, 531.830 1282.844 C 536.967 1279.047, 544.137 1277.747, 553.019 1279.003 C 561.785 1280.242, 571.837 1286.413, 584.741 1298.477 C 596.094 1309.092, 604.913 1315, 609.405 1315 C 610.869 1315, 614.381 1313.827, 617.210 1312.394 C 620.039 1310.960, 624.490 1309.153, 627.102 1308.377 C 629.713 1307.602, 633.765 1305.367, 636.106 1303.412 C 638.446 1301.456, 642.012 1299.014, 644.030 1297.985 C 646.048 1296.955, 649.767 1294.534, 652.295 1292.605 C 654.823 1290.675, 658.604 1288.222, 660.696 1287.154 C 662.788 1286.087, 665.400 1284.217, 666.500 1283 C 667.600 1281.783, 670.232 1279.903, 672.349 1278.823 C 674.467 1277.742, 678.067 1275.152, 680.349 1273.066 C 682.632 1270.981, 688.075 1266.962, 692.444 1264.137 C 702.538 1257.610, 706.962 1257.289, 717.528 1262.318 C 726.839 1266.750, 734.390 1268.721, 747 1270.012 C 752.775 1270.603, 758.939 1271.340, 760.698 1271.649 C 763.524 1272.146, 764.543 1271.599, 769.469 1266.941 C 772.534 1264.042, 776.459 1259.157, 778.191 1256.085 C 779.924 1253.013, 782.549 1248.925, 784.026 1247 C 785.503 1245.075, 787.679 1240.890, 788.860 1237.700 C 790.042 1234.510, 792.341 1229.335, 793.970 1226.200 C 795.598 1223.065, 798.086 1216.505, 799.498 1211.622 C 800.910 1206.740, 803.199 1200.809, 804.586 1198.444 C 806.064 1195.922, 808.090 1189.459, 809.483 1182.821 C 810.791 1176.595, 813.257 1167.305, 814.963 1162.179 C 817.287 1155.197, 818.558 1148.419, 820.027 1135.179 C 821.105 1125.455, 822.194 1116.600, 822.447 1115.500 C 824.088 1108.352, 828.146 1076.033, 828.976 1063.500 C 830.297 1043.545, 830.269 995.083, 828.927 981.424 C 828.338 975.416, 826.552 963.946, 824.959 955.935 C 823.366 947.923, 821.132 933.751, 819.993 924.439 C 818.526 912.452, 817.043 904.949, 814.910 898.739 C 813.254 893.915, 810.844 884.882, 809.555 878.665 C 808.207 872.165, 805.942 864.840, 804.226 861.430 C 802.585 858.169, 800.295 852.142, 799.138 848.038 C 797.981 843.933, 795.741 838.758, 794.162 836.538 C 792.582 834.317, 790.274 829.350, 789.033 825.500 C 787.792 821.650, 785.478 816.841, 783.892 814.813 C 782.305 812.785, 779.483 807.781, 777.620 803.694 C 775.757 799.607, 773.688 795.925, 773.022 795.514 C 772.356 795.102, 770.568 791.995, 769.049 788.609 C 767.530 785.223, 764.422 780.299, 762.144 777.666 C 759.865 775.033, 758 772.526, 758 772.095 C 758 771.664, 755.862 768.798, 753.250 765.726 C 750.638 762.654, 747.688 758.979, 746.695 757.559 C 744.760 754.793, 736.240 750, 733.256 750 C 732.260 750, 730.421 750.717, 729.170 751.594 C 727.918 752.470, 723.656 754.249, 719.697 755.546 C 715.739 756.843, 709.125 759.133, 705 760.634 C 698.104 763.144, 696.034 763.398, 679.286 763.791 C 657.650 764.298, 649.979 763.237, 641.500 758.565 C 638.200 756.746, 633.157 754.710, 630.292 754.039 C 627.428 753.369, 622.633 751.344, 619.636 749.540 C 612.698 745.362, 601.496 741.861, 598.595 742.964 C 596.404 743.797, 595.249 745.594, 592.540 752.383 C 591.650 754.613, 587.471 759.786, 582.724 764.533 C 573.232 774.026, 572.437 774.350, 554.746 775.960 C 545.675 776.785, 541.680 777.638, 537.246 779.696 C 532.768 781.775, 529.955 782.368, 524.500 782.382 C 518.084 782.398, 516.916 782.056, 510.500 778.282 C 506.650 776.017, 501.475 772.520, 499 770.510 C 496.525 768.501, 491.618 764.977, 488.096 762.679 C 484.573 760.380, 480.486 757.715, 479.013 756.756 C 470.845 751.436, 456.864 752.657, 446.271 759.614 C 442.583 762.037, 437.173 764.914, 434.250 766.008 C 431.327 767.101, 427.938 768.642, 426.718 769.431 C 425.498 770.221, 419.100 772.299, 412.500 774.049 C 405.900 775.799, 398.700 778.146, 396.500 779.265 C 394.219 780.426, 389.707 781.500, 386 781.766 C 380.368 782.170, 377.431 781.613, 364 777.594 C 354.585 774.776, 346.915 771.853, 344.463 770.149 C 342.243 768.605, 337.757 766.120, 334.493 764.625 C 327.640 761.488, 317.361 751.919, 316.466 747.844 C 315.339 742.715, 312.092 741.697, 302.741 743.543 M 448.086 823.587 C 444.821 824.465, 441.050 826.449, 438.586 828.586 C 436.339 830.535, 432.510 833.563, 430.079 835.315 C 423.560 840.011, 400.695 865.765, 397.511 872 C 396.527 873.925, 394.403 877.015, 392.790 878.866 C 391.176 880.718, 389.160 883.868, 388.309 885.866 C 387.458 887.865, 386.119 891.023, 385.333 892.885 L 383.904 896.269 377.837 895.719 C 372.725 895.255, 371.236 894.652, 368.385 891.888 C 366.523 890.084, 362.553 887.233, 359.563 885.554 C 356.572 883.874, 352.073 881.220, 349.564 879.656 C 345.879 877.358, 343.467 876.706, 337.017 876.264 C 325.483 875.473, 321.608 877.180, 314.160 886.335 C 305.778 896.637, 305.312 897.555, 303.422 907.500 C 301.129 919.567, 301.331 935.423, 303.979 951.212 C 305.540 960.519, 305.831 964.448, 305.065 965.879 C 303.595 968.625, 291.454 976.461, 285.637 978.417 C 281.067 979.954, 280.611 979.946, 278.042 978.276 C 276.540 977.299, 273.103 975.070, 270.405 973.323 C 259.333 966.150, 257.610 964.091, 255.335 955.301 C 254.509 952.110, 252.089 946.125, 249.957 942 C 247.825 937.875, 244.994 931.984, 243.668 928.908 C 240.721 922.077, 238.125 919.485, 231.041 916.297 C 228.039 914.946, 224.150 912.583, 222.400 911.046 C 218.296 907.443, 210.540 905.603, 202.262 906.267 C 193.197 906.995, 190.654 909.534, 190.732 917.779 C 190.794 924.361, 192.773 929.150, 196.420 931.539 C 199.059 933.268, 200.563 936.554, 201.371 942.356 C 201.968 946.635, 205.164 953.395, 208.089 956.560 C 209.136 957.693, 210.723 960.843, 211.616 963.560 C 212.510 966.277, 214.510 970.128, 216.061 972.117 C 217.612 974.106, 220.299 978.381, 222.033 981.617 C 223.768 984.853, 226.503 988.552, 228.113 989.838 C 229.723 991.124, 231.760 993.568, 232.640 995.270 C 235.351 1000.513, 246.101 1010.414, 252.355 1013.428 C 257.125 1015.727, 258.557 1017.014, 260.083 1020.375 C 261.113 1022.644, 261.968 1026.075, 261.984 1028 C 262.032 1034.171, 264.028 1039.106, 268.079 1043.078 C 271.567 1046.497, 271.998 1047.450, 271.985 1051.710 C 271.976 1054.345, 271.586 1057.105, 271.117 1057.845 C 270.648 1058.585, 266.717 1059.853, 262.382 1060.662 C 257.939 1061.492, 252.280 1063.377, 249.412 1064.984 C 246.613 1066.552, 240.436 1069.047, 235.684 1070.528 C 229.523 1072.449, 226.006 1074.201, 223.425 1076.636 C 221.434 1078.513, 218.387 1080.775, 216.653 1081.662 C 212.669 1083.699, 203.533 1093.682, 200.553 1099.255 C 199.304 1101.590, 197.319 1105.283, 196.141 1107.461 C 194.964 1109.640, 194 1112.567, 194 1113.965 C 194 1115.363, 193.100 1119.654, 192 1123.500 C 189.605 1131.876, 189.461 1138.221, 191.534 1144.096 C 194.684 1153.024, 201.288 1156.565, 213.343 1155.792 C 221.750 1155.252, 222.711 1154.710, 229.831 1146.500 C 232.693 1143.200, 237.074 1138.250, 239.568 1135.500 C 249.202 1124.876, 254 1118.925, 254 1117.601 C 254 1116.844, 256.025 1114.170, 258.500 1111.659 C 260.975 1109.149, 263 1106.661, 263 1106.132 C 263 1105.602, 266.375 1101.493, 270.500 1097 C 278.226 1088.585, 279.411 1085.825, 276.066 1084.035 C 271.349 1081.511, 265.265 1083.503, 263 1088.314 C 261.926 1090.595, 260.364 1091.871, 257.500 1092.805 C 255.300 1093.522, 252.229 1095.322, 250.676 1096.805 C 247.898 1099.455, 247.827 1099.467, 246.397 1097.519 C 245.597 1096.430, 245.068 1095.053, 245.221 1094.460 C 245.374 1093.866, 250.078 1088.998, 255.672 1083.642 C 265.114 1074.603, 266.222 1073.844, 271.108 1073.072 C 274.003 1072.614, 279.325 1072.621, 282.936 1073.087 C 286.546 1073.553, 289.848 1073.949, 290.272 1073.967 C 290.697 1073.985, 292.947 1075.724, 295.272 1077.832 C 297.598 1079.939, 301.607 1083.090, 304.183 1084.834 C 311.546 1089.818, 311.474 1092.275, 303.658 1102.892 C 295.465 1114.021, 294.529 1116.873, 294.587 1130.500 C 294.643 1143.481, 295.918 1149.805, 299.425 1154.500 C 300.658 1156.150, 302.848 1160.101, 304.292 1163.281 C 306.027 1167.101, 309.391 1171.555, 314.209 1176.412 C 321.934 1184.200, 325.993 1186.317, 339.778 1189.742 C 345.533 1191.171, 346.773 1191.161, 354.637 1189.615 C 364.339 1187.709, 369.804 1185.258, 375.253 1180.368 C 379.182 1176.842, 383.849 1175.903, 385.788 1178.250 C 386.356 1178.938, 387.568 1182.425, 388.480 1186 C 389.392 1189.575, 391.232 1194.098, 392.568 1196.052 C 393.904 1198.005, 395.903 1202.280, 397.010 1205.552 C 398.117 1208.823, 400.930 1213.923, 403.261 1216.884 C 408.854 1223.987, 423.532 1239, 424.886 1239 C 425.472 1239, 427.401 1240.593, 429.174 1242.541 C 431.151 1244.714, 436.668 1248.191, 443.453 1251.541 C 452.940 1256.225, 455.322 1257, 460.220 1257 C 465.074 1257, 466.423 1256.570, 469.215 1254.135 C 471.022 1252.559, 474.468 1250.271, 476.873 1249.051 C 483.736 1245.571, 498.799 1229.673, 502.093 1222.435 C 503.611 1219.099, 506.228 1214.897, 507.910 1213.096 C 509.856 1211.013, 511.741 1207.218, 513.094 1202.661 C 514.865 1196.696, 516.095 1194.623, 520.458 1190.250 C 526.813 1183.880, 526.213 1183.925, 550.500 1188 C 583.602 1193.554, 592.203 1191.646, 605.828 1175.726 C 612.988 1167.361, 614.541 1164.057, 617.038 1151.878 C 620.406 1135.449, 620.681 1125.192, 618.054 1114 C 615.484 1103.056, 615.200 1102.446, 609.319 1095.225 C 603.428 1087.992, 603.686 1085.778, 611 1080.813 C 617.490 1076.408, 623.070 1074.603, 627.582 1075.449 C 630.092 1075.920, 631.447 1077.087, 633.445 1080.497 C 634.875 1082.936, 637.641 1086.150, 639.593 1087.639 C 641.544 1089.127, 644.187 1092.405, 645.466 1094.923 C 646.745 1097.440, 649.181 1100.734, 650.879 1102.243 C 652.578 1103.752, 654.583 1106.460, 655.336 1108.262 C 656.089 1110.063, 658.347 1112.790, 660.353 1114.320 C 662.360 1115.851, 664.737 1118.543, 665.635 1120.302 C 666.533 1122.061, 668.895 1125.356, 670.884 1127.625 C 672.873 1129.894, 675.850 1133.657, 677.500 1135.988 C 679.150 1138.320, 682.975 1141.930, 686 1144.012 C 689.025 1146.094, 693.046 1149.195, 694.935 1150.903 C 699.061 1154.633, 703.476 1155.989, 711.500 1155.989 C 720.639 1155.989, 724.653 1154.432, 731.700 1148.154 C 736.789 1143.620, 738.345 1141.509, 739.553 1137.500 C 742.160 1128.848, 743.070 1119.545, 742.028 1112.195 C 740.149 1098.947, 739.052 1095.613, 734.716 1089.979 C 727.999 1081.249, 704.780 1058.815, 698.678 1055.159 C 687.681 1048.569, 670.626 1050.022, 666.554 1057.895 C 665.681 1059.584, 663.637 1061.653, 662.013 1062.493 C 660.388 1063.333, 658.577 1064.923, 657.987 1066.025 C 656.554 1068.702, 658.597 1069.466, 664.796 1068.569 C 678.777 1066.548, 680.763 1066.623, 683.935 1069.292 C 685.586 1070.681, 689.100 1072.537, 691.743 1073.415 C 695.525 1074.671, 698.598 1077.085, 706.177 1084.755 C 711.472 1090.115, 716.716 1096.330, 717.829 1098.567 C 718.943 1100.804, 720.631 1103.279, 721.582 1104.067 C 726.252 1107.940, 727.669 1121.751, 724.011 1127.750 C 722.921 1129.537, 721.635 1131, 721.152 1131 C 720.670 1131, 718.576 1132.350, 716.500 1134 C 714.424 1135.650, 711.537 1137, 710.084 1137 C 706.231 1137, 693.983 1130.767, 690.500 1127.033 C 688.850 1125.264, 685.858 1122.972, 683.851 1121.940 C 681.844 1120.907, 679.278 1118.586, 678.148 1116.781 C 677.019 1114.976, 674.749 1112.613, 673.104 1111.530 C 671.158 1110.248, 669.169 1107.338, 667.411 1103.202 C 665.769 1099.338, 663.542 1095.993, 661.732 1094.672 C 659.044 1092.711, 653.485 1082.488, 651.484 1075.826 C 651.100 1074.547, 649.481 1071.432, 647.887 1068.904 C 645.566 1065.222, 645.117 1063.630, 645.635 1060.904 C 646.551 1056.084, 647.781 1053.861, 651.116 1051 C 652.772 1049.580, 655.258 1045.477, 656.873 1041.500 C 658.437 1037.650, 660.946 1032.700, 662.449 1030.500 C 666.248 1024.940, 665.792 1017.360, 661.271 1010.942 C 659.550 1008.499, 657.590 1004.591, 656.915 1002.257 C 656.240 999.924, 653.733 995.725, 651.344 992.926 C 648.955 990.127, 647 987.460, 647 987.001 C 647 985.731, 632.916 971.599, 629.500 969.442 C 623.414 965.598, 613 955.589, 613 953.584 C 613 952.479, 614.797 949.745, 616.994 947.507 C 622.779 941.612, 623.761 935.518, 621.050 922.332 C 617.231 903.754, 614.639 897.107, 608.949 891.302 C 603.068 885.302, 592.299 879, 587.926 879 C 586.273 879, 583.140 879.908, 580.964 881.018 C 578.789 882.128, 572.907 884.134, 567.894 885.476 C 558.845 887.897, 554 890.172, 554 891.997 C 554 893.397, 549.082 895.672, 544.500 896.392 C 538.213 897.379, 535.932 895.605, 533.710 887.997 C 532.666 884.424, 530.617 880.001, 529.156 878.168 C 527.695 876.335, 525.600 873.373, 524.500 871.585 C 518.754 862.244, 495.164 838.323, 487.168 833.728 C 485.150 832.568, 482.121 830.239, 480.436 828.551 C 474.462 822.568, 460.084 820.361, 448.086 823.587 M 455.985 842.519 C 453.518 843.904, 449.670 845.979, 447.434 847.129 C 445.198 848.278, 442.498 850.531, 441.434 852.135 C 440.370 853.739, 438.080 856.031, 436.345 857.230 C 434.610 858.428, 432.413 860.779, 431.464 862.454 C 430.515 864.129, 428.173 867.075, 426.260 869 C 424.346 870.925, 421.368 874.377, 419.641 876.670 C 417.913 878.964, 413.125 884.753, 409 889.535 C 401.175 898.607, 395.175 907.081, 392.424 912.950 C 389.954 918.218, 390.754 930.933, 393.791 934.682 C 395.047 936.232, 396.845 938.808, 397.787 940.406 C 398.729 942.004, 401.322 946.054, 403.550 949.406 C 405.777 952.758, 408.623 958.040, 409.873 961.145 C 411.124 964.249, 413.292 967.849, 414.691 969.145 C 416.091 970.440, 418.719 974.733, 420.531 978.684 C 423.575 985.320, 424.144 985.963, 428.006 987.120 C 435.424 989.343, 437.947 985.725, 433.170 979.714 C 428.898 974.338, 427.910 964.173, 431.427 961.765 C 435.341 959.085, 445.447 965.036, 449.083 972.162 C 450.141 974.236, 451.890 976.406, 452.969 976.983 C 454.592 977.852, 455.221 977.593, 456.602 975.484 C 458.937 971.920, 457.973 963.446, 454.653 958.354 C 449.808 950.923, 449.230 934.256, 453.530 925.941 C 455.737 921.673, 459.834 921.908, 463.896 926.535 C 466.531 929.536, 467 930.869, 467 935.359 C 467 941.200, 469.840 951.524, 475.428 966 C 478.391 973.675, 480.094 976.514, 484.290 980.777 C 489.482 986.051, 495.067 988.679, 498.382 987.407 C 499.869 986.836, 500.926 983.987, 502.462 976.412 C 502.806 974.713, 504.643 971.675, 506.544 969.659 C 508.445 967.644, 510.009 965.434, 510.020 964.748 C 510.115 958.767, 512.643 948.327, 515.562 941.862 C 519.201 933.802, 522 921.961, 522 914.622 C 522 907.852, 519.212 899.056, 515.433 893.909 C 513.502 891.278, 511.213 887.048, 510.348 884.509 C 509.406 881.745, 507.579 879.013, 505.791 877.697 C 504.149 876.489, 502.132 874.203, 501.309 872.619 C 500.486 871.034, 498.167 868.082, 496.156 866.060 C 494.145 864.037, 491.539 861.284, 490.364 859.941 C 487.875 857.097, 477.586 848.460, 470.741 843.469 C 465.060 839.328, 462.015 839.131, 455.985 842.519 M 335.533 895.130 C 330.782 896.243, 328.013 898.673, 323.150 906 L 319.500 911.500 319.675 923.624 C 319.831 934.385, 320.211 936.801, 323.055 945.124 C 326.543 955.327, 328.544 958.191, 334.216 961.100 C 341.437 964.803, 345.768 975.448, 341.077 977.959 C 340.019 978.525, 334.506 979.706, 328.827 980.582 C 320.724 981.832, 317.268 982.898, 312.777 985.529 C 309.629 987.374, 305.048 989.770, 302.598 990.854 C 299.821 992.082, 297.558 993.955, 296.592 995.822 C 295.739 997.471, 293.534 1000.098, 291.692 1001.660 C 289.850 1003.222, 286.690 1007.259, 284.671 1010.631 C 279.797 1018.770, 279.798 1022.713, 284.676 1031.716 C 288.659 1039.066, 290.213 1041.057, 304.598 1057.239 C 312.926 1066.607, 315.062 1068.413, 321.343 1071.393 C 325.302 1073.272, 330.943 1075.595, 333.877 1076.555 L 339.213 1078.300 345.357 1075.200 C 348.736 1073.495, 353.300 1071.794, 355.500 1071.419 C 360.569 1070.555, 362.757 1069.462, 366.502 1065.924 C 368.203 1064.318, 372.359 1062.206, 376.088 1061.055 C 379.708 1059.936, 383.532 1058.049, 384.585 1056.860 C 385.638 1055.671, 389.246 1053.442, 392.602 1051.906 C 398.073 1049.403, 398.927 1048.597, 400.852 1044.122 C 403.699 1037.504, 403.603 1036.736, 399.465 1033.104 C 395.201 1029.360, 392.764 1029.232, 387.500 1032.474 C 383.811 1034.746, 382.568 1034.932, 371.500 1034.869 C 357.280 1034.788, 355.015 1034.281, 353.025 1030.735 C 351.681 1028.342, 351.684 1027.888, 353.044 1026.528 C 354.648 1024.924, 361.299 1022.886, 374.324 1020.009 C 383.620 1017.955, 385.785 1016.347, 383.942 1012.867 C 381.204 1007.695, 375.521 1001.882, 371.438 1000.076 C 368.642 998.839, 366.248 996.769, 364.606 994.168 C 362.524 990.870, 361.126 989.888, 356.670 988.593 C 349.868 986.615, 347.718 984.419, 350.538 982.329 C 353.571 980.081, 360.805 981.495, 364.532 985.065 C 366.504 986.954, 369.300 988.299, 372.532 988.913 C 380.005 990.332, 382.544 991.552, 386.057 995.413 C 387.817 997.347, 390.876 999.464, 392.855 1000.117 C 394.833 1000.770, 397.813 1002.134, 399.476 1003.148 C 403.460 1005.578, 405.550 1005.480, 407.443 1002.777 C 410.401 998.555, 409.456 993.697, 404.561 987.962 C 402.119 985.102, 398.929 980.228, 397.473 977.131 C 396.016 974.034, 393.851 970.461, 392.662 969.190 C 391.473 967.920, 388.901 963.645, 386.946 959.690 C 383.116 951.941, 383.747 952.373, 371 948.771 C 365.036 947.086, 364.819 944.973, 369.549 934.632 C 375.640 921.315, 374.166 914.772, 362.878 905.033 C 357.232 900.161, 354.519 898.619, 347.938 896.540 C 343.515 895.143, 339.807 894.045, 339.698 894.100 C 339.589 894.156, 337.715 894.619, 335.533 895.130 M 687.458 897.285 C 679.188 902.205, 676.575 905.777, 674.387 915.154 C 673.654 918.294, 671.698 922.807, 670.040 925.182 C 667.538 928.767, 666.759 931.368, 665.454 940.500 C 664.424 947.703, 663.005 953.268, 661.343 956.621 C 659.946 959.437, 658.964 962.587, 659.160 963.621 C 659.747 966.717, 664.812 966.450, 670.194 963.040 C 675.450 959.710, 676.981 956.216, 677 947.500 C 677.015 940.595, 678.664 935.301, 682.149 930.965 C 683.774 928.942, 686.462 924.410, 688.122 920.893 C 691.453 913.836, 694.124 910.526, 698.200 908.405 C 704.078 905.347, 708.706 908.265, 707.710 914.401 C 706.789 920.076, 694.372 943.350, 691.009 945.706 C 688.254 947.636, 686 952.260, 686 955.982 C 686 959.527, 688.332 965.605, 690.693 968.213 C 694.887 972.847, 702.994 968.579, 707.500 959.366 C 709.150 955.992, 712.131 951.440, 714.124 949.252 C 716.149 947.029, 718.510 942.894, 719.473 939.886 C 720.421 936.924, 722.439 932.700, 723.957 930.500 C 732.491 918.129, 730.851 904.752, 720.243 900.209 C 711.011 896.255, 692.035 894.563, 687.458 897.285 M 573.035 900.581 C 571.129 901.408, 568.749 902.965, 567.746 904.042 C 566.669 905.198, 564.607 906.002, 562.711 906.004 C 558.726 906.008, 552.969 909.403, 552.244 912.175 C 551.945 913.317, 550.656 916.107, 549.378 918.375 C 548.100 920.644, 545.639 925.180, 543.909 928.456 C 542.179 931.732, 539.517 936.007, 537.994 937.956 C 536.470 939.905, 534.269 944.440, 533.102 948.034 C 531.935 951.627, 529.685 956.139, 528.102 958.061 C 526.518 959.982, 523.800 964.690, 522.062 968.523 C 520.324 972.357, 517.850 976.620, 516.565 977.996 C 515.280 979.373, 513.452 982.075, 512.502 984 C 511.553 985.925, 509.432 988.917, 507.789 990.650 C 505.675 992.879, 504.988 994.386, 505.439 995.806 C 506.100 997.891, 512.497 1001, 516.125 1001 C 519.039 1001, 527.911 996.413, 531.500 993.051 C 538.159 986.812, 544.530 985.450, 554.787 988.073 C 561.055 989.676, 563.156 990.784, 567.449 994.748 C 570.280 997.361, 574.045 1000.271, 575.816 1001.213 C 577.586 1002.156, 579.306 1003.635, 579.639 1004.501 C 580.497 1006.738, 577.629 1009.495, 573.002 1010.881 C 569.719 1011.865, 568.526 1011.806, 566.078 1010.541 C 564.452 1009.700, 562.497 1008.119, 561.733 1007.029 C 559.377 1003.666, 549.449 999.693, 545.331 1000.466 C 540.077 1001.451, 528.259 1012.759, 524.858 1020.055 C 522.961 1024.125, 520.997 1026.541, 517.891 1028.628 C 512.272 1032.401, 511.047 1036.217, 513.442 1042.488 C 515.154 1046.970, 515.285 1047.061, 531.333 1054.918 C 540.225 1059.272, 549.247 1064.427, 551.383 1066.374 C 554.165 1068.909, 556.788 1070.209, 560.633 1070.957 C 563.585 1071.531, 568.567 1072.501, 571.705 1073.114 C 582.665 1075.252, 598.170 1071.609, 608.655 1064.430 C 612.214 1061.994, 615.783 1060, 616.586 1060 C 617.388 1060, 619.947 1058.291, 622.272 1056.202 C 624.598 1054.113, 627.679 1051.667, 629.119 1050.765 C 630.560 1049.863, 633.160 1046.735, 634.898 1043.813 C 636.637 1040.891, 638.986 1037.039, 640.120 1035.253 C 643.112 1030.538, 642.938 1024.375, 639.673 1019.441 C 638.223 1017.249, 635.950 1012.263, 634.622 1008.360 C 632.832 1003.097, 630.348 998.908, 625.006 992.144 C 618.757 984.234, 616.582 982.297, 608.593 977.530 C 600.171 972.504, 598.428 971.874, 588.225 970.167 C 582.088 969.141, 576.389 967.738, 575.560 967.050 C 573.724 965.526, 572.558 959.897, 573.391 956.577 C 574.720 951.284, 576.328 950.739, 589.436 951.135 L 601.500 951.500 601.801 946.291 C 601.966 943.426, 601.431 938.822, 600.611 936.060 C 599.790 933.299, 599.367 929.513, 599.670 927.648 C 600.085 925.089, 599.243 921.957, 596.236 914.879 C 594.044 909.720, 591.931 904.462, 591.540 903.193 C 591.149 901.924, 589.713 900.461, 588.349 899.943 C 584.680 898.548, 576.984 898.868, 573.035 900.581 M 569.600 910.842 C 568.266 912.954, 565.283 916.484, 562.970 918.684 C 559.581 921.909, 558.904 923.121, 559.479 924.935 C 560.977 929.654, 575.407 932.918, 581.316 929.875 C 584.857 928.051, 588 924.780, 588 922.919 C 588 919.962, 582.309 908.332, 580.527 907.649 C 579.597 907.292, 577.304 907, 575.431 907 C 572.568 907, 571.638 907.613, 569.600 910.842 M 214.302 933.654 C 213.225 936.462, 215.895 944.099, 218.952 946.955 C 220.748 948.633, 222.486 951.865, 223.538 955.481 C 224.524 958.874, 226.253 962.181, 227.680 963.403 C 233.367 968.273, 243.581 979.400, 245.492 982.806 C 250.347 991.461, 256.453 985.336, 252.960 975.315 C 252.308 973.446, 250.625 971.715, 248.449 970.677 C 246.223 969.616, 244.362 967.673, 243.262 965.261 C 242.318 963.192, 240.298 960.022, 238.773 958.215 C 237.248 956.409, 236 954.353, 236 953.647 C 236 952.941, 235.296 949.994, 234.437 947.098 C 232.976 942.182, 232.526 941.680, 227.610 939.506 C 224.715 938.226, 221.584 936.014, 220.651 934.589 C 218.737 931.669, 215.261 931.157, 214.302 933.654 M 756.500 970.879 C 751.056 972.285, 739.256 980.119, 732.322 986.929 C 721.929 997.138, 718.960 1000.919, 715.777 1008 C 712.611 1015.041, 712.624 1016.636, 715.912 1024.299 C 717.725 1028.524, 718.654 1029.399, 723.694 1031.628 C 726.842 1033.020, 730.862 1035.427, 732.627 1036.977 C 734.392 1038.527, 738.420 1040.762, 741.578 1041.943 C 744.736 1043.125, 748.707 1045.080, 750.403 1046.287 C 754.946 1049.522, 760.384 1048.943, 770.407 1044.158 C 775.007 1041.962, 779.499 1039.126, 780.388 1037.856 C 781.278 1036.586, 783.586 1034.594, 785.517 1033.428 C 791.250 1029.968, 800.036 1019.532, 801.605 1014.318 C 803.409 1008.323, 803.376 1001.609, 801.512 995.432 C 799.281 988.038, 789.926 979.205, 779.500 974.647 C 771.109 970.979, 761.932 969.475, 756.500 970.879 M 143 973.486 C 141.625 974.265, 137.575 975.930, 134 977.186 C 126.385 979.863, 119.223 986.421, 114.614 994.937 C 108.890 1005.514, 109.345 1012.314, 116.300 1020.104 C 118.610 1022.692, 121.648 1026.161, 123.050 1027.812 C 126.466 1031.834, 133.042 1033.662, 138.500 1032.105 C 140.700 1031.478, 144.975 1030.465, 148 1029.854 C 156.345 1028.168, 158.467 1027.173, 160.289 1024.087 C 161.208 1022.532, 163.431 1020.679, 165.230 1019.970 C 167.028 1019.261, 169.689 1017.590, 171.142 1016.257 C 172.772 1014.761, 174.688 1013.960, 176.142 1014.166 C 178.252 1014.465, 178.531 1015.082, 178.794 1020.041 C 179.077 1025.382, 178.923 1025.761, 174.549 1030.541 C 158.926 1047.613, 155.424 1049.983, 145.815 1049.994 C 135.225 1050.007, 133.290 1053.059, 138.023 1062.291 C 143.003 1072.004, 143.730 1072.500, 152.966 1072.500 L 160.878 1072.500 174.689 1058.730 C 187.712 1045.745, 196.869 1038.679, 208.092 1032.953 C 210.225 1031.865, 212.704 1029.855, 213.600 1028.487 C 215.068 1026.247, 215.079 1025.769, 213.706 1023.673 C 212.860 1022.383, 209.581 1020.357, 206.341 1019.125 C 194.134 1014.481, 188.444 1008.563, 184.971 996.903 C 181.980 986.860, 177.018 981.134, 166.927 976.083 C 159.792 972.512, 157.936 972.004, 152.134 972.035 C 148.322 972.056, 144.437 972.673, 143 973.486 M 686 982.561 C 684.075 983.940, 679.243 986.704, 675.263 988.704 C 666.765 992.975, 665.433 995.255, 669.428 998.691 C 671.502 1000.475, 673.292 1000.993, 677.306 1000.968 C 683.422 1000.931, 685.405 999.667, 687.604 994.406 C 688.497 992.267, 690.325 989.214, 691.666 987.621 C 696.693 981.646, 692.504 977.905, 686 982.561 M 448.741 992.377 C 441.418 995.438, 435.979 1000.152, 432.449 1006.500 C 430.920 1009.250, 427.729 1014.241, 425.360 1017.591 C 419.653 1025.659, 417.692 1033.592, 419.380 1041.783 C 420.660 1047.996, 422.197 1050.869, 428.500 1058.829 C 430.700 1061.608, 433.329 1065.060, 434.342 1066.501 C 436.249 1069.213, 437.693 1069.970, 449.557 1074.480 C 457.653 1077.557, 459.669 1077.414, 471.774 1072.898 C 481.913 1069.115, 487.875 1063.301, 491.994 1053.179 C 494.721 1046.478, 494.860 1045.547, 493.812 1041.005 C 492.755 1036.426, 492.851 1035.823, 495.212 1032.255 C 500.653 1024.034, 500.060 1016.732, 493.285 1008.503 C 490.787 1005.468, 486.550 1001.792, 483.871 1000.333 C 481.192 998.875, 479 997.314, 479 996.864 C 479 995.058, 474.063 993.001, 467.467 992.059 C 463.635 991.512, 459.150 990.818, 457.500 990.517 C 455.547 990.160, 452.490 990.809, 448.741 992.377 M 152.010 996.987 C 150.273 999.180, 147.511 1001.767, 145.871 1002.735 C 144.232 1003.704, 141.503 1006.658, 139.808 1009.299 C 136.109 1015.064, 136.745 1017.702, 142.491 1020.429 C 147.095 1022.613, 150.016 1021.940, 155.526 1017.425 C 157.850 1015.521, 161.813 1013.261, 164.333 1012.402 C 169.476 1010.650, 170.549 1008.741, 169.509 1003.198 C 168.027 995.295, 165.558 993.045, 158.334 993.014 C 155.829 993.003, 154.509 993.832, 152.010 996.987 M 757.825 997.648 C 756.907 998.667, 755.860 1000.687, 755.498 1002.138 C 754.947 1004.346, 755.382 1005.169, 758.170 1007.189 C 760.001 1008.516, 762.738 1010.218, 764.251 1010.970 C 765.765 1011.723, 767.887 1013.838, 768.968 1015.670 C 770.048 1017.501, 771.562 1019, 772.331 1019 C 775.005 1019, 778.650 1015.111, 779.906 1010.920 C 781.034 1007.156, 780.966 1006.424, 779.275 1004.102 C 776.936 1000.888, 768.852 996.866, 763.497 996.254 C 760.466 995.907, 759.090 996.245, 757.825 997.648 M 733.250 1012.495 C 730.242 1014.659, 730.414 1016.429, 734.007 1020.278 C 735.661 1022.050, 738.099 1024.850, 739.425 1026.500 C 741.810 1029.468, 741.940 1029.500, 751.713 1029.499 C 762.372 1029.499, 767 1027.860, 767 1024.084 C 767 1021.727, 765.109 1021, 758.983 1021 C 752.438 1021, 749.075 1019.618, 745.478 1015.450 C 741.847 1011.242, 736.717 1010.002, 733.250 1012.495 M 448.282 1021.276 C 443.387 1023.138, 441.769 1025.350, 441.235 1030.909 C 440.631 1037.197, 442.265 1039.982, 448.264 1042.886 C 453.427 1045.385, 462.691 1045.728, 466.855 1043.575 C 473.889 1039.937, 472.922 1032.739, 464.423 1025.478 C 458.380 1020.316, 453.882 1019.145, 448.282 1021.276 M 395.637 1064.465 C 393.513 1065.222, 390.588 1066.968, 389.137 1068.344 C 387.687 1069.721, 384.155 1071.732, 381.288 1072.813 C 378.422 1073.894, 374.263 1076.331, 372.046 1078.229 C 369.680 1080.254, 365.430 1082.460, 361.758 1083.571 C 358.182 1084.653, 354 1086.803, 352 1088.588 C 350.075 1090.306, 346.549 1092.932, 344.164 1094.423 C 340.822 1096.512, 339.266 1098.436, 337.375 1102.817 C 336.026 1105.943, 334.210 1109.850, 333.339 1111.500 C 332.468 1113.150, 330.936 1116.075, 329.935 1118 C 328.934 1119.925, 327.383 1126.225, 326.489 1132 C 323.595 1150.702, 323.589 1149.979, 326.678 1156 C 329.130 1160.780, 330.281 1161.878, 335.466 1164.389 C 344.980 1168.995, 353.474 1168.136, 374.807 1160.414 C 380.646 1158.301, 388.747 1156.328, 395.403 1155.400 C 407.600 1153.699, 409.028 1153.183, 410.827 1149.827 C 412.295 1147.091, 424.249 1140.418, 425.879 1141.425 C 427.202 1142.243, 427.348 1147.903, 426.096 1149.878 C 425.616 1150.636, 423.067 1152.436, 420.431 1153.878 C 417.408 1155.532, 413.858 1158.829, 410.819 1162.807 C 405.100 1170.291, 404.869 1172.403, 408.377 1185.153 C 411.028 1194.789, 411.082 1194.904, 415.559 1200.500 C 417.319 1202.700, 419.703 1206.375, 420.857 1208.666 C 422.011 1210.957, 424.302 1213.791, 425.949 1214.964 C 427.596 1216.137, 429.703 1218.382, 430.632 1219.954 C 431.560 1221.526, 433.939 1223.722, 435.918 1224.834 C 437.897 1225.946, 440.637 1228.073, 442.008 1229.560 C 446.034 1233.929, 451.607 1235.959, 459.500 1235.933 C 463.350 1235.920, 467.725 1235.368, 469.223 1234.705 C 473.968 1232.606, 487.763 1218.193, 490.436 1212.543 C 491.794 1209.672, 493.627 1206.725, 494.507 1205.994 C 496.894 1204.013, 497.797 1201.944, 501.043 1191.017 C 504.360 1179.852, 504.499 1178.398, 502.798 1172.719 C 501.928 1169.816, 500.338 1167.793, 497.048 1165.404 C 494.546 1163.589, 491.224 1160.730, 489.665 1159.051 C 488.106 1157.373, 486.234 1156, 485.504 1156 C 483.940 1156, 479 1150.394, 479 1148.619 C 479 1147.945, 477.387 1145.842, 475.415 1143.946 C 473.443 1142.051, 470.730 1138.639, 469.387 1136.364 C 468.043 1134.090, 465.177 1131.059, 463.017 1129.630 C 460.089 1127.692, 458.782 1125.946, 457.881 1122.765 C 456.224 1116.916, 454.626 1115.235, 452.445 1117.046 C 451.105 1118.158, 450.911 1119.496, 451.427 1124.059 C 452.344 1132.164, 450.735 1133.843, 440.658 1135.295 C 430.947 1136.694, 430.695 1136.421, 431.536 1125.402 C 432.010 1119.192, 431.787 1116.425, 430.577 1113.530 C 426.883 1104.689, 429.355 1101.314, 438.674 1102.478 C 448.002 1103.644, 449.623 1099.707, 442.945 1092.112 C 436.151 1084.385, 435.852 1084.126, 433.007 1083.502 C 431.491 1083.169, 429.216 1081.795, 427.951 1080.448 C 423.740 1075.966, 422.832 1076.921, 421.495 1087.238 C 420.669 1093.610, 419.054 1095, 412.476 1095 C 405.369 1095, 402.223 1093.466, 401.117 1089.463 C 399.992 1085.386, 401.475 1076.909, 404.055 1072.678 C 406.406 1068.822, 406.506 1066.649, 404.429 1064.571 C 402.532 1062.675, 400.720 1062.653, 395.637 1064.465 M 510.157 1068.602 C 508.041 1070.084, 507.890 1070.834, 508.133 1078.604 C 508.461 1089.073, 507.253 1090.926, 503.238 1086.116 C 501.047 1083.492, 499.877 1082.889, 497.493 1083.160 C 494.959 1083.448, 494.073 1084.381, 491.713 1089.250 L 488.926 1095 483.186 1095 C 474.705 1095, 472.996 1096.564, 473.015 1104.307 C 473.023 1107.713, 473.585 1111.493, 474.265 1112.708 C 477.256 1118.054, 487.152 1132, 487.953 1132 C 488.439 1132, 489.861 1133.688, 491.114 1135.750 C 492.366 1137.813, 496.041 1142.425, 499.281 1146 C 503.771 1150.954, 506.400 1152.941, 510.336 1154.353 C 517.964 1157.089, 526.827 1158.925, 532.602 1158.965 C 540.046 1159.016, 557.426 1163.644, 565.500 1167.725 C 569.350 1169.670, 574.075 1171.301, 576 1171.349 C 580.274 1171.454, 590.077 1165.866, 592.245 1162.088 C 597.542 1152.858, 599.133 1127.747, 595.309 1113.718 C 591.980 1101.505, 588.753 1098.300, 584.509 1102.990 C 582.920 1104.746, 582.693 1107.186, 582.580 1123.740 C 582.450 1142.793, 581.547 1148, 578.375 1148 C 575.373 1148, 574.521 1143.460, 573.966 1124.500 C 573.527 1109.497, 573.060 1104.844, 571.748 1102.383 C 569.014 1097.254, 556.800 1086.939, 550.358 1084.318 C 547.163 1083.018, 543.119 1080.569, 541.371 1078.875 C 539.143 1076.716, 535.999 1075.212, 530.847 1073.840 C 526.806 1072.765, 521.901 1070.786, 519.946 1069.442 C 515.802 1066.594, 513.327 1066.382, 510.157 1068.602 M 679.750 1084.038 C 676.795 1085.830, 677.560 1089.860, 681.222 1091.797 C 682.994 1092.733, 686.257 1095.382, 688.472 1097.683 C 693.508 1102.912, 700.602 1105.265, 702.697 1102.400 C 704.588 1099.814, 704.448 1099.466, 699.500 1094.447 C 697.025 1091.936, 695 1089.244, 695 1088.464 C 695 1085.103, 683.498 1081.764, 679.750 1084.038 M 227.329 1096.185 C 226.135 1096.763, 224.883 1098.329, 224.548 1099.667 C 224.129 1101.333, 222.531 1102.701, 219.469 1104.013 C 215.565 1105.687, 215 1106.317, 215 1108.996 C 215 1114.670, 221.998 1114.333, 224.418 1108.541 C 225.544 1105.848, 226.696 1104.890, 229.822 1104.048 C 234.953 1102.666, 236.441 1099.584, 233.429 1096.571 C 231.635 1094.778, 230.401 1094.699, 227.329 1096.185 M 493.607 1101.582 C 492.423 1104.667, 493.027 1108.810, 494.999 1111.139 C 496.961 1113.456, 497.027 1113.464, 498.499 1111.559 C 500.437 1109.052, 500.413 1105.035, 498.443 1102.223 C 496.623 1099.623, 494.468 1099.338, 493.607 1101.582 M 702.105 1115.373 C 700.559 1117.237, 701.773 1120, 704.138 1120 C 706.565 1120, 707.613 1117.444, 705.989 1115.487 C 704.457 1113.641, 703.565 1113.615, 702.105 1115.373 M 206.200 1121.200 C 205.540 1121.860, 205 1123.895, 205 1125.721 C 205 1128.284, 205.565 1129.300, 207.472 1130.169 C 210.352 1131.481, 218.500 1130.158, 218.500 1128.378 C 218.500 1127.231, 209.603 1120, 208.191 1120 C 207.756 1120, 206.860 1120.540, 206.200 1121.200 M 695.500 1281.101 C 694.400 1281.733, 690.913 1284.768, 687.750 1287.844 C 679.084 1296.274, 680.057 1300.778, 691 1302.883 C 715.445 1307.584, 719.469 1309.037, 720.606 1313.566 C 721.372 1316.619, 720.467 1317.907, 716.341 1319.631 C 713.838 1320.676, 711.935 1320.809, 709.213 1320.129 C 707.171 1319.618, 700.183 1318.926, 693.685 1318.592 C 681.338 1317.956, 676.948 1316.641, 674.994 1312.990 C 674.315 1311.721, 672.901 1311, 671.091 1311 C 667.270 1311, 660.026 1313.636, 657.528 1315.935 C 656.413 1316.962, 652.456 1319.172, 648.736 1320.845 C 645.015 1322.518, 639.368 1326.152, 636.185 1328.920 C 630.513 1333.854, 630.299 1333.941, 625.359 1333.356 C 619.562 1332.670, 616 1334.082, 616 1337.067 C 616 1340.328, 618.950 1340.540, 624.428 1337.672 C 628.927 1335.317, 629.935 1335.134, 633.013 1336.119 C 636.416 1337.208, 651.815 1338.102, 692.605 1339.580 L 712.710 1340.308 724.605 1328.822 C 731.147 1322.505, 739.063 1314.848, 742.196 1311.806 C 748.287 1305.893, 749.594 1302.982, 748.583 1297.590 C 747.813 1293.485, 746.722 1293, 738.256 1293 C 728.602 1293, 721.719 1290.496, 716.437 1285.061 C 712.107 1280.607, 711.937 1280.537, 704.772 1280.246 C 700.561 1280.075, 696.658 1280.435, 695.500 1281.101 M 213.569 1286.497 C 209.756 1288.418, 202.223 1291.435, 196.829 1293.204 L 187.020 1296.419 178.700 1293.709 C 174.125 1292.219, 169.450 1291, 168.313 1291 C 162.016 1291, 162.544 1300.375, 169.412 1310.500 C 172.023 1314.350, 175.586 1318.859, 177.330 1320.520 C 179.073 1322.180, 181.625 1325.016, 183 1326.820 C 185.043 1329.501, 187.420 1330.747, 196 1333.639 C 206.131 1337.054, 206.886 1337.160, 217.500 1336.660 C 232.361 1335.961, 248.023 1334.294, 256.500 1332.510 C 260.350 1331.700, 265.213 1330.779, 267.306 1330.463 C 271.587 1329.817, 275.287 1326.726, 274.800 1324.202 C 274.623 1323.281, 273.006 1321.621, 271.207 1320.513 C 269.408 1319.406, 266.516 1317.600, 264.780 1316.500 C 262.929 1315.326, 260.504 1312.226, 258.912 1308.998 C 255.513 1302.102, 245.807 1292.710, 238.781 1289.518 C 235.876 1288.199, 232.150 1286.196, 230.500 1285.066 C 226.164 1282.099, 221.523 1282.491, 213.569 1286.497 M 543 1303.503 C 541.075 1304.966, 536.070 1307.903, 531.877 1310.029 C 527.685 1312.155, 523.998 1314.564, 523.683 1315.383 C 523.369 1316.201, 519.600 1318.553, 515.306 1320.610 C 511.013 1322.666, 505.925 1325.553, 504 1327.024 C 502.075 1328.496, 498.398 1330.466, 495.829 1331.402 C 488.752 1333.982, 488.574 1334.440, 490.327 1345.520 C 491.161 1350.793, 492.384 1355.758, 493.044 1356.553 C 495.157 1359.100, 497.865 1358.175, 500.495 1354.008 C 501.881 1351.812, 504.706 1348.948, 506.772 1347.644 C 508.839 1346.339, 511.165 1344.506, 511.942 1343.570 C 512.719 1342.633, 516.538 1339.792, 520.428 1337.255 C 529.050 1331.633, 536.622 1330.400, 542.225 1333.705 C 544.035 1334.773, 549.110 1336.888, 553.505 1338.406 C 561.554 1341.185, 570.452 1346.278, 577.103 1351.913 C 582.489 1356.477, 585.991 1357.987, 591.203 1357.994 C 596.980 1358.001, 600.653 1356.434, 601.381 1353.651 C 601.942 1351.506, 599.688 1347, 598.054 1347 C 596.708 1347, 595.181 1341.445, 594.126 1332.714 C 593.608 1328.431, 592.665 1324.302, 592.030 1323.537 C 591.396 1322.772, 588.778 1321.431, 586.214 1320.557 C 583.650 1319.684, 579.966 1317.432, 578.026 1315.553 C 574.906 1312.530, 567.420 1307.774, 558.567 1303.190 C 556.954 1302.355, 553.579 1301.485, 551.067 1301.257 C 547.286 1300.914, 545.897 1301.301, 543 1303.503 M 195.250 1311.615 C 193.455 1312.407, 193.709 1316.514, 195.654 1318.128 C 197.769 1319.883, 205.494 1319.580, 212.803 1317.455 C 217.572 1316.068, 219.533 1316.011, 226.817 1317.045 C 234.560 1318.144, 245.726 1317.810, 249.487 1316.366 C 251.929 1315.430, 251.226 1313.101, 248.250 1312.269 C 245.561 1311.517, 235.520 1311.381, 221.500 1311.906 C 217.650 1312.050, 210.450 1311.919, 205.500 1311.615 C 200.550 1311.312, 195.938 1311.311, 195.250 1311.615 M 372.643 1312.028 C 371.071 1312.499, 369.025 1313.573, 368.096 1314.414 C 367.166 1315.254, 362.932 1317.548, 358.685 1319.510 C 351.104 1323.013, 350.907 1323.198, 347.732 1329.788 C 343.763 1338.030, 341.963 1338.591, 335.447 1333.615 C 332.488 1331.356, 329.209 1329.854, 326.274 1329.414 C 323.114 1328.940, 320.556 1327.691, 317.979 1325.362 C 314.671 1322.374, 313.419 1321.925, 306.828 1321.368 C 300.613 1320.843, 299.125 1321.018, 297.701 1322.442 C 296.766 1323.377, 296 1324.546, 296 1325.039 C 296 1326.496, 308.360 1340.234, 313.346 1344.320 C 318.011 1348.143, 327.274 1352, 331.791 1352 C 336.363 1352, 341.840 1349.749, 346.364 1346.011 C 350.026 1342.985, 351.929 1342.187, 356.677 1341.685 C 359.880 1341.347, 366.100 1340.187, 370.500 1339.109 C 374.900 1338.030, 381.942 1336.841, 386.148 1336.466 C 393.475 1335.813, 394.051 1335.572, 399.836 1330.738 L 405.875 1325.692 398.834 1320.596 C 387.198 1312.175, 384.920 1311.026, 380 1311.102 C 377.525 1311.141, 374.214 1311.557, 372.643 1312.028 M 420.667 1332.667 C 419.240 1334.093, 420.167 1335.186, 424.384 1337.052 C 427.505 1338.432, 429.261 1340.029, 430.479 1342.596 C 431.420 1344.579, 433.547 1346.944, 435.206 1347.851 C 436.865 1348.758, 440.985 1351.259, 444.361 1353.408 C 447.738 1355.558, 453.249 1358.147, 456.610 1359.163 C 459.970 1360.179, 464.245 1362.122, 466.110 1363.480 C 474.505 1369.594, 478 1368.872, 478 1361.022 C 478 1355.112, 475.751 1353, 469.459 1353 C 462.078 1353, 454.982 1350.203, 450.552 1345.546 C 442.989 1337.596, 423.944 1329.389, 420.667 1332.667 M 270.500 1350.611 C 254.336 1351.818, 245.468 1353.379, 233.840 1357.065 C 226.877 1359.273, 220.639 1361.730, 219.978 1362.526 C 217.805 1365.144, 219.831 1368.533, 229.083 1377.759 C 235.288 1383.946, 240.382 1388.004, 244.971 1390.415 C 248.686 1392.368, 252.323 1394.685, 253.053 1395.564 C 253.783 1396.444, 256.909 1398.440, 260 1400 C 263.091 1401.560, 266.260 1403.608, 267.042 1404.551 C 267.825 1405.494, 271.623 1408.669, 275.482 1411.608 C 279.342 1414.546, 285.986 1419.830, 290.246 1423.350 C 294.506 1426.870, 300.356 1430.751, 303.246 1431.974 C 306.136 1433.198, 310.606 1435.531, 313.181 1437.159 C 316.562 1439.297, 321.144 1440.782, 329.681 1442.504 C 336.181 1443.815, 344.769 1446.043, 348.764 1447.455 C 354.431 1449.458, 362.018 1450.679, 383.264 1453.006 C 398.244 1454.647, 415 1456.779, 420.500 1457.745 C 428.761 1459.195, 436.151 1459.483, 463 1459.401 C 497.490 1459.297, 492.366 1459.708, 555.002 1452.014 C 566.303 1450.625, 572.053 1449.424, 576.219 1447.582 C 579.362 1446.192, 586.111 1443.873, 591.217 1442.428 C 596.322 1440.983, 602.815 1438.519, 605.645 1436.952 C 608.474 1435.384, 613.541 1432.984, 616.904 1431.617 C 620.267 1430.251, 628.302 1425.346, 634.759 1420.718 C 641.217 1416.090, 647.850 1411.602, 649.500 1410.746 C 651.150 1409.890, 653.617 1407.994, 654.983 1406.533 C 656.349 1405.071, 658.965 1402.949, 660.797 1401.817 C 662.629 1400.684, 665.200 1398.059, 666.511 1395.983 C 667.960 1393.686, 671.168 1390.913, 674.697 1388.904 C 687.747 1381.474, 702 1369.391, 702 1365.757 C 702 1363.231, 698.790 1362.247, 683.116 1359.966 C 675.627 1358.876, 667.025 1357.303, 664 1356.470 C 660.975 1355.637, 652.303 1354.671, 644.729 1354.323 L 630.958 1353.691 626.729 1356.708 C 624.403 1358.367, 621.064 1360.459, 619.310 1361.357 C 617.555 1362.255, 615.305 1364.373, 614.310 1366.064 C 613.314 1367.754, 609.628 1371.357, 606.118 1374.069 C 600.005 1378.792, 599.468 1379, 593.371 1379 C 587.841 1379, 585.989 1378.461, 579.253 1374.889 C 574.989 1372.629, 569.305 1369.213, 566.622 1367.299 C 561.241 1363.461, 542.743 1357.045, 537 1357.025 C 532.967 1357.011, 514.452 1362.152, 510.300 1364.439 C 508.760 1365.287, 504.125 1368.456, 500 1371.480 C 487.508 1380.637, 485.641 1381.264, 472.126 1380.831 C 461.669 1380.496, 459.796 1380.141, 453.500 1377.307 C 449.650 1375.573, 444.004 1373.062, 440.953 1371.726 C 437.902 1370.390, 433.255 1367.655, 430.626 1365.648 C 427.997 1363.642, 425.169 1362, 424.341 1362 C 423.513 1362, 420.655 1359.831, 417.990 1357.180 C 408.617 1347.856, 398.398 1347.585, 384.161 1356.285 C 381.048 1358.187, 374.749 1360.946, 370.164 1362.415 C 365.580 1363.883, 360.180 1366.143, 358.164 1367.436 C 351.243 1371.877, 344.375 1373.500, 332.500 1373.500 C 323.374 1373.500, 320.883 1373.159, 317.878 1371.500 C 313.699 1369.192, 302.330 1360.932, 297.088 1356.394 C 295.115 1354.686, 292.465 1352.746, 291.199 1352.082 C 288.676 1350.759, 278.351 1350.025, 270.500 1350.611 M 268.655 1379.829 C 267.745 1380.835, 267 1383.073, 267 1384.803 C 267 1387.275, 267.632 1388.275, 269.950 1389.474 C 278.593 1393.944, 291 1393.408, 291 1388.565 C 291 1386.002, 285.490 1380.517, 281.324 1378.933 C 277.121 1377.335, 270.487 1377.804, 268.655 1379.829 M 531.811 1386.431 C 529.192 1388.737, 525.439 1390.199, 513.844 1393.427 C 510.674 1394.309, 506.439 1396.462, 504.210 1398.325 C 500.450 1401.466, 499.527 1401.726, 487.366 1403.074 C 470.725 1404.918, 454.900 1404.776, 443 1402.675 C 434.096 1401.104, 433.280 1400.753, 430 1397.087 C 422.701 1388.930, 411.334 1384.145, 406.016 1386.992 C 399.801 1390.318, 405.583 1404, 413.204 1404 C 413.921 1404, 417.880 1405.688, 422.003 1407.750 L 429.500 1411.500 460 1411.684 C 493.748 1411.887, 499.332 1411.270, 510.164 1406.147 C 519.013 1401.961, 535.479 1399.470, 544.198 1400.997 C 559.489 1403.675, 565.447 1405.214, 570.251 1407.727 C 574.319 1409.853, 576.750 1410.408, 581.943 1410.396 C 585.549 1410.387, 589.507 1409.831, 590.738 1409.161 C 594.880 1406.906, 594.890 1400.082, 590.755 1397.869 C 587.760 1396.266, 571.165 1392.255, 560.196 1390.483 C 554.950 1389.635, 548.750 1387.893, 545.980 1386.490 C 539.789 1383.352, 535.328 1383.334, 531.811 1386.431 M 377.795 1389.502 C 375.758 1390.251, 371.933 1391.146, 369.295 1391.492 C 361.616 1392.498, 342.377 1398.926, 340.352 1401.163 C 338.564 1403.139, 338.578 1403.240, 340.869 1405.095 C 343.684 1407.374, 350.234 1407.619, 355.128 1405.628 C 356.983 1404.874, 362.100 1403.952, 366.500 1403.578 C 380.971 1402.351, 387 1399.282, 387 1393.144 C 387 1388.082, 384.429 1387.065, 377.795 1389.502 M 298.218 1396.173 C 298.458 1396.903, 299.906 1397.647, 301.436 1397.827 C 303.397 1398.057, 304.089 1397.762, 303.782 1396.827 C 303.542 1396.097, 302.094 1395.353, 300.564 1395.173 C 298.603 1394.943, 297.911 1395.238, 298.218 1396.173 M 621 1458.092 C 617.975 1459.687, 608.975 1462.757, 601 1464.913 C 593.025 1467.069, 583.945 1469.765, 580.822 1470.904 C 577.699 1472.044, 569.374 1473.663, 562.322 1474.504 C 555.270 1475.344, 542.975 1476.904, 535 1477.969 C 501.888 1482.393, 443.417 1483.214, 418 1479.612 C 412.225 1478.793, 401.200 1477.614, 393.500 1476.992 C 371.600 1475.221, 353.157 1472.387, 345.288 1469.583 C 341.321 1468.170, 333.485 1466.324, 327.874 1465.481 C 322.264 1464.638, 313.675 1462.565, 308.789 1460.873 C 301.019 1458.183, 299.535 1457.950, 296.961 1459.016 C 289.472 1462.118, 287.231 1474.280, 292.175 1485 C 293.570 1488.025, 295.564 1491.200, 296.606 1492.055 C 300.362 1495.138, 316.571 1501.249, 326.927 1503.486 C 332.742 1504.743, 341.483 1506.946, 346.352 1508.382 C 351.220 1509.819, 358.073 1511.453, 361.581 1512.013 C 369.356 1513.255, 413.789 1518.383, 431.064 1520.032 C 446.105 1521.468, 516.288 1520.806, 525.500 1519.142 C 528.800 1518.546, 535.325 1517.607, 540 1517.055 C 567.604 1513.800, 572.720 1512.789, 589.500 1507.272 C 610.873 1500.244, 629.895 1492.678, 632.500 1490.169 C 633.600 1489.109, 636.243 1486.135, 638.373 1483.559 C 641.800 1479.417, 642.186 1478.421, 641.716 1474.922 C 641.181 1470.932, 636.067 1459.985, 633.227 1456.750 C 631.082 1454.307, 627.416 1454.710, 621 1458.092" stroke="none" fill="#1a1a1a" fill-rule="evenodd"/>
</svg>